G04 #@! TF.GenerationSoftware,KiCad,Pcbnew,(6.0.6)*
G04 #@! TF.CreationDate,2022-10-22T18:45:05+02:00*
G04 #@! TF.ProjectId,ADXL PCB,4144584c-2050-4434-922e-6b696361645f,rev?*
G04 #@! TF.SameCoordinates,Original*
G04 #@! TF.FileFunction,Soldermask,Top*
G04 #@! TF.FilePolarity,Negative*
%FSLAX46Y46*%
G04 Gerber Fmt 4.6, Leading zero omitted, Abs format (unit mm)*
G04 Created by KiCad (PCBNEW (6.0.6)) date 2022-10-22 18:45:05*
%MOMM*%
%LPD*%
G01*
G04 APERTURE LIST*
G04 Aperture macros list*
%AMRoundRect*
0 Rectangle with rounded corners*
0 $1 Rounding radius*
0 $2 $3 $4 $5 $6 $7 $8 $9 X,Y pos of 4 corners*
0 Add a 4 corners polygon primitive as box body*
4,1,4,$2,$3,$4,$5,$6,$7,$8,$9,$2,$3,0*
0 Add four circle primitives for the rounded corners*
1,1,$1+$1,$2,$3*
1,1,$1+$1,$4,$5*
1,1,$1+$1,$6,$7*
1,1,$1+$1,$8,$9*
0 Add four rect primitives between the rounded corners*
20,1,$1+$1,$2,$3,$4,$5,0*
20,1,$1+$1,$4,$5,$6,$7,0*
20,1,$1+$1,$6,$7,$8,$9,0*
20,1,$1+$1,$8,$9,$2,$3,0*%
G04 Aperture macros list end*
%ADD10C,3.800000*%
%ADD11RoundRect,0.100000X-0.100000X0.217500X-0.100000X-0.217500X0.100000X-0.217500X0.100000X0.217500X0*%
%ADD12RoundRect,0.160000X-0.197500X-0.160000X0.197500X-0.160000X0.197500X0.160000X-0.197500X0.160000X0*%
%ADD13RoundRect,0.237500X0.300000X0.237500X-0.300000X0.237500X-0.300000X-0.237500X0.300000X-0.237500X0*%
%ADD14RoundRect,0.100000X-0.217500X-0.100000X0.217500X-0.100000X0.217500X0.100000X-0.217500X0.100000X0*%
%ADD15RoundRect,0.100000X0.217500X0.100000X-0.217500X0.100000X-0.217500X-0.100000X0.217500X-0.100000X0*%
%ADD16RoundRect,0.155000X0.155000X-0.212500X0.155000X0.212500X-0.155000X0.212500X-0.155000X-0.212500X0*%
%ADD17RoundRect,0.160000X-0.160000X0.197500X-0.160000X-0.197500X0.160000X-0.197500X0.160000X0.197500X0*%
%ADD18R,1.000000X1.000000*%
%ADD19O,1.000000X1.000000*%
%ADD20R,0.850000X0.200000*%
%ADD21R,0.200000X0.850000*%
%ADD22R,3.200000X3.200000*%
%ADD23RoundRect,0.160000X0.197500X0.160000X-0.197500X0.160000X-0.197500X-0.160000X0.197500X-0.160000X0*%
%ADD24RoundRect,0.250000X-0.450000X0.325000X-0.450000X-0.325000X0.450000X-0.325000X0.450000X0.325000X0*%
%ADD25RoundRect,0.237500X-0.237500X0.300000X-0.237500X-0.300000X0.237500X-0.300000X0.237500X0.300000X0*%
%ADD26R,0.550000X1.145000*%
%ADD27R,1.145000X0.550000*%
%ADD28RoundRect,0.237500X-0.300000X-0.237500X0.300000X-0.237500X0.300000X0.237500X-0.300000X0.237500X0*%
%ADD29R,0.762000X0.254000*%
%ADD30R,1.244600X2.057400*%
%ADD31RoundRect,0.100000X0.100000X-0.217500X0.100000X0.217500X-0.100000X0.217500X-0.100000X-0.217500X0*%
%ADD32RoundRect,0.147500X-0.172500X0.147500X-0.172500X-0.147500X0.172500X-0.147500X0.172500X0.147500X0*%
%ADD33R,1.120000X1.240000*%
%ADD34R,0.800000X0.900000*%
%ADD35RoundRect,0.250000X-0.337500X-0.475000X0.337500X-0.475000X0.337500X0.475000X-0.337500X0.475000X0*%
%ADD36R,0.500000X0.350000*%
%ADD37RoundRect,0.155000X-0.212500X-0.155000X0.212500X-0.155000X0.212500X0.155000X-0.212500X0.155000X0*%
%ADD38RoundRect,0.075000X0.075000X-0.212500X0.075000X0.212500X-0.075000X0.212500X-0.075000X-0.212500X0*%
%ADD39R,1.350000X0.400000*%
%ADD40R,1.900000X1.500000*%
%ADD41C,1.450000*%
%ADD42R,1.900000X1.200000*%
%ADD43O,1.900000X1.200000*%
%ADD44C,0.750000*%
%ADD45R,1.450000X1.000000*%
%ADD46R,0.900000X0.300000*%
%ADD47R,0.250000X1.650000*%
G04 APERTURE END LIST*
D10*
X141986000Y-95250000D03*
D11*
X161290000Y-100376500D03*
X161290000Y-101191500D03*
D12*
X148554500Y-118618000D03*
X149749500Y-118618000D03*
D13*
X148690500Y-111506000D03*
X146965500Y-111506000D03*
D14*
X150722500Y-104231000D03*
X151537500Y-104231000D03*
D10*
X165608000Y-95504000D03*
D15*
X163475500Y-116332000D03*
X162660500Y-116332000D03*
D16*
X164084000Y-101151500D03*
X164084000Y-100016500D03*
D14*
X145542000Y-98044000D03*
X146357000Y-98044000D03*
D13*
X146912500Y-113284000D03*
X145187500Y-113284000D03*
D17*
X147574000Y-105828500D03*
X147574000Y-107023500D03*
D18*
X157983000Y-117602000D03*
D19*
X159253000Y-117602000D03*
X160523000Y-117602000D03*
D14*
X161698500Y-94488000D03*
X162513500Y-94488000D03*
D20*
X155808000Y-103826000D03*
X155808000Y-104226000D03*
X155808000Y-104626000D03*
X155808000Y-105026000D03*
X155808000Y-105426000D03*
X155808000Y-105826000D03*
X155808000Y-106226000D03*
X155808000Y-106626000D03*
X155808000Y-107026000D03*
X155808000Y-107426000D03*
X155808000Y-107826000D03*
X155808000Y-108226000D03*
X155808000Y-108626000D03*
X155808000Y-109026000D03*
D21*
X156658000Y-109876000D03*
X157058000Y-109876000D03*
X157458000Y-109876000D03*
X157858000Y-109876000D03*
X158258000Y-109876000D03*
X158658000Y-109876000D03*
X159058000Y-109876000D03*
X159458000Y-109876000D03*
X159858000Y-109876000D03*
X160258000Y-109876000D03*
X160658000Y-109876000D03*
X161058000Y-109876000D03*
X161458000Y-109876000D03*
X161858000Y-109876000D03*
D20*
X162708000Y-109026000D03*
X162708000Y-108626000D03*
X162708000Y-108226000D03*
X162708000Y-107826000D03*
X162708000Y-107426000D03*
X162708000Y-107026000D03*
X162708000Y-106626000D03*
X162708000Y-106226000D03*
X162708000Y-105826000D03*
X162708000Y-105426000D03*
X162708000Y-105026000D03*
X162708000Y-104626000D03*
X162708000Y-104226000D03*
X162708000Y-103826000D03*
D21*
X161858000Y-102976000D03*
X161458000Y-102976000D03*
X161058000Y-102976000D03*
X160658000Y-102976000D03*
X160258000Y-102976000D03*
X159858000Y-102976000D03*
X159458000Y-102976000D03*
X159058000Y-102976000D03*
X158658000Y-102976000D03*
X158258000Y-102976000D03*
X157858000Y-102976000D03*
X157458000Y-102976000D03*
X157058000Y-102976000D03*
X156658000Y-102976000D03*
D22*
X159258000Y-106426000D03*
D10*
X165862000Y-119126000D03*
D23*
X166671500Y-110998000D03*
X165476500Y-110998000D03*
D12*
X154596500Y-93726000D03*
X155791500Y-93726000D03*
D24*
X140716000Y-98543000D03*
X140716000Y-100593000D03*
D25*
X149098000Y-97689500D03*
X149098000Y-99414500D03*
D26*
X149136000Y-101691000D03*
X148336000Y-101691000D03*
X147536000Y-101691000D03*
X146736000Y-101691000D03*
X145936000Y-101691000D03*
X145136000Y-101691000D03*
D27*
X145038500Y-102788500D03*
D26*
X145136000Y-103886000D03*
X145936000Y-103886000D03*
X146736000Y-103886000D03*
X147536000Y-103886000D03*
X148336000Y-103886000D03*
X149136000Y-103886000D03*
D27*
X149233500Y-102788500D03*
D28*
X145087000Y-99913000D03*
X146812000Y-99913000D03*
D12*
X140372500Y-102362000D03*
X141567500Y-102362000D03*
D24*
X167132000Y-98797000D03*
X167132000Y-100847000D03*
D14*
X150722500Y-102707000D03*
X151537500Y-102707000D03*
D29*
X144068800Y-115077999D03*
X144068800Y-115578001D03*
X144068800Y-116078000D03*
X144068800Y-116577999D03*
X144068800Y-117078001D03*
X146507200Y-117078001D03*
X146507200Y-116577999D03*
X146507200Y-116078000D03*
X146507200Y-115578001D03*
X146507200Y-115077999D03*
D30*
X145288000Y-116078000D03*
D16*
X162814000Y-101151500D03*
X162814000Y-100016500D03*
D23*
X167475500Y-102616000D03*
X166280500Y-102616000D03*
D31*
X163576000Y-114961500D03*
X163576000Y-114146500D03*
X158242000Y-101191500D03*
X158242000Y-100376500D03*
D11*
X160528000Y-111606500D03*
X160528000Y-112421500D03*
D31*
X159258000Y-101191500D03*
X159258000Y-100376500D03*
D14*
X164472500Y-103886000D03*
X165287500Y-103886000D03*
D23*
X166671500Y-112330000D03*
X165476500Y-112330000D03*
D32*
X142240000Y-115085000D03*
X142240000Y-116055000D03*
D33*
X154432000Y-119102000D03*
X154432000Y-116102000D03*
D11*
X160274000Y-100376500D03*
X160274000Y-101191500D03*
D34*
X165270000Y-114362000D03*
X165270000Y-115762000D03*
X166370000Y-115762000D03*
X166370000Y-114362000D03*
D35*
X148894500Y-116840000D03*
X150969500Y-116840000D03*
D14*
X164472500Y-107696000D03*
X165287500Y-107696000D03*
D15*
X149005500Y-108966000D03*
X148190500Y-108966000D03*
D12*
X154596500Y-95250000D03*
X155791500Y-95250000D03*
D36*
X150613000Y-111719000D03*
X150613000Y-111069000D03*
X150613000Y-110419000D03*
X150613000Y-109769000D03*
X152663000Y-109769000D03*
X152663000Y-110419000D03*
X152663000Y-111069000D03*
X152663000Y-111719000D03*
D35*
X148894500Y-114554000D03*
X150969500Y-114554000D03*
D37*
X161738500Y-96288000D03*
X162873500Y-96288000D03*
D38*
X146304000Y-106509500D03*
X146304000Y-105834500D03*
D39*
X143194500Y-108428000D03*
X143194500Y-109078000D03*
X143194500Y-109728000D03*
X143194500Y-110378000D03*
X143194500Y-111028000D03*
D40*
X140494500Y-108728000D03*
D41*
X143194500Y-112228000D03*
D42*
X140494500Y-112628000D03*
D43*
X140494500Y-106228000D03*
D40*
X140494500Y-110728000D03*
D43*
X140494500Y-113228000D03*
D42*
X140494500Y-106828000D03*
D41*
X143194500Y-107228000D03*
D44*
X149606000Y-93113000D03*
X149606000Y-95863000D03*
D45*
X152181000Y-93638000D03*
X147031000Y-93638000D03*
X147031000Y-95338000D03*
X152181000Y-95338000D03*
D11*
X159258000Y-111606500D03*
X159258000Y-112421500D03*
D10*
X141986000Y-119126000D03*
D15*
X154077500Y-103886000D03*
X153262500Y-103886000D03*
D46*
X157350000Y-94754000D03*
X157350000Y-95254000D03*
X157350000Y-95754000D03*
X157350000Y-96254000D03*
X160150000Y-96254000D03*
X160150000Y-95754000D03*
X160150000Y-95254000D03*
X160150000Y-94754000D03*
D47*
X158750000Y-95504000D03*
D15*
X149005500Y-109982000D03*
X148190500Y-109982000D03*
D12*
X148554500Y-119888000D03*
X149749500Y-119888000D03*
D15*
X154077500Y-107442000D03*
X153262500Y-107442000D03*
M02*
