G04 #@! TF.GenerationSoftware,KiCad,Pcbnew,(6.0.6)*
G04 #@! TF.CreationDate,2022-10-22T18:45:05+02:00*
G04 #@! TF.ProjectId,ADXL PCB,4144584c-2050-4434-922e-6b696361645f,rev?*
G04 #@! TF.SameCoordinates,Original*
G04 #@! TF.FileFunction,Legend,Top*
G04 #@! TF.FilePolarity,Positive*
%FSLAX46Y46*%
G04 Gerber Fmt 4.6, Leading zero omitted, Abs format (unit mm)*
G04 Created by KiCad (PCBNEW (6.0.6)) date 2022-10-22 18:45:05*
%MOMM*%
%LPD*%
G01*
G04 APERTURE LIST*
%ADD10C,0.150000*%
%ADD11C,0.120000*%
%ADD12C,0.200000*%
%ADD13C,0.100000*%
%ADD14C,0.250000*%
G04 APERTURE END LIST*
D10*
X150018952Y-101766666D02*
X150495142Y-101766666D01*
X149923714Y-102052380D02*
X150257047Y-101052380D01*
X150590380Y-102052380D01*
X150923714Y-102052380D02*
X150923714Y-101052380D01*
X151161809Y-101052380D01*
X151304666Y-101100000D01*
X151399904Y-101195238D01*
X151447523Y-101290476D01*
X151495142Y-101480952D01*
X151495142Y-101623809D01*
X151447523Y-101814285D01*
X151399904Y-101909523D01*
X151304666Y-102004761D01*
X151161809Y-102052380D01*
X150923714Y-102052380D01*
X151828476Y-101052380D02*
X152495142Y-102052380D01*
X152495142Y-101052380D02*
X151828476Y-102052380D01*
X153352285Y-102052380D02*
X152876095Y-102052380D01*
X152876095Y-101052380D01*
X150685619Y-112958571D02*
X150828476Y-113006190D01*
X150876095Y-113053809D01*
X150923714Y-113149047D01*
X150923714Y-113291904D01*
X150876095Y-113387142D01*
X150828476Y-113434761D01*
X150733238Y-113482380D01*
X150352285Y-113482380D01*
X150352285Y-112482380D01*
X150685619Y-112482380D01*
X150780857Y-112530000D01*
X150828476Y-112577619D01*
X150876095Y-112672857D01*
X150876095Y-112768095D01*
X150828476Y-112863333D01*
X150780857Y-112910952D01*
X150685619Y-112958571D01*
X150352285Y-112958571D01*
X151352285Y-113482380D02*
X151352285Y-112482380D01*
X151685619Y-113196666D01*
X152018952Y-112482380D01*
X152018952Y-113482380D01*
X152495142Y-112958571D02*
X152828476Y-112958571D01*
X152971333Y-113482380D02*
X152495142Y-113482380D01*
X152495142Y-112482380D01*
X152971333Y-112482380D01*
X164949238Y-98345809D02*
X164901619Y-98488666D01*
X164901619Y-98726761D01*
X164949238Y-98822000D01*
X164996857Y-98869619D01*
X165092095Y-98917238D01*
X165187333Y-98917238D01*
X165282571Y-98869619D01*
X165330190Y-98822000D01*
X165377809Y-98726761D01*
X165425428Y-98536285D01*
X165473047Y-98441047D01*
X165520666Y-98393428D01*
X165615904Y-98345809D01*
X165711142Y-98345809D01*
X165806380Y-98393428D01*
X165854000Y-98441047D01*
X165901619Y-98536285D01*
X165901619Y-98774380D01*
X165854000Y-98917238D01*
X165901619Y-99202952D02*
X165901619Y-99774380D01*
X164901619Y-99488666D02*
X165901619Y-99488666D01*
X165187333Y-100060095D02*
X165187333Y-100536285D01*
X164901619Y-99964857D02*
X165901619Y-100298190D01*
X164901619Y-100631523D01*
X165901619Y-100822000D02*
X165901619Y-101393428D01*
X164901619Y-101107714D02*
X165901619Y-101107714D01*
X145740380Y-119840285D02*
X145740380Y-120316476D01*
X144740380Y-120316476D01*
X145740380Y-119506952D02*
X144740380Y-119506952D01*
X144740380Y-119268857D01*
X144788000Y-119126000D01*
X144883238Y-119030761D01*
X144978476Y-118983142D01*
X145168952Y-118935523D01*
X145311809Y-118935523D01*
X145502285Y-118983142D01*
X145597523Y-119030761D01*
X145692761Y-119126000D01*
X145740380Y-119268857D01*
X145740380Y-119506952D01*
X144740380Y-118316476D02*
X144740380Y-118126000D01*
X144788000Y-118030761D01*
X144883238Y-117935523D01*
X145073714Y-117887904D01*
X145407047Y-117887904D01*
X145597523Y-117935523D01*
X145692761Y-118030761D01*
X145740380Y-118126000D01*
X145740380Y-118316476D01*
X145692761Y-118411714D01*
X145597523Y-118506952D01*
X145407047Y-118554571D01*
X145073714Y-118554571D01*
X144883238Y-118506952D01*
X144788000Y-118411714D01*
X144740380Y-118316476D01*
X157019904Y-120594380D02*
X157019904Y-119594380D01*
X157258000Y-119594380D01*
X157400857Y-119642000D01*
X157496095Y-119737238D01*
X157543714Y-119832476D01*
X157591333Y-120022952D01*
X157591333Y-120165809D01*
X157543714Y-120356285D01*
X157496095Y-120451523D01*
X157400857Y-120546761D01*
X157258000Y-120594380D01*
X157019904Y-120594380D01*
X158019904Y-120070571D02*
X158353238Y-120070571D01*
X158496095Y-120594380D02*
X158019904Y-120594380D01*
X158019904Y-119594380D01*
X158496095Y-119594380D01*
X159258000Y-120070571D02*
X159400857Y-120118190D01*
X159448476Y-120165809D01*
X159496095Y-120261047D01*
X159496095Y-120403904D01*
X159448476Y-120499142D01*
X159400857Y-120546761D01*
X159305619Y-120594380D01*
X158924666Y-120594380D01*
X158924666Y-119594380D01*
X159258000Y-119594380D01*
X159353238Y-119642000D01*
X159400857Y-119689619D01*
X159448476Y-119784857D01*
X159448476Y-119880095D01*
X159400857Y-119975333D01*
X159353238Y-120022952D01*
X159258000Y-120070571D01*
X158924666Y-120070571D01*
X159924666Y-119594380D02*
X159924666Y-120403904D01*
X159972285Y-120499142D01*
X160019904Y-120546761D01*
X160115142Y-120594380D01*
X160305619Y-120594380D01*
X160400857Y-120546761D01*
X160448476Y-120499142D01*
X160496095Y-120403904D01*
X160496095Y-119594380D01*
X161496095Y-119642000D02*
X161400857Y-119594380D01*
X161258000Y-119594380D01*
X161115142Y-119642000D01*
X161019904Y-119737238D01*
X160972285Y-119832476D01*
X160924666Y-120022952D01*
X160924666Y-120165809D01*
X160972285Y-120356285D01*
X161019904Y-120451523D01*
X161115142Y-120546761D01*
X161258000Y-120594380D01*
X161353238Y-120594380D01*
X161496095Y-120546761D01*
X161543714Y-120499142D01*
X161543714Y-120165809D01*
X161353238Y-120165809D01*
X157837142Y-115260381D02*
X157884761Y-115308000D01*
X157932380Y-115450857D01*
X157932380Y-115546095D01*
X157884761Y-115688952D01*
X157789523Y-115784190D01*
X157694285Y-115831809D01*
X157503809Y-115879428D01*
X157360952Y-115879428D01*
X157170476Y-115831809D01*
X157075238Y-115784190D01*
X156980000Y-115688952D01*
X156932380Y-115546095D01*
X156932380Y-115450857D01*
X156980000Y-115308000D01*
X157027619Y-115260381D01*
X157932380Y-114355619D02*
X157932380Y-114831809D01*
X156932380Y-114831809D01*
X157932380Y-114022285D02*
X156932380Y-114022285D01*
X157932380Y-113450857D02*
X157360952Y-113879428D01*
X156932380Y-113450857D02*
X157503809Y-114022285D01*
X144486380Y-110989904D02*
X145295904Y-110989904D01*
X145391142Y-110942285D01*
X145438761Y-110894666D01*
X145486380Y-110799428D01*
X145486380Y-110608952D01*
X145438761Y-110513714D01*
X145391142Y-110466095D01*
X145295904Y-110418476D01*
X144486380Y-110418476D01*
X145438761Y-109989904D02*
X145486380Y-109847047D01*
X145486380Y-109608952D01*
X145438761Y-109513714D01*
X145391142Y-109466095D01*
X145295904Y-109418476D01*
X145200666Y-109418476D01*
X145105428Y-109466095D01*
X145057809Y-109513714D01*
X145010190Y-109608952D01*
X144962571Y-109799428D01*
X144914952Y-109894666D01*
X144867333Y-109942285D01*
X144772095Y-109989904D01*
X144676857Y-109989904D01*
X144581619Y-109942285D01*
X144534000Y-109894666D01*
X144486380Y-109799428D01*
X144486380Y-109561333D01*
X144534000Y-109418476D01*
X144962571Y-108656571D02*
X145010190Y-108513714D01*
X145057809Y-108466095D01*
X145153047Y-108418476D01*
X145295904Y-108418476D01*
X145391142Y-108466095D01*
X145438761Y-108513714D01*
X145486380Y-108608952D01*
X145486380Y-108989904D01*
X144486380Y-108989904D01*
X144486380Y-108656571D01*
X144534000Y-108561333D01*
X144581619Y-108513714D01*
X144676857Y-108466095D01*
X144772095Y-108466095D01*
X144867333Y-108513714D01*
X144914952Y-108561333D01*
X144962571Y-108656571D01*
X144962571Y-108989904D01*
X161488380Y-115831809D02*
X160488380Y-115831809D01*
X160488380Y-115593714D01*
X160536000Y-115450857D01*
X160631238Y-115355619D01*
X160726476Y-115308000D01*
X160916952Y-115260380D01*
X161059809Y-115260380D01*
X161250285Y-115308000D01*
X161345523Y-115355619D01*
X161440761Y-115450857D01*
X161488380Y-115593714D01*
X161488380Y-115831809D01*
X161488380Y-114831809D02*
X160488380Y-114831809D01*
X160488380Y-114165142D02*
X160488380Y-113974666D01*
X160536000Y-113879428D01*
X160631238Y-113784190D01*
X160821714Y-113736571D01*
X161155047Y-113736571D01*
X161345523Y-113784190D01*
X161440761Y-113879428D01*
X161488380Y-113974666D01*
X161488380Y-114165142D01*
X161440761Y-114260380D01*
X161345523Y-114355619D01*
X161155047Y-114403238D01*
X160821714Y-114403238D01*
X160631238Y-114355619D01*
X160536000Y-114260380D01*
X160488380Y-114165142D01*
X144962571Y-96099142D02*
X145010190Y-95956285D01*
X145057809Y-95908666D01*
X145153047Y-95861047D01*
X145295904Y-95861047D01*
X145391142Y-95908666D01*
X145438761Y-95956285D01*
X145486380Y-96051523D01*
X145486380Y-96432476D01*
X144486380Y-96432476D01*
X144486380Y-96099142D01*
X144534000Y-96003904D01*
X144581619Y-95956285D01*
X144676857Y-95908666D01*
X144772095Y-95908666D01*
X144867333Y-95956285D01*
X144914952Y-96003904D01*
X144962571Y-96099142D01*
X144962571Y-96432476D01*
X144486380Y-95242000D02*
X144486380Y-95051523D01*
X144534000Y-94956285D01*
X144629238Y-94861047D01*
X144819714Y-94813428D01*
X145153047Y-94813428D01*
X145343523Y-94861047D01*
X145438761Y-94956285D01*
X145486380Y-95051523D01*
X145486380Y-95242000D01*
X145438761Y-95337238D01*
X145343523Y-95432476D01*
X145153047Y-95480095D01*
X144819714Y-95480095D01*
X144629238Y-95432476D01*
X144534000Y-95337238D01*
X144486380Y-95242000D01*
X144486380Y-94194380D02*
X144486380Y-94003904D01*
X144534000Y-93908666D01*
X144629238Y-93813428D01*
X144819714Y-93765809D01*
X145153047Y-93765809D01*
X145343523Y-93813428D01*
X145438761Y-93908666D01*
X145486380Y-94003904D01*
X145486380Y-94194380D01*
X145438761Y-94289619D01*
X145343523Y-94384857D01*
X145153047Y-94432476D01*
X144819714Y-94432476D01*
X144629238Y-94384857D01*
X144534000Y-94289619D01*
X144486380Y-94194380D01*
X144486380Y-93480095D02*
X144486380Y-92908666D01*
X145486380Y-93194380D02*
X144486380Y-93194380D01*
X156805523Y-97464571D02*
X156472190Y-97464571D01*
X156472190Y-97988380D02*
X156472190Y-96988380D01*
X156948380Y-96988380D01*
X157805523Y-97988380D02*
X157329333Y-97988380D01*
X157329333Y-96988380D01*
X158091238Y-97702666D02*
X158567428Y-97702666D01*
X157996000Y-97988380D02*
X158329333Y-96988380D01*
X158662666Y-97988380D01*
X158948380Y-97940761D02*
X159091238Y-97988380D01*
X159329333Y-97988380D01*
X159424571Y-97940761D01*
X159472190Y-97893142D01*
X159519809Y-97797904D01*
X159519809Y-97702666D01*
X159472190Y-97607428D01*
X159424571Y-97559809D01*
X159329333Y-97512190D01*
X159138857Y-97464571D01*
X159043619Y-97416952D01*
X158996000Y-97369333D01*
X158948380Y-97274095D01*
X158948380Y-97178857D01*
X158996000Y-97083619D01*
X159043619Y-97036000D01*
X159138857Y-96988380D01*
X159376952Y-96988380D01*
X159519809Y-97036000D01*
X159948380Y-97988380D02*
X159948380Y-96988380D01*
X159948380Y-97464571D02*
X160519809Y-97464571D01*
X160519809Y-97988380D02*
X160519809Y-96988380D01*
X158758000Y-115308000D02*
X158710380Y-115403238D01*
X158710380Y-115546096D01*
X158758000Y-115688953D01*
X158853238Y-115784191D01*
X158948476Y-115831810D01*
X159138952Y-115879429D01*
X159281809Y-115879429D01*
X159472285Y-115831810D01*
X159567523Y-115784191D01*
X159662761Y-115688953D01*
X159710380Y-115546096D01*
X159710380Y-115450857D01*
X159662761Y-115308000D01*
X159615142Y-115260381D01*
X159281809Y-115260381D01*
X159281809Y-115450857D01*
X159710380Y-114831810D02*
X158710380Y-114831810D01*
X159710380Y-114260381D01*
X158710380Y-114260381D01*
X159710380Y-113784191D02*
X158710380Y-113784191D01*
X158710380Y-113546096D01*
X158758000Y-113403238D01*
X158853238Y-113308000D01*
X158948476Y-113260381D01*
X159138952Y-113212762D01*
X159281809Y-113212762D01*
X159472285Y-113260381D01*
X159567523Y-113308000D01*
X159662761Y-113403238D01*
X159710380Y-113546096D01*
X159710380Y-113784191D01*
X142946380Y-100901333D02*
X141946380Y-100901333D01*
X141946380Y-100520380D01*
X141994000Y-100425142D01*
X142041619Y-100377523D01*
X142136857Y-100329904D01*
X142279714Y-100329904D01*
X142374952Y-100377523D01*
X142422571Y-100425142D01*
X142470190Y-100520380D01*
X142470190Y-100901333D01*
X141946380Y-99996571D02*
X142946380Y-99758476D01*
X142232095Y-99568000D01*
X142946380Y-99377523D01*
X141946380Y-99139428D01*
X142946380Y-98187047D02*
X142470190Y-98520380D01*
X142946380Y-98758476D02*
X141946380Y-98758476D01*
X141946380Y-98377523D01*
X141994000Y-98282285D01*
X142041619Y-98234666D01*
X142136857Y-98187047D01*
X142279714Y-98187047D01*
X142374952Y-98234666D01*
X142422571Y-98282285D01*
X142470190Y-98377523D01*
X142470190Y-98758476D01*
X143256000Y-114260380D02*
X143256000Y-114498476D01*
X143017904Y-114403238D02*
X143256000Y-114498476D01*
X143494095Y-114403238D01*
X143113142Y-114688952D02*
X143256000Y-114498476D01*
X143398857Y-114688952D01*
X141422380Y-115736666D02*
X141422380Y-116212857D01*
X140422380Y-116212857D01*
X141422380Y-114879523D02*
X141422380Y-115450952D01*
X141422380Y-115165238D02*
X140422380Y-115165238D01*
X140565238Y-115260476D01*
X140660476Y-115355714D01*
X140708095Y-115450952D01*
X167796190Y-115538190D02*
X168272380Y-115538190D01*
X167272380Y-115871523D02*
X167796190Y-115538190D01*
X167272380Y-115204857D01*
X168272380Y-114347714D02*
X168272380Y-114919142D01*
X168272380Y-114633428D02*
X167272380Y-114633428D01*
X167415238Y-114728666D01*
X167510476Y-114823904D01*
X167558095Y-114919142D01*
D11*
X148984379Y-118238000D02*
X149319621Y-118238000D01*
X148984379Y-118998000D02*
X149319621Y-118998000D01*
X147974267Y-112016000D02*
X147681733Y-112016000D01*
X147974267Y-110996000D02*
X147681733Y-110996000D01*
X164444000Y-100699835D02*
X164444000Y-100468165D01*
X163724000Y-100699835D02*
X163724000Y-100468165D01*
X146196267Y-112774000D02*
X145903733Y-112774000D01*
X146196267Y-113794000D02*
X145903733Y-113794000D01*
X147194000Y-106258379D02*
X147194000Y-106593621D01*
X147954000Y-106258379D02*
X147954000Y-106593621D01*
X161218000Y-118712000D02*
X161218000Y-117909530D01*
X158743000Y-117038529D02*
X158743000Y-116492000D01*
X158743000Y-116492000D02*
X161218000Y-116492000D01*
X161218000Y-117294470D02*
X161218000Y-116492000D01*
X158743000Y-118712000D02*
X158743000Y-118165471D01*
X157223000Y-118712000D02*
X157223000Y-117602000D01*
X158743000Y-118712000D02*
X161218000Y-118712000D01*
X157983000Y-118712000D02*
X157223000Y-118712000D01*
D12*
X155483000Y-103226000D02*
G75*
G03*
X155483000Y-103226000I-100000J0D01*
G01*
D11*
X166241621Y-111378000D02*
X165906379Y-111378000D01*
X166241621Y-110618000D02*
X165906379Y-110618000D01*
X155026379Y-94106000D02*
X155361621Y-94106000D01*
X155026379Y-93346000D02*
X155361621Y-93346000D01*
X139756000Y-97708000D02*
X139756000Y-100568000D01*
X141676000Y-97708000D02*
X139756000Y-97708000D01*
X141676000Y-100568000D02*
X141676000Y-97708000D01*
X148588000Y-98405733D02*
X148588000Y-98698267D01*
X149608000Y-98405733D02*
X149608000Y-98698267D01*
D13*
X149636000Y-101288500D02*
X149636000Y-102182000D01*
X149636000Y-103395000D02*
X149636000Y-104288500D01*
X144636000Y-101288500D02*
X144636000Y-102182000D01*
X144636000Y-103395000D02*
X144636000Y-104288500D01*
D12*
X149236000Y-100688500D02*
G75*
G03*
X149236000Y-100688500I-100000J0D01*
G01*
D11*
X145803233Y-99403000D02*
X146095767Y-99403000D01*
X145803233Y-100423000D02*
X146095767Y-100423000D01*
X140802379Y-102742000D02*
X141137621Y-102742000D01*
X140802379Y-101982000D02*
X141137621Y-101982000D01*
X168092000Y-100822000D02*
X168092000Y-97962000D01*
X166172000Y-97962000D02*
X166172000Y-100822000D01*
X168092000Y-97962000D02*
X166172000Y-97962000D01*
X144602950Y-117500400D02*
X145973050Y-117500400D01*
X145973050Y-114655600D02*
X144602950Y-114655600D01*
X143238600Y-115078000D02*
G75*
G03*
X143238600Y-115078000I-101600J0D01*
G01*
X163174000Y-100699835D02*
X163174000Y-100468165D01*
X162454000Y-100699835D02*
X162454000Y-100468165D01*
X167045621Y-102236000D02*
X166710379Y-102236000D01*
X167045621Y-102996000D02*
X166710379Y-102996000D01*
X166241621Y-111950000D02*
X165906379Y-111950000D01*
X166241621Y-112710000D02*
X165906379Y-112710000D01*
D12*
X153607000Y-119722000D02*
X153607000Y-116252000D01*
X155257000Y-118952000D02*
X155257000Y-116252000D01*
D11*
X166970000Y-113712000D02*
X164670000Y-113712000D01*
X164670000Y-113712000D02*
X164670000Y-116412000D01*
X149670748Y-117575000D02*
X150193252Y-117575000D01*
X149670748Y-116105000D02*
X150193252Y-116105000D01*
X155026379Y-95630000D02*
X155361621Y-95630000D01*
X155026379Y-94870000D02*
X155361621Y-94870000D01*
D13*
X152998000Y-112094000D02*
X152998000Y-111944000D01*
X150288000Y-109544000D02*
X150288000Y-109394000D01*
X150288000Y-109394000D02*
X150438000Y-109394000D01*
X150438000Y-112094000D02*
X150188000Y-112094000D01*
X152988000Y-109394000D02*
X152988000Y-109544000D01*
X152988000Y-112094000D02*
X152838000Y-112094000D01*
X152988000Y-109394000D02*
X152838000Y-109394000D01*
D11*
X149670748Y-115289000D02*
X150193252Y-115289000D01*
X149670748Y-113819000D02*
X150193252Y-113819000D01*
X162190165Y-96648000D02*
X162421835Y-96648000D01*
X162190165Y-95928000D02*
X162421835Y-95928000D01*
X144044500Y-108028000D02*
X143594500Y-108028000D01*
X139094500Y-113628000D02*
X139344500Y-113628000D01*
X141644500Y-105828000D02*
X143494500Y-105828000D01*
X143494500Y-105828000D02*
X143494500Y-106278000D01*
X139094500Y-105828000D02*
X139344500Y-105828000D01*
X141644500Y-113628000D02*
X143494500Y-113628000D01*
X144044500Y-108028000D02*
X144044500Y-108478000D01*
X143494500Y-113628000D02*
X143494500Y-113178000D01*
X148181000Y-92638000D02*
X147256000Y-92638000D01*
X151956000Y-92638000D02*
X151031000Y-92638000D01*
X152056000Y-94763000D02*
X152056000Y-94213000D01*
X147156000Y-94763000D02*
X147156000Y-94213000D01*
X151956000Y-96338000D02*
X147256000Y-96338000D01*
D14*
X157025000Y-94104000D02*
G75*
G03*
X157025000Y-94104000I-125000J0D01*
G01*
D11*
X148984379Y-119508000D02*
X149319621Y-119508000D01*
X148984379Y-120268000D02*
X149319621Y-120268000D01*
M02*
