G04 #@! TF.GenerationSoftware,KiCad,Pcbnew,(6.0.6)*
G04 #@! TF.CreationDate,2022-10-22T18:45:05+02:00*
G04 #@! TF.ProjectId,ADXL PCB,4144584c-2050-4434-922e-6b696361645f,rev?*
G04 #@! TF.SameCoordinates,Original*
G04 #@! TF.FileFunction,Copper,L1,Top*
G04 #@! TF.FilePolarity,Positive*
%FSLAX46Y46*%
G04 Gerber Fmt 4.6, Leading zero omitted, Abs format (unit mm)*
G04 Created by KiCad (PCBNEW (6.0.6)) date 2022-10-22 18:45:05*
%MOMM*%
%LPD*%
G01*
G04 APERTURE LIST*
G04 Aperture macros list*
%AMRoundRect*
0 Rectangle with rounded corners*
0 $1 Rounding radius*
0 $2 $3 $4 $5 $6 $7 $8 $9 X,Y pos of 4 corners*
0 Add a 4 corners polygon primitive as box body*
4,1,4,$2,$3,$4,$5,$6,$7,$8,$9,$2,$3,0*
0 Add four circle primitives for the rounded corners*
1,1,$1+$1,$2,$3*
1,1,$1+$1,$4,$5*
1,1,$1+$1,$6,$7*
1,1,$1+$1,$8,$9*
0 Add four rect primitives between the rounded corners*
20,1,$1+$1,$2,$3,$4,$5,0*
20,1,$1+$1,$4,$5,$6,$7,0*
20,1,$1+$1,$6,$7,$8,$9,0*
20,1,$1+$1,$8,$9,$2,$3,0*%
G04 Aperture macros list end*
G04 #@! TA.AperFunction,ComponentPad*
%ADD10C,3.800000*%
G04 #@! TD*
G04 #@! TA.AperFunction,SMDPad,CuDef*
%ADD11RoundRect,0.100000X-0.100000X0.217500X-0.100000X-0.217500X0.100000X-0.217500X0.100000X0.217500X0*%
G04 #@! TD*
G04 #@! TA.AperFunction,SMDPad,CuDef*
%ADD12RoundRect,0.160000X-0.197500X-0.160000X0.197500X-0.160000X0.197500X0.160000X-0.197500X0.160000X0*%
G04 #@! TD*
G04 #@! TA.AperFunction,SMDPad,CuDef*
%ADD13RoundRect,0.237500X0.300000X0.237500X-0.300000X0.237500X-0.300000X-0.237500X0.300000X-0.237500X0*%
G04 #@! TD*
G04 #@! TA.AperFunction,SMDPad,CuDef*
%ADD14RoundRect,0.100000X-0.217500X-0.100000X0.217500X-0.100000X0.217500X0.100000X-0.217500X0.100000X0*%
G04 #@! TD*
G04 #@! TA.AperFunction,SMDPad,CuDef*
%ADD15RoundRect,0.100000X0.217500X0.100000X-0.217500X0.100000X-0.217500X-0.100000X0.217500X-0.100000X0*%
G04 #@! TD*
G04 #@! TA.AperFunction,SMDPad,CuDef*
%ADD16RoundRect,0.155000X0.155000X-0.212500X0.155000X0.212500X-0.155000X0.212500X-0.155000X-0.212500X0*%
G04 #@! TD*
G04 #@! TA.AperFunction,SMDPad,CuDef*
%ADD17RoundRect,0.160000X-0.160000X0.197500X-0.160000X-0.197500X0.160000X-0.197500X0.160000X0.197500X0*%
G04 #@! TD*
G04 #@! TA.AperFunction,ComponentPad*
%ADD18R,1.000000X1.000000*%
G04 #@! TD*
G04 #@! TA.AperFunction,ComponentPad*
%ADD19O,1.000000X1.000000*%
G04 #@! TD*
G04 #@! TA.AperFunction,SMDPad,CuDef*
%ADD20R,0.850000X0.200000*%
G04 #@! TD*
G04 #@! TA.AperFunction,SMDPad,CuDef*
%ADD21R,0.200000X0.850000*%
G04 #@! TD*
G04 #@! TA.AperFunction,SMDPad,CuDef*
%ADD22R,3.200000X3.200000*%
G04 #@! TD*
G04 #@! TA.AperFunction,SMDPad,CuDef*
%ADD23RoundRect,0.160000X0.197500X0.160000X-0.197500X0.160000X-0.197500X-0.160000X0.197500X-0.160000X0*%
G04 #@! TD*
G04 #@! TA.AperFunction,SMDPad,CuDef*
%ADD24RoundRect,0.250000X-0.450000X0.325000X-0.450000X-0.325000X0.450000X-0.325000X0.450000X0.325000X0*%
G04 #@! TD*
G04 #@! TA.AperFunction,SMDPad,CuDef*
%ADD25RoundRect,0.237500X-0.237500X0.300000X-0.237500X-0.300000X0.237500X-0.300000X0.237500X0.300000X0*%
G04 #@! TD*
G04 #@! TA.AperFunction,SMDPad,CuDef*
%ADD26R,0.550000X1.145000*%
G04 #@! TD*
G04 #@! TA.AperFunction,SMDPad,CuDef*
%ADD27R,1.145000X0.550000*%
G04 #@! TD*
G04 #@! TA.AperFunction,SMDPad,CuDef*
%ADD28RoundRect,0.237500X-0.300000X-0.237500X0.300000X-0.237500X0.300000X0.237500X-0.300000X0.237500X0*%
G04 #@! TD*
G04 #@! TA.AperFunction,SMDPad,CuDef*
%ADD29R,0.762000X0.254000*%
G04 #@! TD*
G04 #@! TA.AperFunction,SMDPad,CuDef*
%ADD30R,1.244600X2.057400*%
G04 #@! TD*
G04 #@! TA.AperFunction,SMDPad,CuDef*
%ADD31RoundRect,0.100000X0.100000X-0.217500X0.100000X0.217500X-0.100000X0.217500X-0.100000X-0.217500X0*%
G04 #@! TD*
G04 #@! TA.AperFunction,SMDPad,CuDef*
%ADD32RoundRect,0.147500X-0.172500X0.147500X-0.172500X-0.147500X0.172500X-0.147500X0.172500X0.147500X0*%
G04 #@! TD*
G04 #@! TA.AperFunction,SMDPad,CuDef*
%ADD33R,1.120000X1.240000*%
G04 #@! TD*
G04 #@! TA.AperFunction,SMDPad,CuDef*
%ADD34R,0.800000X0.900000*%
G04 #@! TD*
G04 #@! TA.AperFunction,SMDPad,CuDef*
%ADD35RoundRect,0.250000X-0.337500X-0.475000X0.337500X-0.475000X0.337500X0.475000X-0.337500X0.475000X0*%
G04 #@! TD*
G04 #@! TA.AperFunction,SMDPad,CuDef*
%ADD36R,0.500000X0.350000*%
G04 #@! TD*
G04 #@! TA.AperFunction,SMDPad,CuDef*
%ADD37RoundRect,0.155000X-0.212500X-0.155000X0.212500X-0.155000X0.212500X0.155000X-0.212500X0.155000X0*%
G04 #@! TD*
G04 #@! TA.AperFunction,SMDPad,CuDef*
%ADD38RoundRect,0.075000X0.075000X-0.212500X0.075000X0.212500X-0.075000X0.212500X-0.075000X-0.212500X0*%
G04 #@! TD*
G04 #@! TA.AperFunction,SMDPad,CuDef*
%ADD39R,1.350000X0.400000*%
G04 #@! TD*
G04 #@! TA.AperFunction,SMDPad,CuDef*
%ADD40R,1.900000X1.500000*%
G04 #@! TD*
G04 #@! TA.AperFunction,ComponentPad*
%ADD41C,1.450000*%
G04 #@! TD*
G04 #@! TA.AperFunction,SMDPad,CuDef*
%ADD42R,1.900000X1.200000*%
G04 #@! TD*
G04 #@! TA.AperFunction,ComponentPad*
%ADD43O,1.900000X1.200000*%
G04 #@! TD*
G04 #@! TA.AperFunction,SMDPad,CuDef*
%ADD44R,1.450000X1.000000*%
G04 #@! TD*
G04 #@! TA.AperFunction,SMDPad,CuDef*
%ADD45R,0.900000X0.300000*%
G04 #@! TD*
G04 #@! TA.AperFunction,SMDPad,CuDef*
%ADD46R,0.250000X1.650000*%
G04 #@! TD*
G04 #@! TA.AperFunction,ViaPad*
%ADD47C,0.800000*%
G04 #@! TD*
G04 #@! TA.AperFunction,Conductor*
%ADD48C,0.250000*%
G04 #@! TD*
G04 APERTURE END LIST*
D10*
X141986000Y-95250000D03*
D11*
X161290000Y-100376500D03*
X161290000Y-101191500D03*
D12*
X148554500Y-118618000D03*
X149749500Y-118618000D03*
D13*
X148690500Y-111506000D03*
X146965500Y-111506000D03*
D14*
X150722500Y-104231000D03*
X151537500Y-104231000D03*
D10*
X165608000Y-95504000D03*
D15*
X163475500Y-116332000D03*
X162660500Y-116332000D03*
D16*
X164084000Y-101151500D03*
X164084000Y-100016500D03*
D14*
X145542000Y-98044000D03*
X146357000Y-98044000D03*
D13*
X146912500Y-113284000D03*
X145187500Y-113284000D03*
D17*
X147574000Y-105828500D03*
X147574000Y-107023500D03*
D18*
X157983000Y-117602000D03*
D19*
X159253000Y-117602000D03*
X160523000Y-117602000D03*
D14*
X161698500Y-94488000D03*
X162513500Y-94488000D03*
D20*
X155808000Y-103826000D03*
X155808000Y-104226000D03*
X155808000Y-104626000D03*
X155808000Y-105026000D03*
X155808000Y-105426000D03*
X155808000Y-105826000D03*
X155808000Y-106226000D03*
X155808000Y-106626000D03*
X155808000Y-107026000D03*
X155808000Y-107426000D03*
X155808000Y-107826000D03*
X155808000Y-108226000D03*
X155808000Y-108626000D03*
X155808000Y-109026000D03*
D21*
X156658000Y-109876000D03*
X157058000Y-109876000D03*
X157458000Y-109876000D03*
X157858000Y-109876000D03*
X158258000Y-109876000D03*
X158658000Y-109876000D03*
X159058000Y-109876000D03*
X159458000Y-109876000D03*
X159858000Y-109876000D03*
X160258000Y-109876000D03*
X160658000Y-109876000D03*
X161058000Y-109876000D03*
X161458000Y-109876000D03*
X161858000Y-109876000D03*
D20*
X162708000Y-109026000D03*
X162708000Y-108626000D03*
X162708000Y-108226000D03*
X162708000Y-107826000D03*
X162708000Y-107426000D03*
X162708000Y-107026000D03*
X162708000Y-106626000D03*
X162708000Y-106226000D03*
X162708000Y-105826000D03*
X162708000Y-105426000D03*
X162708000Y-105026000D03*
X162708000Y-104626000D03*
X162708000Y-104226000D03*
X162708000Y-103826000D03*
D21*
X161858000Y-102976000D03*
X161458000Y-102976000D03*
X161058000Y-102976000D03*
X160658000Y-102976000D03*
X160258000Y-102976000D03*
X159858000Y-102976000D03*
X159458000Y-102976000D03*
X159058000Y-102976000D03*
X158658000Y-102976000D03*
X158258000Y-102976000D03*
X157858000Y-102976000D03*
X157458000Y-102976000D03*
X157058000Y-102976000D03*
X156658000Y-102976000D03*
D22*
X159258000Y-106426000D03*
D10*
X165862000Y-119126000D03*
D23*
X166671500Y-110998000D03*
X165476500Y-110998000D03*
D12*
X154596500Y-93726000D03*
X155791500Y-93726000D03*
D24*
X140716000Y-98543000D03*
X140716000Y-100593000D03*
D25*
X149098000Y-97689500D03*
X149098000Y-99414500D03*
D26*
X149136000Y-101691000D03*
X148336000Y-101691000D03*
X147536000Y-101691000D03*
X146736000Y-101691000D03*
X145936000Y-101691000D03*
X145136000Y-101691000D03*
D27*
X145038500Y-102788500D03*
D26*
X145136000Y-103886000D03*
X145936000Y-103886000D03*
X146736000Y-103886000D03*
X147536000Y-103886000D03*
X148336000Y-103886000D03*
X149136000Y-103886000D03*
D27*
X149233500Y-102788500D03*
D28*
X145087000Y-99913000D03*
X146812000Y-99913000D03*
D12*
X140372500Y-102362000D03*
X141567500Y-102362000D03*
D24*
X167132000Y-98797000D03*
X167132000Y-100847000D03*
D14*
X150722500Y-102707000D03*
X151537500Y-102707000D03*
D29*
X144068800Y-115077999D03*
X144068800Y-115578001D03*
X144068800Y-116078000D03*
X144068800Y-116577999D03*
X144068800Y-117078001D03*
X146507200Y-117078001D03*
X146507200Y-116577999D03*
X146507200Y-116078000D03*
X146507200Y-115578001D03*
X146507200Y-115077999D03*
D30*
X145288000Y-116078000D03*
D16*
X162814000Y-101151500D03*
X162814000Y-100016500D03*
D23*
X167475500Y-102616000D03*
X166280500Y-102616000D03*
D31*
X163576000Y-114961500D03*
X163576000Y-114146500D03*
X158242000Y-101191500D03*
X158242000Y-100376500D03*
D11*
X160528000Y-111606500D03*
X160528000Y-112421500D03*
D31*
X159258000Y-101191500D03*
X159258000Y-100376500D03*
D14*
X164472500Y-103886000D03*
X165287500Y-103886000D03*
D23*
X166671500Y-112330000D03*
X165476500Y-112330000D03*
D32*
X142240000Y-115085000D03*
X142240000Y-116055000D03*
D33*
X154432000Y-119102000D03*
X154432000Y-116102000D03*
D11*
X160274000Y-100376500D03*
X160274000Y-101191500D03*
D34*
X165270000Y-114362000D03*
X165270000Y-115762000D03*
X166370000Y-115762000D03*
X166370000Y-114362000D03*
D35*
X148894500Y-116840000D03*
X150969500Y-116840000D03*
D14*
X164472500Y-107696000D03*
X165287500Y-107696000D03*
D15*
X149005500Y-108966000D03*
X148190500Y-108966000D03*
D12*
X154596500Y-95250000D03*
X155791500Y-95250000D03*
D36*
X150613000Y-111719000D03*
X150613000Y-111069000D03*
X150613000Y-110419000D03*
X150613000Y-109769000D03*
X152663000Y-109769000D03*
X152663000Y-110419000D03*
X152663000Y-111069000D03*
X152663000Y-111719000D03*
D35*
X148894500Y-114554000D03*
X150969500Y-114554000D03*
D37*
X161738500Y-96288000D03*
X162873500Y-96288000D03*
D38*
X146304000Y-106509500D03*
X146304000Y-105834500D03*
D39*
X143194500Y-108428000D03*
X143194500Y-109078000D03*
X143194500Y-109728000D03*
X143194500Y-110378000D03*
X143194500Y-111028000D03*
D40*
X140494500Y-108728000D03*
D41*
X143194500Y-112228000D03*
D42*
X140494500Y-112628000D03*
D43*
X140494500Y-106228000D03*
D40*
X140494500Y-110728000D03*
D43*
X140494500Y-113228000D03*
D42*
X140494500Y-106828000D03*
D41*
X143194500Y-107228000D03*
D44*
X152181000Y-93638000D03*
X147031000Y-93638000D03*
X147031000Y-95338000D03*
X152181000Y-95338000D03*
D11*
X159258000Y-111606500D03*
X159258000Y-112421500D03*
D10*
X141986000Y-119126000D03*
D15*
X154077500Y-103886000D03*
X153262500Y-103886000D03*
D45*
X157350000Y-94754000D03*
X157350000Y-95254000D03*
X157350000Y-95754000D03*
X157350000Y-96254000D03*
X160150000Y-96254000D03*
X160150000Y-95754000D03*
X160150000Y-95254000D03*
X160150000Y-94754000D03*
D46*
X158750000Y-95504000D03*
D15*
X149005500Y-109982000D03*
X148190500Y-109982000D03*
D12*
X148554500Y-119888000D03*
X149749500Y-119888000D03*
D15*
X154077500Y-107442000D03*
X153262500Y-107442000D03*
D47*
X150114000Y-97028000D03*
X159258000Y-108712000D03*
X153670000Y-106426000D03*
X153670000Y-93188480D03*
X161798000Y-97536000D03*
X164338000Y-108712000D03*
X150368000Y-100076000D03*
X141986000Y-103632000D03*
X163830000Y-104394000D03*
X166370000Y-113284000D03*
X145288000Y-114300000D03*
X153262500Y-102970500D03*
X153162000Y-120650000D03*
X156972000Y-112776000D03*
X164338000Y-102870000D03*
X147828000Y-98044000D03*
X149860000Y-106934000D03*
X157226000Y-104140000D03*
X155194000Y-112268000D03*
X147574000Y-114300000D03*
X157988000Y-97028000D03*
X167132000Y-108712000D03*
X151569842Y-96959842D03*
X159004000Y-99060000D03*
X152654000Y-108458000D03*
X151130000Y-119634000D03*
X143256000Y-100584000D03*
X143510000Y-103886000D03*
X146304000Y-107696000D03*
X149860000Y-112776000D03*
X151384000Y-101346000D03*
X151130000Y-105410000D03*
X154432000Y-105410000D03*
X158242000Y-111506000D03*
X158496000Y-113538000D03*
X164592000Y-110744000D03*
X165354000Y-109728000D03*
X147320000Y-117856000D03*
X147066000Y-119888000D03*
X166878000Y-107188000D03*
X165354000Y-106172000D03*
X149352000Y-105664000D03*
X159766000Y-97282000D03*
X158496000Y-104140000D03*
X159266075Y-94224618D03*
X156972000Y-98806000D03*
X167386000Y-104902000D03*
X160528000Y-98806000D03*
X146304000Y-109220000D03*
X146304000Y-110236000D03*
X161544000Y-98552000D03*
X150622000Y-94488000D03*
D48*
X154077500Y-108354500D02*
X152663000Y-109769000D01*
X161798000Y-97536000D02*
X162306000Y-98044000D01*
X153670000Y-106426000D02*
X154178000Y-106934000D01*
X141567500Y-102362000D02*
X141567500Y-103213500D01*
X152908000Y-100584000D02*
X154178000Y-101854000D01*
X154077500Y-107442000D02*
X154077500Y-108354500D01*
X159258000Y-101191500D02*
X159749480Y-100700020D01*
X153416000Y-97790000D02*
X154596500Y-96609500D01*
X144272000Y-114046000D02*
X145034000Y-113284000D01*
X146507200Y-114603700D02*
X146507200Y-115077999D01*
X149136000Y-101308000D02*
X150368000Y-100076000D01*
X141567500Y-103213500D02*
X141986000Y-103632000D01*
X161738500Y-96288000D02*
X161738500Y-97476500D01*
X154178000Y-101854000D02*
X154178000Y-103785500D01*
X144999980Y-97809580D02*
X144999980Y-99825980D01*
X151511000Y-111125000D02*
X152105000Y-111719000D01*
X162306000Y-99620278D02*
X162052000Y-99874278D01*
X162052000Y-102108000D02*
X162814000Y-101346000D01*
X148894500Y-114554000D02*
X148894500Y-111710000D01*
X149127500Y-111069000D02*
X150613000Y-111069000D01*
X159458000Y-108912000D02*
X159258000Y-108712000D01*
X160416000Y-94488000D02*
X160150000Y-94754000D01*
X144272000Y-114874799D02*
X144068800Y-115077999D01*
X148690500Y-111506000D02*
X149127500Y-111069000D01*
X144272000Y-114046000D02*
X144272000Y-114874799D01*
X162708000Y-107426000D02*
X164202500Y-107426000D01*
X154596500Y-96609500D02*
X154596500Y-95250000D01*
X163830000Y-104394000D02*
X163964500Y-104394000D01*
X161458000Y-102976000D02*
X161458000Y-102301000D01*
X164472500Y-108577500D02*
X164338000Y-108712000D01*
X146357000Y-98044000D02*
X146357000Y-97081000D01*
X159458000Y-102976000D02*
X159858000Y-102976000D01*
X155748000Y-103886000D02*
X155808000Y-103826000D01*
X151455000Y-111069000D02*
X151511000Y-111125000D01*
X151511000Y-111125000D02*
X152217000Y-110419000D01*
X146507200Y-115077999D02*
X148370501Y-115077999D01*
X163964500Y-104394000D02*
X164472500Y-103886000D01*
X162814000Y-101346000D02*
X162814000Y-101151500D01*
X162306000Y-98044000D02*
X162306000Y-99620278D01*
X159458000Y-102976000D02*
X159458000Y-101391500D01*
X149136000Y-101691000D02*
X149136000Y-101308000D01*
X155808000Y-107426000D02*
X154093500Y-107426000D01*
X148690500Y-111506000D02*
X148190500Y-111006000D01*
X145136000Y-101691000D02*
X145136000Y-99962000D01*
X150114000Y-97028000D02*
X146304000Y-97028000D01*
X150114000Y-97028000D02*
X150114000Y-99822000D01*
X164472500Y-107696000D02*
X164472500Y-108577500D01*
X159375480Y-93081480D02*
X153777000Y-93081480D01*
X154178000Y-107341500D02*
X154077500Y-107442000D01*
X159749480Y-100700020D02*
X159749480Y-98314520D01*
X150876000Y-100584000D02*
X152908000Y-100584000D01*
X154178000Y-106934000D02*
X154178000Y-107341500D01*
X162814000Y-101151500D02*
X162365500Y-101151500D01*
X144999980Y-99825980D02*
X145087000Y-99913000D01*
X152217000Y-110419000D02*
X152663000Y-110419000D01*
X162052000Y-100838000D02*
X162052000Y-100418159D01*
X160150000Y-93856000D02*
X159512000Y-93218000D01*
X159458000Y-111406500D02*
X159458000Y-109876000D01*
X152105000Y-111719000D02*
X152663000Y-111719000D01*
X145136000Y-99962000D02*
X145087000Y-99913000D01*
X154178000Y-103785500D02*
X154077500Y-103886000D01*
X148894500Y-111710000D02*
X148690500Y-111506000D01*
X146304000Y-97028000D02*
X145781560Y-97028000D01*
X154093500Y-107426000D02*
X154077500Y-107442000D01*
X159512000Y-93218000D02*
X159375480Y-93081480D01*
X164202500Y-107426000D02*
X164472500Y-107696000D01*
X160150000Y-94754000D02*
X160150000Y-93856000D01*
X164412500Y-103826000D02*
X164472500Y-103886000D01*
X145187500Y-113284000D02*
X146507200Y-114603700D01*
X148190500Y-108966000D02*
X148190500Y-109982000D01*
X145034000Y-113284000D02*
X145187500Y-113284000D01*
X149098000Y-97282000D02*
X149098000Y-97181500D01*
X148190500Y-111006000D02*
X148190500Y-109982000D01*
X145781560Y-97028000D02*
X144999980Y-97809580D01*
X148370501Y-115077999D02*
X148894500Y-114554000D01*
X141986000Y-103632000D02*
X143927000Y-101691000D01*
X161698500Y-94488000D02*
X160416000Y-94488000D01*
X150368000Y-100076000D02*
X150876000Y-100584000D01*
X161651000Y-102108000D02*
X162052000Y-102108000D01*
X152654000Y-97790000D02*
X153416000Y-97790000D01*
X159258000Y-111606500D02*
X159458000Y-111406500D01*
X161738500Y-94528000D02*
X161698500Y-94488000D01*
X159749480Y-98314520D02*
X160528000Y-97536000D01*
X162708000Y-103826000D02*
X164412500Y-103826000D01*
X160528000Y-97536000D02*
X161798000Y-97536000D01*
X143927000Y-101691000D02*
X145136000Y-101691000D01*
X150114000Y-99822000D02*
X150368000Y-100076000D01*
X162365500Y-101151500D02*
X162052000Y-100838000D01*
X159458000Y-109876000D02*
X159458000Y-108912000D01*
X152663000Y-110419000D02*
X152663000Y-109769000D01*
X159458000Y-101391500D02*
X159258000Y-101191500D01*
X150368000Y-100076000D02*
X152654000Y-97790000D01*
X161738500Y-96288000D02*
X161738500Y-94528000D01*
X154077500Y-103886000D02*
X155748000Y-103886000D01*
X161738500Y-97476500D02*
X161798000Y-97536000D01*
X146357000Y-97081000D02*
X146304000Y-97028000D01*
X162052000Y-99874278D02*
X162052000Y-100584000D01*
X153777000Y-93081480D02*
X153670000Y-93188480D01*
X150613000Y-111069000D02*
X151455000Y-111069000D01*
X161458000Y-102301000D02*
X161651000Y-102108000D01*
X159258000Y-112421500D02*
X160528000Y-112421500D01*
X152663000Y-111069000D02*
X153741000Y-111069000D01*
X156480000Y-109204000D02*
X158258000Y-109204000D01*
X157988000Y-96892000D02*
X157350000Y-96254000D01*
X148336000Y-100838000D02*
X147411000Y-99913000D01*
X151569842Y-96766858D02*
X149916463Y-95113479D01*
X147255521Y-95113479D02*
X147031000Y-95338000D01*
X145936000Y-100789000D02*
X146812000Y-99913000D01*
X153262500Y-103886000D02*
X153262500Y-102970500D01*
X145542000Y-98643000D02*
X146812000Y-99913000D01*
X150613999Y-115578001D02*
X150969500Y-115222500D01*
X162660500Y-115416500D02*
X162814000Y-115570000D01*
X154178000Y-111760000D02*
X153819489Y-112118511D01*
X148336000Y-100013500D02*
X149098000Y-99251500D01*
X158242000Y-100376500D02*
X159258000Y-100376500D01*
X164592000Y-115062000D02*
X166116000Y-115062000D01*
X157326500Y-112421500D02*
X156972000Y-112776000D01*
X166116000Y-107696000D02*
X167132000Y-108712000D01*
X154178000Y-111506000D02*
X154178000Y-111760000D01*
X152654000Y-108050500D02*
X153262500Y-107442000D01*
X146736000Y-99989000D02*
X146812000Y-99913000D01*
X146912500Y-113284000D02*
X146912500Y-113638500D01*
X144068800Y-116078000D02*
X145288000Y-116078000D01*
X148336000Y-101691000D02*
X148336000Y-100838000D01*
X145542000Y-98044000D02*
X145542000Y-98643000D01*
X163322000Y-114046000D02*
X163475500Y-114046000D01*
X147411000Y-99913000D02*
X146812000Y-99913000D01*
X162513500Y-94488000D02*
X162513500Y-95203500D01*
X162873500Y-95563500D02*
X162873500Y-96288000D01*
X150969500Y-115222500D02*
X150969500Y-114554000D01*
X149916463Y-95113479D02*
X147255521Y-95113479D01*
X151012511Y-112118511D02*
X150613000Y-111719000D01*
X165287500Y-107696000D02*
X166116000Y-107696000D01*
X145936000Y-101691000D02*
X145936000Y-100789000D01*
X164338000Y-102870000D02*
X164592000Y-102870000D01*
X164592000Y-102870000D02*
X165287500Y-103565500D01*
X148336000Y-100838000D02*
X148336000Y-100013500D01*
X162814000Y-115570000D02*
X164084000Y-115570000D01*
X151569842Y-96959842D02*
X151569842Y-96766858D01*
X146736000Y-101691000D02*
X146736000Y-99989000D01*
X145288000Y-116078000D02*
X145288000Y-114300000D01*
X145787999Y-115578001D02*
X146507200Y-115578001D01*
X164084000Y-115570000D02*
X164592000Y-115062000D01*
X162660500Y-116332000D02*
X162660500Y-115416500D01*
X157988000Y-97028000D02*
X157988000Y-96892000D01*
X162660500Y-115416500D02*
X162660500Y-114707500D01*
X153819489Y-112118511D02*
X151012511Y-112118511D01*
X152654000Y-108458000D02*
X152654000Y-108050500D01*
X143194500Y-112228000D02*
X143194500Y-111028000D01*
X158258000Y-107426000D02*
X159258000Y-106426000D01*
X158258000Y-109876000D02*
X158258000Y-109204000D01*
X163475500Y-114046000D02*
X163576000Y-114146500D01*
X158242000Y-100376500D02*
X158242000Y-99822000D01*
X154178000Y-111506000D02*
X156480000Y-109204000D01*
X146912500Y-113638500D02*
X147574000Y-114300000D01*
X146507200Y-115578001D02*
X150613999Y-115578001D01*
X166116000Y-115062000D02*
X166370000Y-114808000D01*
X153741000Y-111069000D02*
X154178000Y-111506000D01*
X158258000Y-109204000D02*
X158258000Y-107426000D01*
X158242000Y-99822000D02*
X159004000Y-99060000D01*
X162660500Y-114707500D02*
X163322000Y-114046000D01*
X162513500Y-95203500D02*
X162873500Y-95563500D01*
X165287500Y-103565500D02*
X165287500Y-103886000D01*
X145288000Y-116078000D02*
X145787999Y-115578001D01*
X159258000Y-112421500D02*
X157326500Y-112421500D01*
X150377500Y-103886000D02*
X150722500Y-104231000D01*
X149136000Y-103886000D02*
X150377500Y-103886000D01*
X149315000Y-102707000D02*
X149233500Y-102788500D01*
X150722500Y-102707000D02*
X149315000Y-102707000D01*
X148894500Y-116840000D02*
X148894500Y-117763000D01*
X151638000Y-118618000D02*
X152146000Y-119126000D01*
X152146000Y-120142000D02*
X152146000Y-119126000D01*
X148894500Y-116840000D02*
X148336000Y-116840000D01*
X145034000Y-118110000D02*
X145034000Y-120142000D01*
X147574000Y-116078000D02*
X146507200Y-116078000D01*
X152146000Y-119126000D02*
X152170000Y-119102000D01*
X145034000Y-120142000D02*
X145796000Y-120904000D01*
X152170000Y-119102000D02*
X154432000Y-119102000D01*
X144068800Y-117078001D02*
X144068800Y-117144800D01*
X149749500Y-118618000D02*
X151638000Y-118618000D01*
X148336000Y-116840000D02*
X147574000Y-116078000D01*
X144068800Y-117144800D02*
X145034000Y-118110000D01*
X145796000Y-120904000D02*
X151384000Y-120904000D01*
X148894500Y-117763000D02*
X149749500Y-118618000D01*
X151384000Y-120904000D02*
X152146000Y-120142000D01*
X154432000Y-115062000D02*
X154432000Y-116102000D01*
X149860000Y-112776000D02*
X152146000Y-112776000D01*
X146304000Y-107696000D02*
X146304000Y-106509500D01*
X145572000Y-108428000D02*
X143194500Y-108428000D01*
X152146000Y-112776000D02*
X154432000Y-115062000D01*
X146304000Y-107696000D02*
X145572000Y-108428000D01*
X151892000Y-104585500D02*
X151892000Y-109982000D01*
X154432000Y-104648000D02*
X154844480Y-104235520D01*
X149352000Y-109982000D02*
X149789000Y-110419000D01*
X149005500Y-109982000D02*
X149352000Y-109982000D01*
X151537500Y-104231000D02*
X151954500Y-104648000D01*
X151892000Y-109982000D02*
X151455000Y-110419000D01*
X151537500Y-104231000D02*
X151892000Y-104585500D01*
X151954500Y-104648000D02*
X154432000Y-104648000D01*
X149789000Y-110419000D02*
X150613000Y-110419000D01*
X151455000Y-110419000D02*
X150613000Y-110419000D01*
X154844480Y-104235520D02*
X155808000Y-104235520D01*
X150613000Y-109769000D02*
X150835000Y-109769000D01*
X151384000Y-101346000D02*
X151384000Y-102553500D01*
X151384000Y-109220000D02*
X151384000Y-105664000D01*
X155216000Y-104626000D02*
X154432000Y-105410000D01*
X150155000Y-109769000D02*
X150613000Y-109769000D01*
X150835000Y-109769000D02*
X151384000Y-109220000D01*
X155808000Y-104626000D02*
X155216000Y-104626000D01*
X151384000Y-105664000D02*
X151130000Y-105410000D01*
X149352000Y-108966000D02*
X150155000Y-109769000D01*
X149005500Y-108966000D02*
X149352000Y-108966000D01*
X151384000Y-102553500D02*
X151537500Y-102707000D01*
X163930500Y-114961500D02*
X164530000Y-114362000D01*
X164530000Y-114362000D02*
X165270000Y-114362000D01*
X165270000Y-113876000D02*
X165476500Y-113669500D01*
X156210000Y-114046000D02*
X156718000Y-114554000D01*
X165476500Y-113669500D02*
X165476500Y-112330000D01*
X158658000Y-110595704D02*
X158372215Y-110881489D01*
X165270000Y-114362000D02*
X165270000Y-113876000D01*
X156718000Y-114554000D02*
X161798000Y-114554000D01*
X158658000Y-109876000D02*
X158658000Y-110595704D01*
X156834511Y-110881489D02*
X156210000Y-111506000D01*
X156210000Y-111506000D02*
X156210000Y-114046000D01*
X163576000Y-114961500D02*
X163930500Y-114961500D01*
X164022000Y-112330000D02*
X165476500Y-112330000D01*
X161798000Y-114554000D02*
X164022000Y-112330000D01*
X158372215Y-110881489D02*
X156834511Y-110881489D01*
X158242000Y-111506000D02*
X159058000Y-110690000D01*
X166644480Y-111685480D02*
X163904520Y-111685480D01*
X166671500Y-111712500D02*
X166644480Y-111685480D01*
X166671500Y-111712500D02*
X166671500Y-110998000D01*
X159004000Y-114046000D02*
X158496000Y-113538000D01*
X161544000Y-114046000D02*
X159004000Y-114046000D01*
X163904520Y-111685480D02*
X161544000Y-114046000D01*
X166671500Y-112330000D02*
X166671500Y-111712500D01*
X159058000Y-110690000D02*
X159058000Y-109876000D01*
X163576000Y-102616000D02*
X164084000Y-102108000D01*
X159858000Y-109876000D02*
X159858000Y-109301978D01*
X161058000Y-103908000D02*
X161058000Y-102976000D01*
X161036000Y-108966000D02*
X161544000Y-108458000D01*
X161417000Y-104267000D02*
X163068000Y-102616000D01*
X161417000Y-104267000D02*
X161058000Y-103908000D01*
X159058000Y-102007500D02*
X158242000Y-101191500D01*
X159058000Y-102976000D02*
X159058000Y-103686000D01*
X163068000Y-102616000D02*
X163576000Y-102616000D01*
X159858000Y-110936500D02*
X159858000Y-109876000D01*
X164084000Y-102108000D02*
X164084000Y-101151500D01*
X159058000Y-102976000D02*
X159058000Y-102007500D01*
X159058000Y-103686000D02*
X159280000Y-103908000D01*
X161544000Y-108458000D02*
X161544000Y-104394000D01*
X161544000Y-104394000D02*
X161417000Y-104267000D01*
X160193978Y-108966000D02*
X161036000Y-108966000D01*
X159280000Y-103908000D02*
X161058000Y-103908000D01*
X159858000Y-109301978D02*
X160193978Y-108966000D01*
X160528000Y-111606500D02*
X159858000Y-110936500D01*
X160762420Y-111064480D02*
X160594480Y-111064480D01*
X160258000Y-110728000D02*
X160258000Y-109876000D01*
X160949940Y-111252000D02*
X160762420Y-111064480D01*
X160594480Y-111064480D02*
X160258000Y-110728000D01*
X164084000Y-111252000D02*
X160949940Y-111252000D01*
X164592000Y-110744000D02*
X164084000Y-111252000D01*
X164592000Y-109728000D02*
X165354000Y-109728000D01*
X164338000Y-109982000D02*
X164592000Y-109728000D01*
X163576000Y-110744000D02*
X164338000Y-109982000D01*
X161036000Y-110744000D02*
X163576000Y-110744000D01*
X160658000Y-109876000D02*
X160658000Y-110366000D01*
X160658000Y-110366000D02*
X161036000Y-110744000D01*
X166878000Y-107188000D02*
X166624000Y-107188000D01*
X166370000Y-106934000D02*
X165232807Y-106934000D01*
X147057999Y-116577999D02*
X147320000Y-116840000D01*
X166624000Y-107188000D02*
X166370000Y-106934000D01*
X146507200Y-116577999D02*
X147057999Y-116577999D01*
X147320000Y-116840000D02*
X147320000Y-117856000D01*
X165232807Y-106934000D02*
X164924807Y-106626000D01*
X147066000Y-119888000D02*
X148554500Y-119888000D01*
X164924807Y-106626000D02*
X162708000Y-106626000D01*
X148844000Y-105156000D02*
X149352000Y-105664000D01*
X147568000Y-105834500D02*
X147574000Y-105828500D01*
X162708000Y-106226000D02*
X165300000Y-106226000D01*
X146812000Y-105751000D02*
X146812000Y-105156000D01*
X148082000Y-105156000D02*
X148844000Y-105156000D01*
X146304000Y-105834500D02*
X146728500Y-105834500D01*
X146728500Y-105834500D02*
X147568000Y-105834500D01*
X165300000Y-106226000D02*
X165354000Y-106172000D01*
X146812000Y-105156000D02*
X148082000Y-105156000D01*
X146728500Y-105834500D02*
X146812000Y-105751000D01*
X166624000Y-104140000D02*
X166624000Y-102959500D01*
X162708000Y-105826000D02*
X163414000Y-105826000D01*
X166624000Y-102959500D02*
X166280500Y-102616000D01*
X164084000Y-105156000D02*
X165608000Y-105156000D01*
X163414000Y-105826000D02*
X164084000Y-105156000D01*
X165608000Y-105156000D02*
X166624000Y-104140000D01*
X161290000Y-101854000D02*
X161290000Y-101191500D01*
X160658000Y-102976000D02*
X160658000Y-102486000D01*
X160658000Y-102486000D02*
X161290000Y-101854000D01*
X160258000Y-102976000D02*
X160258000Y-101207500D01*
X160258000Y-101207500D02*
X160274000Y-101191500D01*
X161036000Y-95504000D02*
X161036000Y-96417022D01*
X160786000Y-95254000D02*
X161036000Y-95504000D01*
X161036000Y-96417022D02*
X160824511Y-96628511D01*
X160419489Y-96628511D02*
X159766000Y-97282000D01*
X160824511Y-96628511D02*
X160419489Y-96628511D01*
X160150000Y-95254000D02*
X160786000Y-95254000D01*
X158658000Y-103978000D02*
X158496000Y-104140000D01*
X158658000Y-102976000D02*
X158658000Y-103978000D01*
X158258000Y-102110296D02*
X156972000Y-100824296D01*
X159266075Y-94224618D02*
X159199511Y-94291182D01*
X159199511Y-95352533D02*
X159600978Y-95754000D01*
X159199511Y-94291182D02*
X159199511Y-95352533D01*
X158258000Y-102976000D02*
X158258000Y-102110296D01*
X156972000Y-100824296D02*
X156972000Y-98806000D01*
X159600978Y-95754000D02*
X160150000Y-95754000D01*
X155988560Y-101627450D02*
X155988560Y-98011440D01*
X155988560Y-98011440D02*
X156210000Y-97790000D01*
X157858000Y-102213387D02*
X157272063Y-101627450D01*
X157272063Y-101627450D02*
X155988560Y-101627450D01*
X159778000Y-96254000D02*
X160150000Y-96254000D01*
X157858000Y-102976000D02*
X157858000Y-102213387D01*
X156210000Y-97790000D02*
X158242000Y-97790000D01*
X158242000Y-97790000D02*
X159778000Y-96254000D01*
X155639040Y-97049846D02*
X155639040Y-101818448D01*
X156800978Y-95754000D02*
X155645059Y-96909919D01*
X155797562Y-101976970D02*
X157127288Y-101976970D01*
X157127288Y-101976970D02*
X157458000Y-102307682D01*
X155645059Y-97043827D02*
X155639040Y-97049846D01*
X155645059Y-96909919D02*
X155645059Y-97043827D01*
X157458000Y-102307682D02*
X157458000Y-102976000D01*
X157350000Y-95754000D02*
X156800978Y-95754000D01*
X155639040Y-101818448D02*
X155797562Y-101976970D01*
X156714000Y-95254000D02*
X157350000Y-95254000D01*
X155289520Y-96905071D02*
X155295539Y-96899052D01*
X156982511Y-102326489D02*
X155652785Y-102326489D01*
X155295539Y-96672461D02*
X156714000Y-95254000D01*
X157058000Y-102976000D02*
X157058000Y-102401978D01*
X155289520Y-101963224D02*
X155289520Y-96905071D01*
X157058000Y-102401978D02*
X156982511Y-102326489D01*
X155652785Y-102326489D02*
X155289520Y-101963224D01*
X155295539Y-96899052D02*
X155295539Y-96672461D01*
X157350000Y-94754000D02*
X156287500Y-94754000D01*
X154940000Y-102108000D02*
X155808000Y-102976000D01*
X155791500Y-95250000D02*
X154946020Y-96095480D01*
X154940000Y-96760295D02*
X154940000Y-102108000D01*
X156287500Y-94754000D02*
X155791500Y-95250000D01*
X154946020Y-96754275D02*
X154940000Y-96760295D01*
X154946020Y-96095480D02*
X154946020Y-96754275D01*
X155808000Y-102976000D02*
X156658000Y-102976000D01*
X155791500Y-93726000D02*
X155791500Y-95250000D01*
X142771000Y-115085000D02*
X143264001Y-115578001D01*
X142240000Y-115085000D02*
X142771000Y-115085000D01*
X143264001Y-115578001D02*
X144068800Y-115578001D01*
X143002000Y-116586000D02*
X143010001Y-116577999D01*
X142240000Y-116055000D02*
X142471000Y-116055000D01*
X142471000Y-116055000D02*
X143002000Y-116586000D01*
X143010001Y-116577999D02*
X144068800Y-116577999D01*
X165862000Y-110236000D02*
X167132000Y-110236000D01*
X167045022Y-116586000D02*
X165694978Y-116586000D01*
X165476500Y-110621500D02*
X165862000Y-110236000D01*
X165476500Y-110998000D02*
X165476500Y-110621500D01*
X167640000Y-110744000D02*
X167640000Y-115991022D01*
X165270000Y-116161022D02*
X165270000Y-115762000D01*
X167132000Y-110236000D02*
X167640000Y-110744000D01*
X165694978Y-116586000D02*
X165270000Y-116161022D01*
X164954000Y-116078000D02*
X163729500Y-116078000D01*
X167640000Y-115991022D02*
X167045022Y-116586000D01*
X163729500Y-116078000D02*
X163475500Y-116332000D01*
X165270000Y-115762000D02*
X164954000Y-116078000D01*
X167475500Y-104812500D02*
X167386000Y-104902000D01*
X167475500Y-102616000D02*
X167475500Y-101190500D01*
X167475500Y-101190500D02*
X167132000Y-100847000D01*
X167475500Y-102616000D02*
X167475500Y-104812500D01*
X140716000Y-102018500D02*
X140372500Y-102362000D01*
X140716000Y-100593000D02*
X140716000Y-102018500D01*
X160528000Y-100122500D02*
X160274000Y-100376500D01*
X160528000Y-98806000D02*
X160528000Y-100122500D01*
X146162000Y-109078000D02*
X146304000Y-109220000D01*
X143194500Y-109078000D02*
X146162000Y-109078000D01*
X161290000Y-99568000D02*
X161544000Y-99314000D01*
X145288000Y-110236000D02*
X146304000Y-110236000D01*
X161290000Y-100376500D02*
X161290000Y-99568000D01*
X143194500Y-109728000D02*
X144780000Y-109728000D01*
X161544000Y-98552000D02*
X161544000Y-99314000D01*
X144780000Y-109728000D02*
X145288000Y-110236000D01*
X146507200Y-117078001D02*
X146507200Y-118313200D01*
X146507200Y-118313200D02*
X146812000Y-118618000D01*
X146812000Y-118618000D02*
X148554500Y-118618000D01*
X147031000Y-93638000D02*
X147255521Y-93862521D01*
X150739479Y-93862521D02*
X150739479Y-94370521D01*
X151956479Y-93862521D02*
X152181000Y-93638000D01*
X154088500Y-94234000D02*
X154596500Y-93726000D01*
X147255521Y-93862521D02*
X150739479Y-93862521D01*
X150739479Y-93862521D02*
X151956479Y-93862521D01*
X152181000Y-93638000D02*
X152777000Y-94234000D01*
X152777000Y-94234000D02*
X154088500Y-94234000D01*
X150739479Y-94370521D02*
X150622000Y-94488000D01*
G04 #@! TA.AperFunction,Conductor*
G36*
X143875532Y-102742538D02*
G01*
X143932368Y-102785085D01*
X143957179Y-102851605D01*
X143957500Y-102860594D01*
X143957500Y-103111634D01*
X143964255Y-103173816D01*
X144015385Y-103310205D01*
X144102739Y-103426761D01*
X144109919Y-103432142D01*
X144212113Y-103508733D01*
X144212116Y-103508735D01*
X144219295Y-103514115D01*
X144270451Y-103533293D01*
X144270730Y-103533397D01*
X144327494Y-103576039D01*
X144352194Y-103642601D01*
X144352500Y-103651379D01*
X144352500Y-104506634D01*
X144359255Y-104568816D01*
X144410385Y-104705205D01*
X144497739Y-104821761D01*
X144614295Y-104909115D01*
X144750684Y-104960245D01*
X144812866Y-104967000D01*
X145459134Y-104967000D01*
X145521316Y-104960245D01*
X145521580Y-104962674D01*
X145550420Y-104962674D01*
X145550684Y-104960245D01*
X145612866Y-104967000D01*
X145752926Y-104967000D01*
X145821047Y-104987002D01*
X145867540Y-105040658D01*
X145877644Y-105110932D01*
X145848150Y-105175512D01*
X145829631Y-105192961D01*
X145812843Y-105205843D01*
X145719314Y-105327733D01*
X145660519Y-105469676D01*
X145645500Y-105583756D01*
X145645500Y-106085244D01*
X145654556Y-106154024D01*
X145654757Y-106155553D01*
X145654757Y-106188444D01*
X145645500Y-106258756D01*
X145645500Y-106760244D01*
X145646038Y-106764330D01*
X145646038Y-106764331D01*
X145658104Y-106855978D01*
X145660519Y-106874324D01*
X145663678Y-106881949D01*
X145665817Y-106889934D01*
X145663930Y-106890440D01*
X145670500Y-106923485D01*
X145670500Y-106993476D01*
X145650498Y-107061597D01*
X145638142Y-107077779D01*
X145564960Y-107159056D01*
X145548249Y-107188000D01*
X145493993Y-107281975D01*
X145469473Y-107324444D01*
X145410458Y-107506072D01*
X145409768Y-107512633D01*
X145409768Y-107512635D01*
X145393093Y-107671292D01*
X145366080Y-107736949D01*
X145356878Y-107747217D01*
X145346500Y-107757595D01*
X145284188Y-107791621D01*
X145257405Y-107794500D01*
X144483409Y-107794500D01*
X144415288Y-107774498D01*
X144368795Y-107720842D01*
X144358691Y-107650568D01*
X144361702Y-107635889D01*
X144411982Y-107448241D01*
X144413885Y-107437446D01*
X144431731Y-107233475D01*
X144431731Y-107222525D01*
X144413885Y-107018554D01*
X144411982Y-107007759D01*
X144358990Y-106809988D01*
X144355244Y-106799696D01*
X144268714Y-106614132D01*
X144263231Y-106604637D01*
X144238140Y-106568803D01*
X144227661Y-106560427D01*
X144214215Y-106567495D01*
X143283595Y-107498115D01*
X143221283Y-107532141D01*
X143150468Y-107527076D01*
X143105405Y-107498115D01*
X142174064Y-106566774D01*
X142162290Y-106560344D01*
X142151739Y-106568507D01*
X142085621Y-106594370D01*
X142016016Y-106580382D01*
X141965023Y-106530983D01*
X141953742Y-106504348D01*
X141948025Y-106484876D01*
X141946634Y-106483671D01*
X141938951Y-106482000D01*
X140766615Y-106482000D01*
X140751376Y-106486475D01*
X140750171Y-106487865D01*
X140748500Y-106495548D01*
X140748500Y-112955885D01*
X140752975Y-112971124D01*
X140754365Y-112972329D01*
X140762048Y-112974000D01*
X141934385Y-112974000D01*
X141949624Y-112969525D01*
X141950829Y-112968135D01*
X141952291Y-112961413D01*
X141986316Y-112899100D01*
X142048628Y-112865075D01*
X142119443Y-112870139D01*
X142154083Y-112889773D01*
X142161339Y-112895573D01*
X142174785Y-112888505D01*
X143105405Y-111957885D01*
X143167717Y-111923859D01*
X143238532Y-111928924D01*
X143283595Y-111957885D01*
X143464615Y-112138905D01*
X143498641Y-112201217D01*
X143493576Y-112272032D01*
X143464615Y-112317095D01*
X142533274Y-113248436D01*
X142526844Y-113260211D01*
X142536140Y-113272226D01*
X142571137Y-113296731D01*
X142580632Y-113302214D01*
X142766196Y-113388744D01*
X142776488Y-113392490D01*
X142974259Y-113445482D01*
X142985054Y-113447385D01*
X143189025Y-113465231D01*
X143199975Y-113465231D01*
X143403946Y-113447385D01*
X143414741Y-113445482D01*
X143612512Y-113392490D01*
X143622804Y-113388744D01*
X143744433Y-113332027D01*
X143814624Y-113321366D01*
X143879437Y-113350346D01*
X143918294Y-113409765D01*
X143918857Y-113480760D01*
X143886778Y-113535317D01*
X143879747Y-113542348D01*
X143871461Y-113549888D01*
X143864982Y-113554000D01*
X143859557Y-113559777D01*
X143818357Y-113603651D01*
X143815602Y-113606493D01*
X143795865Y-113626230D01*
X143793385Y-113629427D01*
X143785682Y-113638447D01*
X143755414Y-113670679D01*
X143751595Y-113677625D01*
X143751593Y-113677628D01*
X143745652Y-113688434D01*
X143734801Y-113704953D01*
X143722386Y-113720959D01*
X143719241Y-113728228D01*
X143719238Y-113728232D01*
X143704826Y-113761537D01*
X143699609Y-113772187D01*
X143678305Y-113810940D01*
X143676334Y-113818615D01*
X143676334Y-113818616D01*
X143673267Y-113830562D01*
X143666863Y-113849266D01*
X143658819Y-113867855D01*
X143657580Y-113875678D01*
X143657577Y-113875688D01*
X143651901Y-113911524D01*
X143649495Y-113923144D01*
X143638500Y-113965970D01*
X143638500Y-113986224D01*
X143636949Y-114005934D01*
X143633780Y-114025943D01*
X143634526Y-114033835D01*
X143637941Y-114069961D01*
X143638500Y-114081819D01*
X143638500Y-114339052D01*
X143618498Y-114407173D01*
X143564842Y-114453666D01*
X143556730Y-114457034D01*
X143487181Y-114483107D01*
X143441095Y-114500384D01*
X143324539Y-114587738D01*
X143322859Y-114585496D01*
X143273151Y-114612639D01*
X143202336Y-114607574D01*
X143160115Y-114581367D01*
X143146321Y-114568414D01*
X143139375Y-114564595D01*
X143139372Y-114564593D01*
X143128566Y-114558652D01*
X143112047Y-114547801D01*
X143111583Y-114547441D01*
X143096041Y-114535386D01*
X143088772Y-114532241D01*
X143088768Y-114532238D01*
X143055463Y-114517826D01*
X143044813Y-114512609D01*
X143006060Y-114491305D01*
X142986437Y-114486267D01*
X142967734Y-114479863D01*
X142956420Y-114474967D01*
X142956419Y-114474967D01*
X142949145Y-114471819D01*
X142941320Y-114470580D01*
X142941318Y-114470579D01*
X142920319Y-114467253D01*
X142905472Y-114464901D01*
X142893850Y-114462494D01*
X142888713Y-114461175D01*
X142830954Y-114428229D01*
X142817763Y-114415038D01*
X142684005Y-114335934D01*
X142681923Y-114334703D01*
X142675100Y-114330668D01*
X142667489Y-114328457D01*
X142667487Y-114328456D01*
X142604005Y-114310013D01*
X142515937Y-114284427D01*
X142509532Y-114283923D01*
X142509527Y-114283922D01*
X142481203Y-114281693D01*
X142481195Y-114281693D01*
X142478747Y-114281500D01*
X142240145Y-114281500D01*
X142001254Y-114281501D01*
X141964063Y-114284427D01*
X141875995Y-114310013D01*
X141812513Y-114328456D01*
X141812511Y-114328457D01*
X141804900Y-114330668D01*
X141798077Y-114334703D01*
X141795996Y-114335934D01*
X141662237Y-114415038D01*
X141545038Y-114532237D01*
X141541004Y-114539057D01*
X141541004Y-114539058D01*
X141513541Y-114585496D01*
X141460668Y-114674900D01*
X141458457Y-114682511D01*
X141458456Y-114682513D01*
X141453366Y-114700033D01*
X141414427Y-114834063D01*
X141413923Y-114840468D01*
X141413922Y-114840473D01*
X141411693Y-114868797D01*
X141411500Y-114871253D01*
X141411501Y-115298746D01*
X141414427Y-115335937D01*
X141460668Y-115495100D01*
X141467032Y-115505860D01*
X141484492Y-115574674D01*
X141467032Y-115634139D01*
X141460668Y-115644900D01*
X141414427Y-115804063D01*
X141413923Y-115810468D01*
X141413922Y-115810473D01*
X141413541Y-115815317D01*
X141411500Y-115841253D01*
X141411501Y-116268746D01*
X141414427Y-116305937D01*
X141460668Y-116465100D01*
X141464703Y-116471923D01*
X141534241Y-116589507D01*
X141551700Y-116658324D01*
X141529183Y-116725655D01*
X141473838Y-116770124D01*
X141457122Y-116775688D01*
X141244237Y-116830347D01*
X141236746Y-116832781D01*
X140962369Y-116941415D01*
X140955234Y-116944772D01*
X140696650Y-117086930D01*
X140689970Y-117091170D01*
X140484770Y-117240256D01*
X140476347Y-117251179D01*
X140483251Y-117264040D01*
X141986000Y-118766790D01*
X143846121Y-120626910D01*
X143859381Y-120634151D01*
X143869484Y-120626963D01*
X143935437Y-120547241D01*
X143940091Y-120540835D01*
X144098195Y-120291703D01*
X144102006Y-120284770D01*
X144162265Y-120156713D01*
X144209367Y-120103592D01*
X144277712Y-120084369D01*
X144345600Y-120105148D01*
X144391477Y-120159331D01*
X144402211Y-120206400D01*
X144402783Y-120224598D01*
X144403327Y-120241889D01*
X144408460Y-120259556D01*
X144408978Y-120261339D01*
X144412987Y-120280700D01*
X144415526Y-120300797D01*
X144418445Y-120308168D01*
X144418445Y-120308170D01*
X144431804Y-120341912D01*
X144435649Y-120353142D01*
X144447982Y-120395593D01*
X144452015Y-120402412D01*
X144452017Y-120402417D01*
X144458293Y-120413028D01*
X144466988Y-120430776D01*
X144474448Y-120449617D01*
X144479110Y-120456033D01*
X144479110Y-120456034D01*
X144500436Y-120485387D01*
X144506952Y-120495307D01*
X144515862Y-120510372D01*
X144529458Y-120533362D01*
X144543779Y-120547683D01*
X144556619Y-120562716D01*
X144568528Y-120579107D01*
X144574865Y-120584349D01*
X144602593Y-120607288D01*
X144611374Y-120615278D01*
X145292353Y-121296258D01*
X145299887Y-121304537D01*
X145304000Y-121311018D01*
X145325096Y-121330828D01*
X145353651Y-121357643D01*
X145356493Y-121360398D01*
X145376230Y-121380135D01*
X145379427Y-121382615D01*
X145388447Y-121390318D01*
X145420679Y-121420586D01*
X145427625Y-121424405D01*
X145427628Y-121424407D01*
X145436139Y-121429086D01*
X145486197Y-121479432D01*
X145501090Y-121548849D01*
X145476088Y-121615298D01*
X145419131Y-121657681D01*
X145375437Y-121665500D01*
X142772810Y-121665500D01*
X142704689Y-121645498D01*
X142658196Y-121591842D01*
X142648092Y-121521568D01*
X142677586Y-121456988D01*
X142731745Y-121421078D01*
X142731584Y-121420672D01*
X142733503Y-121419912D01*
X142733873Y-121419667D01*
X142735263Y-121419215D01*
X143009631Y-121310585D01*
X143016766Y-121307228D01*
X143275350Y-121165070D01*
X143282030Y-121160830D01*
X143487230Y-121011744D01*
X143495653Y-121000821D01*
X143488749Y-120987960D01*
X141998810Y-119498020D01*
X141984869Y-119490408D01*
X141983034Y-119490539D01*
X141976420Y-119494790D01*
X140482927Y-120988284D01*
X140476314Y-121000394D01*
X140485143Y-121012014D01*
X140689970Y-121160830D01*
X140696650Y-121165070D01*
X140955234Y-121307228D01*
X140962369Y-121310585D01*
X141236737Y-121419215D01*
X141238127Y-121419667D01*
X141238470Y-121419901D01*
X141240416Y-121420672D01*
X141240241Y-121421113D01*
X141296733Y-121459742D01*
X141324369Y-121525138D01*
X141312262Y-121595095D01*
X141264255Y-121647401D01*
X141199190Y-121665500D01*
X141029860Y-121665500D01*
X141006380Y-121663293D01*
X141002027Y-121662467D01*
X141002025Y-121662467D01*
X140993210Y-121660795D01*
X140977465Y-121662328D01*
X140952446Y-121662267D01*
X140777123Y-121644341D01*
X140760028Y-121641392D01*
X140703437Y-121627560D01*
X140644259Y-121594259D01*
X139518861Y-120468861D01*
X139485230Y-120408302D01*
X139468163Y-120334901D01*
X139465406Y-120317768D01*
X139450122Y-120149574D01*
X139450570Y-120128313D01*
X139450519Y-120122951D01*
X139451706Y-120114058D01*
X139447948Y-120089480D01*
X139446500Y-120070437D01*
X139446500Y-119898206D01*
X139466502Y-119830085D01*
X139520158Y-119783592D01*
X139590432Y-119773488D01*
X139655012Y-119802982D01*
X139692333Y-119859270D01*
X139741446Y-120010424D01*
X139744361Y-120017787D01*
X139869993Y-120284770D01*
X139873805Y-120291703D01*
X140031909Y-120540835D01*
X140036563Y-120547241D01*
X140101521Y-120625761D01*
X140114040Y-120634217D01*
X140124778Y-120628011D01*
X141613980Y-119138810D01*
X141621592Y-119124869D01*
X141621461Y-119123034D01*
X141617210Y-119116420D01*
X140125881Y-117625092D01*
X140112619Y-117617850D01*
X140102515Y-117625038D01*
X140036563Y-117704759D01*
X140031909Y-117711165D01*
X139873805Y-117960297D01*
X139869993Y-117967230D01*
X139744361Y-118234213D01*
X139741446Y-118241576D01*
X139692333Y-118392730D01*
X139652259Y-118451336D01*
X139586863Y-118478973D01*
X139516906Y-118466866D01*
X139464600Y-118418860D01*
X139446500Y-118353794D01*
X139446500Y-114326467D01*
X139466502Y-114258346D01*
X139520158Y-114211853D01*
X139590432Y-114201749D01*
X139630484Y-114214602D01*
X139637842Y-114218416D01*
X139822812Y-114292961D01*
X139834270Y-114296355D01*
X140031428Y-114334857D01*
X140040291Y-114335934D01*
X140043000Y-114336000D01*
X140222385Y-114336000D01*
X140237624Y-114331525D01*
X140238829Y-114330135D01*
X140240500Y-114322452D01*
X140240500Y-114317885D01*
X140748500Y-114317885D01*
X140752975Y-114333124D01*
X140754365Y-114334329D01*
X140762048Y-114336000D01*
X140894332Y-114336000D01*
X140900308Y-114335715D01*
X141048994Y-114321529D01*
X141060728Y-114319270D01*
X141252099Y-114263128D01*
X141263175Y-114258698D01*
X141440478Y-114167381D01*
X141450524Y-114160931D01*
X141607357Y-114037738D01*
X141616006Y-114029501D01*
X141746712Y-113878877D01*
X141753647Y-113869153D01*
X141853510Y-113696533D01*
X141858484Y-113685669D01*
X141923907Y-113497273D01*
X141924148Y-113496284D01*
X141922680Y-113485992D01*
X141909115Y-113482000D01*
X140766615Y-113482000D01*
X140751376Y-113486475D01*
X140750171Y-113487865D01*
X140748500Y-113495548D01*
X140748500Y-114317885D01*
X140240500Y-114317885D01*
X140240500Y-106194839D01*
X142526927Y-106194839D01*
X142533995Y-106208285D01*
X143181688Y-106855978D01*
X143195632Y-106863592D01*
X143197465Y-106863461D01*
X143204080Y-106859210D01*
X143855726Y-106207564D01*
X143862156Y-106195789D01*
X143852860Y-106183774D01*
X143817863Y-106159269D01*
X143808368Y-106153786D01*
X143622804Y-106067256D01*
X143612512Y-106063510D01*
X143414741Y-106010518D01*
X143403946Y-106008615D01*
X143199975Y-105990769D01*
X143189025Y-105990769D01*
X142985054Y-106008615D01*
X142974259Y-106010518D01*
X142776488Y-106063510D01*
X142766196Y-106067256D01*
X142580632Y-106153786D01*
X142571137Y-106159269D01*
X142535303Y-106184360D01*
X142526927Y-106194839D01*
X140240500Y-106194839D01*
X140240500Y-105955885D01*
X140748500Y-105955885D01*
X140752975Y-105971124D01*
X140754365Y-105972329D01*
X140762048Y-105974000D01*
X141904902Y-105974000D01*
X141918433Y-105970027D01*
X141919788Y-105960601D01*
X141898306Y-105871463D01*
X141894417Y-105860168D01*
X141811871Y-105678618D01*
X141805924Y-105668276D01*
X141690532Y-105505603D01*
X141682739Y-105496575D01*
X141538669Y-105358658D01*
X141529304Y-105351262D01*
X141361759Y-105243079D01*
X141351155Y-105237583D01*
X141166188Y-105163039D01*
X141154730Y-105159645D01*
X140957572Y-105121143D01*
X140948709Y-105120066D01*
X140946000Y-105120000D01*
X140766615Y-105120000D01*
X140751376Y-105124475D01*
X140750171Y-105125865D01*
X140748500Y-105133548D01*
X140748500Y-105955885D01*
X140240500Y-105955885D01*
X140240500Y-105138115D01*
X140236025Y-105122876D01*
X140234635Y-105121671D01*
X140226952Y-105120000D01*
X140094668Y-105120000D01*
X140088692Y-105120285D01*
X139940006Y-105134471D01*
X139928272Y-105136730D01*
X139736901Y-105192872D01*
X139725825Y-105197302D01*
X139630192Y-105246556D01*
X139560473Y-105259965D01*
X139494572Y-105233552D01*
X139453413Y-105175703D01*
X139446500Y-105134540D01*
X139446500Y-103043138D01*
X139466502Y-102975017D01*
X139520158Y-102928524D01*
X139590432Y-102918420D01*
X139655012Y-102947914D01*
X139661595Y-102954043D01*
X139759482Y-103051930D01*
X139897882Y-103135748D01*
X139905129Y-103138019D01*
X139905131Y-103138020D01*
X139954238Y-103153409D01*
X140052281Y-103184134D01*
X140121563Y-103190500D01*
X140124461Y-103190500D01*
X140373151Y-103190499D01*
X140623436Y-103190499D01*
X140626295Y-103190236D01*
X140626303Y-103190236D01*
X140665234Y-103186659D01*
X140692719Y-103184134D01*
X140702034Y-103181215D01*
X140772021Y-103159282D01*
X140843005Y-103157998D01*
X140903416Y-103195294D01*
X140934073Y-103259331D01*
X140935637Y-103275552D01*
X140936827Y-103313389D01*
X140942478Y-103332839D01*
X140946487Y-103352200D01*
X140949026Y-103372297D01*
X140951945Y-103379668D01*
X140951945Y-103379670D01*
X140965304Y-103413412D01*
X140969149Y-103424642D01*
X140979271Y-103459483D01*
X140981482Y-103467093D01*
X140985515Y-103473912D01*
X140985517Y-103473917D01*
X140991793Y-103484528D01*
X141000488Y-103502276D01*
X141007948Y-103521117D01*
X141012610Y-103527533D01*
X141012610Y-103527534D01*
X141033936Y-103556887D01*
X141040452Y-103566807D01*
X141057103Y-103594962D01*
X141073960Y-103645931D01*
X141084208Y-103743431D01*
X141092458Y-103821928D01*
X141151473Y-104003556D01*
X141154776Y-104009278D01*
X141154777Y-104009279D01*
X141164365Y-104025885D01*
X141246960Y-104168944D01*
X141251378Y-104173851D01*
X141251379Y-104173852D01*
X141358548Y-104292875D01*
X141374747Y-104310866D01*
X141529248Y-104423118D01*
X141535276Y-104425802D01*
X141535278Y-104425803D01*
X141697681Y-104498109D01*
X141703712Y-104500794D01*
X141782420Y-104517524D01*
X141884056Y-104539128D01*
X141884061Y-104539128D01*
X141890513Y-104540500D01*
X142081487Y-104540500D01*
X142087939Y-104539128D01*
X142087944Y-104539128D01*
X142189580Y-104517524D01*
X142268288Y-104500794D01*
X142274319Y-104498109D01*
X142436722Y-104425803D01*
X142436724Y-104425802D01*
X142442752Y-104423118D01*
X142597253Y-104310866D01*
X142613452Y-104292875D01*
X142720621Y-104173852D01*
X142720622Y-104173851D01*
X142725040Y-104168944D01*
X142807635Y-104025885D01*
X142817223Y-104009279D01*
X142817224Y-104009278D01*
X142820527Y-104003556D01*
X142879542Y-103821928D01*
X142896907Y-103656706D01*
X142923920Y-103591050D01*
X142933122Y-103580782D01*
X143742405Y-102771499D01*
X143804717Y-102737473D01*
X143875532Y-102742538D01*
G37*
G04 #@! TD.AperFunction*
G04 #@! TA.AperFunction,Conductor*
G36*
X154814489Y-108608959D02*
G01*
X154862045Y-108661674D01*
X154874500Y-108716297D01*
X154874500Y-108774134D01*
X154874869Y-108777529D01*
X154874869Y-108777533D01*
X154878656Y-108812393D01*
X154878656Y-108839606D01*
X154877907Y-108846500D01*
X154876448Y-108859937D01*
X154874500Y-108877866D01*
X154874500Y-109174134D01*
X154881255Y-109236316D01*
X154932385Y-109372705D01*
X155019739Y-109489261D01*
X155136295Y-109576615D01*
X155272684Y-109627745D01*
X155334866Y-109634500D01*
X155923500Y-109634500D01*
X155991621Y-109654502D01*
X156038114Y-109708158D01*
X156049500Y-109760500D01*
X156049500Y-110349134D01*
X156056255Y-110411316D01*
X156107385Y-110547705D01*
X156112771Y-110554891D01*
X156117079Y-110562760D01*
X156115856Y-110563430D01*
X156137406Y-110621120D01*
X156122350Y-110690502D01*
X156100828Y-110719268D01*
X155952567Y-110867528D01*
X155817742Y-111002353D01*
X155809463Y-111009887D01*
X155802982Y-111014000D01*
X155763767Y-111055760D01*
X155756357Y-111063651D01*
X155753602Y-111066493D01*
X155733865Y-111086230D01*
X155731385Y-111089427D01*
X155723682Y-111098447D01*
X155693414Y-111130679D01*
X155689595Y-111137625D01*
X155689593Y-111137628D01*
X155683652Y-111148434D01*
X155672801Y-111164953D01*
X155660386Y-111180959D01*
X155657241Y-111188228D01*
X155657238Y-111188232D01*
X155642826Y-111221537D01*
X155637609Y-111232187D01*
X155616305Y-111270940D01*
X155614334Y-111278615D01*
X155614334Y-111278616D01*
X155611267Y-111290562D01*
X155604863Y-111309266D01*
X155596819Y-111327855D01*
X155595580Y-111335678D01*
X155595577Y-111335688D01*
X155589901Y-111371524D01*
X155587495Y-111383144D01*
X155576500Y-111425970D01*
X155576500Y-111446224D01*
X155574949Y-111465934D01*
X155571780Y-111485943D01*
X155572526Y-111493835D01*
X155575941Y-111529961D01*
X155576500Y-111541819D01*
X155576500Y-113967233D01*
X155575973Y-113978416D01*
X155574298Y-113985909D01*
X155574547Y-113993835D01*
X155574547Y-113993836D01*
X155576438Y-114053986D01*
X155576500Y-114057945D01*
X155576500Y-114085856D01*
X155576997Y-114089790D01*
X155576997Y-114089791D01*
X155577005Y-114089856D01*
X155577938Y-114101693D01*
X155579327Y-114145889D01*
X155584978Y-114165339D01*
X155588987Y-114184700D01*
X155591526Y-114204797D01*
X155594445Y-114212168D01*
X155594445Y-114212170D01*
X155607804Y-114245912D01*
X155611649Y-114257142D01*
X155618726Y-114281501D01*
X155623982Y-114299593D01*
X155628015Y-114306412D01*
X155628017Y-114306417D01*
X155634293Y-114317028D01*
X155642988Y-114334776D01*
X155650448Y-114353617D01*
X155655110Y-114360033D01*
X155655110Y-114360034D01*
X155676436Y-114389387D01*
X155682952Y-114399307D01*
X155700057Y-114428229D01*
X155705458Y-114437362D01*
X155719779Y-114451683D01*
X155732619Y-114466716D01*
X155744528Y-114483107D01*
X155761602Y-114497232D01*
X155778605Y-114511298D01*
X155787384Y-114519288D01*
X156214343Y-114946247D01*
X156221887Y-114954537D01*
X156226000Y-114961018D01*
X156231777Y-114966443D01*
X156275667Y-115007658D01*
X156278509Y-115010413D01*
X156298230Y-115030134D01*
X156301425Y-115032612D01*
X156310447Y-115040318D01*
X156342679Y-115070586D01*
X156349628Y-115074406D01*
X156360432Y-115080346D01*
X156376956Y-115091199D01*
X156392959Y-115103613D01*
X156433543Y-115121176D01*
X156444173Y-115126383D01*
X156482940Y-115147695D01*
X156490617Y-115149666D01*
X156490622Y-115149668D01*
X156502558Y-115152732D01*
X156521266Y-115159137D01*
X156539855Y-115167181D01*
X156547680Y-115168420D01*
X156547682Y-115168421D01*
X156583519Y-115174097D01*
X156595140Y-115176504D01*
X156626959Y-115184673D01*
X156637970Y-115187500D01*
X156658231Y-115187500D01*
X156677940Y-115189051D01*
X156697943Y-115192219D01*
X156705835Y-115191473D01*
X156711062Y-115190979D01*
X156741954Y-115188059D01*
X156753811Y-115187500D01*
X161719233Y-115187500D01*
X161730416Y-115188027D01*
X161737909Y-115189702D01*
X161745835Y-115189453D01*
X161745836Y-115189453D01*
X161805986Y-115187562D01*
X161809945Y-115187500D01*
X161837856Y-115187500D01*
X161841791Y-115187003D01*
X161841856Y-115186995D01*
X161853693Y-115186062D01*
X161885951Y-115185048D01*
X161889970Y-115184922D01*
X161897889Y-115184673D01*
X161917343Y-115179021D01*
X161936700Y-115175013D01*
X161948930Y-115173468D01*
X161948931Y-115173468D01*
X161956797Y-115172474D01*
X161964168Y-115169555D01*
X161964170Y-115169555D01*
X161997912Y-115156196D01*
X162009142Y-115152351D01*
X162043983Y-115142229D01*
X162043984Y-115142229D01*
X162051593Y-115140018D01*
X162058412Y-115135985D01*
X162058417Y-115135983D01*
X162069028Y-115129707D01*
X162086776Y-115121012D01*
X162105617Y-115113552D01*
X162115697Y-115106229D01*
X162141387Y-115087564D01*
X162151307Y-115081048D01*
X162182535Y-115062580D01*
X162182538Y-115062578D01*
X162189362Y-115058542D01*
X162203683Y-115044221D01*
X162218717Y-115031380D01*
X162223050Y-115028232D01*
X162235107Y-115019472D01*
X162263298Y-114985395D01*
X162271288Y-114976616D01*
X162654113Y-114593791D01*
X162716425Y-114559765D01*
X162787240Y-114564830D01*
X162844076Y-114607377D01*
X162868887Y-114673897D01*
X162868231Y-114695905D01*
X162868308Y-114695910D01*
X162868167Y-114698058D01*
X162868129Y-114699336D01*
X162867500Y-114704115D01*
X162867501Y-115218884D01*
X162868039Y-115222969D01*
X162868039Y-115222973D01*
X162873872Y-115267283D01*
X162883162Y-115337850D01*
X162910093Y-115402867D01*
X162934663Y-115462186D01*
X162942252Y-115532776D01*
X162910472Y-115596263D01*
X162869191Y-115621764D01*
X162862171Y-115629865D01*
X162860500Y-115637548D01*
X162860500Y-115710860D01*
X162840498Y-115778981D01*
X162827019Y-115795706D01*
X162824013Y-115798013D01*
X162726476Y-115925125D01*
X162715466Y-115951706D01*
X162702909Y-115982021D01*
X162658361Y-116037302D01*
X162590997Y-116059723D01*
X162522206Y-116042165D01*
X162473828Y-115990203D01*
X162460500Y-115933803D01*
X162460500Y-115642116D01*
X162456025Y-115626877D01*
X162454635Y-115625672D01*
X162446952Y-115624001D01*
X162407277Y-115624001D01*
X162399065Y-115624539D01*
X162292467Y-115638572D01*
X162276652Y-115642810D01*
X162144007Y-115697753D01*
X162129824Y-115705941D01*
X162015920Y-115793344D01*
X162004344Y-115804920D01*
X161916941Y-115918824D01*
X161908753Y-115933007D01*
X161853811Y-116065649D01*
X161849572Y-116081469D01*
X161845284Y-116114040D01*
X161847495Y-116128222D01*
X161860652Y-116132000D01*
X162442386Y-116132000D01*
X162488003Y-116118606D01*
X162558999Y-116118606D01*
X162618725Y-116156990D01*
X162648218Y-116221571D01*
X162649500Y-116239501D01*
X162649501Y-116426621D01*
X162629499Y-116494742D01*
X162575844Y-116541235D01*
X162505570Y-116551340D01*
X162478019Y-116538758D01*
X162446952Y-116532000D01*
X161861035Y-116532000D01*
X161847264Y-116536044D01*
X161845235Y-116549583D01*
X161849572Y-116582533D01*
X161853810Y-116598348D01*
X161908753Y-116730993D01*
X161916941Y-116745176D01*
X162004344Y-116859080D01*
X162015920Y-116870656D01*
X162129824Y-116958059D01*
X162144007Y-116966247D01*
X162276650Y-117021190D01*
X162292468Y-117025428D01*
X162399066Y-117039462D01*
X162407275Y-117040000D01*
X162442385Y-117040000D01*
X162457624Y-117035525D01*
X162458829Y-117034135D01*
X162460500Y-117026452D01*
X162460500Y-116730198D01*
X162480502Y-116662077D01*
X162534158Y-116615584D01*
X162604432Y-116605480D01*
X162669012Y-116634974D01*
X162702909Y-116681980D01*
X162723211Y-116730993D01*
X162726476Y-116738876D01*
X162731502Y-116745426D01*
X162804598Y-116840685D01*
X162824013Y-116865987D01*
X162825118Y-116866835D01*
X162857621Y-116926358D01*
X162860500Y-116953141D01*
X162860500Y-117021884D01*
X162864975Y-117037123D01*
X162866365Y-117038328D01*
X162874048Y-117039999D01*
X162913723Y-117039999D01*
X162921935Y-117039461D01*
X163028525Y-117025429D01*
X163034409Y-117023852D01*
X163096770Y-117023852D01*
X163099150Y-117024838D01*
X163107342Y-117025917D01*
X163107344Y-117025917D01*
X163214028Y-117039962D01*
X163218115Y-117040500D01*
X163475468Y-117040500D01*
X163732884Y-117040499D01*
X163736969Y-117039961D01*
X163736973Y-117039961D01*
X163843663Y-117025916D01*
X163843665Y-117025916D01*
X163851850Y-117024838D01*
X163932077Y-116991607D01*
X163992248Y-116966684D01*
X163992250Y-116966683D01*
X163999876Y-116963524D01*
X164078925Y-116902867D01*
X164120436Y-116871014D01*
X164120437Y-116871013D01*
X164126987Y-116865987D01*
X164207704Y-116760795D01*
X164265041Y-116718929D01*
X164307665Y-116711500D01*
X164739734Y-116711500D01*
X164759673Y-116713838D01*
X164759683Y-116713745D01*
X164773041Y-116715196D01*
X164838603Y-116742437D01*
X164879030Y-116800800D01*
X164881486Y-116871754D01*
X164845191Y-116932772D01*
X164820135Y-116950874D01*
X164572650Y-117086930D01*
X164565970Y-117091170D01*
X164360770Y-117240256D01*
X164352347Y-117251179D01*
X164359251Y-117264040D01*
X165849190Y-118753980D01*
X165863131Y-118761592D01*
X165864966Y-118761461D01*
X165871580Y-118757210D01*
X167365073Y-117263716D01*
X167372687Y-117249772D01*
X167370637Y-117221106D01*
X167367622Y-117213195D01*
X167382216Y-117143715D01*
X167423921Y-117100244D01*
X167423295Y-117099437D01*
X167428773Y-117095188D01*
X167429093Y-117094854D01*
X167429556Y-117094580D01*
X167436384Y-117090542D01*
X167450705Y-117076221D01*
X167465739Y-117063380D01*
X167475715Y-117056132D01*
X167482129Y-117051472D01*
X167510310Y-117017407D01*
X167518300Y-117008626D01*
X168032258Y-116494669D01*
X168040537Y-116487135D01*
X168047018Y-116483022D01*
X168093644Y-116433370D01*
X168096398Y-116430529D01*
X168116135Y-116410792D01*
X168118615Y-116407595D01*
X168126320Y-116398573D01*
X168151159Y-116372122D01*
X168156586Y-116366343D01*
X168160405Y-116359397D01*
X168160407Y-116359394D01*
X168165086Y-116350883D01*
X168215432Y-116300825D01*
X168284849Y-116285932D01*
X168351298Y-116310934D01*
X168393681Y-116367891D01*
X168401500Y-116411585D01*
X168401500Y-118353794D01*
X168381498Y-118421915D01*
X168327842Y-118468408D01*
X168257568Y-118478512D01*
X168192988Y-118449018D01*
X168155667Y-118392730D01*
X168106554Y-118241576D01*
X168103639Y-118234213D01*
X167978007Y-117967230D01*
X167974195Y-117960297D01*
X167816091Y-117711165D01*
X167811437Y-117704759D01*
X167746479Y-117626239D01*
X167733960Y-117617783D01*
X167723222Y-117623989D01*
X166234020Y-119113190D01*
X166226408Y-119127131D01*
X166226539Y-119128966D01*
X166230790Y-119135580D01*
X167722119Y-120626908D01*
X167735381Y-120634150D01*
X167745485Y-120626962D01*
X167811437Y-120547241D01*
X167816091Y-120540835D01*
X167974195Y-120291703D01*
X167978007Y-120284770D01*
X168103639Y-120017787D01*
X168106554Y-120010424D01*
X168155667Y-119859270D01*
X168195741Y-119800664D01*
X168261137Y-119773027D01*
X168331094Y-119785134D01*
X168383400Y-119833140D01*
X168401500Y-119898206D01*
X168401500Y-120255060D01*
X168400449Y-120271303D01*
X168396314Y-120303112D01*
X168397754Y-120312312D01*
X168398512Y-120317157D01*
X168399848Y-120343324D01*
X168399334Y-120352989D01*
X168375743Y-120419952D01*
X168362607Y-120435393D01*
X167169405Y-121628595D01*
X167107093Y-121662621D01*
X167080310Y-121665500D01*
X166648810Y-121665500D01*
X166580689Y-121645498D01*
X166534196Y-121591842D01*
X166524092Y-121521568D01*
X166553586Y-121456988D01*
X166607745Y-121421078D01*
X166607584Y-121420672D01*
X166609503Y-121419912D01*
X166609873Y-121419667D01*
X166611263Y-121419215D01*
X166885631Y-121310585D01*
X166892766Y-121307228D01*
X167151350Y-121165070D01*
X167158030Y-121160830D01*
X167363230Y-121011744D01*
X167371653Y-121000821D01*
X167364749Y-120987960D01*
X165874810Y-119498020D01*
X165860869Y-119490408D01*
X165859034Y-119490539D01*
X165852420Y-119494790D01*
X164358927Y-120988284D01*
X164352314Y-121000394D01*
X164361143Y-121012014D01*
X164565970Y-121160830D01*
X164572650Y-121165070D01*
X164831234Y-121307228D01*
X164838369Y-121310585D01*
X165112737Y-121419215D01*
X165114127Y-121419667D01*
X165114470Y-121419901D01*
X165116416Y-121420672D01*
X165116241Y-121421113D01*
X165172733Y-121459742D01*
X165200369Y-121525138D01*
X165188262Y-121595095D01*
X165140255Y-121647401D01*
X165075190Y-121665500D01*
X151801449Y-121665500D01*
X151733328Y-121645498D01*
X151686835Y-121591842D01*
X151676731Y-121521568D01*
X151706225Y-121456988D01*
X151737309Y-121431047D01*
X151768534Y-121412580D01*
X151775362Y-121408542D01*
X151789683Y-121394221D01*
X151804717Y-121381380D01*
X151814693Y-121374132D01*
X151821107Y-121369472D01*
X151849288Y-121335407D01*
X151857278Y-121326626D01*
X152538258Y-120645647D01*
X152546537Y-120638113D01*
X152553018Y-120634000D01*
X152599644Y-120584348D01*
X152602398Y-120581507D01*
X152622135Y-120561770D01*
X152624615Y-120558573D01*
X152632320Y-120549551D01*
X152641139Y-120540160D01*
X152662586Y-120517321D01*
X152666405Y-120510375D01*
X152666407Y-120510372D01*
X152672348Y-120499566D01*
X152683199Y-120483047D01*
X152690758Y-120473301D01*
X152695614Y-120467041D01*
X152698759Y-120459772D01*
X152698762Y-120459768D01*
X152713174Y-120426463D01*
X152718391Y-120415813D01*
X152739695Y-120377060D01*
X152744733Y-120357437D01*
X152751137Y-120338734D01*
X152756033Y-120327420D01*
X152756033Y-120327419D01*
X152759181Y-120320145D01*
X152760420Y-120312322D01*
X152760423Y-120312312D01*
X152766099Y-120276476D01*
X152768505Y-120264856D01*
X152777528Y-120229711D01*
X152777528Y-120229710D01*
X152779500Y-120222030D01*
X152779500Y-120201776D01*
X152781051Y-120182065D01*
X152782980Y-120169886D01*
X152784220Y-120162057D01*
X152780059Y-120118038D01*
X152779500Y-120106181D01*
X152779500Y-119861500D01*
X152799502Y-119793379D01*
X152853158Y-119746886D01*
X152905500Y-119735500D01*
X153248696Y-119735500D01*
X153316817Y-119755502D01*
X153363310Y-119809158D01*
X153369788Y-119828016D01*
X153370255Y-119832316D01*
X153373027Y-119839709D01*
X153373027Y-119839711D01*
X153414854Y-119951283D01*
X153421385Y-119968705D01*
X153508739Y-120085261D01*
X153625295Y-120172615D01*
X153761684Y-120223745D01*
X153823866Y-120230500D01*
X155040134Y-120230500D01*
X155102316Y-120223745D01*
X155238705Y-120172615D01*
X155355261Y-120085261D01*
X155442615Y-119968705D01*
X155493745Y-119832316D01*
X155500500Y-119770134D01*
X155500500Y-119129958D01*
X163449488Y-119129958D01*
X163468015Y-119424436D01*
X163469008Y-119432297D01*
X163524296Y-119722128D01*
X163526267Y-119729805D01*
X163617446Y-120010424D01*
X163620361Y-120017787D01*
X163745993Y-120284770D01*
X163749805Y-120291703D01*
X163907909Y-120540835D01*
X163912563Y-120547241D01*
X163977521Y-120625761D01*
X163990040Y-120634217D01*
X164000778Y-120628011D01*
X165489980Y-119138810D01*
X165497592Y-119124869D01*
X165497461Y-119123034D01*
X165493210Y-119116420D01*
X164001881Y-117625092D01*
X163988619Y-117617850D01*
X163978515Y-117625038D01*
X163912563Y-117704759D01*
X163907909Y-117711165D01*
X163749805Y-117960297D01*
X163745993Y-117967230D01*
X163620361Y-118234213D01*
X163617446Y-118241576D01*
X163526267Y-118522195D01*
X163524296Y-118529872D01*
X163469008Y-118819703D01*
X163468015Y-118827564D01*
X163449488Y-119122042D01*
X163449488Y-119129958D01*
X155500500Y-119129958D01*
X155500500Y-118433866D01*
X155493745Y-118371684D01*
X155442615Y-118235295D01*
X155378790Y-118150134D01*
X156974500Y-118150134D01*
X156981255Y-118212316D01*
X157032385Y-118348705D01*
X157119739Y-118465261D01*
X157236295Y-118552615D01*
X157372684Y-118603745D01*
X157434866Y-118610500D01*
X158531134Y-118610500D01*
X158593316Y-118603745D01*
X158729705Y-118552615D01*
X158736892Y-118547229D01*
X158744760Y-118542921D01*
X158745891Y-118544987D01*
X158800418Y-118524618D01*
X158848408Y-118530459D01*
X158981769Y-118573790D01*
X158995867Y-118574193D01*
X158999000Y-118567821D01*
X158999000Y-118559564D01*
X159507000Y-118559564D01*
X159510973Y-118573095D01*
X159519188Y-118574276D01*
X159613337Y-118547989D01*
X159624787Y-118543548D01*
X159790226Y-118459979D01*
X159800588Y-118453403D01*
X159809074Y-118446773D01*
X159875068Y-118420595D01*
X159948117Y-118436074D01*
X160117294Y-118530624D01*
X160305392Y-118591740D01*
X160501777Y-118615158D01*
X160507912Y-118614686D01*
X160507914Y-118614686D01*
X160692830Y-118600457D01*
X160692834Y-118600456D01*
X160698972Y-118599984D01*
X160889463Y-118546798D01*
X160894967Y-118544018D01*
X160894969Y-118544017D01*
X161060495Y-118460404D01*
X161060497Y-118460403D01*
X161065996Y-118457625D01*
X161221847Y-118335861D01*
X161351078Y-118186145D01*
X161448769Y-118014179D01*
X161511197Y-117826513D01*
X161535985Y-117630295D01*
X161536380Y-117602000D01*
X161517080Y-117405167D01*
X161459916Y-117215831D01*
X161367066Y-117041204D01*
X161295243Y-116953141D01*
X161245960Y-116892713D01*
X161245957Y-116892710D01*
X161242065Y-116887938D01*
X161237316Y-116884009D01*
X161094425Y-116765799D01*
X161094421Y-116765797D01*
X161089675Y-116761870D01*
X160915701Y-116667802D01*
X160726768Y-116609318D01*
X160720643Y-116608674D01*
X160720642Y-116608674D01*
X160536204Y-116589289D01*
X160536202Y-116589289D01*
X160530075Y-116588645D01*
X160447576Y-116596153D01*
X160339251Y-116606011D01*
X160339248Y-116606012D01*
X160333112Y-116606570D01*
X160327206Y-116608308D01*
X160327202Y-116608309D01*
X160250954Y-116630750D01*
X160143381Y-116662410D01*
X160137923Y-116665263D01*
X160137919Y-116665265D01*
X160105947Y-116681980D01*
X159968110Y-116754040D01*
X159963310Y-116757900D01*
X159958153Y-116761274D01*
X159956849Y-116759281D01*
X159900977Y-116782354D01*
X159831122Y-116769674D01*
X159817186Y-116761522D01*
X159813980Y-116759360D01*
X159650924Y-116671196D01*
X159639619Y-116666444D01*
X159524308Y-116630750D01*
X159510205Y-116630544D01*
X159507000Y-116637299D01*
X159507000Y-118559564D01*
X158999000Y-118559564D01*
X158999000Y-116644076D01*
X158995027Y-116630545D01*
X158987232Y-116629425D01*
X158879479Y-116661138D01*
X158862396Y-116668040D01*
X158861941Y-116666914D01*
X158798604Y-116679498D01*
X158745772Y-116659230D01*
X158744760Y-116661079D01*
X158736892Y-116656771D01*
X158729705Y-116651385D01*
X158593316Y-116600255D01*
X158531134Y-116593500D01*
X157434866Y-116593500D01*
X157372684Y-116600255D01*
X157236295Y-116651385D01*
X157119739Y-116738739D01*
X157032385Y-116855295D01*
X156981255Y-116991684D01*
X156974500Y-117053866D01*
X156974500Y-118150134D01*
X155378790Y-118150134D01*
X155355261Y-118118739D01*
X155238705Y-118031385D01*
X155102316Y-117980255D01*
X155040134Y-117973500D01*
X153823866Y-117973500D01*
X153761684Y-117980255D01*
X153625295Y-118031385D01*
X153508739Y-118118739D01*
X153421385Y-118235295D01*
X153418233Y-118243703D01*
X153373029Y-118364285D01*
X153370255Y-118371684D01*
X153370020Y-118373847D01*
X153336064Y-118433290D01*
X153273110Y-118466112D01*
X153248696Y-118468500D01*
X152436595Y-118468500D01*
X152368474Y-118448498D01*
X152347500Y-118431595D01*
X152141652Y-118225747D01*
X152134112Y-118217461D01*
X152130000Y-118210982D01*
X152096946Y-118179942D01*
X152080349Y-118164357D01*
X152077507Y-118161602D01*
X152057770Y-118141865D01*
X152054573Y-118139385D01*
X152045551Y-118131680D01*
X152019100Y-118106841D01*
X152013321Y-118101414D01*
X152006375Y-118097595D01*
X152006372Y-118097593D01*
X151995566Y-118091652D01*
X151979047Y-118080801D01*
X151978583Y-118080441D01*
X151963041Y-118068386D01*
X151955772Y-118065241D01*
X151955768Y-118065238D01*
X151922463Y-118050826D01*
X151911800Y-118045602D01*
X151888880Y-118033001D01*
X151838822Y-117982655D01*
X151823930Y-117913238D01*
X151848932Y-117846789D01*
X151860410Y-117833570D01*
X151900739Y-117793171D01*
X151909751Y-117781760D01*
X151994816Y-117643757D01*
X152000963Y-117630576D01*
X152052138Y-117476290D01*
X152055005Y-117462914D01*
X152064672Y-117368562D01*
X152065000Y-117362146D01*
X152065000Y-117112115D01*
X152060525Y-117096876D01*
X152059135Y-117095671D01*
X152051452Y-117094000D01*
X150841500Y-117094000D01*
X150773379Y-117073998D01*
X150726886Y-117020342D01*
X150715500Y-116968000D01*
X150715500Y-116567885D01*
X151223500Y-116567885D01*
X151227975Y-116583124D01*
X151229365Y-116584329D01*
X151237048Y-116586000D01*
X152046884Y-116586000D01*
X152062123Y-116581525D01*
X152063328Y-116580135D01*
X152064999Y-116572452D01*
X152064999Y-116317905D01*
X152064662Y-116311386D01*
X152054743Y-116215794D01*
X152051851Y-116202400D01*
X152000412Y-116048216D01*
X151994239Y-116035038D01*
X151908937Y-115897193D01*
X151899897Y-115885787D01*
X151800184Y-115786246D01*
X151766105Y-115723964D01*
X151771108Y-115653143D01*
X151800029Y-115608056D01*
X151900739Y-115507171D01*
X151909751Y-115495760D01*
X151994816Y-115357757D01*
X152000963Y-115344576D01*
X152052138Y-115190290D01*
X152055005Y-115176914D01*
X152064672Y-115082562D01*
X152065000Y-115076146D01*
X152065000Y-114826115D01*
X152060525Y-114810876D01*
X152059135Y-114809671D01*
X152051452Y-114808000D01*
X151241615Y-114808000D01*
X151226376Y-114812475D01*
X151225171Y-114813865D01*
X151223500Y-114821548D01*
X151223500Y-116567885D01*
X150715500Y-116567885D01*
X150715500Y-114426000D01*
X150735502Y-114357879D01*
X150789158Y-114311386D01*
X150841500Y-114300000D01*
X152046884Y-114300000D01*
X152062123Y-114295525D01*
X152063328Y-114294135D01*
X152064999Y-114286452D01*
X152064999Y-114031905D01*
X152064662Y-114025386D01*
X152054743Y-113929794D01*
X152051851Y-113916400D01*
X152051323Y-113914817D01*
X152051285Y-113913779D01*
X152050395Y-113909657D01*
X152051129Y-113909498D01*
X152048739Y-113843867D01*
X152084923Y-113782783D01*
X152148387Y-113750959D01*
X152218982Y-113758498D01*
X152259942Y-113785846D01*
X153467520Y-114993424D01*
X153501546Y-115055736D01*
X153496481Y-115126551D01*
X153479251Y-115158084D01*
X153426771Y-115228108D01*
X153426770Y-115228110D01*
X153421385Y-115235295D01*
X153370255Y-115371684D01*
X153363500Y-115433866D01*
X153363500Y-116770134D01*
X153370255Y-116832316D01*
X153421385Y-116968705D01*
X153508739Y-117085261D01*
X153625295Y-117172615D01*
X153761684Y-117223745D01*
X153823866Y-117230500D01*
X155040134Y-117230500D01*
X155102316Y-117223745D01*
X155238705Y-117172615D01*
X155355261Y-117085261D01*
X155442615Y-116968705D01*
X155493745Y-116832316D01*
X155500500Y-116770134D01*
X155500500Y-115433866D01*
X155493745Y-115371684D01*
X155442615Y-115235295D01*
X155355261Y-115118739D01*
X155238705Y-115031385D01*
X155230296Y-115028233D01*
X155230295Y-115028232D01*
X155127191Y-114989580D01*
X155070426Y-114946939D01*
X155050821Y-114905946D01*
X155050474Y-114903203D01*
X155047556Y-114895833D01*
X155047555Y-114895829D01*
X155034200Y-114862097D01*
X155030355Y-114850870D01*
X155023677Y-114827886D01*
X155018018Y-114808407D01*
X155013984Y-114801585D01*
X155013981Y-114801579D01*
X155007706Y-114790968D01*
X154999010Y-114773218D01*
X154994472Y-114761756D01*
X154994469Y-114761751D01*
X154991552Y-114754383D01*
X154965573Y-114718625D01*
X154959057Y-114708707D01*
X154940575Y-114677457D01*
X154936542Y-114670637D01*
X154922218Y-114656313D01*
X154909376Y-114641278D01*
X154897472Y-114624893D01*
X154863406Y-114596711D01*
X154854627Y-114588722D01*
X152882911Y-112617006D01*
X152848885Y-112554694D01*
X152853950Y-112483879D01*
X152896497Y-112427043D01*
X152961246Y-112403531D01*
X152961134Y-112402500D01*
X153023316Y-112395745D01*
X153159705Y-112344615D01*
X153276261Y-112257261D01*
X153363615Y-112140705D01*
X153414745Y-112004316D01*
X153421500Y-111942134D01*
X153421500Y-111495866D01*
X153414745Y-111433684D01*
X153411971Y-111426284D01*
X153410966Y-111422058D01*
X153410966Y-111363761D01*
X153415105Y-111346354D01*
X153420631Y-111295486D01*
X153421000Y-111288672D01*
X153421000Y-111262115D01*
X153416525Y-111246876D01*
X153415135Y-111245671D01*
X153407452Y-111244000D01*
X153386700Y-111244000D01*
X153318579Y-111223998D01*
X153285873Y-111193564D01*
X153281645Y-111187922D01*
X153281642Y-111187919D01*
X153276261Y-111180739D01*
X153261698Y-111169825D01*
X153219185Y-111112966D01*
X153214160Y-111042148D01*
X153248220Y-110979854D01*
X153261694Y-110968179D01*
X153276261Y-110957261D01*
X153281642Y-110950081D01*
X153281645Y-110950078D01*
X153285873Y-110944436D01*
X153342731Y-110901921D01*
X153386700Y-110894000D01*
X153402884Y-110894000D01*
X153418123Y-110889525D01*
X153419328Y-110888135D01*
X153420999Y-110880452D01*
X153420999Y-110849331D01*
X153420629Y-110842510D01*
X153415105Y-110791651D01*
X153410965Y-110774236D01*
X153410966Y-110715942D01*
X153411971Y-110711716D01*
X153414745Y-110704316D01*
X153421500Y-110642134D01*
X153421500Y-110195866D01*
X153414745Y-110133684D01*
X153411971Y-110126285D01*
X153411225Y-110123146D01*
X153411225Y-110064854D01*
X153411971Y-110061715D01*
X153414745Y-110054316D01*
X153421500Y-109992134D01*
X153421500Y-109958594D01*
X153441502Y-109890473D01*
X153458405Y-109869499D01*
X153954054Y-109373851D01*
X154469753Y-108858152D01*
X154478039Y-108850612D01*
X154484518Y-108846500D01*
X154500459Y-108829525D01*
X154531143Y-108796849D01*
X154533898Y-108794007D01*
X154553635Y-108774270D01*
X154556115Y-108771073D01*
X154563820Y-108762051D01*
X154594086Y-108729821D01*
X154597905Y-108722875D01*
X154597907Y-108722872D01*
X154603848Y-108712066D01*
X154614699Y-108695547D01*
X154622258Y-108685801D01*
X154627114Y-108679541D01*
X154632863Y-108666256D01*
X154678274Y-108611682D01*
X154745982Y-108590322D01*
X154814489Y-108608959D01*
G37*
G04 #@! TD.AperFunction*
G04 #@! TA.AperFunction,Conductor*
G36*
X151391527Y-119271502D02*
G01*
X151412501Y-119288405D01*
X151475595Y-119351499D01*
X151509621Y-119413811D01*
X151512500Y-119440594D01*
X151512500Y-119827405D01*
X151492498Y-119895526D01*
X151475595Y-119916501D01*
X151158499Y-120233596D01*
X151096187Y-120267621D01*
X151069404Y-120270500D01*
X150734967Y-120270500D01*
X150666846Y-120250498D01*
X150620353Y-120196842D01*
X150611330Y-120168790D01*
X150606689Y-120145165D01*
X150594793Y-120142000D01*
X149621500Y-120142000D01*
X149553379Y-120121998D01*
X149506886Y-120068342D01*
X149495500Y-120016000D01*
X149495500Y-119760000D01*
X149515502Y-119691879D01*
X149569158Y-119645386D01*
X149621500Y-119634000D01*
X150593153Y-119634000D01*
X150607698Y-119629729D01*
X150609761Y-119617596D01*
X150609249Y-119612027D01*
X150606639Y-119598994D01*
X150562561Y-119458339D01*
X150556354Y-119444593D01*
X150555254Y-119442776D01*
X150554856Y-119441274D01*
X150553227Y-119437666D01*
X150553828Y-119437395D01*
X150537072Y-119374147D01*
X150558880Y-119306582D01*
X150613754Y-119261534D01*
X150663027Y-119251500D01*
X151323406Y-119251500D01*
X151391527Y-119271502D01*
G37*
G04 #@! TD.AperFunction*
G04 #@! TA.AperFunction,Conductor*
G36*
X145291027Y-114287502D02*
G01*
X145312001Y-114304405D01*
X145505095Y-114497499D01*
X145539121Y-114559811D01*
X145542000Y-114586594D01*
X145542000Y-115805885D01*
X145546475Y-115821124D01*
X145572170Y-115843389D01*
X145571075Y-115844652D01*
X145580787Y-115849954D01*
X145614818Y-115912263D01*
X145617700Y-115939058D01*
X145617700Y-116206000D01*
X145597698Y-116274121D01*
X145544042Y-116320614D01*
X145491700Y-116332000D01*
X145035618Y-116332000D01*
X144967497Y-116311998D01*
X144921004Y-116258342D01*
X144917636Y-116250230D01*
X144903567Y-116212702D01*
X144900415Y-116204294D01*
X144891288Y-116192115D01*
X144862396Y-116153565D01*
X144837548Y-116087058D01*
X144852601Y-116017676D01*
X144862396Y-116002435D01*
X144895029Y-115958893D01*
X144895030Y-115958891D01*
X144900415Y-115951706D01*
X144917836Y-115905236D01*
X144960478Y-115848472D01*
X145000320Y-115828570D01*
X145031124Y-115819525D01*
X145032329Y-115818135D01*
X145034000Y-115810452D01*
X145034000Y-114559416D01*
X145029525Y-114544177D01*
X145028135Y-114542972D01*
X145007217Y-114538422D01*
X145008086Y-114534426D01*
X144963379Y-114521299D01*
X144916886Y-114467643D01*
X144905500Y-114415301D01*
X144905500Y-114393500D01*
X144925502Y-114325379D01*
X144979158Y-114278886D01*
X145031500Y-114267500D01*
X145222906Y-114267500D01*
X145291027Y-114287502D01*
G37*
G04 #@! TD.AperFunction*
G04 #@! TA.AperFunction,Conductor*
G36*
X166273681Y-113127815D02*
G01*
X166351281Y-113152134D01*
X166420563Y-113158500D01*
X166601864Y-113158500D01*
X166669985Y-113178502D01*
X166716478Y-113232158D01*
X166726582Y-113302432D01*
X166697088Y-113367012D01*
X166637361Y-113405396D01*
X166626876Y-113408475D01*
X166625671Y-113409865D01*
X166624000Y-113417548D01*
X166624000Y-115826500D01*
X166603998Y-115894621D01*
X166550342Y-115941114D01*
X166498000Y-115952500D01*
X166304500Y-115952500D01*
X166236379Y-115932498D01*
X166189886Y-115878842D01*
X166178500Y-115826500D01*
X166178500Y-115263866D01*
X166171745Y-115201684D01*
X166168973Y-115194288D01*
X166168971Y-115194282D01*
X166135961Y-115106229D01*
X166130778Y-115035422D01*
X166135961Y-115017771D01*
X166168971Y-114929718D01*
X166168973Y-114929712D01*
X166171745Y-114922316D01*
X166178500Y-114860134D01*
X166178500Y-113863866D01*
X166171745Y-113801684D01*
X166168973Y-113794288D01*
X166168971Y-113794282D01*
X166124018Y-113674371D01*
X166116000Y-113630142D01*
X166116000Y-113422116D01*
X166115104Y-113419065D01*
X166110000Y-113383567D01*
X166110000Y-113248049D01*
X166130002Y-113179928D01*
X166183658Y-113133435D01*
X166253932Y-113123331D01*
X166273681Y-113127815D01*
G37*
G04 #@! TD.AperFunction*
G04 #@! TA.AperFunction,Conductor*
G36*
X157284111Y-111534991D02*
G01*
X157330604Y-111588647D01*
X157341299Y-111627817D01*
X157348458Y-111695928D01*
X157407473Y-111877556D01*
X157410776Y-111883278D01*
X157410777Y-111883279D01*
X157414734Y-111890132D01*
X157502960Y-112042944D01*
X157507378Y-112047851D01*
X157507379Y-112047852D01*
X157608416Y-112160065D01*
X157630747Y-112184866D01*
X157716889Y-112247452D01*
X157733750Y-112259702D01*
X157785248Y-112297118D01*
X157791276Y-112299802D01*
X157791278Y-112299803D01*
X157953681Y-112372109D01*
X157959712Y-112374794D01*
X158045228Y-112392971D01*
X158140056Y-112413128D01*
X158140061Y-112413128D01*
X158146513Y-112414500D01*
X158213197Y-112414500D01*
X158281318Y-112434502D01*
X158327811Y-112488158D01*
X158337915Y-112558432D01*
X158308421Y-112623012D01*
X158248695Y-112661396D01*
X158239394Y-112663746D01*
X158220178Y-112667831D01*
X158220173Y-112667833D01*
X158213712Y-112669206D01*
X158207682Y-112671891D01*
X158207681Y-112671891D01*
X158045278Y-112744197D01*
X158045276Y-112744198D01*
X158039248Y-112746882D01*
X157884747Y-112859134D01*
X157880326Y-112864044D01*
X157880325Y-112864045D01*
X157785351Y-112969525D01*
X157756960Y-113001056D01*
X157728050Y-113051130D01*
X157669382Y-113152746D01*
X157661473Y-113166444D01*
X157602458Y-113348072D01*
X157601768Y-113354633D01*
X157601768Y-113354635D01*
X157586288Y-113501920D01*
X157582496Y-113538000D01*
X157583186Y-113544565D01*
X157601726Y-113720959D01*
X157602458Y-113727928D01*
X157604497Y-113734203D01*
X157604498Y-113734208D01*
X157611437Y-113755562D01*
X157613466Y-113826529D01*
X157576805Y-113887328D01*
X157513093Y-113918654D01*
X157491605Y-113920500D01*
X157032595Y-113920500D01*
X156964474Y-113900498D01*
X156943500Y-113883595D01*
X156880405Y-113820500D01*
X156846379Y-113758188D01*
X156843500Y-113731405D01*
X156843500Y-111820595D01*
X156863502Y-111752474D01*
X156880405Y-111731499D01*
X157060012Y-111551893D01*
X157122324Y-111517868D01*
X157149107Y-111514989D01*
X157215990Y-111514989D01*
X157284111Y-111534991D01*
G37*
G04 #@! TD.AperFunction*
G04 #@! TA.AperFunction,Conductor*
G36*
X144586512Y-110430870D02*
G01*
X144593095Y-110436999D01*
X144784343Y-110628247D01*
X144791887Y-110636537D01*
X144796000Y-110643018D01*
X144801777Y-110648443D01*
X144845667Y-110689658D01*
X144848509Y-110692413D01*
X144868230Y-110712134D01*
X144871425Y-110714612D01*
X144880447Y-110722318D01*
X144912679Y-110752586D01*
X144919628Y-110756406D01*
X144930432Y-110762346D01*
X144946956Y-110773199D01*
X144962959Y-110785613D01*
X145003543Y-110803176D01*
X145014173Y-110808383D01*
X145052940Y-110829695D01*
X145060617Y-110831666D01*
X145060622Y-110831668D01*
X145072558Y-110834732D01*
X145091266Y-110841137D01*
X145109855Y-110849181D01*
X145117680Y-110850420D01*
X145117682Y-110850421D01*
X145153519Y-110856097D01*
X145165140Y-110858504D01*
X145200289Y-110867528D01*
X145207970Y-110869500D01*
X145228231Y-110869500D01*
X145247940Y-110871051D01*
X145267943Y-110874219D01*
X145275835Y-110873473D01*
X145281062Y-110872979D01*
X145311954Y-110870059D01*
X145323811Y-110869500D01*
X145595800Y-110869500D01*
X145663921Y-110889502D01*
X145683147Y-110905843D01*
X145683420Y-110905540D01*
X145688332Y-110909963D01*
X145692747Y-110914866D01*
X145698086Y-110918745D01*
X145837150Y-111019781D01*
X145847248Y-111027118D01*
X145853278Y-111029803D01*
X145859001Y-111033107D01*
X145858232Y-111034439D01*
X145906322Y-111075316D01*
X145926970Y-111143244D01*
X145926320Y-111157283D01*
X145920328Y-111215768D01*
X145920000Y-111222185D01*
X145920000Y-111233885D01*
X145924475Y-111249124D01*
X145925865Y-111250329D01*
X145933548Y-111252000D01*
X147093500Y-111252000D01*
X147161621Y-111272002D01*
X147208114Y-111325658D01*
X147219500Y-111378000D01*
X147219500Y-112428633D01*
X147199498Y-112496754D01*
X147188724Y-112511146D01*
X147168171Y-112534865D01*
X147166500Y-112542548D01*
X147166500Y-113011885D01*
X147170975Y-113027124D01*
X147172365Y-113028329D01*
X147180048Y-113030000D01*
X147939885Y-113030000D01*
X147955124Y-113025525D01*
X147956329Y-113024135D01*
X147958000Y-113016452D01*
X147958000Y-113000234D01*
X147957663Y-112993718D01*
X147947925Y-112899868D01*
X147945032Y-112886472D01*
X147894512Y-112735047D01*
X147888347Y-112721885D01*
X147804574Y-112586508D01*
X147795536Y-112575106D01*
X147730957Y-112510639D01*
X147696877Y-112448357D01*
X147701880Y-112377537D01*
X147733716Y-112333716D01*
X147731718Y-112331722D01*
X147738567Y-112324861D01*
X147741194Y-112323424D01*
X147741697Y-112322731D01*
X147742614Y-112322004D01*
X147742969Y-112322452D01*
X147800849Y-112290781D01*
X147871669Y-112295784D01*
X147916754Y-112324701D01*
X147919583Y-112327524D01*
X147924997Y-112332929D01*
X147931227Y-112336769D01*
X147931228Y-112336770D01*
X148054025Y-112412463D01*
X148073080Y-112424209D01*
X148169783Y-112456284D01*
X148174667Y-112457904D01*
X148233027Y-112498335D01*
X148260264Y-112563899D01*
X148261000Y-112577497D01*
X148261000Y-113299954D01*
X148240998Y-113368075D01*
X148201303Y-113407098D01*
X148124111Y-113454866D01*
X148082652Y-113480522D01*
X148077479Y-113485704D01*
X148077474Y-113485708D01*
X148059511Y-113503702D01*
X147997229Y-113537781D01*
X147958000Y-113537799D01*
X147958000Y-113538000D01*
X146784500Y-113538000D01*
X146716379Y-113517998D01*
X146669886Y-113464342D01*
X146658500Y-113412000D01*
X146658500Y-112361367D01*
X146678502Y-112293246D01*
X146689276Y-112278854D01*
X146709829Y-112255135D01*
X146711500Y-112247452D01*
X146711500Y-111778115D01*
X146707025Y-111762876D01*
X146705635Y-111761671D01*
X146697952Y-111760000D01*
X145938115Y-111760000D01*
X145922876Y-111764475D01*
X145921671Y-111765865D01*
X145920000Y-111773548D01*
X145920000Y-111789766D01*
X145920337Y-111796282D01*
X145930075Y-111890132D01*
X145932968Y-111903528D01*
X145983488Y-112054953D01*
X145989653Y-112068115D01*
X146073426Y-112203492D01*
X146082464Y-112214894D01*
X146147043Y-112279361D01*
X146181123Y-112341643D01*
X146176120Y-112412463D01*
X146144284Y-112456284D01*
X146146282Y-112458278D01*
X146139433Y-112465139D01*
X146136806Y-112466576D01*
X146136303Y-112467269D01*
X146135386Y-112467996D01*
X146135031Y-112467548D01*
X146077151Y-112499219D01*
X146006331Y-112494216D01*
X145961246Y-112465299D01*
X145958185Y-112462244D01*
X145953003Y-112457071D01*
X145946772Y-112453230D01*
X145811150Y-112369631D01*
X145811148Y-112369630D01*
X145804920Y-112365791D01*
X145639809Y-112311026D01*
X145632973Y-112310326D01*
X145632970Y-112310325D01*
X145581474Y-112305049D01*
X145537072Y-112300500D01*
X144837928Y-112300500D01*
X144834682Y-112300837D01*
X144834678Y-112300837D01*
X144740765Y-112310581D01*
X144740761Y-112310582D01*
X144733907Y-112311293D01*
X144727371Y-112313474D01*
X144727369Y-112313474D01*
X144597607Y-112356766D01*
X144526657Y-112359350D01*
X144465574Y-112323166D01*
X144433749Y-112259702D01*
X144431731Y-112237242D01*
X144431731Y-112222525D01*
X144413885Y-112018554D01*
X144411982Y-112007759D01*
X144358990Y-111809988D01*
X144355244Y-111799696D01*
X144280011Y-111638359D01*
X144269350Y-111568167D01*
X144293379Y-111509545D01*
X144314286Y-111481648D01*
X144322824Y-111466054D01*
X144367978Y-111345606D01*
X144371605Y-111330351D01*
X144377131Y-111279486D01*
X144377500Y-111272672D01*
X144377500Y-111246115D01*
X144373025Y-111230876D01*
X144371635Y-111229671D01*
X144363952Y-111228000D01*
X144228384Y-111228000D01*
X144160263Y-111207998D01*
X144113770Y-111154342D01*
X144103666Y-111084068D01*
X144133160Y-111019488D01*
X144152819Y-111001174D01*
X144181267Y-110979854D01*
X144232761Y-110941261D01*
X144280742Y-110877240D01*
X144337601Y-110834725D01*
X144346070Y-110831909D01*
X144374623Y-110823525D01*
X144375828Y-110822135D01*
X144377499Y-110814452D01*
X144377499Y-110783331D01*
X144377129Y-110776510D01*
X144370752Y-110717793D01*
X144373498Y-110717495D01*
X144373440Y-110688554D01*
X144371245Y-110688316D01*
X144377631Y-110629531D01*
X144378000Y-110626134D01*
X144378000Y-110526094D01*
X144398002Y-110457973D01*
X144451658Y-110411480D01*
X144521932Y-110401376D01*
X144586512Y-110430870D01*
G37*
G04 #@! TD.AperFunction*
G04 #@! TA.AperFunction,Conductor*
G36*
X166508049Y-105256021D02*
G01*
X166564885Y-105298568D01*
X166573134Y-105311075D01*
X166646960Y-105438944D01*
X166651378Y-105443851D01*
X166651379Y-105443852D01*
X166726064Y-105526798D01*
X166774747Y-105580866D01*
X166845398Y-105632197D01*
X166909291Y-105678618D01*
X166929248Y-105693118D01*
X166935276Y-105695802D01*
X166935278Y-105695803D01*
X167097681Y-105768109D01*
X167103712Y-105770794D01*
X167191716Y-105789500D01*
X167284056Y-105809128D01*
X167284061Y-105809128D01*
X167290513Y-105810500D01*
X167481487Y-105810500D01*
X167487939Y-105809128D01*
X167487944Y-105809128D01*
X167580284Y-105789500D01*
X167668288Y-105770794D01*
X167674319Y-105768109D01*
X167836722Y-105695803D01*
X167836724Y-105695802D01*
X167842752Y-105693118D01*
X167862710Y-105678618D01*
X167926602Y-105632197D01*
X167997253Y-105580866D01*
X168045936Y-105526798D01*
X168120621Y-105443852D01*
X168120622Y-105443851D01*
X168125040Y-105438944D01*
X168166382Y-105367338D01*
X168217763Y-105318346D01*
X168287477Y-105304910D01*
X168353388Y-105331296D01*
X168394570Y-105389128D01*
X168401500Y-105430339D01*
X168401500Y-110326551D01*
X168381498Y-110394672D01*
X168327842Y-110441165D01*
X168257568Y-110451269D01*
X168192988Y-110421775D01*
X168167046Y-110390689D01*
X168148578Y-110359460D01*
X168148574Y-110359455D01*
X168144542Y-110352637D01*
X168130218Y-110338313D01*
X168117376Y-110323278D01*
X168105472Y-110306893D01*
X168071406Y-110278711D01*
X168062627Y-110270722D01*
X167635652Y-109843747D01*
X167628112Y-109835461D01*
X167624000Y-109828982D01*
X167574348Y-109782356D01*
X167571507Y-109779602D01*
X167551770Y-109759865D01*
X167548573Y-109757385D01*
X167539551Y-109749680D01*
X167513100Y-109724841D01*
X167507321Y-109719414D01*
X167500375Y-109715595D01*
X167500372Y-109715593D01*
X167489566Y-109709652D01*
X167473047Y-109698801D01*
X167464767Y-109692379D01*
X167457041Y-109686386D01*
X167449772Y-109683241D01*
X167449768Y-109683238D01*
X167416463Y-109668826D01*
X167405813Y-109663609D01*
X167367060Y-109642305D01*
X167347437Y-109637267D01*
X167328734Y-109630863D01*
X167317420Y-109625967D01*
X167317419Y-109625967D01*
X167310145Y-109622819D01*
X167302322Y-109621580D01*
X167302312Y-109621577D01*
X167266476Y-109615901D01*
X167254856Y-109613495D01*
X167219711Y-109604472D01*
X167219710Y-109604472D01*
X167212030Y-109602500D01*
X167191776Y-109602500D01*
X167172065Y-109600949D01*
X167159886Y-109599020D01*
X167152057Y-109597780D01*
X167144165Y-109598526D01*
X167108039Y-109601941D01*
X167096181Y-109602500D01*
X166360020Y-109602500D01*
X166291899Y-109582498D01*
X166245406Y-109528842D01*
X166240187Y-109515436D01*
X166229349Y-109482080D01*
X166188527Y-109356444D01*
X166171028Y-109326134D01*
X166096341Y-109196774D01*
X166093040Y-109191056D01*
X166077804Y-109174134D01*
X165969675Y-109054045D01*
X165969674Y-109054044D01*
X165965253Y-109049134D01*
X165861188Y-108973526D01*
X165816094Y-108940763D01*
X165816093Y-108940762D01*
X165810752Y-108936882D01*
X165804724Y-108934198D01*
X165804722Y-108934197D01*
X165642319Y-108861891D01*
X165642318Y-108861891D01*
X165636288Y-108859206D01*
X165542888Y-108839353D01*
X165455944Y-108820872D01*
X165455939Y-108820872D01*
X165449487Y-108819500D01*
X165376254Y-108819500D01*
X165308133Y-108799498D01*
X165261640Y-108745842D01*
X165250944Y-108706671D01*
X165232232Y-108528634D01*
X165232231Y-108528631D01*
X165231542Y-108522072D01*
X165172527Y-108340444D01*
X165169082Y-108334476D01*
X165157390Y-108314226D01*
X165140652Y-108245231D01*
X165166547Y-108174522D01*
X165173667Y-108165243D01*
X165221524Y-108102875D01*
X165245091Y-108045979D01*
X165289639Y-107990698D01*
X165357003Y-107968277D01*
X165425794Y-107985835D01*
X165474172Y-108037797D01*
X165487500Y-108094197D01*
X165487500Y-108385884D01*
X165491975Y-108401123D01*
X165493365Y-108402328D01*
X165501048Y-108403999D01*
X165540723Y-108403999D01*
X165548935Y-108403461D01*
X165655533Y-108389428D01*
X165671348Y-108385190D01*
X165803993Y-108330247D01*
X165818176Y-108322059D01*
X165932080Y-108234656D01*
X165943656Y-108223080D01*
X166031059Y-108109176D01*
X166039247Y-108094993D01*
X166094190Y-107962348D01*
X166096274Y-107954571D01*
X166133224Y-107893948D01*
X166197084Y-107862925D01*
X166267579Y-107871352D01*
X166292042Y-107885244D01*
X166409684Y-107970716D01*
X166421248Y-107979118D01*
X166427276Y-107981802D01*
X166427278Y-107981803D01*
X166557109Y-108039607D01*
X166595712Y-108056794D01*
X166687231Y-108076247D01*
X166776056Y-108095128D01*
X166776061Y-108095128D01*
X166782513Y-108096500D01*
X166973487Y-108096500D01*
X166979939Y-108095128D01*
X166979944Y-108095128D01*
X167068769Y-108076247D01*
X167160288Y-108056794D01*
X167198891Y-108039607D01*
X167328722Y-107981803D01*
X167328724Y-107981802D01*
X167334752Y-107979118D01*
X167346317Y-107970716D01*
X167414907Y-107920882D01*
X167489253Y-107866866D01*
X167516540Y-107836561D01*
X167612621Y-107729852D01*
X167612622Y-107729851D01*
X167617040Y-107724944D01*
X167675314Y-107624010D01*
X167709223Y-107565279D01*
X167709224Y-107565278D01*
X167712527Y-107559556D01*
X167771542Y-107377928D01*
X167775848Y-107336964D01*
X167790814Y-107194565D01*
X167791504Y-107188000D01*
X167778219Y-107061597D01*
X167772232Y-107004635D01*
X167772232Y-107004633D01*
X167771542Y-106998072D01*
X167712527Y-106816444D01*
X167688717Y-106775203D01*
X167637137Y-106685865D01*
X167617040Y-106651056D01*
X167594825Y-106626383D01*
X167493675Y-106514045D01*
X167493674Y-106514044D01*
X167489253Y-106509134D01*
X167334752Y-106396882D01*
X167328724Y-106394198D01*
X167328722Y-106394197D01*
X167166319Y-106321891D01*
X167166318Y-106321891D01*
X167160288Y-106319206D01*
X167050078Y-106295780D01*
X166979944Y-106280872D01*
X166979939Y-106280872D01*
X166973487Y-106279500D01*
X166782513Y-106279500D01*
X166776061Y-106280872D01*
X166776056Y-106280872D01*
X166595712Y-106319206D01*
X166595129Y-106316463D01*
X166548712Y-106317235D01*
X166548144Y-106320818D01*
X166504476Y-106313901D01*
X166492856Y-106311495D01*
X166457711Y-106302472D01*
X166457710Y-106302472D01*
X166450030Y-106300500D01*
X166429776Y-106300500D01*
X166410065Y-106298949D01*
X166390057Y-106295780D01*
X166386862Y-106296082D01*
X166321396Y-106274603D01*
X166276612Y-106219513D01*
X166267350Y-106173464D01*
X166267504Y-106172000D01*
X166265057Y-106148719D01*
X166248232Y-105988635D01*
X166248232Y-105988633D01*
X166247542Y-105982072D01*
X166188527Y-105800444D01*
X166182209Y-105789500D01*
X166157748Y-105747134D01*
X166116421Y-105675552D01*
X166099683Y-105606559D01*
X166122903Y-105539467D01*
X166136445Y-105523459D01*
X166374922Y-105284982D01*
X166437234Y-105250956D01*
X166508049Y-105256021D01*
G37*
G04 #@! TD.AperFunction*
G04 #@! TA.AperFunction,Conductor*
G36*
X150369879Y-105937021D02*
G01*
X150407922Y-105965782D01*
X150518747Y-106088866D01*
X150601127Y-106148719D01*
X150664606Y-106194839D01*
X150673248Y-106201118D01*
X150679278Y-106203803D01*
X150685001Y-106207107D01*
X150683845Y-106209109D01*
X150729856Y-106248229D01*
X150750500Y-106317339D01*
X150750500Y-108905405D01*
X150730498Y-108973526D01*
X150713595Y-108994500D01*
X150659500Y-109048595D01*
X150597188Y-109082621D01*
X150570405Y-109085500D01*
X150419595Y-109085500D01*
X150351474Y-109065498D01*
X150330500Y-109048595D01*
X149855652Y-108573747D01*
X149848112Y-108565461D01*
X149844000Y-108558982D01*
X149794348Y-108512356D01*
X149791507Y-108509602D01*
X149771770Y-108489865D01*
X149768573Y-108487385D01*
X149759551Y-108479680D01*
X149733100Y-108454841D01*
X149727321Y-108449414D01*
X149720375Y-108445595D01*
X149720372Y-108445593D01*
X149709566Y-108439652D01*
X149693047Y-108428801D01*
X149689436Y-108426000D01*
X149677041Y-108416386D01*
X149669772Y-108413241D01*
X149669768Y-108413238D01*
X149636463Y-108398826D01*
X149625813Y-108393609D01*
X149587060Y-108372305D01*
X149585239Y-108371838D01*
X149559686Y-108357351D01*
X149536427Y-108339503D01*
X149536424Y-108339501D01*
X149529875Y-108334476D01*
X149381850Y-108273162D01*
X149312668Y-108264054D01*
X149266972Y-108258038D01*
X149266971Y-108258038D01*
X149262885Y-108257500D01*
X149005532Y-108257500D01*
X148748116Y-108257501D01*
X148744031Y-108258039D01*
X148744027Y-108258039D01*
X148698337Y-108264054D01*
X148629150Y-108273162D01*
X148627400Y-108273887D01*
X148568598Y-108273886D01*
X148566850Y-108273162D01*
X148558666Y-108272085D01*
X148558664Y-108272084D01*
X148451972Y-108258038D01*
X148451971Y-108258038D01*
X148447885Y-108257500D01*
X148190532Y-108257500D01*
X147933116Y-108257501D01*
X147929031Y-108258039D01*
X147929027Y-108258039D01*
X147822337Y-108272084D01*
X147822335Y-108272084D01*
X147814150Y-108273162D01*
X147740137Y-108303819D01*
X147673752Y-108331316D01*
X147673750Y-108331317D01*
X147666124Y-108334476D01*
X147659574Y-108339502D01*
X147582263Y-108398826D01*
X147539013Y-108432013D01*
X147533987Y-108438563D01*
X147533984Y-108438566D01*
X147501206Y-108481284D01*
X147441476Y-108559125D01*
X147380162Y-108707150D01*
X147379084Y-108715338D01*
X147368595Y-108795010D01*
X147339872Y-108859937D01*
X147280607Y-108899028D01*
X147209616Y-108899873D01*
X147149437Y-108862203D01*
X147134554Y-108841563D01*
X147117713Y-108812393D01*
X147043040Y-108683056D01*
X147036808Y-108676134D01*
X146916312Y-108542310D01*
X146885594Y-108478303D01*
X146894359Y-108407849D01*
X146916312Y-108373690D01*
X147038621Y-108237852D01*
X147038622Y-108237851D01*
X147043040Y-108232944D01*
X147138527Y-108067556D01*
X147170190Y-107970108D01*
X147210264Y-107911503D01*
X147275661Y-107883866D01*
X147301550Y-107883573D01*
X147301961Y-107883611D01*
X147316835Y-107880688D01*
X147320000Y-107868793D01*
X147320000Y-107867153D01*
X147828000Y-107867153D01*
X147832271Y-107881698D01*
X147844404Y-107883761D01*
X147849973Y-107883249D01*
X147863006Y-107880639D01*
X148003661Y-107836561D01*
X148017406Y-107830355D01*
X148142711Y-107754467D01*
X148154580Y-107745160D01*
X148258160Y-107641580D01*
X148267467Y-107629711D01*
X148343355Y-107504406D01*
X148349561Y-107490661D01*
X148393637Y-107350011D01*
X148396250Y-107336964D01*
X148400056Y-107295541D01*
X148397134Y-107280664D01*
X148385240Y-107277500D01*
X147846115Y-107277500D01*
X147830876Y-107281975D01*
X147829671Y-107283365D01*
X147828000Y-107291048D01*
X147828000Y-107867153D01*
X147320000Y-107867153D01*
X147320000Y-106895500D01*
X147340002Y-106827379D01*
X147393658Y-106780886D01*
X147446000Y-106769500D01*
X148383598Y-106769500D01*
X148398143Y-106765229D01*
X148400206Y-106753096D01*
X148396249Y-106710027D01*
X148393639Y-106696994D01*
X148349561Y-106556339D01*
X148343352Y-106542588D01*
X148312566Y-106491755D01*
X148294386Y-106423126D01*
X148312566Y-106361211D01*
X148343811Y-106309620D01*
X148343813Y-106309615D01*
X148347748Y-106303118D01*
X148355150Y-106279500D01*
X148375975Y-106213046D01*
X148415433Y-106154024D01*
X148480536Y-106125704D01*
X148550616Y-106137077D01*
X148605328Y-106187725D01*
X148612960Y-106200944D01*
X148617378Y-106205851D01*
X148617379Y-106205852D01*
X148712500Y-106311495D01*
X148740747Y-106342866D01*
X148895248Y-106455118D01*
X148901276Y-106457802D01*
X148901278Y-106457803D01*
X149063681Y-106530109D01*
X149069712Y-106532794D01*
X149163113Y-106552647D01*
X149250056Y-106571128D01*
X149250061Y-106571128D01*
X149256513Y-106572500D01*
X149447487Y-106572500D01*
X149453939Y-106571128D01*
X149453944Y-106571128D01*
X149540888Y-106552647D01*
X149634288Y-106532794D01*
X149640319Y-106530109D01*
X149802722Y-106457803D01*
X149802724Y-106457802D01*
X149808752Y-106455118D01*
X149963253Y-106342866D01*
X149991500Y-106311495D01*
X150086621Y-106205852D01*
X150086622Y-106205851D01*
X150091040Y-106200944D01*
X150157840Y-106085244D01*
X150183223Y-106041279D01*
X150183224Y-106041278D01*
X150186527Y-106035556D01*
X150194455Y-106011158D01*
X150234526Y-105952553D01*
X150299922Y-105924916D01*
X150369879Y-105937021D01*
G37*
G04 #@! TD.AperFunction*
G04 #@! TA.AperFunction,Conductor*
G36*
X156876774Y-103905906D02*
G01*
X156906462Y-103909131D01*
X156906476Y-103909132D01*
X156909866Y-103909500D01*
X157206134Y-103909500D01*
X157209529Y-103909131D01*
X157209533Y-103909131D01*
X157239220Y-103905906D01*
X157244394Y-103905344D01*
X157271606Y-103905344D01*
X157276780Y-103905906D01*
X157306467Y-103909131D01*
X157306471Y-103909131D01*
X157309866Y-103909500D01*
X157466785Y-103909500D01*
X157534906Y-103929502D01*
X157581399Y-103983158D01*
X157592095Y-104048670D01*
X157582496Y-104140000D01*
X157589674Y-104208292D01*
X157576902Y-104278128D01*
X157528401Y-104329975D01*
X157508594Y-104339443D01*
X157419946Y-104372676D01*
X157404351Y-104381214D01*
X157302276Y-104457715D01*
X157289715Y-104470276D01*
X157213214Y-104572351D01*
X157204676Y-104587946D01*
X157159522Y-104708394D01*
X157155895Y-104723649D01*
X157150369Y-104774514D01*
X157150000Y-104781328D01*
X157150000Y-106153885D01*
X157154475Y-106169124D01*
X157155865Y-106170329D01*
X157163548Y-106172000D01*
X159386000Y-106172000D01*
X159454121Y-106192002D01*
X159500614Y-106245658D01*
X159512000Y-106298000D01*
X159512000Y-106554000D01*
X159491998Y-106622121D01*
X159438342Y-106668614D01*
X159386000Y-106680000D01*
X157168116Y-106680000D01*
X157152877Y-106684475D01*
X157151672Y-106685865D01*
X157150001Y-106693548D01*
X157150001Y-108070669D01*
X157150371Y-108077490D01*
X157155895Y-108128352D01*
X157159521Y-108143604D01*
X157204676Y-108264054D01*
X157213214Y-108279649D01*
X157289715Y-108381724D01*
X157302276Y-108394285D01*
X157404351Y-108470786D01*
X157419946Y-108479324D01*
X157540394Y-108524478D01*
X157555649Y-108528105D01*
X157606514Y-108533631D01*
X157613328Y-108534000D01*
X158223267Y-108534000D01*
X158291388Y-108554002D01*
X158337881Y-108607658D01*
X158348577Y-108673170D01*
X158347538Y-108683056D01*
X158344496Y-108712000D01*
X158353693Y-108799498D01*
X158354148Y-108803830D01*
X158341376Y-108873669D01*
X158292874Y-108925515D01*
X158228838Y-108943001D01*
X158113330Y-108943001D01*
X158106512Y-108943370D01*
X158073933Y-108946909D01*
X158046720Y-108946909D01*
X158006134Y-108942500D01*
X157709866Y-108942500D01*
X157706471Y-108942869D01*
X157706467Y-108942869D01*
X157680469Y-108945693D01*
X157671606Y-108946656D01*
X157644394Y-108946656D01*
X157635531Y-108945693D01*
X157609533Y-108942869D01*
X157609529Y-108942869D01*
X157606134Y-108942500D01*
X157309866Y-108942500D01*
X157306471Y-108942869D01*
X157306467Y-108942869D01*
X157280469Y-108945693D01*
X157271606Y-108946656D01*
X157244394Y-108946656D01*
X157235531Y-108945693D01*
X157209533Y-108942869D01*
X157209529Y-108942869D01*
X157206134Y-108942500D01*
X156909866Y-108942500D01*
X156906476Y-108942868D01*
X156906462Y-108942869D01*
X156876774Y-108946094D01*
X156806892Y-108933565D01*
X156754877Y-108885243D01*
X156737244Y-108816471D01*
X156737906Y-108807226D01*
X156741131Y-108777538D01*
X156741132Y-108777524D01*
X156741500Y-108774134D01*
X156741500Y-108477866D01*
X156737344Y-108439606D01*
X156737344Y-108412393D01*
X156741131Y-108377533D01*
X156741131Y-108377529D01*
X156741500Y-108374134D01*
X156741500Y-108077866D01*
X156737344Y-108039606D01*
X156737344Y-108012393D01*
X156741131Y-107977533D01*
X156741131Y-107977529D01*
X156741500Y-107974134D01*
X156741500Y-107677866D01*
X156737344Y-107639606D01*
X156737344Y-107612393D01*
X156741131Y-107577533D01*
X156741131Y-107577529D01*
X156741500Y-107574134D01*
X156741500Y-107277866D01*
X156737344Y-107239606D01*
X156737344Y-107212393D01*
X156741131Y-107177533D01*
X156741131Y-107177529D01*
X156741500Y-107174134D01*
X156741500Y-106877866D01*
X156739950Y-106863592D01*
X156737344Y-106839607D01*
X156737344Y-106812393D01*
X156741131Y-106777533D01*
X156741131Y-106777529D01*
X156741500Y-106774134D01*
X156741500Y-106477866D01*
X156737344Y-106439606D01*
X156737344Y-106412393D01*
X156741131Y-106377533D01*
X156741131Y-106377529D01*
X156741500Y-106374134D01*
X156741500Y-106077866D01*
X156740348Y-106067256D01*
X156737344Y-106039607D01*
X156737344Y-106012393D01*
X156741131Y-105977533D01*
X156741131Y-105977529D01*
X156741500Y-105974134D01*
X156741500Y-105677866D01*
X156737344Y-105639606D01*
X156737344Y-105612393D01*
X156741131Y-105577533D01*
X156741131Y-105577529D01*
X156741500Y-105574134D01*
X156741500Y-105277866D01*
X156739556Y-105259965D01*
X156737344Y-105239607D01*
X156737344Y-105212393D01*
X156741131Y-105177533D01*
X156741131Y-105177529D01*
X156741500Y-105174134D01*
X156741500Y-104877866D01*
X156739834Y-104862524D01*
X156737344Y-104839607D01*
X156737344Y-104812393D01*
X156741131Y-104777533D01*
X156741131Y-104777529D01*
X156741500Y-104774134D01*
X156741500Y-104477866D01*
X156740525Y-104468885D01*
X156737344Y-104439607D01*
X156737344Y-104412393D01*
X156741131Y-104377533D01*
X156741131Y-104377529D01*
X156741500Y-104374134D01*
X156741500Y-104077866D01*
X156741132Y-104074476D01*
X156741131Y-104074462D01*
X156737906Y-104044774D01*
X156750435Y-103974892D01*
X156798757Y-103922877D01*
X156867529Y-103905244D01*
X156876774Y-103905906D01*
G37*
G04 #@! TD.AperFunction*
G04 #@! TA.AperFunction,Conductor*
G36*
X152728204Y-108065280D02*
G01*
X152731829Y-108068061D01*
X152746007Y-108076247D01*
X152878650Y-108131190D01*
X152894468Y-108135428D01*
X153001066Y-108149462D01*
X153009275Y-108150000D01*
X153081905Y-108150000D01*
X153150026Y-108170002D01*
X153196519Y-108223658D01*
X153206623Y-108293932D01*
X153177129Y-108358512D01*
X153171004Y-108365092D01*
X152946535Y-108589560D01*
X152740595Y-108795500D01*
X152678283Y-108829525D01*
X152607467Y-108824460D01*
X152550632Y-108781913D01*
X152525821Y-108715393D01*
X152525500Y-108706404D01*
X152525500Y-108165243D01*
X152545502Y-108097122D01*
X152599158Y-108050629D01*
X152669432Y-108040525D01*
X152728204Y-108065280D01*
G37*
G04 #@! TD.AperFunction*
G04 #@! TA.AperFunction,Conductor*
G36*
X152661527Y-101237502D02*
G01*
X152682501Y-101254405D01*
X153507595Y-102079499D01*
X153541621Y-102141811D01*
X153544500Y-102168594D01*
X153544500Y-103064919D01*
X153524498Y-103133040D01*
X153470842Y-103179533D01*
X153466532Y-103181141D01*
X153464171Y-103183865D01*
X153462500Y-103191548D01*
X153462500Y-103264860D01*
X153442498Y-103332981D01*
X153429019Y-103349706D01*
X153426013Y-103352013D01*
X153328476Y-103479125D01*
X153310509Y-103522501D01*
X153304909Y-103536021D01*
X153260361Y-103591302D01*
X153192997Y-103613723D01*
X153124206Y-103596165D01*
X153075828Y-103544203D01*
X153062500Y-103487803D01*
X153062500Y-103196116D01*
X153058025Y-103180877D01*
X153056635Y-103179672D01*
X153048952Y-103178001D01*
X153009277Y-103178001D01*
X153001065Y-103178539D01*
X152894467Y-103192572D01*
X152878652Y-103196810D01*
X152746007Y-103251753D01*
X152731824Y-103259941D01*
X152617920Y-103347344D01*
X152606344Y-103358920D01*
X152518941Y-103472824D01*
X152510753Y-103487007D01*
X152455810Y-103619650D01*
X152451572Y-103635468D01*
X152445906Y-103678504D01*
X152417183Y-103743431D01*
X152357918Y-103782522D01*
X152286926Y-103783367D01*
X152226748Y-103745696D01*
X152221032Y-103738775D01*
X152188987Y-103697013D01*
X152182437Y-103691987D01*
X152182434Y-103691984D01*
X152088166Y-103619650D01*
X152061875Y-103599476D01*
X152054246Y-103596316D01*
X152054241Y-103596313D01*
X152027914Y-103585408D01*
X151972633Y-103540860D01*
X151950213Y-103473496D01*
X151967772Y-103404705D01*
X152019734Y-103356327D01*
X152027915Y-103352591D01*
X152054248Y-103341684D01*
X152054250Y-103341683D01*
X152061876Y-103338524D01*
X152143934Y-103275558D01*
X152182436Y-103246014D01*
X152182437Y-103246013D01*
X152188987Y-103240987D01*
X152194013Y-103234437D01*
X152194016Y-103234434D01*
X152240529Y-103173816D01*
X152286524Y-103113875D01*
X152347838Y-102965850D01*
X152363500Y-102846885D01*
X152363499Y-102567116D01*
X152358689Y-102530572D01*
X152348916Y-102456337D01*
X152348916Y-102456335D01*
X152347838Y-102448150D01*
X152296183Y-102323442D01*
X152289684Y-102307752D01*
X152289683Y-102307750D01*
X152286524Y-102300124D01*
X152281498Y-102293574D01*
X152194014Y-102179564D01*
X152194013Y-102179563D01*
X152188987Y-102173013D01*
X152182437Y-102167987D01*
X152182434Y-102167984D01*
X152103663Y-102107541D01*
X152061796Y-102050203D01*
X152057574Y-101979332D01*
X152086730Y-101923271D01*
X152123040Y-101882944D01*
X152218527Y-101717556D01*
X152277542Y-101535928D01*
X152279500Y-101517305D01*
X152296814Y-101352565D01*
X152297504Y-101346000D01*
X152297129Y-101342429D01*
X152316816Y-101275379D01*
X152370472Y-101228886D01*
X152422814Y-101217500D01*
X152593406Y-101217500D01*
X152661527Y-101237502D01*
G37*
G04 #@! TD.AperFunction*
G04 #@! TA.AperFunction,Conductor*
G36*
X166843782Y-92712454D02*
G01*
X166860490Y-92715431D01*
X166869414Y-92714462D01*
X166869416Y-92714462D01*
X166876084Y-92713738D01*
X166901207Y-92713530D01*
X167079298Y-92729884D01*
X167096619Y-92732702D01*
X167137660Y-92742353D01*
X167197912Y-92775912D01*
X168360326Y-93938326D01*
X168394063Y-93999347D01*
X168398327Y-94018003D01*
X168401495Y-94046006D01*
X168401499Y-94053098D01*
X168401494Y-94053098D01*
X168401500Y-94053175D01*
X168401500Y-97916866D01*
X168381498Y-97984987D01*
X168327842Y-98031480D01*
X168257568Y-98041584D01*
X168192988Y-98012090D01*
X168176752Y-97995128D01*
X168174899Y-97992790D01*
X168060171Y-97878261D01*
X168048760Y-97869249D01*
X167910757Y-97784184D01*
X167897576Y-97778037D01*
X167743290Y-97726862D01*
X167729914Y-97723995D01*
X167635562Y-97714328D01*
X167629145Y-97714000D01*
X167404115Y-97714000D01*
X167388876Y-97718475D01*
X167387671Y-97719865D01*
X167386000Y-97727548D01*
X167386000Y-98925000D01*
X167365998Y-98993121D01*
X167312342Y-99039614D01*
X167260000Y-99051000D01*
X165942116Y-99051000D01*
X165926877Y-99055475D01*
X165925672Y-99056865D01*
X165924001Y-99064548D01*
X165924001Y-99169095D01*
X165924338Y-99175614D01*
X165934257Y-99271206D01*
X165937149Y-99284600D01*
X165988588Y-99438784D01*
X165994761Y-99451962D01*
X166080063Y-99589807D01*
X166089099Y-99601208D01*
X166203828Y-99715738D01*
X166212762Y-99722794D01*
X166253823Y-99780712D01*
X166257053Y-99851635D01*
X166221426Y-99913046D01*
X166213593Y-99919846D01*
X166207652Y-99923522D01*
X166082695Y-100048697D01*
X166078855Y-100054927D01*
X166078854Y-100054928D01*
X165998128Y-100185890D01*
X165989885Y-100199262D01*
X165973004Y-100250158D01*
X165941381Y-100345499D01*
X165934203Y-100367139D01*
X165923500Y-100471600D01*
X165923500Y-101222400D01*
X165923837Y-101225646D01*
X165923837Y-101225650D01*
X165926821Y-101254405D01*
X165934474Y-101328166D01*
X165936655Y-101334702D01*
X165936655Y-101334704D01*
X165957613Y-101397522D01*
X165990450Y-101495946D01*
X165994304Y-101502174D01*
X165994305Y-101502176D01*
X166056122Y-101602070D01*
X166074960Y-101670522D01*
X166053799Y-101738291D01*
X165999358Y-101783863D01*
X165973231Y-101790601D01*
X165973499Y-101791940D01*
X165966935Y-101793255D01*
X165960281Y-101793866D01*
X165953903Y-101795865D01*
X165953902Y-101795865D01*
X165813131Y-101839980D01*
X165813129Y-101839981D01*
X165805882Y-101842252D01*
X165667482Y-101926070D01*
X165553070Y-102040482D01*
X165469252Y-102178882D01*
X165420866Y-102333281D01*
X165414500Y-102402563D01*
X165414501Y-102829436D01*
X165414764Y-102832295D01*
X165414764Y-102832303D01*
X165417363Y-102860594D01*
X165420866Y-102898719D01*
X165422865Y-102905097D01*
X165422865Y-102905098D01*
X165444923Y-102975483D01*
X165469252Y-103053118D01*
X165478811Y-103068901D01*
X165496989Y-103137529D01*
X165494155Y-103160953D01*
X165487500Y-103191547D01*
X165487500Y-103487802D01*
X165467498Y-103555923D01*
X165413842Y-103602416D01*
X165343568Y-103612520D01*
X165278988Y-103583026D01*
X165245091Y-103536020D01*
X165224684Y-103486752D01*
X165224683Y-103486750D01*
X165221524Y-103479124D01*
X165123987Y-103352013D01*
X165122882Y-103351165D01*
X165090379Y-103291642D01*
X165087500Y-103264859D01*
X165087500Y-103196116D01*
X165083025Y-103180877D01*
X165081635Y-103179672D01*
X165073952Y-103178001D01*
X165034277Y-103178001D01*
X165026065Y-103178539D01*
X164919475Y-103192571D01*
X164913591Y-103194148D01*
X164851230Y-103194148D01*
X164848850Y-103193162D01*
X164840658Y-103192083D01*
X164840656Y-103192083D01*
X164733972Y-103178038D01*
X164733971Y-103178038D01*
X164729885Y-103177500D01*
X164725763Y-103177500D01*
X164215116Y-103177501D01*
X164215116Y-103175535D01*
X164153572Y-103161796D01*
X164103643Y-103111323D01*
X164088928Y-103041868D01*
X164114099Y-102975483D01*
X164125461Y-102962443D01*
X164476247Y-102611657D01*
X164484537Y-102604113D01*
X164491018Y-102600000D01*
X164537659Y-102550332D01*
X164540413Y-102547491D01*
X164560134Y-102527770D01*
X164562612Y-102524575D01*
X164570318Y-102515553D01*
X164595158Y-102489101D01*
X164600586Y-102483321D01*
X164610346Y-102465568D01*
X164621199Y-102449045D01*
X164628753Y-102439306D01*
X164633613Y-102433041D01*
X164651176Y-102392457D01*
X164656383Y-102381827D01*
X164677695Y-102343060D01*
X164679666Y-102335383D01*
X164679668Y-102335378D01*
X164682732Y-102323442D01*
X164689138Y-102304730D01*
X164691132Y-102300124D01*
X164697181Y-102286145D01*
X164704097Y-102242481D01*
X164706504Y-102230860D01*
X164715528Y-102195711D01*
X164715528Y-102195710D01*
X164717500Y-102188030D01*
X164717500Y-102167769D01*
X164719051Y-102148058D01*
X164720041Y-102141811D01*
X164722219Y-102128057D01*
X164718059Y-102084046D01*
X164717500Y-102072189D01*
X164717500Y-101876066D01*
X164737502Y-101807945D01*
X164754405Y-101786971D01*
X164764966Y-101776410D01*
X164848157Y-101639045D01*
X164853304Y-101622623D01*
X164891049Y-101502176D01*
X164896181Y-101485801D01*
X164902500Y-101417032D01*
X164902500Y-100885968D01*
X164896181Y-100817199D01*
X164856691Y-100691187D01*
X164850429Y-100671204D01*
X164850428Y-100671202D01*
X164848157Y-100663955D01*
X164838973Y-100648790D01*
X164820793Y-100580161D01*
X164838974Y-100518243D01*
X164843766Y-100510331D01*
X164849971Y-100496589D01*
X164893685Y-100357096D01*
X164896298Y-100344046D01*
X164901537Y-100287038D01*
X164897525Y-100273376D01*
X164896135Y-100272171D01*
X164888452Y-100270500D01*
X162855872Y-100270500D01*
X162787751Y-100250498D01*
X162741258Y-100196842D01*
X162731154Y-100126568D01*
X162760648Y-100061988D01*
X162766777Y-100055405D01*
X162782134Y-100040048D01*
X162784612Y-100036853D01*
X162792318Y-100027831D01*
X162817158Y-100001379D01*
X162822586Y-99995599D01*
X162832346Y-99977846D01*
X162843199Y-99961323D01*
X162844356Y-99959831D01*
X162855613Y-99945319D01*
X162873176Y-99904735D01*
X162878383Y-99894105D01*
X162899695Y-99855338D01*
X162901666Y-99847661D01*
X162903861Y-99842117D01*
X162947535Y-99786143D01*
X163021013Y-99762500D01*
X163811885Y-99762500D01*
X163827124Y-99758025D01*
X163828329Y-99756635D01*
X163830000Y-99748952D01*
X163830000Y-99744385D01*
X164338000Y-99744385D01*
X164342475Y-99759624D01*
X164343865Y-99760829D01*
X164351548Y-99762500D01*
X164883885Y-99762500D01*
X164899124Y-99758025D01*
X164900329Y-99756635D01*
X164901813Y-99749814D01*
X164901734Y-99748112D01*
X164896298Y-99688954D01*
X164893685Y-99675904D01*
X164849971Y-99536411D01*
X164843765Y-99522666D01*
X164768504Y-99398396D01*
X164759197Y-99386527D01*
X164656473Y-99283803D01*
X164644604Y-99274496D01*
X164520334Y-99199235D01*
X164506589Y-99193029D01*
X164367088Y-99149313D01*
X164355497Y-99146991D01*
X164341165Y-99149806D01*
X164338000Y-99161702D01*
X164338000Y-99744385D01*
X163830000Y-99744385D01*
X163830000Y-99163342D01*
X163825729Y-99148797D01*
X163813698Y-99146752D01*
X163800912Y-99149313D01*
X163661411Y-99193029D01*
X163647666Y-99199235D01*
X163516900Y-99278430D01*
X163515613Y-99276305D01*
X163460809Y-99298160D01*
X163391114Y-99284631D01*
X163381202Y-99278261D01*
X163381100Y-99278430D01*
X163250334Y-99199235D01*
X163236589Y-99193029D01*
X163097096Y-99149315D01*
X163084046Y-99146702D01*
X163053971Y-99143938D01*
X162987966Y-99117787D01*
X162946578Y-99060102D01*
X162939500Y-99018467D01*
X162939500Y-98122763D01*
X162940027Y-98111579D01*
X162941701Y-98104091D01*
X162939562Y-98036032D01*
X162939500Y-98032075D01*
X162939500Y-98004144D01*
X162938994Y-98000138D01*
X162938061Y-97988292D01*
X162936922Y-97952037D01*
X162936673Y-97944110D01*
X162931022Y-97924658D01*
X162927014Y-97905306D01*
X162925468Y-97893068D01*
X162925467Y-97893066D01*
X162924474Y-97885203D01*
X162908194Y-97844086D01*
X162904359Y-97832885D01*
X162892018Y-97790406D01*
X162887985Y-97783587D01*
X162887983Y-97783582D01*
X162881707Y-97772971D01*
X162873010Y-97755221D01*
X162865552Y-97736383D01*
X162839571Y-97700623D01*
X162833053Y-97690701D01*
X162814578Y-97659460D01*
X162814574Y-97659455D01*
X162810542Y-97652637D01*
X162796218Y-97638313D01*
X162783376Y-97623278D01*
X162781373Y-97620521D01*
X162771472Y-97606893D01*
X162753574Y-97592086D01*
X162713836Y-97533255D01*
X162708579Y-97508172D01*
X162694939Y-97378394D01*
X164098314Y-97378394D01*
X164107143Y-97390014D01*
X164311967Y-97538828D01*
X164318650Y-97543070D01*
X164577234Y-97685228D01*
X164584369Y-97688585D01*
X164858746Y-97797219D01*
X164866237Y-97799653D01*
X165152059Y-97873039D01*
X165159830Y-97874521D01*
X165452570Y-97911503D01*
X165460460Y-97912000D01*
X165755540Y-97912000D01*
X165763430Y-97911503D01*
X165907378Y-97893318D01*
X165977468Y-97904624D01*
X166030319Y-97952029D01*
X166049152Y-98020483D01*
X166030430Y-98084440D01*
X165994184Y-98143243D01*
X165988037Y-98156424D01*
X165936862Y-98310710D01*
X165933995Y-98324086D01*
X165924328Y-98418438D01*
X165924000Y-98424855D01*
X165924000Y-98524885D01*
X165928475Y-98540124D01*
X165929865Y-98541329D01*
X165937548Y-98543000D01*
X166859885Y-98543000D01*
X166875124Y-98538525D01*
X166876329Y-98537135D01*
X166878000Y-98529452D01*
X166878000Y-97732116D01*
X166865303Y-97688873D01*
X166857197Y-97676260D01*
X166857198Y-97605264D01*
X166895583Y-97545538D01*
X166904033Y-97538828D01*
X167109230Y-97389744D01*
X167117653Y-97378821D01*
X167110749Y-97365960D01*
X165620810Y-95876020D01*
X165606869Y-95868408D01*
X165605034Y-95868539D01*
X165598420Y-95872790D01*
X164104927Y-97366284D01*
X164098314Y-97378394D01*
X162694939Y-97378394D01*
X162692232Y-97352635D01*
X162692232Y-97352633D01*
X162691542Y-97346072D01*
X162632527Y-97164444D01*
X162629742Y-97159620D01*
X162622554Y-97106000D01*
X162619500Y-97106000D01*
X162619500Y-95488115D01*
X162615025Y-95472876D01*
X162613635Y-95471671D01*
X162606814Y-95470187D01*
X162605112Y-95470266D01*
X162545954Y-95475702D01*
X162526354Y-95479627D01*
X162525952Y-95477620D01*
X162464706Y-95478734D01*
X162404292Y-95441442D01*
X162373629Y-95377408D01*
X162372000Y-95357212D01*
X162372000Y-95036070D01*
X162392002Y-94967949D01*
X162398038Y-94959366D01*
X162410057Y-94943703D01*
X162447524Y-94894875D01*
X162471091Y-94837979D01*
X162515639Y-94782698D01*
X162583003Y-94760277D01*
X162651794Y-94777835D01*
X162700172Y-94829797D01*
X162713500Y-94886197D01*
X162713500Y-95177884D01*
X162717975Y-95193123D01*
X162719365Y-95194328D01*
X162727048Y-95195999D01*
X162766723Y-95195999D01*
X162774935Y-95195461D01*
X162881533Y-95181428D01*
X162897348Y-95177190D01*
X163037623Y-95119087D01*
X163039033Y-95122492D01*
X163091498Y-95109596D01*
X163158660Y-95132614D01*
X163202716Y-95188287D01*
X163211635Y-95243383D01*
X163203895Y-95366404D01*
X163179655Y-95433134D01*
X163140038Y-95463324D01*
X163129171Y-95475865D01*
X163127500Y-95483548D01*
X163127500Y-97087885D01*
X163131975Y-97103124D01*
X163133365Y-97104329D01*
X163140186Y-97105813D01*
X163141888Y-97105734D01*
X163201046Y-97100298D01*
X163214096Y-97097685D01*
X163353589Y-97053971D01*
X163367334Y-97047765D01*
X163491604Y-96972504D01*
X163503473Y-96963197D01*
X163507618Y-96959052D01*
X163569930Y-96925026D01*
X163640745Y-96930091D01*
X163693797Y-96967831D01*
X163723521Y-97003761D01*
X163736040Y-97012217D01*
X163746778Y-97006011D01*
X165235980Y-95516810D01*
X165242357Y-95505131D01*
X165972408Y-95505131D01*
X165972539Y-95506966D01*
X165976790Y-95513580D01*
X167468119Y-97004908D01*
X167481381Y-97012150D01*
X167491485Y-97004962D01*
X167557437Y-96925241D01*
X167562091Y-96918835D01*
X167720195Y-96669703D01*
X167724007Y-96662770D01*
X167849639Y-96395787D01*
X167852554Y-96388424D01*
X167943733Y-96107805D01*
X167945704Y-96100128D01*
X168000992Y-95810297D01*
X168001985Y-95802436D01*
X168020512Y-95507958D01*
X168020512Y-95500042D01*
X168001985Y-95205564D01*
X168000992Y-95197703D01*
X167945704Y-94907872D01*
X167943733Y-94900195D01*
X167852554Y-94619576D01*
X167849639Y-94612213D01*
X167724007Y-94345230D01*
X167720195Y-94338297D01*
X167562091Y-94089165D01*
X167557437Y-94082759D01*
X167492479Y-94004239D01*
X167479960Y-93995783D01*
X167469222Y-94001989D01*
X165980020Y-95491190D01*
X165972408Y-95505131D01*
X165242357Y-95505131D01*
X165243592Y-95502869D01*
X165243461Y-95501034D01*
X165239210Y-95494420D01*
X163747881Y-94003092D01*
X163734619Y-93995850D01*
X163724515Y-94003038D01*
X163658563Y-94082759D01*
X163653909Y-94089165D01*
X163548103Y-94255888D01*
X163494714Y-94302687D01*
X163424499Y-94313192D01*
X163359751Y-94284068D01*
X163324847Y-94228660D01*
X163323350Y-94229280D01*
X163265247Y-94089007D01*
X163257059Y-94074824D01*
X163169656Y-93960920D01*
X163158080Y-93949344D01*
X163044176Y-93861941D01*
X163029993Y-93853753D01*
X162897350Y-93798810D01*
X162881532Y-93794572D01*
X162774934Y-93780538D01*
X162766725Y-93780000D01*
X162731615Y-93780000D01*
X162716376Y-93784475D01*
X162715171Y-93785865D01*
X162713500Y-93793548D01*
X162713500Y-94089802D01*
X162693498Y-94157923D01*
X162639842Y-94204416D01*
X162569568Y-94214520D01*
X162504988Y-94185026D01*
X162471091Y-94138020D01*
X162450684Y-94088752D01*
X162450683Y-94088750D01*
X162447524Y-94081124D01*
X162416930Y-94041253D01*
X162355010Y-93960559D01*
X162349987Y-93954013D01*
X162348882Y-93953165D01*
X162316379Y-93893642D01*
X162313500Y-93866859D01*
X162313500Y-93798116D01*
X162309025Y-93782877D01*
X162307635Y-93781672D01*
X162299952Y-93780001D01*
X162260277Y-93780001D01*
X162252065Y-93780539D01*
X162145475Y-93794571D01*
X162139591Y-93796148D01*
X162077230Y-93796148D01*
X162074850Y-93795162D01*
X162066658Y-93794083D01*
X162066656Y-93794083D01*
X161959972Y-93780038D01*
X161959971Y-93780038D01*
X161955885Y-93779500D01*
X161698532Y-93779500D01*
X161441116Y-93779501D01*
X161437031Y-93780039D01*
X161437027Y-93780039D01*
X161330337Y-93794084D01*
X161330335Y-93794084D01*
X161322150Y-93795162D01*
X161211492Y-93840998D01*
X161202050Y-93844909D01*
X161153832Y-93854500D01*
X160902865Y-93854500D01*
X160834744Y-93834498D01*
X160788251Y-93780842D01*
X160780785Y-93756075D01*
X160780672Y-93756108D01*
X160780663Y-93756075D01*
X160775022Y-93736658D01*
X160771014Y-93717306D01*
X160769467Y-93705063D01*
X160768474Y-93697203D01*
X160761400Y-93679335D01*
X160752200Y-93656097D01*
X160748355Y-93644870D01*
X160743796Y-93629179D01*
X164098347Y-93629179D01*
X164105251Y-93642040D01*
X165595190Y-95131980D01*
X165609131Y-95139592D01*
X165610966Y-95139461D01*
X165617580Y-95135210D01*
X167111073Y-93641716D01*
X167117686Y-93629606D01*
X167108857Y-93617986D01*
X166904030Y-93469170D01*
X166897350Y-93464930D01*
X166638766Y-93322772D01*
X166631631Y-93319415D01*
X166357254Y-93210781D01*
X166349763Y-93208347D01*
X166063941Y-93134961D01*
X166056170Y-93133479D01*
X165763430Y-93096497D01*
X165755540Y-93096000D01*
X165460460Y-93096000D01*
X165452570Y-93096497D01*
X165159830Y-93133479D01*
X165152059Y-93134961D01*
X164866237Y-93208347D01*
X164858746Y-93210781D01*
X164584369Y-93319415D01*
X164577234Y-93322772D01*
X164318650Y-93464930D01*
X164311970Y-93469170D01*
X164106770Y-93618256D01*
X164098347Y-93629179D01*
X160743796Y-93629179D01*
X160736018Y-93602407D01*
X160731984Y-93595585D01*
X160731981Y-93595579D01*
X160725706Y-93584968D01*
X160717010Y-93567218D01*
X160712472Y-93555756D01*
X160712469Y-93555751D01*
X160709552Y-93548383D01*
X160683573Y-93512625D01*
X160677057Y-93502707D01*
X160658575Y-93471457D01*
X160654542Y-93464637D01*
X160640218Y-93450313D01*
X160627376Y-93435278D01*
X160615472Y-93418893D01*
X160581406Y-93390711D01*
X160572627Y-93382722D01*
X160115500Y-92925595D01*
X160081474Y-92863283D01*
X160086539Y-92792468D01*
X160129086Y-92735632D01*
X160195606Y-92710821D01*
X160204595Y-92710500D01*
X166821680Y-92710500D01*
X166843782Y-92712454D01*
G37*
G04 #@! TD.AperFunction*
G04 #@! TA.AperFunction,Conductor*
G36*
X141267311Y-92730502D02*
G01*
X141313804Y-92784158D01*
X141323908Y-92854432D01*
X141294414Y-92919012D01*
X141240255Y-92954922D01*
X141240416Y-92955328D01*
X141238497Y-92956088D01*
X141238127Y-92956333D01*
X141236737Y-92956785D01*
X140962369Y-93065415D01*
X140955234Y-93068772D01*
X140696650Y-93210930D01*
X140689970Y-93215170D01*
X140484770Y-93364256D01*
X140476347Y-93375179D01*
X140483251Y-93388040D01*
X141973190Y-94877980D01*
X141987131Y-94885592D01*
X141988966Y-94885461D01*
X141995580Y-94881210D01*
X143489073Y-93387716D01*
X143495686Y-93375606D01*
X143486857Y-93363986D01*
X143282030Y-93215170D01*
X143275350Y-93210930D01*
X143016766Y-93068772D01*
X143009631Y-93065415D01*
X142735263Y-92956785D01*
X142733873Y-92956333D01*
X142733530Y-92956099D01*
X142731584Y-92955328D01*
X142731759Y-92954887D01*
X142675267Y-92916258D01*
X142647631Y-92850862D01*
X142659738Y-92780905D01*
X142707745Y-92728599D01*
X142772810Y-92710500D01*
X145743187Y-92710500D01*
X145811308Y-92730502D01*
X145857801Y-92784158D01*
X145867905Y-92854432D01*
X145855795Y-92890748D01*
X145855385Y-92891295D01*
X145804255Y-93027684D01*
X145797500Y-93089866D01*
X145797500Y-94186134D01*
X145804255Y-94248316D01*
X145855385Y-94384705D01*
X145860771Y-94391891D01*
X145876480Y-94412852D01*
X145901328Y-94479358D01*
X145886275Y-94548741D01*
X145876480Y-94563982D01*
X145861214Y-94584351D01*
X145852676Y-94599946D01*
X145807522Y-94720394D01*
X145803895Y-94735649D01*
X145798369Y-94786514D01*
X145798000Y-94793328D01*
X145798000Y-95065885D01*
X145802475Y-95081124D01*
X145803865Y-95082329D01*
X145811548Y-95084000D01*
X148245884Y-95084000D01*
X148261123Y-95079525D01*
X148262328Y-95078135D01*
X148263999Y-95070452D01*
X148263999Y-94793331D01*
X148263629Y-94786510D01*
X148258105Y-94735648D01*
X148254478Y-94720394D01*
X148234181Y-94666250D01*
X148228998Y-94595443D01*
X148262919Y-94533074D01*
X148325174Y-94498945D01*
X148352163Y-94496021D01*
X149595888Y-94496021D01*
X149664009Y-94516023D01*
X149710502Y-94569679D01*
X149721198Y-94608851D01*
X149727231Y-94666250D01*
X149728458Y-94677928D01*
X149730498Y-94684206D01*
X149772866Y-94814602D01*
X149774893Y-94885570D01*
X149738231Y-94946367D01*
X149674519Y-94977693D01*
X149652306Y-94979017D01*
X149652306Y-94979500D01*
X149559694Y-94979500D01*
X149452058Y-94990813D01*
X149427862Y-94993356D01*
X149427861Y-94993356D01*
X149421298Y-94994046D01*
X149415020Y-94996086D01*
X149415019Y-94996086D01*
X149326203Y-95024944D01*
X149244669Y-95051436D01*
X149238947Y-95054739D01*
X149238946Y-95054740D01*
X149211732Y-95070452D01*
X149083831Y-95144296D01*
X149078924Y-95148714D01*
X149078923Y-95148715D01*
X148962039Y-95253958D01*
X148945815Y-95268566D01*
X148941934Y-95273908D01*
X148941932Y-95273910D01*
X148849399Y-95401271D01*
X148836652Y-95418816D01*
X148833968Y-95424844D01*
X148833967Y-95424846D01*
X148785939Y-95532719D01*
X148761113Y-95588479D01*
X148722500Y-95770140D01*
X148722500Y-95955860D01*
X148723872Y-95962313D01*
X148723872Y-95962317D01*
X148736602Y-96022206D01*
X148761113Y-96137521D01*
X148763797Y-96143550D01*
X148763798Y-96143552D01*
X148796611Y-96217251D01*
X148806045Y-96287618D01*
X148775939Y-96351915D01*
X148715850Y-96389729D01*
X148681504Y-96394500D01*
X148225702Y-96394500D01*
X148157581Y-96374498D01*
X148111088Y-96320842D01*
X148100984Y-96250568D01*
X148124876Y-96192935D01*
X148200786Y-96091648D01*
X148209324Y-96076054D01*
X148254478Y-95955606D01*
X148258105Y-95940351D01*
X148263631Y-95889486D01*
X148264000Y-95882672D01*
X148264000Y-95610115D01*
X148259525Y-95594876D01*
X148258135Y-95593671D01*
X148250452Y-95592000D01*
X145816116Y-95592000D01*
X145800877Y-95596475D01*
X145799672Y-95597865D01*
X145798001Y-95605548D01*
X145798001Y-95882669D01*
X145798371Y-95889490D01*
X145803895Y-95940352D01*
X145807521Y-95955604D01*
X145852676Y-96076054D01*
X145861214Y-96091648D01*
X145935589Y-96190887D01*
X145960437Y-96257393D01*
X145945384Y-96326776D01*
X145895210Y-96377006D01*
X145838722Y-96392390D01*
X145773574Y-96394438D01*
X145769615Y-96394500D01*
X145741704Y-96394500D01*
X145737770Y-96394997D01*
X145737769Y-96394997D01*
X145737704Y-96395005D01*
X145725867Y-96395938D01*
X145693609Y-96396952D01*
X145689590Y-96397078D01*
X145681671Y-96397327D01*
X145662217Y-96402979D01*
X145642860Y-96406987D01*
X145630630Y-96408532D01*
X145630629Y-96408532D01*
X145622763Y-96409526D01*
X145615392Y-96412445D01*
X145615390Y-96412445D01*
X145581648Y-96425804D01*
X145570418Y-96429649D01*
X145535577Y-96439771D01*
X145535576Y-96439771D01*
X145527967Y-96441982D01*
X145521148Y-96446015D01*
X145521143Y-96446017D01*
X145510532Y-96452293D01*
X145492784Y-96460988D01*
X145473943Y-96468448D01*
X145467527Y-96473110D01*
X145467526Y-96473110D01*
X145438173Y-96494436D01*
X145428253Y-96500952D01*
X145397025Y-96519420D01*
X145397022Y-96519422D01*
X145390198Y-96523458D01*
X145375877Y-96537779D01*
X145360844Y-96550619D01*
X145344453Y-96562528D01*
X145339402Y-96568633D01*
X145339397Y-96568638D01*
X145316261Y-96596604D01*
X145308273Y-96605382D01*
X144607727Y-97305928D01*
X144599441Y-97313468D01*
X144592962Y-97317580D01*
X144587537Y-97323357D01*
X144546337Y-97367231D01*
X144543582Y-97370073D01*
X144523845Y-97389810D01*
X144521365Y-97393007D01*
X144513662Y-97402027D01*
X144483394Y-97434259D01*
X144479575Y-97441205D01*
X144479573Y-97441208D01*
X144473632Y-97452014D01*
X144462781Y-97468533D01*
X144450366Y-97484539D01*
X144447221Y-97491808D01*
X144447218Y-97491812D01*
X144432806Y-97525117D01*
X144427589Y-97535767D01*
X144406285Y-97574520D01*
X144404314Y-97582195D01*
X144404314Y-97582196D01*
X144401247Y-97594142D01*
X144394843Y-97612846D01*
X144386799Y-97631435D01*
X144385560Y-97639258D01*
X144385557Y-97639268D01*
X144379881Y-97675104D01*
X144377475Y-97686724D01*
X144368452Y-97721869D01*
X144366480Y-97729550D01*
X144366480Y-97749804D01*
X144364929Y-97769514D01*
X144361760Y-97789523D01*
X144362506Y-97797415D01*
X144365921Y-97833541D01*
X144366480Y-97845399D01*
X144366480Y-98990587D01*
X144346478Y-99058708D01*
X144321590Y-99086190D01*
X144320469Y-99086884D01*
X144315297Y-99092065D01*
X144202742Y-99204816D01*
X144202738Y-99204821D01*
X144197571Y-99209997D01*
X144193731Y-99216227D01*
X144193730Y-99216228D01*
X144112599Y-99347847D01*
X144106291Y-99358080D01*
X144051526Y-99523191D01*
X144050826Y-99530027D01*
X144050825Y-99530030D01*
X144046127Y-99575885D01*
X144041000Y-99625928D01*
X144041000Y-100200072D01*
X144041337Y-100203318D01*
X144041337Y-100203322D01*
X144050940Y-100295868D01*
X144051793Y-100304093D01*
X144053974Y-100310629D01*
X144053974Y-100310631D01*
X144065122Y-100344046D01*
X144106846Y-100469107D01*
X144198384Y-100617031D01*
X144203566Y-100622204D01*
X144316316Y-100734758D01*
X144316321Y-100734762D01*
X144321497Y-100739929D01*
X144327729Y-100743771D01*
X144327731Y-100743772D01*
X144345595Y-100754784D01*
X144393088Y-100807557D01*
X144404510Y-100877628D01*
X144397461Y-100906269D01*
X144375375Y-100965183D01*
X144371421Y-100975731D01*
X144328779Y-101032495D01*
X144262217Y-101057194D01*
X144253439Y-101057500D01*
X144005768Y-101057500D01*
X143994585Y-101056973D01*
X143987092Y-101055298D01*
X143979166Y-101055547D01*
X143979165Y-101055547D01*
X143919002Y-101057438D01*
X143915044Y-101057500D01*
X143887144Y-101057500D01*
X143883154Y-101058004D01*
X143871320Y-101058936D01*
X143827111Y-101060326D01*
X143819495Y-101062539D01*
X143819493Y-101062539D01*
X143807652Y-101065979D01*
X143788293Y-101069988D01*
X143786983Y-101070154D01*
X143768203Y-101072526D01*
X143760837Y-101075442D01*
X143760831Y-101075444D01*
X143727098Y-101088800D01*
X143715868Y-101092645D01*
X143681017Y-101102770D01*
X143673407Y-101104981D01*
X143666584Y-101109016D01*
X143655966Y-101115295D01*
X143638213Y-101123992D01*
X143630568Y-101127019D01*
X143619383Y-101131448D01*
X143612968Y-101136109D01*
X143583612Y-101157437D01*
X143573695Y-101163951D01*
X143535638Y-101186458D01*
X143521317Y-101200779D01*
X143506284Y-101213619D01*
X143489893Y-101225528D01*
X143479987Y-101237502D01*
X143461702Y-101259605D01*
X143453722Y-101268374D01*
X142625708Y-102096387D01*
X142563398Y-102130411D01*
X142492582Y-102125346D01*
X142435747Y-102082799D01*
X142416381Y-102044969D01*
X142403224Y-102002983D01*
X142397104Y-101983457D01*
X142381020Y-101932131D01*
X142381019Y-101932129D01*
X142378748Y-101924882D01*
X142294930Y-101786482D01*
X142180518Y-101672070D01*
X142042118Y-101588252D01*
X142034871Y-101585981D01*
X142034869Y-101585980D01*
X141961539Y-101563000D01*
X141887719Y-101539866D01*
X141881055Y-101539254D01*
X141874506Y-101537942D01*
X141875116Y-101534898D01*
X141821656Y-101513776D01*
X141780212Y-101456132D01*
X141776512Y-101385232D01*
X141791834Y-101348265D01*
X141854275Y-101246968D01*
X141854276Y-101246966D01*
X141858115Y-101240738D01*
X141907785Y-101090986D01*
X141911632Y-101079389D01*
X141911632Y-101079387D01*
X141913797Y-101072861D01*
X141915082Y-101060326D01*
X141921182Y-101000785D01*
X141924500Y-100968400D01*
X141924500Y-100217600D01*
X141923009Y-100203230D01*
X141914238Y-100118692D01*
X141914237Y-100118688D01*
X141913526Y-100111834D01*
X141897432Y-100063593D01*
X141864890Y-99966054D01*
X141857550Y-99944054D01*
X141764478Y-99793652D01*
X141639303Y-99668695D01*
X141634765Y-99665898D01*
X141594176Y-99608647D01*
X141590946Y-99537724D01*
X141626572Y-99476313D01*
X141635068Y-99468938D01*
X141645207Y-99460902D01*
X141759739Y-99346171D01*
X141768751Y-99334760D01*
X141853816Y-99196757D01*
X141859963Y-99183576D01*
X141911138Y-99029290D01*
X141914005Y-99015914D01*
X141923672Y-98921562D01*
X141924000Y-98915146D01*
X141924000Y-98815115D01*
X141919525Y-98799876D01*
X141918135Y-98798671D01*
X141910452Y-98797000D01*
X140588000Y-98797000D01*
X140519879Y-98776998D01*
X140473386Y-98723342D01*
X140462000Y-98671000D01*
X140462000Y-98415000D01*
X140482002Y-98346879D01*
X140535658Y-98300386D01*
X140588000Y-98289000D01*
X141905884Y-98289000D01*
X141921123Y-98284525D01*
X141922328Y-98283135D01*
X141923999Y-98275452D01*
X141923999Y-98170905D01*
X141923662Y-98164386D01*
X141913743Y-98068794D01*
X141910851Y-98055400D01*
X141859412Y-97901216D01*
X141853241Y-97888042D01*
X141829887Y-97850304D01*
X141811049Y-97781852D01*
X141832210Y-97714082D01*
X141886650Y-97668511D01*
X141937031Y-97658000D01*
X142133540Y-97658000D01*
X142141430Y-97657503D01*
X142434170Y-97620521D01*
X142441941Y-97619039D01*
X142727763Y-97545653D01*
X142735254Y-97543219D01*
X143009631Y-97434585D01*
X143016766Y-97431228D01*
X143275350Y-97289070D01*
X143282030Y-97284830D01*
X143487230Y-97135744D01*
X143495653Y-97124821D01*
X143488749Y-97111960D01*
X141998810Y-95622020D01*
X141984869Y-95614408D01*
X141983034Y-95614539D01*
X141976420Y-95618790D01*
X140482927Y-97112284D01*
X140476314Y-97124394D01*
X140485143Y-97136014D01*
X140617344Y-97232065D01*
X140660698Y-97288288D01*
X140666773Y-97359024D01*
X140633641Y-97421815D01*
X140571821Y-97456727D01*
X140543283Y-97460001D01*
X140218905Y-97460001D01*
X140212386Y-97460338D01*
X140116794Y-97470257D01*
X140103400Y-97473149D01*
X139949216Y-97524588D01*
X139936038Y-97530761D01*
X139798193Y-97616063D01*
X139786792Y-97625099D01*
X139672260Y-97739830D01*
X139671381Y-97740943D01*
X139670587Y-97741506D01*
X139667090Y-97745009D01*
X139666490Y-97744410D01*
X139613464Y-97782005D01*
X139542541Y-97785236D01*
X139481130Y-97749611D01*
X139448728Y-97686439D01*
X139446500Y-97662850D01*
X139446500Y-96022206D01*
X139466502Y-95954085D01*
X139520158Y-95907592D01*
X139590432Y-95897488D01*
X139655012Y-95926982D01*
X139692333Y-95983270D01*
X139741446Y-96134424D01*
X139744361Y-96141787D01*
X139869993Y-96408770D01*
X139873805Y-96415703D01*
X140031909Y-96664835D01*
X140036563Y-96671241D01*
X140101521Y-96749761D01*
X140114040Y-96758217D01*
X140124778Y-96752011D01*
X141613980Y-95262810D01*
X141620357Y-95251131D01*
X142350408Y-95251131D01*
X142350539Y-95252966D01*
X142354790Y-95259580D01*
X143846119Y-96750908D01*
X143859381Y-96758150D01*
X143869485Y-96750962D01*
X143935437Y-96671241D01*
X143940091Y-96664835D01*
X144098195Y-96415703D01*
X144102007Y-96408770D01*
X144227639Y-96141787D01*
X144230554Y-96134424D01*
X144321733Y-95853805D01*
X144323704Y-95846128D01*
X144378992Y-95556297D01*
X144379985Y-95548436D01*
X144398512Y-95253958D01*
X144398512Y-95246042D01*
X144379985Y-94951564D01*
X144378992Y-94943703D01*
X144323704Y-94653872D01*
X144321733Y-94646195D01*
X144230554Y-94365576D01*
X144227639Y-94358213D01*
X144102007Y-94091230D01*
X144098195Y-94084297D01*
X143940091Y-93835165D01*
X143935437Y-93828759D01*
X143870479Y-93750239D01*
X143857960Y-93741783D01*
X143847222Y-93747989D01*
X142358020Y-95237190D01*
X142350408Y-95251131D01*
X141620357Y-95251131D01*
X141621592Y-95248869D01*
X141621461Y-95247034D01*
X141617210Y-95240420D01*
X140125881Y-93749092D01*
X140112619Y-93741850D01*
X140102515Y-93749038D01*
X140036563Y-93828759D01*
X140031909Y-93835165D01*
X139873805Y-94084297D01*
X139869993Y-94091230D01*
X139744361Y-94358213D01*
X139741446Y-94365576D01*
X139692333Y-94516730D01*
X139652259Y-94575336D01*
X139586863Y-94602973D01*
X139516906Y-94590866D01*
X139464600Y-94542860D01*
X139446500Y-94477794D01*
X139446500Y-94271277D01*
X139447350Y-94256662D01*
X139449170Y-94241078D01*
X139451556Y-94220646D01*
X139450053Y-94211795D01*
X139449102Y-94206193D01*
X139447412Y-94180375D01*
X139453422Y-94020135D01*
X139475963Y-93952811D01*
X139490238Y-93935762D01*
X140676564Y-92749436D01*
X140738876Y-92715410D01*
X140751319Y-92713550D01*
X140758436Y-92713974D01*
X140767182Y-92711973D01*
X140776131Y-92711231D01*
X140776180Y-92711818D01*
X140787851Y-92710500D01*
X141199190Y-92710500D01*
X141267311Y-92730502D01*
G37*
G04 #@! TD.AperFunction*
G04 #@! TA.AperFunction,Conductor*
G36*
X148056621Y-97681502D02*
G01*
X148103114Y-97735158D01*
X148114500Y-97787500D01*
X148114500Y-98039072D01*
X148114837Y-98042318D01*
X148114837Y-98042322D01*
X148123184Y-98122763D01*
X148125293Y-98143093D01*
X148127474Y-98149629D01*
X148127474Y-98149631D01*
X148153223Y-98226809D01*
X148180346Y-98308107D01*
X148271884Y-98456031D01*
X148277065Y-98461203D01*
X148279139Y-98463273D01*
X148280105Y-98465038D01*
X148281613Y-98466941D01*
X148281287Y-98467199D01*
X148313219Y-98525554D01*
X148308218Y-98596375D01*
X148279292Y-98641470D01*
X148276636Y-98644131D01*
X148267625Y-98655540D01*
X148184088Y-98791063D01*
X148177944Y-98804241D01*
X148127685Y-98955766D01*
X148124819Y-98969132D01*
X148115328Y-99061770D01*
X148115000Y-99068185D01*
X148115000Y-99142385D01*
X148119475Y-99157624D01*
X148120865Y-99158829D01*
X148128548Y-99160500D01*
X149226000Y-99160500D01*
X149294121Y-99180502D01*
X149340614Y-99234158D01*
X149352000Y-99286500D01*
X149352000Y-99542500D01*
X149331998Y-99610621D01*
X149278342Y-99657114D01*
X149226000Y-99668500D01*
X148133115Y-99668500D01*
X148117876Y-99672975D01*
X148116671Y-99674365D01*
X148115000Y-99682048D01*
X148115000Y-99760766D01*
X148115337Y-99767282D01*
X148125075Y-99861132D01*
X148127968Y-99874528D01*
X148178488Y-100025953D01*
X148184653Y-100039115D01*
X148268426Y-100174492D01*
X148277460Y-100185890D01*
X148390129Y-100298363D01*
X148401540Y-100307375D01*
X148537063Y-100390912D01*
X148550239Y-100397056D01*
X148550843Y-100397256D01*
X148551202Y-100397505D01*
X148556875Y-100400150D01*
X148556422Y-100401121D01*
X148609204Y-100437685D01*
X148636443Y-100503249D01*
X148623911Y-100573130D01*
X148606404Y-100599362D01*
X148591671Y-100616365D01*
X148587121Y-100637283D01*
X148585903Y-100637018D01*
X148569998Y-100691187D01*
X148539565Y-100723892D01*
X148497739Y-100755239D01*
X148449896Y-100819076D01*
X148436826Y-100836515D01*
X148379967Y-100879030D01*
X148309148Y-100884056D01*
X148246855Y-100849996D01*
X148235174Y-100836515D01*
X148222104Y-100819076D01*
X148174261Y-100755239D01*
X148132435Y-100723892D01*
X148089920Y-100667033D01*
X148084587Y-100637426D01*
X148077525Y-100613377D01*
X148076135Y-100612172D01*
X148068452Y-100610501D01*
X148016331Y-100610501D01*
X148009510Y-100610871D01*
X147950793Y-100617248D01*
X147950495Y-100614502D01*
X147921553Y-100614560D01*
X147921314Y-100616755D01*
X147911643Y-100615704D01*
X147904122Y-100614887D01*
X147838560Y-100587643D01*
X147798135Y-100529280D01*
X147795681Y-100458325D01*
X147798139Y-100449956D01*
X147844816Y-100309231D01*
X147847681Y-100295868D01*
X147857172Y-100203230D01*
X147857500Y-100196815D01*
X147857500Y-100185115D01*
X147853025Y-100169876D01*
X147851635Y-100168671D01*
X147843952Y-100167000D01*
X147084115Y-100167000D01*
X147068876Y-100171475D01*
X147067671Y-100172865D01*
X147066000Y-100180548D01*
X147066000Y-100566364D01*
X147045998Y-100634485D01*
X147012594Y-100665615D01*
X147014295Y-100667885D01*
X146897739Y-100755239D01*
X146810385Y-100871795D01*
X146759255Y-101008184D01*
X146752500Y-101070366D01*
X146752500Y-101819000D01*
X146732498Y-101887121D01*
X146678842Y-101933614D01*
X146626500Y-101945000D01*
X146045500Y-101945000D01*
X145977379Y-101924998D01*
X145930886Y-101871342D01*
X145919500Y-101819000D01*
X145919500Y-101563000D01*
X145939502Y-101494879D01*
X145993158Y-101448386D01*
X146045500Y-101437000D01*
X146463885Y-101437000D01*
X146479124Y-101432525D01*
X146480329Y-101431135D01*
X146482000Y-101423452D01*
X146482000Y-100681819D01*
X146502002Y-100613698D01*
X146549412Y-100572617D01*
X146556329Y-100564635D01*
X146558000Y-100556952D01*
X146558000Y-99640885D01*
X147066000Y-99640885D01*
X147070475Y-99656124D01*
X147071865Y-99657329D01*
X147079548Y-99659000D01*
X147839385Y-99659000D01*
X147854624Y-99654525D01*
X147855829Y-99653135D01*
X147857500Y-99645452D01*
X147857500Y-99629234D01*
X147857163Y-99622718D01*
X147847425Y-99528868D01*
X147844532Y-99515472D01*
X147794012Y-99364047D01*
X147787847Y-99350885D01*
X147704074Y-99215508D01*
X147695040Y-99204110D01*
X147582371Y-99091637D01*
X147570960Y-99082625D01*
X147435437Y-98999088D01*
X147422259Y-98992944D01*
X147270734Y-98942685D01*
X147257368Y-98939819D01*
X147164730Y-98930328D01*
X147158315Y-98930000D01*
X147084115Y-98930000D01*
X147068876Y-98934475D01*
X147067671Y-98935865D01*
X147066000Y-98943548D01*
X147066000Y-99640885D01*
X146558000Y-99640885D01*
X146558000Y-98948117D01*
X146546261Y-98908138D01*
X146546261Y-98837141D01*
X146584644Y-98777415D01*
X146650711Y-98747717D01*
X146725163Y-98737916D01*
X146725165Y-98737916D01*
X146733350Y-98736838D01*
X146807363Y-98706181D01*
X146873748Y-98678684D01*
X146873750Y-98678683D01*
X146881376Y-98675524D01*
X146922288Y-98644131D01*
X147001936Y-98583014D01*
X147001937Y-98583013D01*
X147008487Y-98577987D01*
X147013513Y-98571437D01*
X147013516Y-98571434D01*
X147093498Y-98467199D01*
X147106024Y-98450875D01*
X147167338Y-98302850D01*
X147169161Y-98289000D01*
X147182462Y-98187972D01*
X147182462Y-98187971D01*
X147183000Y-98183885D01*
X147182999Y-97904116D01*
X147179596Y-97878261D01*
X147169812Y-97803945D01*
X147180752Y-97733797D01*
X147227880Y-97680698D01*
X147294734Y-97661500D01*
X147988500Y-97661500D01*
X148056621Y-97681502D01*
G37*
G04 #@! TD.AperFunction*
G04 #@! TA.AperFunction,Conductor*
G36*
X159065383Y-97966687D02*
G01*
X159122219Y-98009234D01*
X159147030Y-98075754D01*
X159139362Y-98120824D01*
X159141658Y-98121491D01*
X159139447Y-98129101D01*
X159136299Y-98136375D01*
X159135060Y-98144198D01*
X159135057Y-98144208D01*
X159129381Y-98180044D01*
X159126975Y-98191664D01*
X159115980Y-98234490D01*
X159115980Y-98254744D01*
X159114429Y-98274454D01*
X159111260Y-98294463D01*
X159112006Y-98302355D01*
X159115421Y-98338481D01*
X159115980Y-98350339D01*
X159115980Y-99440787D01*
X159095978Y-99508908D01*
X159042322Y-99555401D01*
X159015366Y-99563142D01*
X159015444Y-99563435D01*
X158991652Y-99569810D01*
X158859007Y-99624753D01*
X158844824Y-99632941D01*
X158826703Y-99646846D01*
X158760483Y-99672446D01*
X158690934Y-99658181D01*
X158673297Y-99646846D01*
X158655176Y-99632941D01*
X158640993Y-99624753D01*
X158508351Y-99569811D01*
X158492531Y-99565572D01*
X158459960Y-99561284D01*
X158445778Y-99563495D01*
X158442000Y-99576652D01*
X158442000Y-100158386D01*
X158455394Y-100204003D01*
X158455394Y-100274999D01*
X158417010Y-100334725D01*
X158352429Y-100364218D01*
X158334499Y-100365500D01*
X158264846Y-100365500D01*
X158168000Y-100365501D01*
X158099880Y-100345499D01*
X158053387Y-100291844D01*
X158042000Y-100239501D01*
X158042000Y-99577035D01*
X158037956Y-99563264D01*
X158024417Y-99561235D01*
X157991467Y-99565572D01*
X157975652Y-99569810D01*
X157843007Y-99624753D01*
X157828828Y-99632939D01*
X157808205Y-99648764D01*
X157741985Y-99674365D01*
X157672436Y-99660101D01*
X157621639Y-99610500D01*
X157605500Y-99548802D01*
X157605500Y-99508524D01*
X157625502Y-99440403D01*
X157637858Y-99424221D01*
X157711040Y-99342944D01*
X157788391Y-99208969D01*
X157803223Y-99183279D01*
X157803224Y-99183278D01*
X157806527Y-99177556D01*
X157865542Y-98995928D01*
X157868359Y-98969132D01*
X157884814Y-98812565D01*
X157885504Y-98806000D01*
X157879828Y-98751999D01*
X157866232Y-98622635D01*
X157866232Y-98622633D01*
X157865542Y-98616072D01*
X157863503Y-98609797D01*
X157863502Y-98609792D01*
X157856563Y-98588438D01*
X157854534Y-98517471D01*
X157891195Y-98456672D01*
X157954907Y-98425346D01*
X157976395Y-98423500D01*
X158163233Y-98423500D01*
X158174416Y-98424027D01*
X158181909Y-98425702D01*
X158189835Y-98425453D01*
X158189836Y-98425453D01*
X158249986Y-98423562D01*
X158253945Y-98423500D01*
X158281856Y-98423500D01*
X158285791Y-98423003D01*
X158285856Y-98422995D01*
X158297693Y-98422062D01*
X158329951Y-98421048D01*
X158333970Y-98420922D01*
X158341889Y-98420673D01*
X158361343Y-98415021D01*
X158380700Y-98411013D01*
X158392930Y-98409468D01*
X158392931Y-98409468D01*
X158400797Y-98408474D01*
X158408168Y-98405555D01*
X158408170Y-98405555D01*
X158441912Y-98392196D01*
X158453142Y-98388351D01*
X158487983Y-98378229D01*
X158487984Y-98378229D01*
X158495593Y-98376018D01*
X158502412Y-98371985D01*
X158502417Y-98371983D01*
X158513028Y-98365707D01*
X158530776Y-98357012D01*
X158549617Y-98349552D01*
X158584669Y-98324086D01*
X158585387Y-98323564D01*
X158595307Y-98317048D01*
X158626535Y-98298580D01*
X158626538Y-98298578D01*
X158633362Y-98294542D01*
X158647683Y-98280221D01*
X158662717Y-98267380D01*
X158672694Y-98260131D01*
X158679107Y-98255472D01*
X158707298Y-98221395D01*
X158715288Y-98212616D01*
X158932256Y-97995648D01*
X158994568Y-97961622D01*
X159065383Y-97966687D01*
G37*
G04 #@! TD.AperFunction*
G04 #@! TA.AperFunction,Conductor*
G36*
X153676048Y-94887502D02*
G01*
X153722541Y-94941158D01*
X153733398Y-95005028D01*
X153730500Y-95036563D01*
X153730501Y-95463436D01*
X153730764Y-95466295D01*
X153730764Y-95466303D01*
X153732768Y-95488115D01*
X153736866Y-95532719D01*
X153738865Y-95539097D01*
X153738865Y-95539098D01*
X153761121Y-95610115D01*
X153785252Y-95687118D01*
X153869070Y-95825518D01*
X153926095Y-95882543D01*
X153960121Y-95944855D01*
X153963000Y-95971638D01*
X153963000Y-96294905D01*
X153942998Y-96363026D01*
X153926095Y-96384001D01*
X153190499Y-97119596D01*
X153128187Y-97153621D01*
X153101404Y-97156500D01*
X152732767Y-97156500D01*
X152721584Y-97155973D01*
X152714091Y-97154298D01*
X152706165Y-97154547D01*
X152706164Y-97154547D01*
X152646014Y-97156438D01*
X152642055Y-97156500D01*
X152614144Y-97156500D01*
X152610210Y-97156997D01*
X152610209Y-97156997D01*
X152610144Y-97157005D01*
X152598307Y-97157938D01*
X152566490Y-97158938D01*
X152562029Y-97159078D01*
X152554110Y-97159327D01*
X152536496Y-97164444D01*
X152534658Y-97164978D01*
X152515306Y-97168986D01*
X152508235Y-97169880D01*
X152495203Y-97171526D01*
X152487834Y-97174443D01*
X152487832Y-97174444D01*
X152454097Y-97187800D01*
X152442869Y-97191645D01*
X152400407Y-97203982D01*
X152393585Y-97208016D01*
X152393579Y-97208019D01*
X152382968Y-97214294D01*
X152365218Y-97222990D01*
X152353756Y-97227528D01*
X152353751Y-97227531D01*
X152346383Y-97230448D01*
X152339968Y-97235109D01*
X152310625Y-97256427D01*
X152300707Y-97262943D01*
X152282019Y-97273995D01*
X152262637Y-97285458D01*
X152248313Y-97299782D01*
X152233281Y-97312621D01*
X152216893Y-97324528D01*
X152193641Y-97352635D01*
X152188712Y-97358593D01*
X152180722Y-97367373D01*
X150962595Y-98585500D01*
X150900283Y-98619526D01*
X150829468Y-98614461D01*
X150772632Y-98571914D01*
X150747821Y-98505394D01*
X150747500Y-98496405D01*
X150747500Y-97730524D01*
X150767502Y-97662403D01*
X150779858Y-97646221D01*
X150853040Y-97564944D01*
X150948527Y-97399556D01*
X151007542Y-97217928D01*
X151008584Y-97208019D01*
X151026814Y-97034565D01*
X151027504Y-97028000D01*
X151020257Y-96959052D01*
X151008232Y-96844635D01*
X151008232Y-96844633D01*
X151007542Y-96838072D01*
X150948527Y-96656444D01*
X150853040Y-96491056D01*
X150836882Y-96473110D01*
X150729675Y-96354045D01*
X150729674Y-96354044D01*
X150725253Y-96349134D01*
X150570752Y-96236882D01*
X150564724Y-96234198D01*
X150564722Y-96234197D01*
X150535168Y-96221039D01*
X150481072Y-96175059D01*
X150460423Y-96107132D01*
X150463170Y-96079736D01*
X150488127Y-95962319D01*
X150489500Y-95955860D01*
X150489500Y-95770140D01*
X150450887Y-95588479D01*
X150448201Y-95582446D01*
X150448199Y-95582440D01*
X150444329Y-95573747D01*
X150434895Y-95503380D01*
X150465002Y-95439084D01*
X150525092Y-95401271D01*
X150559436Y-95396500D01*
X150717487Y-95396500D01*
X150723942Y-95395128D01*
X150723951Y-95395127D01*
X150795802Y-95379854D01*
X150866593Y-95385255D01*
X150923226Y-95428071D01*
X150947720Y-95494709D01*
X150948000Y-95503100D01*
X150948001Y-95882668D01*
X150948371Y-95889490D01*
X150953895Y-95940352D01*
X150957521Y-95955604D01*
X151002676Y-96076054D01*
X151011214Y-96091649D01*
X151087715Y-96193724D01*
X151100276Y-96206285D01*
X151202351Y-96282786D01*
X151217946Y-96291324D01*
X151338394Y-96336478D01*
X151353649Y-96340105D01*
X151404514Y-96345631D01*
X151411328Y-96346000D01*
X151908885Y-96346000D01*
X151924124Y-96341525D01*
X151925329Y-96340135D01*
X151927000Y-96332452D01*
X151927000Y-96327884D01*
X152435000Y-96327884D01*
X152439475Y-96343123D01*
X152440865Y-96344328D01*
X152448548Y-96345999D01*
X152950669Y-96345999D01*
X152957490Y-96345629D01*
X153008352Y-96340105D01*
X153023604Y-96336479D01*
X153144054Y-96291324D01*
X153159649Y-96282786D01*
X153261724Y-96206285D01*
X153274285Y-96193724D01*
X153350786Y-96091649D01*
X153359324Y-96076054D01*
X153404478Y-95955606D01*
X153408105Y-95940351D01*
X153413631Y-95889486D01*
X153414000Y-95882672D01*
X153414000Y-95610115D01*
X153409525Y-95594876D01*
X153408135Y-95593671D01*
X153400452Y-95592000D01*
X152453115Y-95592000D01*
X152437876Y-95596475D01*
X152436671Y-95597865D01*
X152435000Y-95605548D01*
X152435000Y-96327884D01*
X151927000Y-96327884D01*
X151927000Y-95210000D01*
X151947002Y-95141879D01*
X152000658Y-95095386D01*
X152053000Y-95084000D01*
X153395884Y-95084000D01*
X153411123Y-95079525D01*
X153412328Y-95078135D01*
X153413999Y-95070452D01*
X153413999Y-94993500D01*
X153434001Y-94925379D01*
X153487657Y-94878886D01*
X153539999Y-94867500D01*
X153607927Y-94867500D01*
X153676048Y-94887502D01*
G37*
G04 #@! TD.AperFunction*
M02*
