G04 #@! TF.GenerationSoftware,KiCad,Pcbnew,(6.0.6)*
G04 #@! TF.CreationDate,2022-10-22T18:45:05+02:00*
G04 #@! TF.ProjectId,ADXL PCB,4144584c-2050-4434-922e-6b696361645f,rev?*
G04 #@! TF.SameCoordinates,Original*
G04 #@! TF.FileFunction,Legend,Bot*
G04 #@! TF.FilePolarity,Positive*
%FSLAX46Y46*%
G04 Gerber Fmt 4.6, Leading zero omitted, Abs format (unit mm)*
G04 Created by KiCad (PCBNEW (6.0.6)) date 2022-10-22 18:45:05*
%MOMM*%
%LPD*%
G01*
G04 APERTURE LIST*
%ADD10C,0.100000*%
%ADD11C,0.150000*%
%ADD12C,0.120000*%
G04 APERTURE END LIST*
D10*
X163078428Y-114256285D02*
X163078428Y-113506285D01*
X162721285Y-114256285D02*
X162721285Y-113506285D01*
X162292714Y-114256285D01*
X162292714Y-113506285D01*
X161935571Y-114256285D02*
X161935571Y-113506285D01*
X161649857Y-113506285D01*
X161578428Y-113542000D01*
X161542714Y-113577714D01*
X161507000Y-113649142D01*
X161507000Y-113756285D01*
X161542714Y-113827714D01*
X161578428Y-113863428D01*
X161649857Y-113899142D01*
X161935571Y-113899142D01*
X161185571Y-113506285D02*
X161185571Y-114113428D01*
X161149857Y-114184857D01*
X161114142Y-114220571D01*
X161042714Y-114256285D01*
X160899857Y-114256285D01*
X160828428Y-114220571D01*
X160792714Y-114184857D01*
X160757000Y-114113428D01*
X160757000Y-113506285D01*
X160507000Y-113506285D02*
X160078428Y-113506285D01*
X160292714Y-114256285D02*
X160292714Y-113506285D01*
X159864142Y-114220571D02*
X159757000Y-114256285D01*
X159578428Y-114256285D01*
X159507000Y-114220571D01*
X159471285Y-114184857D01*
X159435571Y-114113428D01*
X159435571Y-114042000D01*
X159471285Y-113970571D01*
X159507000Y-113934857D01*
X159578428Y-113899142D01*
X159721285Y-113863428D01*
X159792714Y-113827714D01*
X159828428Y-113792000D01*
X159864142Y-113720571D01*
X159864142Y-113649142D01*
X159828428Y-113577714D01*
X159792714Y-113542000D01*
X159721285Y-113506285D01*
X159542714Y-113506285D01*
X159435571Y-113542000D01*
X159114142Y-114256285D02*
X159114142Y-113506285D01*
X159114142Y-113863428D02*
X158685571Y-113863428D01*
X158685571Y-114256285D02*
X158685571Y-113506285D01*
X158364142Y-114042000D02*
X158007000Y-114042000D01*
X158435571Y-114256285D02*
X158185571Y-113506285D01*
X157935571Y-114256285D01*
X157685571Y-114256285D02*
X157685571Y-113506285D01*
X157399857Y-113506285D01*
X157328428Y-113542000D01*
X157292714Y-113577714D01*
X157257000Y-113649142D01*
X157257000Y-113756285D01*
X157292714Y-113827714D01*
X157328428Y-113863428D01*
X157399857Y-113899142D01*
X157685571Y-113899142D01*
X156935571Y-113863428D02*
X156685571Y-113863428D01*
X156578428Y-114256285D02*
X156935571Y-114256285D01*
X156935571Y-113506285D01*
X156578428Y-113506285D01*
X155828428Y-114256285D02*
X156078428Y-113899142D01*
X156257000Y-114256285D02*
X156257000Y-113506285D01*
X155971285Y-113506285D01*
X155899857Y-113542000D01*
X155864142Y-113577714D01*
X155828428Y-113649142D01*
X155828428Y-113756285D01*
X155864142Y-113827714D01*
X155899857Y-113863428D01*
X155971285Y-113899142D01*
X156257000Y-113899142D01*
X154935571Y-114256285D02*
X154935571Y-113506285D01*
X154649857Y-113506285D01*
X154578428Y-113542000D01*
X154542714Y-113577714D01*
X154507000Y-113649142D01*
X154507000Y-113756285D01*
X154542714Y-113827714D01*
X154578428Y-113863428D01*
X154649857Y-113899142D01*
X154935571Y-113899142D01*
X153757000Y-114184857D02*
X153792714Y-114220571D01*
X153899857Y-114256285D01*
X153971285Y-114256285D01*
X154078428Y-114220571D01*
X154149857Y-114149142D01*
X154185571Y-114077714D01*
X154221285Y-113934857D01*
X154221285Y-113827714D01*
X154185571Y-113684857D01*
X154149857Y-113613428D01*
X154078428Y-113542000D01*
X153971285Y-113506285D01*
X153899857Y-113506285D01*
X153792714Y-113542000D01*
X153757000Y-113577714D01*
X153185571Y-113863428D02*
X153078428Y-113899142D01*
X153042714Y-113934857D01*
X153007000Y-114006285D01*
X153007000Y-114113428D01*
X153042714Y-114184857D01*
X153078428Y-114220571D01*
X153149857Y-114256285D01*
X153435571Y-114256285D01*
X153435571Y-113506285D01*
X153185571Y-113506285D01*
X153114142Y-113542000D01*
X153078428Y-113577714D01*
X153042714Y-113649142D01*
X153042714Y-113720571D01*
X153078428Y-113792000D01*
X153114142Y-113827714D01*
X153185571Y-113863428D01*
X153435571Y-113863428D01*
X163078428Y-115463785D02*
X163078428Y-114713785D01*
X162721285Y-115463785D02*
X162721285Y-114713785D01*
X162292714Y-115463785D01*
X162292714Y-114713785D01*
X161971285Y-115428071D02*
X161864142Y-115463785D01*
X161685571Y-115463785D01*
X161614142Y-115428071D01*
X161578428Y-115392357D01*
X161542714Y-115320928D01*
X161542714Y-115249500D01*
X161578428Y-115178071D01*
X161614142Y-115142357D01*
X161685571Y-115106642D01*
X161828428Y-115070928D01*
X161899857Y-115035214D01*
X161935571Y-114999500D01*
X161971285Y-114928071D01*
X161971285Y-114856642D01*
X161935571Y-114785214D01*
X161899857Y-114749500D01*
X161828428Y-114713785D01*
X161649857Y-114713785D01*
X161542714Y-114749500D01*
X161221285Y-115463785D02*
X161221285Y-114713785D01*
X160935571Y-114713785D01*
X160864142Y-114749500D01*
X160828428Y-114785214D01*
X160792714Y-114856642D01*
X160792714Y-114963785D01*
X160828428Y-115035214D01*
X160864142Y-115070928D01*
X160935571Y-115106642D01*
X161221285Y-115106642D01*
X160471285Y-115463785D02*
X160471285Y-114713785D01*
X159685571Y-115463785D02*
X159935571Y-115106642D01*
X160114142Y-115463785D02*
X160114142Y-114713785D01*
X159828428Y-114713785D01*
X159757000Y-114749500D01*
X159721285Y-114785214D01*
X159685571Y-114856642D01*
X159685571Y-114963785D01*
X159721285Y-115035214D01*
X159757000Y-115070928D01*
X159828428Y-115106642D01*
X160114142Y-115106642D01*
X159364142Y-115070928D02*
X159114142Y-115070928D01*
X159007000Y-115463785D02*
X159364142Y-115463785D01*
X159364142Y-114713785D01*
X159007000Y-114713785D01*
X158685571Y-115463785D02*
X158685571Y-114713785D01*
X158507000Y-114713785D01*
X158399857Y-114749500D01*
X158328428Y-114820928D01*
X158292714Y-114892357D01*
X158257000Y-115035214D01*
X158257000Y-115142357D01*
X158292714Y-115285214D01*
X158328428Y-115356642D01*
X158399857Y-115428071D01*
X158507000Y-115463785D01*
X158685571Y-115463785D01*
X157114142Y-115070928D02*
X157007000Y-115106642D01*
X156971285Y-115142357D01*
X156935571Y-115213785D01*
X156935571Y-115320928D01*
X156971285Y-115392357D01*
X157007000Y-115428071D01*
X157078428Y-115463785D01*
X157364142Y-115463785D01*
X157364142Y-114713785D01*
X157114142Y-114713785D01*
X157042714Y-114749500D01*
X157007000Y-114785214D01*
X156971285Y-114856642D01*
X156971285Y-114928071D01*
X157007000Y-114999500D01*
X157042714Y-115035214D01*
X157114142Y-115070928D01*
X157364142Y-115070928D01*
X156471285Y-115106642D02*
X156471285Y-115463785D01*
X156721285Y-114713785D02*
X156471285Y-115106642D01*
X156221285Y-114713785D01*
X155435571Y-115249500D02*
X155078428Y-115249500D01*
X155507000Y-115463785D02*
X155257000Y-114713785D01*
X155007000Y-115463785D01*
X154757000Y-115463785D02*
X154757000Y-114713785D01*
X154328428Y-115463785D01*
X154328428Y-114713785D01*
X153971285Y-115463785D02*
X153971285Y-114713785D01*
X153542714Y-115463785D01*
X153542714Y-114713785D01*
X153185571Y-115070928D02*
X152935571Y-115070928D01*
X152828428Y-115463785D02*
X153185571Y-115463785D01*
X153185571Y-114713785D01*
X152828428Y-114713785D01*
X152578428Y-114713785D02*
X152078428Y-115463785D01*
X152078428Y-114713785D02*
X152578428Y-115463785D01*
X150792714Y-115392357D02*
X150828428Y-115428071D01*
X150935571Y-115463785D01*
X151007000Y-115463785D01*
X151114142Y-115428071D01*
X151185571Y-115356642D01*
X151221285Y-115285214D01*
X151257000Y-115142357D01*
X151257000Y-115035214D01*
X151221285Y-114892357D01*
X151185571Y-114820928D01*
X151114142Y-114749500D01*
X151007000Y-114713785D01*
X150935571Y-114713785D01*
X150828428Y-114749500D01*
X150792714Y-114785214D01*
X150042714Y-115463785D02*
X150292714Y-115106642D01*
X150471285Y-115463785D02*
X150471285Y-114713785D01*
X150185571Y-114713785D01*
X150114142Y-114749500D01*
X150078428Y-114785214D01*
X150042714Y-114856642D01*
X150042714Y-114963785D01*
X150078428Y-115035214D01*
X150114142Y-115070928D01*
X150185571Y-115106642D01*
X150471285Y-115106642D01*
X149757000Y-115249500D02*
X149399857Y-115249500D01*
X149828428Y-115463785D02*
X149578428Y-114713785D01*
X149328428Y-115463785D01*
X149078428Y-115463785D02*
X149078428Y-114713785D01*
X148828428Y-115249500D01*
X148578428Y-114713785D01*
X148578428Y-115463785D01*
X148221285Y-115463785D02*
X148221285Y-114713785D01*
X147935571Y-114713785D01*
X147864142Y-114749500D01*
X147828428Y-114785214D01*
X147792714Y-114856642D01*
X147792714Y-114963785D01*
X147828428Y-115035214D01*
X147864142Y-115070928D01*
X147935571Y-115106642D01*
X148221285Y-115106642D01*
X147328428Y-114713785D02*
X147185571Y-114713785D01*
X147114142Y-114749500D01*
X147042714Y-114820928D01*
X147007000Y-114963785D01*
X147007000Y-115213785D01*
X147042714Y-115356642D01*
X147114142Y-115428071D01*
X147185571Y-115463785D01*
X147328428Y-115463785D01*
X147399857Y-115428071D01*
X147471285Y-115356642D01*
X147507000Y-115213785D01*
X147507000Y-114963785D01*
X147471285Y-114820928D01*
X147399857Y-114749500D01*
X147328428Y-114713785D01*
X146685571Y-115463785D02*
X146685571Y-114713785D01*
X146257000Y-115463785D01*
X146257000Y-114713785D01*
X163078428Y-116671285D02*
X163078428Y-115921285D01*
X162899857Y-115921285D01*
X162792714Y-115957000D01*
X162721285Y-116028428D01*
X162685571Y-116099857D01*
X162649857Y-116242714D01*
X162649857Y-116349857D01*
X162685571Y-116492714D01*
X162721285Y-116564142D01*
X162792714Y-116635571D01*
X162899857Y-116671285D01*
X163078428Y-116671285D01*
X162328428Y-116278428D02*
X162078428Y-116278428D01*
X161971285Y-116671285D02*
X162328428Y-116671285D01*
X162328428Y-115921285D01*
X161971285Y-115921285D01*
X161685571Y-116635571D02*
X161578428Y-116671285D01*
X161399857Y-116671285D01*
X161328428Y-116635571D01*
X161292714Y-116599857D01*
X161257000Y-116528428D01*
X161257000Y-116457000D01*
X161292714Y-116385571D01*
X161328428Y-116349857D01*
X161399857Y-116314142D01*
X161542714Y-116278428D01*
X161614142Y-116242714D01*
X161649857Y-116207000D01*
X161685571Y-116135571D01*
X161685571Y-116064142D01*
X161649857Y-115992714D01*
X161614142Y-115957000D01*
X161542714Y-115921285D01*
X161364142Y-115921285D01*
X161257000Y-115957000D01*
X160935571Y-116671285D02*
X160935571Y-115921285D01*
X160185571Y-115957000D02*
X160257000Y-115921285D01*
X160364142Y-115921285D01*
X160471285Y-115957000D01*
X160542714Y-116028428D01*
X160578428Y-116099857D01*
X160614142Y-116242714D01*
X160614142Y-116349857D01*
X160578428Y-116492714D01*
X160542714Y-116564142D01*
X160471285Y-116635571D01*
X160364142Y-116671285D01*
X160292714Y-116671285D01*
X160185571Y-116635571D01*
X160149857Y-116599857D01*
X160149857Y-116349857D01*
X160292714Y-116349857D01*
X159828428Y-116671285D02*
X159828428Y-115921285D01*
X159399857Y-116671285D01*
X159399857Y-115921285D01*
X159042714Y-116278428D02*
X158792714Y-116278428D01*
X158685571Y-116671285D02*
X159042714Y-116671285D01*
X159042714Y-115921285D01*
X158685571Y-115921285D01*
X158364142Y-116671285D02*
X158364142Y-115921285D01*
X158185571Y-115921285D01*
X158078428Y-115957000D01*
X158007000Y-116028428D01*
X157971285Y-116099857D01*
X157935571Y-116242714D01*
X157935571Y-116349857D01*
X157971285Y-116492714D01*
X158007000Y-116564142D01*
X158078428Y-116635571D01*
X158185571Y-116671285D01*
X158364142Y-116671285D01*
X156792714Y-116278428D02*
X156685571Y-116314142D01*
X156649857Y-116349857D01*
X156614142Y-116421285D01*
X156614142Y-116528428D01*
X156649857Y-116599857D01*
X156685571Y-116635571D01*
X156757000Y-116671285D01*
X157042714Y-116671285D01*
X157042714Y-115921285D01*
X156792714Y-115921285D01*
X156721285Y-115957000D01*
X156685571Y-115992714D01*
X156649857Y-116064142D01*
X156649857Y-116135571D01*
X156685571Y-116207000D01*
X156721285Y-116242714D01*
X156792714Y-116278428D01*
X157042714Y-116278428D01*
X156149857Y-116314142D02*
X156149857Y-116671285D01*
X156399857Y-115921285D02*
X156149857Y-116314142D01*
X155899857Y-115921285D01*
X155078428Y-116278428D02*
X154828428Y-116278428D01*
X154721285Y-116671285D02*
X155078428Y-116671285D01*
X155078428Y-115921285D01*
X154721285Y-115921285D01*
X154399857Y-116671285D02*
X154399857Y-115921285D01*
X154149857Y-116457000D01*
X153899857Y-115921285D01*
X153899857Y-116671285D01*
X153542714Y-116671285D02*
X153542714Y-115921285D01*
X153185571Y-116278428D02*
X152935571Y-116278428D01*
X152828428Y-116671285D02*
X153185571Y-116671285D01*
X153185571Y-115921285D01*
X152828428Y-115921285D01*
X152149857Y-116671285D02*
X152507000Y-116671285D01*
X152507000Y-115921285D01*
X151935571Y-116171285D02*
X151399857Y-116171285D01*
X151721285Y-115849857D02*
X151935571Y-116814142D01*
X151471285Y-116492714D02*
X152007000Y-116492714D01*
X151685571Y-116814142D02*
X151471285Y-115849857D01*
X151007000Y-115921285D02*
X150935571Y-115921285D01*
X150864142Y-115957000D01*
X150828428Y-115992714D01*
X150792714Y-116064142D01*
X150757000Y-116207000D01*
X150757000Y-116385571D01*
X150792714Y-116528428D01*
X150828428Y-116599857D01*
X150864142Y-116635571D01*
X150935571Y-116671285D01*
X151007000Y-116671285D01*
X151078428Y-116635571D01*
X151114142Y-116599857D01*
X151149857Y-116528428D01*
X151185571Y-116385571D01*
X151185571Y-116207000D01*
X151149857Y-116064142D01*
X151114142Y-115992714D01*
X151078428Y-115957000D01*
X151007000Y-115921285D01*
X150507000Y-115921285D02*
X150042714Y-115921285D01*
X150292714Y-116207000D01*
X150185571Y-116207000D01*
X150114142Y-116242714D01*
X150078428Y-116278428D01*
X150042714Y-116349857D01*
X150042714Y-116528428D01*
X150078428Y-116599857D01*
X150114142Y-116635571D01*
X150185571Y-116671285D01*
X150399857Y-116671285D01*
X150471285Y-116635571D01*
X150507000Y-116599857D01*
X149328428Y-116671285D02*
X149757000Y-116671285D01*
X149542714Y-116671285D02*
X149542714Y-115921285D01*
X149614142Y-116028428D01*
X149685571Y-116099857D01*
X149757000Y-116135571D01*
X148685571Y-116171285D02*
X148685571Y-116671285D01*
X148864142Y-115885571D02*
X149042714Y-116421285D01*
X148578428Y-116421285D01*
X163185571Y-117128785D02*
X162935571Y-117878785D01*
X162685571Y-117128785D01*
X162507000Y-117128785D02*
X162042714Y-117128785D01*
X162292714Y-117414500D01*
X162185571Y-117414500D01*
X162114142Y-117450214D01*
X162078428Y-117485928D01*
X162042714Y-117557357D01*
X162042714Y-117735928D01*
X162078428Y-117807357D01*
X162114142Y-117843071D01*
X162185571Y-117878785D01*
X162399857Y-117878785D01*
X162471285Y-117843071D01*
X162507000Y-117807357D01*
X163114142Y-118407714D02*
X163078428Y-118372000D01*
X163007000Y-118336285D01*
X162828428Y-118336285D01*
X162757000Y-118372000D01*
X162721285Y-118407714D01*
X162685571Y-118479142D01*
X162685571Y-118550571D01*
X162721285Y-118657714D01*
X163149857Y-119086285D01*
X162685571Y-119086285D01*
X162007000Y-118336285D02*
X162364142Y-118336285D01*
X162399857Y-118693428D01*
X162364142Y-118657714D01*
X162292714Y-118622000D01*
X162114142Y-118622000D01*
X162042714Y-118657714D01*
X162007000Y-118693428D01*
X161971285Y-118764857D01*
X161971285Y-118943428D01*
X162007000Y-119014857D01*
X162042714Y-119050571D01*
X162114142Y-119086285D01*
X162292714Y-119086285D01*
X162364142Y-119050571D01*
X162399857Y-119014857D01*
X161649857Y-118800571D02*
X161078428Y-118800571D01*
X160399857Y-118336285D02*
X160542714Y-118336285D01*
X160614142Y-118372000D01*
X160649857Y-118407714D01*
X160721285Y-118514857D01*
X160757000Y-118657714D01*
X160757000Y-118943428D01*
X160721285Y-119014857D01*
X160685571Y-119050571D01*
X160614142Y-119086285D01*
X160471285Y-119086285D01*
X160399857Y-119050571D01*
X160364142Y-119014857D01*
X160328428Y-118943428D01*
X160328428Y-118764857D01*
X160364142Y-118693428D01*
X160399857Y-118657714D01*
X160471285Y-118622000D01*
X160614142Y-118622000D01*
X160685571Y-118657714D01*
X160721285Y-118693428D01*
X160757000Y-118764857D01*
X160007000Y-118800571D02*
X159435571Y-118800571D01*
X159114142Y-118407714D02*
X159078428Y-118372000D01*
X159007000Y-118336285D01*
X158828428Y-118336285D01*
X158757000Y-118372000D01*
X158721285Y-118407714D01*
X158685571Y-118479142D01*
X158685571Y-118550571D01*
X158721285Y-118657714D01*
X159149857Y-119086285D01*
X158685571Y-119086285D01*
X158221285Y-118336285D02*
X158149857Y-118336285D01*
X158078428Y-118372000D01*
X158042714Y-118407714D01*
X158007000Y-118479142D01*
X157971285Y-118622000D01*
X157971285Y-118800571D01*
X158007000Y-118943428D01*
X158042714Y-119014857D01*
X158078428Y-119050571D01*
X158149857Y-119086285D01*
X158221285Y-119086285D01*
X158292714Y-119050571D01*
X158328428Y-119014857D01*
X158364142Y-118943428D01*
X158399857Y-118800571D01*
X158399857Y-118622000D01*
X158364142Y-118479142D01*
X158328428Y-118407714D01*
X158292714Y-118372000D01*
X158221285Y-118336285D01*
X157685571Y-118407714D02*
X157649857Y-118372000D01*
X157578428Y-118336285D01*
X157399857Y-118336285D01*
X157328428Y-118372000D01*
X157292714Y-118407714D01*
X157257000Y-118479142D01*
X157257000Y-118550571D01*
X157292714Y-118657714D01*
X157721285Y-119086285D01*
X157257000Y-119086285D01*
X156971285Y-118407714D02*
X156935571Y-118372000D01*
X156864142Y-118336285D01*
X156685571Y-118336285D01*
X156614142Y-118372000D01*
X156578428Y-118407714D01*
X156542714Y-118479142D01*
X156542714Y-118550571D01*
X156578428Y-118657714D01*
X157007000Y-119086285D01*
X156542714Y-119086285D01*
D11*
X163821904Y-101814380D02*
X163250476Y-101814380D01*
X163536190Y-102814380D02*
X163536190Y-101814380D01*
X162917142Y-102814380D02*
X162917142Y-101814380D01*
X162536190Y-101814380D01*
X162440952Y-101862000D01*
X162393333Y-101909619D01*
X162345714Y-102004857D01*
X162345714Y-102147714D01*
X162393333Y-102242952D01*
X162440952Y-102290571D01*
X162536190Y-102338190D01*
X162917142Y-102338190D01*
X161393333Y-102814380D02*
X161964761Y-102814380D01*
X161679047Y-102814380D02*
X161679047Y-101814380D01*
X161774285Y-101957238D01*
X161869523Y-102052476D01*
X161964761Y-102100095D01*
X153661904Y-93940380D02*
X153090476Y-93940380D01*
X153376190Y-94940380D02*
X153376190Y-93940380D01*
X152757142Y-94940380D02*
X152757142Y-93940380D01*
X152376190Y-93940380D01*
X152280952Y-93988000D01*
X152233333Y-94035619D01*
X152185714Y-94130857D01*
X152185714Y-94273714D01*
X152233333Y-94368952D01*
X152280952Y-94416571D01*
X152376190Y-94464190D01*
X152757142Y-94464190D01*
X151328571Y-93940380D02*
X151519047Y-93940380D01*
X151614285Y-93988000D01*
X151661904Y-94035619D01*
X151757142Y-94178476D01*
X151804761Y-94368952D01*
X151804761Y-94749904D01*
X151757142Y-94845142D01*
X151709523Y-94892761D01*
X151614285Y-94940380D01*
X151423809Y-94940380D01*
X151328571Y-94892761D01*
X151280952Y-94845142D01*
X151233333Y-94749904D01*
X151233333Y-94511809D01*
X151280952Y-94416571D01*
X151328571Y-94368952D01*
X151423809Y-94321333D01*
X151614285Y-94321333D01*
X151709523Y-94368952D01*
X151757142Y-94416571D01*
X151804761Y-94511809D01*
X144517904Y-114768380D02*
X143946476Y-114768380D01*
X144232190Y-115768380D02*
X144232190Y-114768380D01*
X143613142Y-115768380D02*
X143613142Y-114768380D01*
X143232190Y-114768380D01*
X143136952Y-114816000D01*
X143089333Y-114863619D01*
X143041714Y-114958857D01*
X143041714Y-115101714D01*
X143089333Y-115196952D01*
X143136952Y-115244571D01*
X143232190Y-115292190D01*
X143613142Y-115292190D01*
X142660761Y-114863619D02*
X142613142Y-114816000D01*
X142517904Y-114768380D01*
X142279809Y-114768380D01*
X142184571Y-114816000D01*
X142136952Y-114863619D01*
X142089333Y-114958857D01*
X142089333Y-115054095D01*
X142136952Y-115196952D01*
X142708380Y-115768380D01*
X142089333Y-115768380D01*
X149343904Y-108164380D02*
X148772476Y-108164380D01*
X149058190Y-109164380D02*
X149058190Y-108164380D01*
X148439142Y-109164380D02*
X148439142Y-108164380D01*
X148058190Y-108164380D01*
X147962952Y-108212000D01*
X147915333Y-108259619D01*
X147867714Y-108354857D01*
X147867714Y-108497714D01*
X147915333Y-108592952D01*
X147962952Y-108640571D01*
X148058190Y-108688190D01*
X148439142Y-108688190D01*
X147010571Y-108497714D02*
X147010571Y-109164380D01*
X147248666Y-108116761D02*
X147486761Y-108831047D01*
X146867714Y-108831047D01*
X149851904Y-119086380D02*
X149280476Y-119086380D01*
X149566190Y-120086380D02*
X149566190Y-119086380D01*
X148947142Y-120086380D02*
X148947142Y-119086380D01*
X148566190Y-119086380D01*
X148470952Y-119134000D01*
X148423333Y-119181619D01*
X148375714Y-119276857D01*
X148375714Y-119419714D01*
X148423333Y-119514952D01*
X148470952Y-119562571D01*
X148566190Y-119610190D01*
X148947142Y-119610190D01*
X147470952Y-119086380D02*
X147947142Y-119086380D01*
X147994761Y-119562571D01*
X147947142Y-119514952D01*
X147851904Y-119467333D01*
X147613809Y-119467333D01*
X147518571Y-119514952D01*
X147470952Y-119562571D01*
X147423333Y-119657809D01*
X147423333Y-119895904D01*
X147470952Y-119991142D01*
X147518571Y-120038761D01*
X147613809Y-120086380D01*
X147851904Y-120086380D01*
X147947142Y-120038761D01*
X147994761Y-119991142D01*
X149343904Y-110196380D02*
X148772476Y-110196380D01*
X149058190Y-111196380D02*
X149058190Y-110196380D01*
X148439142Y-111196380D02*
X148439142Y-110196380D01*
X148058190Y-110196380D01*
X147962952Y-110244000D01*
X147915333Y-110291619D01*
X147867714Y-110386857D01*
X147867714Y-110529714D01*
X147915333Y-110624952D01*
X147962952Y-110672571D01*
X148058190Y-110720190D01*
X148439142Y-110720190D01*
X147534380Y-110196380D02*
X146915333Y-110196380D01*
X147248666Y-110577333D01*
X147105809Y-110577333D01*
X147010571Y-110624952D01*
X146962952Y-110672571D01*
X146915333Y-110767809D01*
X146915333Y-111005904D01*
X146962952Y-111101142D01*
X147010571Y-111148761D01*
X147105809Y-111196380D01*
X147391523Y-111196380D01*
X147486761Y-111148761D01*
X147534380Y-111101142D01*
D12*
X166054000Y-102362000D02*
G75*
G03*
X166054000Y-102362000I-700000J0D01*
G01*
X150306000Y-94488000D02*
G75*
G03*
X150306000Y-94488000I-700000J0D01*
G01*
X141162000Y-115316000D02*
G75*
G03*
X141162000Y-115316000I-700000J0D01*
G01*
X145988000Y-108712000D02*
G75*
G03*
X145988000Y-108712000I-700000J0D01*
G01*
X146496000Y-119634000D02*
G75*
G03*
X146496000Y-119634000I-700000J0D01*
G01*
X145988000Y-110744000D02*
G75*
G03*
X145988000Y-110744000I-700000J0D01*
G01*
M02*
