M48
; DRILL file {KiCad (6.0.6)} date Sat Oct 22 18:45:58 2022
; FORMAT={-:-/ absolute / inch / decimal}
; #@! TF.CreationDate,2022-10-22T18:45:58+02:00
; #@! TF.GenerationSoftware,Kicad,Pcbnew,(6.0.6)
; #@! TF.FileFunction,MixedPlating,1,2
FMAT,2
INCH
; #@! TA.AperFunction,Plated,PTH,ViaDrill
T1C0.0157
; #@! TA.AperFunction,Plated,PTH,ComponentDrill
T2C0.0236
; #@! TA.AperFunction,Plated,PTH,ComponentDrill
T3C0.0256
; #@! TA.AperFunction,Plated,PTH,ComponentDrill
T4C0.0335
; #@! TA.AperFunction,Plated,PTH,ComponentDrill
T5C0.0866
; #@! TA.AperFunction,NonPlated,NPTH,ComponentDrill
T6C0.0295
%
G90
G05
T1
X5.59Y-4.08
X5.64Y-3.96
X5.65Y-4.09
X5.72Y-4.5
X5.76Y-4.24
X5.76Y-4.3
X5.76Y-4.34
X5.79Y-4.72
X5.8Y-4.64
X5.81Y-4.5
X5.82Y-3.86
X5.88Y-4.16
X5.9Y-4.21
X5.9Y-4.44
X5.91Y-3.82
X5.92Y-3.94
X5.93Y-3.72
X5.95Y-4.15
X5.95Y-4.71
X5.96Y-3.99
X5.9673Y-3.8173
X6.01Y-4.27
X6.03Y-4.75
X6.034Y-4.054
X6.05Y-3.6688
X6.05Y-4.19
X6.08Y-4.15
X6.11Y-4.42
X6.18Y-3.89
X6.18Y-4.44
X6.19Y-4.1
X6.22Y-3.82
X6.23Y-4.39
X6.24Y-4.1
X6.24Y-4.47
X6.26Y-3.9
X6.27Y-4.28
X6.2703Y-3.7096
X6.29Y-3.83
X6.32Y-3.89
X6.36Y-3.88
X6.37Y-3.84
X6.45Y-4.11
X6.47Y-4.05
X6.47Y-4.28
X6.48Y-4.36
X6.51Y-4.18
X6.51Y-4.32
X6.55Y-4.46
X6.57Y-4.22
X6.58Y-4.28
X6.59Y-4.13
T3
X6.2198Y-4.63
X6.2698Y-4.63
X6.3198Y-4.63
T4
X5.6376Y-4.2216
X5.6376Y-4.4184
T5
X5.59Y-3.75
X5.59Y-4.69
X6.52Y-3.76
X6.53Y-4.69
T6
X5.89Y-3.6659
X5.89Y-3.7741
T2
G00X5.5175Y-4.1822
M15
G01X5.5451Y-4.1822
M16
G05
G00X5.5451Y-4.4578
M15
G01X5.5175Y-4.4578
M16
G05
T0
M30
