G04 #@! TF.GenerationSoftware,KiCad,Pcbnew,(6.0.6)*
G04 #@! TF.CreationDate,2022-10-22T18:45:05+02:00*
G04 #@! TF.ProjectId,ADXL PCB,4144584c-2050-4434-922e-6b696361645f,rev?*
G04 #@! TF.SameCoordinates,Original*
G04 #@! TF.FileFunction,Copper,L2,Bot*
G04 #@! TF.FilePolarity,Positive*
%FSLAX46Y46*%
G04 Gerber Fmt 4.6, Leading zero omitted, Abs format (unit mm)*
G04 Created by KiCad (PCBNEW (6.0.6)) date 2022-10-22 18:45:05*
%MOMM*%
%LPD*%
G01*
G04 APERTURE LIST*
G04 #@! TA.AperFunction,ComponentPad*
%ADD10C,3.800000*%
G04 #@! TD*
G04 #@! TA.AperFunction,ComponentPad*
%ADD11R,1.000000X1.000000*%
G04 #@! TD*
G04 #@! TA.AperFunction,ComponentPad*
%ADD12O,1.000000X1.000000*%
G04 #@! TD*
G04 #@! TA.AperFunction,ComponentPad*
%ADD13C,1.450000*%
G04 #@! TD*
G04 #@! TA.AperFunction,ComponentPad*
%ADD14O,1.900000X1.200000*%
G04 #@! TD*
G04 #@! TA.AperFunction,SMDPad,CuDef*
%ADD15C,1.000000*%
G04 #@! TD*
G04 #@! TA.AperFunction,ViaPad*
%ADD16C,0.800000*%
G04 #@! TD*
G04 #@! TA.AperFunction,Conductor*
%ADD17C,0.250000*%
G04 #@! TD*
G04 APERTURE END LIST*
D10*
X141986000Y-95250000D03*
X165608000Y-95504000D03*
D11*
X157983000Y-117602000D03*
D12*
X159253000Y-117602000D03*
X160523000Y-117602000D03*
D10*
X165862000Y-119126000D03*
D13*
X143194500Y-112228000D03*
D14*
X140494500Y-106228000D03*
X140494500Y-113228000D03*
D13*
X143194500Y-107228000D03*
D10*
X141986000Y-119126000D03*
D15*
X165354000Y-102362000D03*
X149606000Y-94488000D03*
X140462000Y-115316000D03*
X145288000Y-108712000D03*
X145796000Y-119634000D03*
X145288000Y-110744000D03*
D16*
X150114000Y-97028000D03*
X159258000Y-108712000D03*
X153670000Y-106426000D03*
X153670000Y-93188480D03*
X161798000Y-97536000D03*
X164338000Y-108712000D03*
X150368000Y-100076000D03*
X141986000Y-103632000D03*
X163830000Y-104394000D03*
X166370000Y-113284000D03*
X145288000Y-114300000D03*
X153262500Y-102970500D03*
X153162000Y-120650000D03*
X156972000Y-112776000D03*
X164338000Y-102870000D03*
X147828000Y-98044000D03*
X149860000Y-106934000D03*
X157226000Y-104140000D03*
X155194000Y-112268000D03*
X147574000Y-114300000D03*
X157988000Y-97028000D03*
X167132000Y-108712000D03*
X151569842Y-96959842D03*
X159004000Y-99060000D03*
X152654000Y-108458000D03*
X151130000Y-119634000D03*
X143256000Y-100584000D03*
X143510000Y-103886000D03*
X146304000Y-107696000D03*
X149860000Y-112776000D03*
X151384000Y-101346000D03*
X151130000Y-105410000D03*
X154432000Y-105410000D03*
X158242000Y-111506000D03*
X158496000Y-113538000D03*
X164592000Y-110744000D03*
X165354000Y-109728000D03*
X147320000Y-117856000D03*
X147066000Y-119888000D03*
X166878000Y-107188000D03*
X165354000Y-106172000D03*
X149352000Y-105664000D03*
X159766000Y-97282000D03*
X158496000Y-104140000D03*
X159266075Y-94224618D03*
X156972000Y-98806000D03*
X167386000Y-104902000D03*
X160528000Y-98806000D03*
X146304000Y-109220000D03*
X146304000Y-110236000D03*
X161544000Y-98552000D03*
X150622000Y-94488000D03*
D17*
X153191520Y-93188480D02*
X153670000Y-93188480D01*
X151130000Y-95250000D02*
X153191520Y-93188480D01*
X166370000Y-106680000D02*
X164338000Y-108712000D01*
X165100000Y-104648000D02*
X166370000Y-105918000D01*
X150114000Y-97028000D02*
X151130000Y-96012000D01*
X151130000Y-96012000D02*
X151130000Y-95250000D01*
X163830000Y-104394000D02*
X164084000Y-104648000D01*
X166370000Y-105918000D02*
X166370000Y-106680000D01*
X164084000Y-104648000D02*
X165100000Y-104648000D01*
X167640000Y-109220000D02*
X167132000Y-108712000D01*
X140494500Y-113228000D02*
X140494500Y-115283500D01*
X167640000Y-112776000D02*
X167640000Y-109220000D01*
X167894000Y-106680000D02*
X167894000Y-108204000D01*
X157226000Y-104140000D02*
X157226000Y-100838000D01*
X145288000Y-114300000D02*
X147574000Y-114300000D01*
X152146000Y-119634000D02*
X153162000Y-120650000D01*
X165608000Y-104140000D02*
X165608000Y-104394000D01*
X143764000Y-112797500D02*
X143764000Y-113792000D01*
X164338000Y-102870000D02*
X165608000Y-104140000D01*
X143194500Y-112228000D02*
X143764000Y-112797500D01*
X152654000Y-108458000D02*
X155194000Y-110998000D01*
X167386000Y-108712000D02*
X167132000Y-108712000D01*
X156972000Y-112776000D02*
X155702000Y-112776000D01*
X143764000Y-113792000D02*
X144272000Y-114300000D01*
X157226000Y-104140000D02*
X154432000Y-104140000D01*
X151130000Y-119634000D02*
X152146000Y-119634000D01*
X166370000Y-113284000D02*
X167132000Y-113284000D01*
X143510000Y-100838000D02*
X143256000Y-100584000D01*
X151130000Y-106934000D02*
X152654000Y-108458000D01*
X143510000Y-103886000D02*
X143510000Y-100838000D01*
X157988000Y-98044000D02*
X159004000Y-99060000D01*
X155702000Y-112776000D02*
X155194000Y-112268000D01*
X157226000Y-100838000D02*
X159004000Y-99060000D01*
X150485684Y-98044000D02*
X151569842Y-96959842D01*
X167132000Y-113284000D02*
X167640000Y-112776000D01*
X147828000Y-98044000D02*
X150485684Y-98044000D01*
X140494500Y-115283500D02*
X140462000Y-115316000D01*
X154432000Y-104140000D02*
X153262500Y-102970500D01*
X157988000Y-97028000D02*
X157988000Y-98044000D01*
X167894000Y-108204000D02*
X167386000Y-108712000D01*
X165608000Y-104394000D02*
X167894000Y-106680000D01*
X144272000Y-114300000D02*
X145288000Y-114300000D01*
X149860000Y-106934000D02*
X151130000Y-106934000D01*
X155194000Y-110998000D02*
X155194000Y-112268000D01*
X147828000Y-112014000D02*
X149098000Y-112014000D01*
X149098000Y-112014000D02*
X149860000Y-112776000D01*
X147320000Y-108712000D02*
X147320000Y-111506000D01*
X147320000Y-111506000D02*
X147828000Y-112014000D01*
X146304000Y-107696000D02*
X147320000Y-108712000D01*
X151130000Y-101600000D02*
X151130000Y-105410000D01*
X151384000Y-101346000D02*
X151130000Y-101600000D01*
X154432000Y-105410000D02*
X151130000Y-105410000D01*
X158496000Y-113538000D02*
X158242000Y-113284000D01*
X158242000Y-113284000D02*
X158242000Y-111506000D01*
X161544000Y-113792000D02*
X161544000Y-118110000D01*
X164592000Y-110744000D02*
X161544000Y-113792000D01*
X158496000Y-119126000D02*
X157983000Y-118613000D01*
X157983000Y-118613000D02*
X157983000Y-117602000D01*
X160528000Y-119126000D02*
X158496000Y-119126000D01*
X161544000Y-118110000D02*
X160528000Y-119126000D01*
X165354000Y-109728000D02*
X164724807Y-109728000D01*
X160523000Y-113929807D02*
X160523000Y-117602000D01*
X164724807Y-109728000D02*
X160523000Y-113929807D01*
X145796000Y-119634000D02*
X145796000Y-119380000D01*
X145796000Y-119380000D02*
X147320000Y-117856000D01*
X157480000Y-115570000D02*
X163713489Y-109336511D01*
X145796000Y-119634000D02*
X146812000Y-119634000D01*
X147320000Y-117856000D02*
X147320000Y-117094000D01*
X147320000Y-117094000D02*
X148844000Y-115570000D01*
X146812000Y-119634000D02*
X147066000Y-119888000D01*
X164729489Y-109336511D02*
X166878000Y-107188000D01*
X163713489Y-109336511D02*
X164729489Y-109336511D01*
X148844000Y-115570000D02*
X157480000Y-115570000D01*
X150114000Y-105918000D02*
X150368000Y-105918000D01*
X161036000Y-107442000D02*
X161798000Y-106680000D01*
X151638000Y-106426000D02*
X152400000Y-107188000D01*
X149352000Y-105664000D02*
X149606000Y-105918000D01*
X150622000Y-106172000D02*
X150876000Y-106426000D01*
X153162000Y-107442000D02*
X161036000Y-107442000D01*
X162306000Y-106172000D02*
X165354000Y-106172000D01*
X161798000Y-106680000D02*
X162306000Y-106172000D01*
X150876000Y-106426000D02*
X151384000Y-106426000D01*
X150368000Y-105918000D02*
X150622000Y-106172000D01*
X152400000Y-107188000D02*
X152654000Y-107442000D01*
X149606000Y-105918000D02*
X150114000Y-105918000D01*
X151384000Y-106426000D02*
X151638000Y-106426000D01*
X152654000Y-107442000D02*
X153162000Y-107442000D01*
X159766000Y-97282000D02*
X159766000Y-102870000D01*
X159766000Y-102870000D02*
X158496000Y-104140000D01*
X156972000Y-96774000D02*
X156972000Y-98806000D01*
X159266075Y-94479925D02*
X156972000Y-96774000D01*
X159266075Y-94224618D02*
X159266075Y-94479925D01*
X167386000Y-104394000D02*
X165354000Y-102362000D01*
X167386000Y-104902000D02*
X167386000Y-104394000D01*
X146050000Y-108966000D02*
X146304000Y-109220000D01*
X160028614Y-93472000D02*
X160528000Y-93971386D01*
X156718000Y-93472000D02*
X160028614Y-93472000D01*
X145288000Y-103886000D02*
X149860000Y-99314000D01*
X150876000Y-99314000D02*
X156718000Y-93472000D01*
X145288000Y-108966000D02*
X146050000Y-108966000D01*
X145288000Y-108966000D02*
X145288000Y-103886000D01*
X149860000Y-99314000D02*
X150876000Y-99314000D01*
X160528000Y-93971386D02*
X160528000Y-98806000D01*
X161036000Y-98044000D02*
X161544000Y-98552000D01*
X160156332Y-92964000D02*
X161036000Y-93843668D01*
X156590282Y-92964000D02*
X160156332Y-92964000D01*
X161036000Y-93843668D02*
X161036000Y-98044000D01*
X144463489Y-109665489D02*
X144463489Y-104074794D01*
X145288000Y-110490000D02*
X146050000Y-110490000D01*
X144463489Y-104074794D02*
X149673803Y-98864480D01*
X150689802Y-98864480D02*
X156590282Y-92964000D01*
X146050000Y-110490000D02*
X146304000Y-110236000D01*
X149673803Y-98864480D02*
X150689802Y-98864480D01*
X145288000Y-110490000D02*
X144463489Y-109665489D01*
X150622000Y-94488000D02*
X149606000Y-94488000D01*
G04 #@! TA.AperFunction,Conductor*
G36*
X158295382Y-94125502D02*
G01*
X158341875Y-94179158D01*
X158351782Y-94224700D01*
X158352571Y-94224617D01*
X158352571Y-94224618D01*
X158372245Y-94411802D01*
X158359473Y-94481639D01*
X158336030Y-94514066D01*
X156579747Y-96270348D01*
X156571461Y-96277888D01*
X156564982Y-96282000D01*
X156559557Y-96287777D01*
X156518357Y-96331651D01*
X156515602Y-96334493D01*
X156495865Y-96354230D01*
X156493385Y-96357427D01*
X156485682Y-96366447D01*
X156455414Y-96398679D01*
X156451595Y-96405625D01*
X156451593Y-96405628D01*
X156445652Y-96416434D01*
X156434801Y-96432953D01*
X156422386Y-96448959D01*
X156419241Y-96456228D01*
X156419238Y-96456232D01*
X156404826Y-96489537D01*
X156399609Y-96500187D01*
X156378305Y-96538940D01*
X156376334Y-96546615D01*
X156376334Y-96546616D01*
X156373267Y-96558562D01*
X156366863Y-96577266D01*
X156358819Y-96595855D01*
X156357580Y-96603678D01*
X156357577Y-96603688D01*
X156351901Y-96639524D01*
X156349495Y-96651144D01*
X156343482Y-96674564D01*
X156338500Y-96693970D01*
X156338500Y-96714224D01*
X156336949Y-96733934D01*
X156333780Y-96753943D01*
X156334526Y-96761835D01*
X156337941Y-96797961D01*
X156338500Y-96809819D01*
X156338500Y-98103476D01*
X156318498Y-98171597D01*
X156306142Y-98187779D01*
X156232960Y-98269056D01*
X156137473Y-98434444D01*
X156078458Y-98616072D01*
X156077768Y-98622633D01*
X156077768Y-98622635D01*
X156065920Y-98735365D01*
X156058496Y-98806000D01*
X156059186Y-98812565D01*
X156073894Y-98952500D01*
X156078458Y-98995928D01*
X156137473Y-99177556D01*
X156232960Y-99342944D01*
X156237378Y-99347851D01*
X156237379Y-99347852D01*
X156337572Y-99459128D01*
X156360747Y-99484866D01*
X156515248Y-99597118D01*
X156521276Y-99599802D01*
X156521278Y-99599803D01*
X156683681Y-99672109D01*
X156689712Y-99674794D01*
X156783113Y-99694647D01*
X156870056Y-99713128D01*
X156870061Y-99713128D01*
X156876513Y-99714500D01*
X157067487Y-99714500D01*
X157083610Y-99711073D01*
X157141747Y-99698716D01*
X157212537Y-99704118D01*
X157269170Y-99746935D01*
X157293663Y-99813573D01*
X157278242Y-99882874D01*
X157257043Y-99911052D01*
X156833736Y-100334359D01*
X156825462Y-100341888D01*
X156818982Y-100346000D01*
X156813557Y-100351777D01*
X156772357Y-100395651D01*
X156769602Y-100398493D01*
X156749865Y-100418230D01*
X156747385Y-100421427D01*
X156739682Y-100430447D01*
X156709414Y-100462679D01*
X156705595Y-100469625D01*
X156705593Y-100469628D01*
X156699652Y-100480434D01*
X156688801Y-100496953D01*
X156676386Y-100512959D01*
X156673241Y-100520228D01*
X156673238Y-100520232D01*
X156658826Y-100553537D01*
X156653609Y-100564187D01*
X156632305Y-100602940D01*
X156630334Y-100610615D01*
X156630334Y-100610616D01*
X156627267Y-100622562D01*
X156620863Y-100641266D01*
X156612819Y-100659855D01*
X156611580Y-100667678D01*
X156611577Y-100667688D01*
X156605901Y-100703524D01*
X156603495Y-100715144D01*
X156592500Y-100757970D01*
X156592500Y-100778224D01*
X156590949Y-100797934D01*
X156587780Y-100817943D01*
X156588526Y-100825835D01*
X156591941Y-100861961D01*
X156592500Y-100873819D01*
X156592500Y-103380500D01*
X156572498Y-103448621D01*
X156518842Y-103495114D01*
X156466500Y-103506500D01*
X154746594Y-103506500D01*
X154678473Y-103486498D01*
X154657499Y-103469595D01*
X154209622Y-103021718D01*
X154175596Y-102959406D01*
X154173407Y-102945793D01*
X154156732Y-102787135D01*
X154156732Y-102787133D01*
X154156042Y-102780572D01*
X154097027Y-102598944D01*
X154001540Y-102433556D01*
X153911050Y-102333056D01*
X153878175Y-102296545D01*
X153878174Y-102296544D01*
X153873753Y-102291634D01*
X153719252Y-102179382D01*
X153713224Y-102176698D01*
X153713222Y-102176697D01*
X153550819Y-102104391D01*
X153550818Y-102104391D01*
X153544788Y-102101706D01*
X153437410Y-102078882D01*
X153364444Y-102063372D01*
X153364439Y-102063372D01*
X153357987Y-102062000D01*
X153167013Y-102062000D01*
X153160561Y-102063372D01*
X153160556Y-102063372D01*
X153087590Y-102078882D01*
X152980212Y-102101706D01*
X152974182Y-102104391D01*
X152974181Y-102104391D01*
X152811778Y-102176697D01*
X152811776Y-102176698D01*
X152805748Y-102179382D01*
X152651247Y-102291634D01*
X152646826Y-102296544D01*
X152646825Y-102296545D01*
X152613951Y-102333056D01*
X152523460Y-102433556D01*
X152427973Y-102598944D01*
X152368958Y-102780572D01*
X152368268Y-102787133D01*
X152368268Y-102787135D01*
X152362699Y-102840125D01*
X152348996Y-102970500D01*
X152349686Y-102977065D01*
X152367759Y-103149017D01*
X152368958Y-103160428D01*
X152427973Y-103342056D01*
X152431276Y-103347778D01*
X152431277Y-103347779D01*
X152446218Y-103373657D01*
X152523460Y-103507444D01*
X152527878Y-103512351D01*
X152527879Y-103512352D01*
X152560756Y-103548866D01*
X152651247Y-103649366D01*
X152671118Y-103663803D01*
X152774334Y-103738794D01*
X152805748Y-103761618D01*
X152811776Y-103764302D01*
X152811778Y-103764303D01*
X152888591Y-103798502D01*
X152980212Y-103839294D01*
X153073613Y-103859147D01*
X153160556Y-103877628D01*
X153160561Y-103877628D01*
X153167013Y-103879000D01*
X153222905Y-103879000D01*
X153291026Y-103899002D01*
X153312001Y-103915905D01*
X153893942Y-104497847D01*
X153927967Y-104560159D01*
X153922902Y-104630975D01*
X153878907Y-104688878D01*
X153859687Y-104702842D01*
X153820747Y-104731134D01*
X153816332Y-104736037D01*
X153811420Y-104740460D01*
X153810295Y-104739211D01*
X153756986Y-104772051D01*
X153723800Y-104776500D01*
X151889500Y-104776500D01*
X151821379Y-104756498D01*
X151774886Y-104702842D01*
X151763500Y-104650500D01*
X151763500Y-102253339D01*
X151783502Y-102185218D01*
X151830180Y-102145153D01*
X151828999Y-102143107D01*
X151834722Y-102139803D01*
X151840752Y-102137118D01*
X151995253Y-102024866D01*
X152123040Y-101882944D01*
X152218527Y-101717556D01*
X152277542Y-101535928D01*
X152279437Y-101517903D01*
X152296814Y-101352565D01*
X152297504Y-101346000D01*
X152296814Y-101339435D01*
X152278232Y-101162635D01*
X152278232Y-101162633D01*
X152277542Y-101156072D01*
X152218527Y-100974444D01*
X152123040Y-100809056D01*
X152097064Y-100780206D01*
X151999675Y-100672045D01*
X151999674Y-100672044D01*
X151995253Y-100667134D01*
X151880829Y-100584000D01*
X151846094Y-100558763D01*
X151846093Y-100558762D01*
X151840752Y-100554882D01*
X151834724Y-100552198D01*
X151834722Y-100552197D01*
X151672319Y-100479891D01*
X151672318Y-100479891D01*
X151666288Y-100477206D01*
X151570756Y-100456900D01*
X151485944Y-100438872D01*
X151485939Y-100438872D01*
X151479487Y-100437500D01*
X151288513Y-100437500D01*
X151282061Y-100438872D01*
X151282056Y-100438872D01*
X151197244Y-100456900D01*
X151101712Y-100477206D01*
X151095682Y-100479891D01*
X151095681Y-100479891D01*
X150933278Y-100552197D01*
X150933276Y-100552198D01*
X150927248Y-100554882D01*
X150921907Y-100558762D01*
X150921906Y-100558763D01*
X150887171Y-100584000D01*
X150772747Y-100667134D01*
X150768326Y-100672044D01*
X150768325Y-100672045D01*
X150670937Y-100780206D01*
X150644960Y-100809056D01*
X150549473Y-100974444D01*
X150490458Y-101156072D01*
X150489768Y-101162633D01*
X150489768Y-101162635D01*
X150471186Y-101339435D01*
X150470496Y-101346000D01*
X150471186Y-101352565D01*
X150488564Y-101517903D01*
X150490458Y-101535928D01*
X150490741Y-101536800D01*
X150491455Y-101564134D01*
X150493270Y-101564191D01*
X150493021Y-101572110D01*
X150491780Y-101579943D01*
X150492526Y-101587835D01*
X150492526Y-101587837D01*
X150495941Y-101623961D01*
X150496500Y-101635819D01*
X150496500Y-104707476D01*
X150476498Y-104775597D01*
X150464142Y-104791779D01*
X150390960Y-104873056D01*
X150374249Y-104902000D01*
X150323419Y-104990041D01*
X150295473Y-105038444D01*
X150287545Y-105062842D01*
X150247474Y-105121447D01*
X150182078Y-105149084D01*
X150112121Y-105136979D01*
X150074077Y-105108217D01*
X149963253Y-104985134D01*
X149848829Y-104902000D01*
X149814094Y-104876763D01*
X149814093Y-104876762D01*
X149808752Y-104872882D01*
X149802724Y-104870198D01*
X149802722Y-104870197D01*
X149640319Y-104797891D01*
X149640318Y-104797891D01*
X149634288Y-104795206D01*
X149525353Y-104772051D01*
X149453944Y-104756872D01*
X149453939Y-104756872D01*
X149447487Y-104755500D01*
X149256513Y-104755500D01*
X149250061Y-104756872D01*
X149250056Y-104756872D01*
X149178647Y-104772051D01*
X149069712Y-104795206D01*
X149063682Y-104797891D01*
X149063681Y-104797891D01*
X148901278Y-104870197D01*
X148901276Y-104870198D01*
X148895248Y-104872882D01*
X148889907Y-104876762D01*
X148889906Y-104876763D01*
X148855171Y-104902000D01*
X148740747Y-104985134D01*
X148736329Y-104990041D01*
X148736325Y-104990045D01*
X148619519Y-105119772D01*
X148612960Y-105127056D01*
X148517473Y-105292444D01*
X148458458Y-105474072D01*
X148457768Y-105480633D01*
X148457768Y-105480635D01*
X148441184Y-105638428D01*
X148438496Y-105664000D01*
X148439186Y-105670565D01*
X148454278Y-105814153D01*
X148458458Y-105853928D01*
X148517473Y-106035556D01*
X148520776Y-106041278D01*
X148520777Y-106041279D01*
X148535504Y-106066786D01*
X148612960Y-106200944D01*
X148617378Y-106205851D01*
X148617379Y-106205852D01*
X148717572Y-106317128D01*
X148740747Y-106342866D01*
X148895248Y-106455118D01*
X148901277Y-106457802D01*
X148901280Y-106457804D01*
X148923068Y-106467504D01*
X148935838Y-106473189D01*
X148989933Y-106519168D01*
X149010583Y-106587095D01*
X149004422Y-106627232D01*
X148966458Y-106744072D01*
X148965768Y-106750633D01*
X148965768Y-106750635D01*
X148957720Y-106827206D01*
X148946496Y-106934000D01*
X148947186Y-106940565D01*
X148963919Y-107099766D01*
X148966458Y-107123928D01*
X149025473Y-107305556D01*
X149028776Y-107311278D01*
X149028777Y-107311279D01*
X149062686Y-107370010D01*
X149120960Y-107470944D01*
X149125378Y-107475851D01*
X149125379Y-107475852D01*
X149152589Y-107506072D01*
X149248747Y-107612866D01*
X149403248Y-107725118D01*
X149409276Y-107727802D01*
X149409278Y-107727803D01*
X149571681Y-107800109D01*
X149577712Y-107802794D01*
X149671113Y-107822647D01*
X149758056Y-107841128D01*
X149758061Y-107841128D01*
X149764513Y-107842500D01*
X149955487Y-107842500D01*
X149961939Y-107841128D01*
X149961944Y-107841128D01*
X150048887Y-107822647D01*
X150142288Y-107802794D01*
X150148319Y-107800109D01*
X150310722Y-107727803D01*
X150310724Y-107727802D01*
X150316752Y-107725118D01*
X150356830Y-107696000D01*
X150449671Y-107628546D01*
X150471253Y-107612866D01*
X150475668Y-107607963D01*
X150480580Y-107603540D01*
X150481705Y-107604789D01*
X150535014Y-107571949D01*
X150568200Y-107567500D01*
X150815406Y-107567500D01*
X150883527Y-107587502D01*
X150904501Y-107604405D01*
X151706878Y-108406782D01*
X151740904Y-108469094D01*
X151743093Y-108482707D01*
X151756694Y-108612111D01*
X151760458Y-108647928D01*
X151819473Y-108829556D01*
X151822776Y-108835278D01*
X151822777Y-108835279D01*
X151826461Y-108841660D01*
X151914960Y-108994944D01*
X151919378Y-108999851D01*
X151919379Y-108999852D01*
X152001572Y-109091137D01*
X152042747Y-109136866D01*
X152088678Y-109170237D01*
X152187154Y-109241784D01*
X152197248Y-109249118D01*
X152203276Y-109251802D01*
X152203278Y-109251803D01*
X152365681Y-109324109D01*
X152371712Y-109326794D01*
X152465113Y-109346647D01*
X152552056Y-109365128D01*
X152552061Y-109365128D01*
X152558513Y-109366500D01*
X152614406Y-109366500D01*
X152682527Y-109386502D01*
X152703501Y-109403405D01*
X154523595Y-111223499D01*
X154557621Y-111285811D01*
X154560500Y-111312594D01*
X154560500Y-111565476D01*
X154540498Y-111633597D01*
X154528142Y-111649779D01*
X154454960Y-111731056D01*
X154439890Y-111757158D01*
X154362885Y-111890535D01*
X154359473Y-111896444D01*
X154300458Y-112078072D01*
X154299768Y-112084633D01*
X154299768Y-112084635D01*
X154286747Y-112208524D01*
X154280496Y-112268000D01*
X154281186Y-112274565D01*
X154296579Y-112421018D01*
X154300458Y-112457928D01*
X154359473Y-112639556D01*
X154362776Y-112645278D01*
X154362777Y-112645279D01*
X154375031Y-112666504D01*
X154454960Y-112804944D01*
X154459378Y-112809851D01*
X154459379Y-112809852D01*
X154509454Y-112865466D01*
X154582747Y-112946866D01*
X154737248Y-113059118D01*
X154743276Y-113061802D01*
X154743278Y-113061803D01*
X154815756Y-113094072D01*
X154911712Y-113136794D01*
X155005112Y-113156647D01*
X155092056Y-113175128D01*
X155092061Y-113175128D01*
X155098513Y-113176500D01*
X155153172Y-113176500D01*
X155221293Y-113196502D01*
X155239424Y-113210649D01*
X155259666Y-113229657D01*
X155262509Y-113232413D01*
X155282230Y-113252134D01*
X155285425Y-113254612D01*
X155294447Y-113262318D01*
X155326679Y-113292586D01*
X155333628Y-113296406D01*
X155344432Y-113302346D01*
X155360956Y-113313199D01*
X155376959Y-113325613D01*
X155417543Y-113343176D01*
X155428173Y-113348383D01*
X155466940Y-113369695D01*
X155474617Y-113371666D01*
X155474622Y-113371668D01*
X155486558Y-113374732D01*
X155505266Y-113381137D01*
X155523855Y-113389181D01*
X155531680Y-113390420D01*
X155531682Y-113390421D01*
X155567519Y-113396097D01*
X155579140Y-113398504D01*
X155614289Y-113407528D01*
X155621970Y-113409500D01*
X155642231Y-113409500D01*
X155661940Y-113411051D01*
X155681943Y-113414219D01*
X155689835Y-113413473D01*
X155695062Y-113412979D01*
X155725954Y-113410059D01*
X155737811Y-113409500D01*
X156263800Y-113409500D01*
X156331921Y-113429502D01*
X156351147Y-113445843D01*
X156351420Y-113445540D01*
X156356332Y-113449963D01*
X156360747Y-113454866D01*
X156368657Y-113460613D01*
X156475171Y-113538000D01*
X156515248Y-113567118D01*
X156521276Y-113569802D01*
X156521278Y-113569803D01*
X156657517Y-113630460D01*
X156689712Y-113644794D01*
X156783112Y-113664647D01*
X156870056Y-113683128D01*
X156870061Y-113683128D01*
X156876513Y-113684500D01*
X157067487Y-113684500D01*
X157073939Y-113683128D01*
X157073944Y-113683128D01*
X157160887Y-113664647D01*
X157254288Y-113644794D01*
X157287164Y-113630157D01*
X157316151Y-113617251D01*
X157420116Y-113570963D01*
X157490482Y-113561529D01*
X157554779Y-113591635D01*
X157592593Y-113651724D01*
X157596674Y-113672899D01*
X157601141Y-113715395D01*
X157602458Y-113727928D01*
X157661473Y-113909556D01*
X157664776Y-113915278D01*
X157664777Y-113915279D01*
X157686867Y-113953540D01*
X157756960Y-114074944D01*
X157829608Y-114155628D01*
X157860323Y-114219632D01*
X157851560Y-114290085D01*
X157825065Y-114329030D01*
X157254500Y-114899595D01*
X157192188Y-114933621D01*
X157165405Y-114936500D01*
X148922763Y-114936500D01*
X148911579Y-114935973D01*
X148904091Y-114934299D01*
X148896168Y-114934548D01*
X148836033Y-114936438D01*
X148832075Y-114936500D01*
X148804144Y-114936500D01*
X148800229Y-114936995D01*
X148800225Y-114936995D01*
X148800167Y-114937003D01*
X148800138Y-114937006D01*
X148788296Y-114937939D01*
X148744110Y-114939327D01*
X148726744Y-114944372D01*
X148724658Y-114944978D01*
X148705306Y-114948986D01*
X148693068Y-114950532D01*
X148693066Y-114950533D01*
X148685203Y-114951526D01*
X148644086Y-114967806D01*
X148632885Y-114971641D01*
X148590406Y-114983982D01*
X148583587Y-114988015D01*
X148583582Y-114988017D01*
X148572971Y-114994293D01*
X148555221Y-115002990D01*
X148536383Y-115010448D01*
X148529967Y-115015109D01*
X148529966Y-115015110D01*
X148500625Y-115036428D01*
X148490701Y-115042947D01*
X148459460Y-115061422D01*
X148459455Y-115061426D01*
X148452637Y-115065458D01*
X148438313Y-115079782D01*
X148423279Y-115092623D01*
X148408648Y-115103253D01*
X148375094Y-115115225D01*
X148358322Y-115158304D01*
X148347637Y-115170458D01*
X146927747Y-116590348D01*
X146919461Y-116597888D01*
X146912982Y-116602000D01*
X146907557Y-116607777D01*
X146866357Y-116651651D01*
X146863602Y-116654493D01*
X146843865Y-116674230D01*
X146841385Y-116677427D01*
X146833682Y-116686447D01*
X146803414Y-116718679D01*
X146799595Y-116725625D01*
X146799593Y-116725628D01*
X146793652Y-116736434D01*
X146782801Y-116752953D01*
X146770386Y-116768959D01*
X146767241Y-116776228D01*
X146767238Y-116776232D01*
X146752826Y-116809537D01*
X146747609Y-116820187D01*
X146726305Y-116858940D01*
X146724334Y-116866615D01*
X146724334Y-116866616D01*
X146721267Y-116878562D01*
X146714863Y-116897266D01*
X146706819Y-116915855D01*
X146705580Y-116923678D01*
X146705577Y-116923688D01*
X146699901Y-116959524D01*
X146697495Y-116971144D01*
X146692222Y-116991684D01*
X146686500Y-117013970D01*
X146686500Y-117034224D01*
X146684949Y-117053934D01*
X146681780Y-117073943D01*
X146682526Y-117081835D01*
X146685941Y-117117961D01*
X146686500Y-117129819D01*
X146686500Y-117153476D01*
X146666498Y-117221597D01*
X146654142Y-117237779D01*
X146580960Y-117319056D01*
X146485473Y-117484444D01*
X146426458Y-117666072D01*
X146425768Y-117672633D01*
X146425768Y-117672635D01*
X146409093Y-117831292D01*
X146382080Y-117896949D01*
X146372878Y-117907217D01*
X145676527Y-118603568D01*
X145611316Y-118638096D01*
X145606112Y-118638570D01*
X145416381Y-118694410D01*
X145410923Y-118697263D01*
X145410919Y-118697265D01*
X145354287Y-118726872D01*
X145241110Y-118786040D01*
X145086975Y-118909968D01*
X144959846Y-119061474D01*
X144956879Y-119066872D01*
X144956875Y-119066877D01*
X144895227Y-119179016D01*
X144864567Y-119234787D01*
X144862706Y-119240654D01*
X144862705Y-119240656D01*
X144853800Y-119268729D01*
X144804765Y-119423306D01*
X144782719Y-119619851D01*
X144783235Y-119625995D01*
X144798038Y-119802282D01*
X144799268Y-119816934D01*
X144811872Y-119860888D01*
X144842371Y-119967251D01*
X144853783Y-120007050D01*
X144856602Y-120012535D01*
X144938014Y-120170944D01*
X144944187Y-120182956D01*
X145067035Y-120337953D01*
X145071728Y-120341947D01*
X145071729Y-120341948D01*
X145164894Y-120421237D01*
X145217650Y-120466136D01*
X145390294Y-120562624D01*
X145578392Y-120623740D01*
X145774777Y-120647158D01*
X145780912Y-120646686D01*
X145780914Y-120646686D01*
X145965830Y-120632457D01*
X145965834Y-120632456D01*
X145971972Y-120631984D01*
X146162463Y-120578798D01*
X146284770Y-120517016D01*
X146354589Y-120504157D01*
X146420280Y-120531086D01*
X146435215Y-120545174D01*
X146450323Y-120561954D01*
X146450330Y-120561960D01*
X146454747Y-120566866D01*
X146460089Y-120570747D01*
X146460091Y-120570749D01*
X146584440Y-120661094D01*
X146609248Y-120679118D01*
X146615276Y-120681802D01*
X146615278Y-120681803D01*
X146698297Y-120718765D01*
X146783712Y-120756794D01*
X146869082Y-120774940D01*
X146964056Y-120795128D01*
X146964061Y-120795128D01*
X146970513Y-120796500D01*
X147161487Y-120796500D01*
X147167939Y-120795128D01*
X147167944Y-120795128D01*
X147262918Y-120774940D01*
X147348288Y-120756794D01*
X147433703Y-120718765D01*
X147516722Y-120681803D01*
X147516724Y-120681802D01*
X147522752Y-120679118D01*
X147553794Y-120656565D01*
X147589908Y-120630326D01*
X147677253Y-120566866D01*
X147696785Y-120545174D01*
X147800621Y-120429852D01*
X147800622Y-120429851D01*
X147805040Y-120424944D01*
X147900527Y-120259556D01*
X147959542Y-120077928D01*
X147960330Y-120070437D01*
X147978814Y-119894565D01*
X147979504Y-119888000D01*
X147971389Y-119810793D01*
X147960232Y-119704635D01*
X147960232Y-119704633D01*
X147959542Y-119698072D01*
X147900527Y-119516444D01*
X147805040Y-119351056D01*
X147725254Y-119262444D01*
X147681675Y-119214045D01*
X147681674Y-119214044D01*
X147677253Y-119209134D01*
X147522752Y-119096882D01*
X147516724Y-119094198D01*
X147516722Y-119094197D01*
X147354319Y-119021891D01*
X147354318Y-119021891D01*
X147348288Y-119019206D01*
X147331507Y-119015639D01*
X147269033Y-118981912D01*
X147234711Y-118919763D01*
X147239437Y-118848924D01*
X147268607Y-118803297D01*
X147270499Y-118801405D01*
X147332811Y-118767379D01*
X147359594Y-118764500D01*
X147415487Y-118764500D01*
X147421939Y-118763128D01*
X147421944Y-118763128D01*
X147508887Y-118744647D01*
X147602288Y-118724794D01*
X147608319Y-118722109D01*
X147770722Y-118649803D01*
X147770724Y-118649802D01*
X147776752Y-118647118D01*
X147788518Y-118638570D01*
X147848870Y-118594721D01*
X147931253Y-118534866D01*
X147935675Y-118529955D01*
X148054621Y-118397852D01*
X148054622Y-118397851D01*
X148059040Y-118392944D01*
X148146539Y-118241392D01*
X148151223Y-118233279D01*
X148151224Y-118233278D01*
X148154527Y-118227556D01*
X148213542Y-118045928D01*
X148233504Y-117856000D01*
X148213542Y-117666072D01*
X148154527Y-117484444D01*
X148082421Y-117359552D01*
X148065683Y-117290559D01*
X148088903Y-117223467D01*
X148102445Y-117207459D01*
X149069499Y-116240405D01*
X149131811Y-116206379D01*
X149158594Y-116203500D01*
X157401233Y-116203500D01*
X157412416Y-116204027D01*
X157419909Y-116205702D01*
X157427835Y-116205453D01*
X157427836Y-116205453D01*
X157487986Y-116203562D01*
X157491945Y-116203500D01*
X157519856Y-116203500D01*
X157523791Y-116203003D01*
X157523856Y-116202995D01*
X157535693Y-116202062D01*
X157567951Y-116201048D01*
X157571970Y-116200922D01*
X157579889Y-116200673D01*
X157599343Y-116195021D01*
X157618700Y-116191013D01*
X157630930Y-116189468D01*
X157630931Y-116189468D01*
X157638797Y-116188474D01*
X157646168Y-116185555D01*
X157646170Y-116185555D01*
X157679912Y-116172196D01*
X157691142Y-116168351D01*
X157725983Y-116158229D01*
X157725984Y-116158229D01*
X157733593Y-116156018D01*
X157740412Y-116151985D01*
X157740417Y-116151983D01*
X157751028Y-116145707D01*
X157768776Y-116137012D01*
X157787617Y-116129552D01*
X157823387Y-116103564D01*
X157833307Y-116097048D01*
X157864535Y-116078580D01*
X157864538Y-116078578D01*
X157871362Y-116074542D01*
X157885683Y-116060221D01*
X157900717Y-116047380D01*
X157910694Y-116040131D01*
X157917107Y-116035472D01*
X157945298Y-116001395D01*
X157953288Y-115992616D01*
X159674405Y-114271499D01*
X159736717Y-114237473D01*
X159807532Y-114242538D01*
X159864368Y-114285085D01*
X159889179Y-114351605D01*
X159889500Y-114360594D01*
X159889500Y-116588256D01*
X159869498Y-116656377D01*
X159815842Y-116702870D01*
X159745568Y-116712974D01*
X159703572Y-116699092D01*
X159651124Y-116670734D01*
X159651122Y-116670733D01*
X159645701Y-116667802D01*
X159456768Y-116609318D01*
X159450643Y-116608674D01*
X159450642Y-116608674D01*
X159266204Y-116589289D01*
X159266202Y-116589289D01*
X159260075Y-116588645D01*
X159177576Y-116596153D01*
X159069251Y-116606011D01*
X159069248Y-116606012D01*
X159063112Y-116606570D01*
X159057206Y-116608308D01*
X159057202Y-116608309D01*
X158892541Y-116656771D01*
X158873381Y-116662410D01*
X158867797Y-116665329D01*
X158867727Y-116665343D01*
X158862209Y-116667573D01*
X158861785Y-116666524D01*
X158798164Y-116679165D01*
X158745846Y-116659096D01*
X158744760Y-116661079D01*
X158736892Y-116656771D01*
X158729705Y-116651385D01*
X158593316Y-116600255D01*
X158531134Y-116593500D01*
X157434866Y-116593500D01*
X157372684Y-116600255D01*
X157236295Y-116651385D01*
X157119739Y-116738739D01*
X157032385Y-116855295D01*
X156981255Y-116991684D01*
X156974500Y-117053866D01*
X156974500Y-118150134D01*
X156981255Y-118212316D01*
X157032385Y-118348705D01*
X157119739Y-118465261D01*
X157236295Y-118552615D01*
X157244704Y-118555768D01*
X157244707Y-118555769D01*
X157269555Y-118565084D01*
X157326320Y-118607725D01*
X157351265Y-118679107D01*
X157352327Y-118712889D01*
X157357978Y-118732339D01*
X157361987Y-118751700D01*
X157364526Y-118771797D01*
X157367445Y-118779168D01*
X157367445Y-118779170D01*
X157380804Y-118812912D01*
X157384649Y-118824142D01*
X157396982Y-118866593D01*
X157401015Y-118873412D01*
X157401017Y-118873417D01*
X157407293Y-118884028D01*
X157415988Y-118901776D01*
X157423448Y-118920617D01*
X157428110Y-118927033D01*
X157428110Y-118927034D01*
X157449436Y-118956387D01*
X157455952Y-118966307D01*
X157474116Y-118997020D01*
X157478458Y-119004362D01*
X157492779Y-119018683D01*
X157505619Y-119033716D01*
X157517528Y-119050107D01*
X157551605Y-119078298D01*
X157560384Y-119086288D01*
X157992343Y-119518247D01*
X157999887Y-119526537D01*
X158004000Y-119533018D01*
X158009777Y-119538443D01*
X158053667Y-119579658D01*
X158056509Y-119582413D01*
X158076231Y-119602135D01*
X158079355Y-119604558D01*
X158079359Y-119604562D01*
X158079424Y-119604612D01*
X158088445Y-119612317D01*
X158120679Y-119642586D01*
X158127627Y-119646405D01*
X158127629Y-119646407D01*
X158138432Y-119652346D01*
X158154959Y-119663202D01*
X158164698Y-119670757D01*
X158164700Y-119670758D01*
X158170960Y-119675614D01*
X158211540Y-119693174D01*
X158222188Y-119698391D01*
X158246976Y-119712018D01*
X158260940Y-119719695D01*
X158268616Y-119721666D01*
X158268619Y-119721667D01*
X158280562Y-119724733D01*
X158299267Y-119731137D01*
X158317855Y-119739181D01*
X158325678Y-119740420D01*
X158325688Y-119740423D01*
X158361524Y-119746099D01*
X158373144Y-119748505D01*
X158404959Y-119756673D01*
X158415970Y-119759500D01*
X158436224Y-119759500D01*
X158455934Y-119761051D01*
X158475943Y-119764220D01*
X158483835Y-119763474D01*
X158502580Y-119761702D01*
X158519962Y-119760059D01*
X158531819Y-119759500D01*
X160449233Y-119759500D01*
X160460416Y-119760027D01*
X160467909Y-119761702D01*
X160475835Y-119761453D01*
X160475836Y-119761453D01*
X160535986Y-119759562D01*
X160539945Y-119759500D01*
X160567856Y-119759500D01*
X160571791Y-119759003D01*
X160571856Y-119758995D01*
X160583693Y-119758062D01*
X160615951Y-119757048D01*
X160619970Y-119756922D01*
X160627889Y-119756673D01*
X160647343Y-119751021D01*
X160666700Y-119747013D01*
X160678930Y-119745468D01*
X160678931Y-119745468D01*
X160686797Y-119744474D01*
X160694168Y-119741555D01*
X160694170Y-119741555D01*
X160727912Y-119728196D01*
X160739142Y-119724351D01*
X160773983Y-119714229D01*
X160773984Y-119714229D01*
X160781593Y-119712018D01*
X160788412Y-119707985D01*
X160788417Y-119707983D01*
X160799028Y-119701707D01*
X160816776Y-119693012D01*
X160835617Y-119685552D01*
X160871387Y-119659564D01*
X160881307Y-119653048D01*
X160912535Y-119634580D01*
X160912538Y-119634578D01*
X160919362Y-119630542D01*
X160933683Y-119616221D01*
X160948717Y-119603380D01*
X160950431Y-119602135D01*
X160965107Y-119591472D01*
X160970157Y-119585368D01*
X160970162Y-119585363D01*
X160993293Y-119557402D01*
X161001283Y-119548621D01*
X161936258Y-118613647D01*
X161944537Y-118606113D01*
X161951018Y-118602000D01*
X161997644Y-118552348D01*
X162000398Y-118549507D01*
X162020135Y-118529770D01*
X162022615Y-118526573D01*
X162030320Y-118517551D01*
X162060586Y-118485321D01*
X162064405Y-118478375D01*
X162064407Y-118478372D01*
X162070348Y-118467566D01*
X162081199Y-118451047D01*
X162088758Y-118441301D01*
X162093614Y-118435041D01*
X162096759Y-118427772D01*
X162096762Y-118427768D01*
X162111174Y-118394463D01*
X162116391Y-118383813D01*
X162137695Y-118345060D01*
X162142733Y-118325437D01*
X162149137Y-118306734D01*
X162154033Y-118295420D01*
X162154033Y-118295419D01*
X162157181Y-118288145D01*
X162158420Y-118280322D01*
X162158423Y-118280312D01*
X162164099Y-118244476D01*
X162166505Y-118232856D01*
X162175528Y-118197711D01*
X162175528Y-118197710D01*
X162177500Y-118190030D01*
X162177500Y-118169776D01*
X162179051Y-118150065D01*
X162180980Y-118137886D01*
X162182220Y-118130057D01*
X162178059Y-118086038D01*
X162177500Y-118074181D01*
X162177500Y-114106594D01*
X162197502Y-114038473D01*
X162214405Y-114017499D01*
X164542500Y-111689405D01*
X164604812Y-111655379D01*
X164631595Y-111652500D01*
X164687487Y-111652500D01*
X164693939Y-111651128D01*
X164693944Y-111651128D01*
X164780887Y-111632647D01*
X164874288Y-111612794D01*
X164893173Y-111604386D01*
X165042722Y-111537803D01*
X165042724Y-111537802D01*
X165048752Y-111535118D01*
X165058990Y-111527680D01*
X165114083Y-111487652D01*
X165203253Y-111422866D01*
X165223104Y-111400819D01*
X165326621Y-111285852D01*
X165326622Y-111285851D01*
X165331040Y-111280944D01*
X165426527Y-111115556D01*
X165485542Y-110933928D01*
X165488474Y-110906037D01*
X165504814Y-110750565D01*
X165505504Y-110744000D01*
X165504814Y-110737435D01*
X165504814Y-110730829D01*
X165506770Y-110730829D01*
X165517860Y-110670192D01*
X165566363Y-110618346D01*
X165604202Y-110603614D01*
X165616354Y-110601031D01*
X165636288Y-110596794D01*
X165646353Y-110592313D01*
X165804722Y-110521803D01*
X165804724Y-110521802D01*
X165810752Y-110519118D01*
X165965253Y-110406866D01*
X166093040Y-110264944D01*
X166188527Y-110099556D01*
X166247542Y-109917928D01*
X166251883Y-109876631D01*
X166266814Y-109734565D01*
X166267504Y-109728000D01*
X166252655Y-109586722D01*
X166248232Y-109544635D01*
X166248232Y-109544633D01*
X166247542Y-109538072D01*
X166201634Y-109396782D01*
X166199606Y-109325815D01*
X166236269Y-109265017D01*
X166299981Y-109233691D01*
X166370515Y-109241784D01*
X166415102Y-109273535D01*
X166520747Y-109390866D01*
X166675248Y-109503118D01*
X166681276Y-109505802D01*
X166681278Y-109505803D01*
X166753756Y-109538072D01*
X166849712Y-109580794D01*
X166906024Y-109592764D01*
X166906698Y-109592907D01*
X166969171Y-109626635D01*
X167003492Y-109688785D01*
X167006500Y-109716153D01*
X167006500Y-112379218D01*
X166986498Y-112447339D01*
X166932842Y-112493832D01*
X166862568Y-112503936D01*
X166827270Y-112491718D01*
X166826752Y-112492882D01*
X166658319Y-112417891D01*
X166658318Y-112417891D01*
X166652288Y-112415206D01*
X166558887Y-112395353D01*
X166471944Y-112376872D01*
X166471939Y-112376872D01*
X166465487Y-112375500D01*
X166274513Y-112375500D01*
X166268061Y-112376872D01*
X166268056Y-112376872D01*
X166181113Y-112395353D01*
X166087712Y-112415206D01*
X166081682Y-112417891D01*
X166081681Y-112417891D01*
X165919278Y-112490197D01*
X165919276Y-112490198D01*
X165913248Y-112492882D01*
X165907907Y-112496762D01*
X165907906Y-112496763D01*
X165891361Y-112508784D01*
X165758747Y-112605134D01*
X165754326Y-112610044D01*
X165754325Y-112610045D01*
X165635683Y-112741811D01*
X165630960Y-112747056D01*
X165614249Y-112776000D01*
X165539994Y-112904614D01*
X165535473Y-112912444D01*
X165476458Y-113094072D01*
X165475768Y-113100633D01*
X165475768Y-113100635D01*
X165458785Y-113262223D01*
X165456496Y-113284000D01*
X165457186Y-113290565D01*
X165475059Y-113460613D01*
X165476458Y-113473928D01*
X165535473Y-113655556D01*
X165538776Y-113661278D01*
X165538777Y-113661279D01*
X165545486Y-113672899D01*
X165630960Y-113820944D01*
X165635378Y-113825851D01*
X165635379Y-113825852D01*
X165747880Y-113950797D01*
X165758747Y-113962866D01*
X165814182Y-114003142D01*
X165896608Y-114063028D01*
X165913248Y-114075118D01*
X165919276Y-114077802D01*
X165919278Y-114077803D01*
X166081681Y-114150109D01*
X166087712Y-114152794D01*
X166181112Y-114172647D01*
X166268056Y-114191128D01*
X166268061Y-114191128D01*
X166274513Y-114192500D01*
X166465487Y-114192500D01*
X166471939Y-114191128D01*
X166471944Y-114191128D01*
X166558888Y-114172647D01*
X166652288Y-114152794D01*
X166658319Y-114150109D01*
X166820722Y-114077803D01*
X166820724Y-114077802D01*
X166826752Y-114075118D01*
X166843393Y-114063028D01*
X166959671Y-113978546D01*
X166981253Y-113962866D01*
X166985668Y-113957963D01*
X166990580Y-113953540D01*
X166992252Y-113955397D01*
X167043111Y-113924073D01*
X167072326Y-113919689D01*
X167139986Y-113917562D01*
X167143945Y-113917500D01*
X167171856Y-113917500D01*
X167175791Y-113917003D01*
X167175856Y-113916995D01*
X167187693Y-113916062D01*
X167219951Y-113915048D01*
X167223970Y-113914922D01*
X167231889Y-113914673D01*
X167251343Y-113909021D01*
X167270700Y-113905013D01*
X167282930Y-113903468D01*
X167282931Y-113903468D01*
X167290797Y-113902474D01*
X167298168Y-113899555D01*
X167298170Y-113899555D01*
X167331912Y-113886196D01*
X167343142Y-113882351D01*
X167377983Y-113872229D01*
X167377984Y-113872229D01*
X167385593Y-113870018D01*
X167392412Y-113865985D01*
X167392417Y-113865983D01*
X167403028Y-113859707D01*
X167420776Y-113851012D01*
X167439617Y-113843552D01*
X167455716Y-113831856D01*
X167475387Y-113817564D01*
X167485307Y-113811048D01*
X167516535Y-113792580D01*
X167516538Y-113792578D01*
X167523362Y-113788542D01*
X167537683Y-113774221D01*
X167552717Y-113761380D01*
X167569107Y-113749472D01*
X167597298Y-113715395D01*
X167605288Y-113706616D01*
X168032247Y-113279657D01*
X168040537Y-113272113D01*
X168047018Y-113268000D01*
X168093659Y-113218332D01*
X168096413Y-113215491D01*
X168116134Y-113195770D01*
X168118612Y-113192575D01*
X168126318Y-113183553D01*
X168151158Y-113157101D01*
X168156586Y-113151321D01*
X168165085Y-113135861D01*
X168215430Y-113085802D01*
X168284846Y-113070908D01*
X168351296Y-113095908D01*
X168393680Y-113152865D01*
X168401500Y-113196561D01*
X168401500Y-118352176D01*
X168381498Y-118420297D01*
X168327842Y-118466790D01*
X168257568Y-118476894D01*
X168192988Y-118447400D01*
X168155667Y-118391112D01*
X168107020Y-118241392D01*
X168107020Y-118241391D01*
X168105794Y-118237619D01*
X168098102Y-118221271D01*
X168018546Y-118052206D01*
X167976758Y-117963402D01*
X167814370Y-117707520D01*
X167621192Y-117474008D01*
X167400271Y-117266550D01*
X167155090Y-117088416D01*
X167143120Y-117081835D01*
X166892986Y-116944322D01*
X166892985Y-116944321D01*
X166889517Y-116942415D01*
X166885848Y-116940962D01*
X166885843Y-116940960D01*
X166611409Y-116832304D01*
X166611408Y-116832304D01*
X166607739Y-116830851D01*
X166314200Y-116755484D01*
X166013530Y-116717500D01*
X165710470Y-116717500D01*
X165409800Y-116755484D01*
X165116261Y-116830851D01*
X165112592Y-116832304D01*
X165112591Y-116832304D01*
X164838157Y-116940960D01*
X164838152Y-116940962D01*
X164834483Y-116942415D01*
X164831015Y-116944321D01*
X164831014Y-116944322D01*
X164580881Y-117081835D01*
X164568910Y-117088416D01*
X164323729Y-117266550D01*
X164102808Y-117474008D01*
X163909630Y-117707520D01*
X163747242Y-117963402D01*
X163705454Y-118052206D01*
X163625899Y-118221271D01*
X163618206Y-118237619D01*
X163524555Y-118525846D01*
X163467767Y-118823538D01*
X163448738Y-119126000D01*
X163467767Y-119428462D01*
X163524555Y-119726154D01*
X163618206Y-120014381D01*
X163747242Y-120288598D01*
X163749366Y-120291944D01*
X163749366Y-120291945D01*
X163758158Y-120305799D01*
X163909630Y-120544480D01*
X163912149Y-120547525D01*
X163912152Y-120547529D01*
X163968070Y-120615121D01*
X164102808Y-120777992D01*
X164323729Y-120985450D01*
X164568910Y-121163584D01*
X164834483Y-121309585D01*
X164838152Y-121311038D01*
X164838157Y-121311040D01*
X165116261Y-121421149D01*
X165115923Y-121422004D01*
X165171110Y-121459742D01*
X165198746Y-121525139D01*
X165186639Y-121595095D01*
X165138632Y-121647401D01*
X165073567Y-121665500D01*
X153697705Y-121665500D01*
X153629584Y-121645498D01*
X153583091Y-121591842D01*
X153572987Y-121521568D01*
X153602481Y-121456988D01*
X153623644Y-121437564D01*
X153686942Y-121391575D01*
X153773253Y-121328866D01*
X153799476Y-121299742D01*
X153896621Y-121191852D01*
X153896622Y-121191851D01*
X153901040Y-121186944D01*
X153996527Y-121021556D01*
X154055542Y-120839928D01*
X154060107Y-120796500D01*
X154074814Y-120656565D01*
X154075504Y-120650000D01*
X154068195Y-120580457D01*
X154056232Y-120466635D01*
X154056232Y-120466633D01*
X154055542Y-120460072D01*
X153996527Y-120278444D01*
X153990209Y-120267500D01*
X153941397Y-120182956D01*
X153901040Y-120113056D01*
X153875064Y-120084206D01*
X153777675Y-119976045D01*
X153777674Y-119976044D01*
X153773253Y-119971134D01*
X153658829Y-119888000D01*
X153624094Y-119862763D01*
X153624093Y-119862762D01*
X153618752Y-119858882D01*
X153612724Y-119856198D01*
X153612722Y-119856197D01*
X153450319Y-119783891D01*
X153450318Y-119783891D01*
X153444288Y-119781206D01*
X153339794Y-119758995D01*
X153263944Y-119742872D01*
X153263939Y-119742872D01*
X153257487Y-119741500D01*
X153201595Y-119741500D01*
X153133474Y-119721498D01*
X153112499Y-119704595D01*
X152649647Y-119241742D01*
X152642113Y-119233463D01*
X152638000Y-119226982D01*
X152588348Y-119180356D01*
X152585507Y-119177602D01*
X152565770Y-119157865D01*
X152562573Y-119155385D01*
X152553551Y-119147680D01*
X152527100Y-119122841D01*
X152521321Y-119117414D01*
X152514375Y-119113595D01*
X152514372Y-119113593D01*
X152503566Y-119107652D01*
X152487047Y-119096801D01*
X152481048Y-119092148D01*
X152471041Y-119084386D01*
X152463772Y-119081241D01*
X152463768Y-119081238D01*
X152430463Y-119066826D01*
X152419813Y-119061609D01*
X152381060Y-119040305D01*
X152361437Y-119035267D01*
X152342734Y-119028863D01*
X152331420Y-119023967D01*
X152331419Y-119023967D01*
X152324145Y-119020819D01*
X152316322Y-119019580D01*
X152316312Y-119019577D01*
X152280476Y-119013901D01*
X152268856Y-119011495D01*
X152233711Y-119002472D01*
X152233710Y-119002472D01*
X152226030Y-119000500D01*
X152205776Y-119000500D01*
X152186065Y-118998949D01*
X152173886Y-118997020D01*
X152166057Y-118995780D01*
X152158165Y-118996526D01*
X152122039Y-118999941D01*
X152110181Y-119000500D01*
X151838200Y-119000500D01*
X151770079Y-118980498D01*
X151750853Y-118964157D01*
X151750580Y-118964460D01*
X151745668Y-118960037D01*
X151741253Y-118955134D01*
X151673769Y-118906104D01*
X151592094Y-118846763D01*
X151592093Y-118846762D01*
X151586752Y-118842882D01*
X151580724Y-118840198D01*
X151580722Y-118840197D01*
X151418319Y-118767891D01*
X151418318Y-118767891D01*
X151412288Y-118765206D01*
X151302459Y-118741861D01*
X151231944Y-118726872D01*
X151231939Y-118726872D01*
X151225487Y-118725500D01*
X151034513Y-118725500D01*
X151028061Y-118726872D01*
X151028056Y-118726872D01*
X150957541Y-118741861D01*
X150847712Y-118765206D01*
X150841682Y-118767891D01*
X150841681Y-118767891D01*
X150679278Y-118840197D01*
X150679276Y-118840198D01*
X150673248Y-118842882D01*
X150518747Y-118955134D01*
X150514326Y-118960044D01*
X150514325Y-118960045D01*
X150400656Y-119086288D01*
X150390960Y-119097056D01*
X150295473Y-119262444D01*
X150236458Y-119444072D01*
X150235768Y-119450633D01*
X150235768Y-119450635D01*
X150222067Y-119580999D01*
X150216496Y-119634000D01*
X150217186Y-119640565D01*
X150234427Y-119804600D01*
X150236458Y-119823928D01*
X150295473Y-120005556D01*
X150390960Y-120170944D01*
X150395378Y-120175851D01*
X150395379Y-120175852D01*
X150482600Y-120272721D01*
X150518747Y-120312866D01*
X150617843Y-120384864D01*
X150666138Y-120419952D01*
X150673248Y-120425118D01*
X150679276Y-120427802D01*
X150679278Y-120427803D01*
X150841681Y-120500109D01*
X150847712Y-120502794D01*
X150914626Y-120517017D01*
X151028056Y-120541128D01*
X151028061Y-120541128D01*
X151034513Y-120542500D01*
X151225487Y-120542500D01*
X151231939Y-120541128D01*
X151231944Y-120541128D01*
X151345374Y-120517017D01*
X151412288Y-120502794D01*
X151418319Y-120500109D01*
X151580722Y-120427803D01*
X151580724Y-120427802D01*
X151586752Y-120425118D01*
X151593863Y-120419952D01*
X151735347Y-120317157D01*
X151741253Y-120312866D01*
X151745668Y-120307963D01*
X151750580Y-120303540D01*
X151752614Y-120305799D01*
X151801895Y-120275496D01*
X151872878Y-120276909D01*
X151924076Y-120307980D01*
X152214878Y-120598782D01*
X152248904Y-120661094D01*
X152251092Y-120674703D01*
X152257195Y-120732766D01*
X152263894Y-120796500D01*
X152268458Y-120839928D01*
X152327473Y-121021556D01*
X152422960Y-121186944D01*
X152427378Y-121191851D01*
X152427379Y-121191852D01*
X152524524Y-121299742D01*
X152550747Y-121328866D01*
X152637058Y-121391575D01*
X152700356Y-121437564D01*
X152743710Y-121493787D01*
X152749785Y-121564523D01*
X152716653Y-121627314D01*
X152654833Y-121662226D01*
X152626295Y-121665500D01*
X142774433Y-121665500D01*
X142706312Y-121645498D01*
X142659819Y-121591842D01*
X142649715Y-121521568D01*
X142679209Y-121456988D01*
X142732055Y-121421948D01*
X142731739Y-121421149D01*
X143009843Y-121311040D01*
X143009848Y-121311038D01*
X143013517Y-121309585D01*
X143279090Y-121163584D01*
X143524271Y-120985450D01*
X143745192Y-120777992D01*
X143879930Y-120615121D01*
X143935848Y-120547529D01*
X143935851Y-120547525D01*
X143938370Y-120544480D01*
X144089842Y-120305799D01*
X144098634Y-120291945D01*
X144098634Y-120291944D01*
X144100758Y-120288598D01*
X144229794Y-120014381D01*
X144323445Y-119726154D01*
X144380233Y-119428462D01*
X144399262Y-119126000D01*
X144380233Y-118823538D01*
X144323445Y-118525846D01*
X144229794Y-118237619D01*
X144222102Y-118221271D01*
X144142546Y-118052206D01*
X144100758Y-117963402D01*
X143938370Y-117707520D01*
X143745192Y-117474008D01*
X143524271Y-117266550D01*
X143279090Y-117088416D01*
X143267120Y-117081835D01*
X143016986Y-116944322D01*
X143016985Y-116944321D01*
X143013517Y-116942415D01*
X143009848Y-116940962D01*
X143009843Y-116940960D01*
X142735409Y-116832304D01*
X142735408Y-116832304D01*
X142731739Y-116830851D01*
X142438200Y-116755484D01*
X142137530Y-116717500D01*
X141834470Y-116717500D01*
X141533800Y-116755484D01*
X141240261Y-116830851D01*
X141236592Y-116832304D01*
X141236591Y-116832304D01*
X140962157Y-116940960D01*
X140962152Y-116940962D01*
X140958483Y-116942415D01*
X140955015Y-116944321D01*
X140955014Y-116944322D01*
X140704881Y-117081835D01*
X140692910Y-117088416D01*
X140447729Y-117266550D01*
X140226808Y-117474008D01*
X140033630Y-117707520D01*
X139871242Y-117963402D01*
X139829454Y-118052206D01*
X139749899Y-118221271D01*
X139742206Y-118237619D01*
X139740980Y-118241391D01*
X139740980Y-118241392D01*
X139692333Y-118391112D01*
X139652260Y-118449718D01*
X139586863Y-118477355D01*
X139516906Y-118465248D01*
X139464600Y-118417242D01*
X139446500Y-118352176D01*
X139446500Y-116020258D01*
X139466502Y-115952137D01*
X139520158Y-115905644D01*
X139590432Y-115895540D01*
X139655012Y-115925034D01*
X139671246Y-115941994D01*
X139733035Y-116019953D01*
X139737728Y-116023947D01*
X139737729Y-116023948D01*
X139874865Y-116140659D01*
X139883650Y-116148136D01*
X140056294Y-116244624D01*
X140244392Y-116305740D01*
X140440777Y-116329158D01*
X140446912Y-116328686D01*
X140446914Y-116328686D01*
X140631830Y-116314457D01*
X140631834Y-116314456D01*
X140637972Y-116313984D01*
X140828463Y-116260798D01*
X140833967Y-116258018D01*
X140833969Y-116258017D01*
X140999495Y-116174404D01*
X140999497Y-116174403D01*
X141004996Y-116171625D01*
X141160847Y-116049861D01*
X141254489Y-115941376D01*
X141286049Y-115904813D01*
X141286050Y-115904811D01*
X141290078Y-115900145D01*
X141387769Y-115728179D01*
X141450197Y-115540513D01*
X141474985Y-115344295D01*
X141475380Y-115316000D01*
X141456080Y-115119167D01*
X141447612Y-115091118D01*
X141413890Y-114979427D01*
X141398916Y-114929831D01*
X141306066Y-114755204D01*
X141204716Y-114630937D01*
X141184960Y-114606713D01*
X141184957Y-114606710D01*
X141181065Y-114601938D01*
X141176318Y-114598011D01*
X141176313Y-114598006D01*
X141173687Y-114595834D01*
X141172690Y-114594358D01*
X141171975Y-114593638D01*
X141172112Y-114593502D01*
X141133947Y-114537002D01*
X141128000Y-114498748D01*
X141128000Y-114394402D01*
X141148002Y-114326281D01*
X141201658Y-114279788D01*
X141218531Y-114273497D01*
X141252279Y-114263597D01*
X141252285Y-114263595D01*
X141258034Y-114261908D01*
X141266985Y-114257298D01*
X141440749Y-114167804D01*
X141440752Y-114167802D01*
X141446080Y-114165058D01*
X141612420Y-114034396D01*
X141616352Y-114029865D01*
X141616355Y-114029862D01*
X141741022Y-113886196D01*
X141751052Y-113874637D01*
X141754052Y-113869451D01*
X141754055Y-113869447D01*
X141853967Y-113696742D01*
X141856973Y-113691546D01*
X141926361Y-113491729D01*
X141931143Y-113458749D01*
X141955852Y-113288336D01*
X141955852Y-113288333D01*
X141956713Y-113282396D01*
X141946933Y-113071101D01*
X141928509Y-112994653D01*
X141931994Y-112923742D01*
X141973263Y-112865972D01*
X142039214Y-112839685D01*
X142108907Y-112853226D01*
X142154215Y-112892861D01*
X142245975Y-113023907D01*
X142398593Y-113176525D01*
X142403101Y-113179682D01*
X142403104Y-113179684D01*
X142427123Y-113196502D01*
X142575394Y-113300323D01*
X142580376Y-113302646D01*
X142580381Y-113302649D01*
X142765950Y-113389181D01*
X142771007Y-113391539D01*
X142776315Y-113392961D01*
X142776317Y-113392962D01*
X142974172Y-113445977D01*
X142974174Y-113445977D01*
X142979487Y-113447401D01*
X142984963Y-113447880D01*
X142984968Y-113447881D01*
X143008679Y-113449955D01*
X143015481Y-113450550D01*
X143081599Y-113476413D01*
X143123239Y-113533917D01*
X143130500Y-113576071D01*
X143130500Y-113713233D01*
X143129973Y-113724416D01*
X143128298Y-113731909D01*
X143128547Y-113739835D01*
X143128547Y-113739836D01*
X143130438Y-113799986D01*
X143130500Y-113803945D01*
X143130500Y-113831856D01*
X143130997Y-113835790D01*
X143130997Y-113835791D01*
X143131005Y-113835856D01*
X143131938Y-113847693D01*
X143133327Y-113891889D01*
X143137140Y-113905013D01*
X143138978Y-113911339D01*
X143142987Y-113930700D01*
X143145526Y-113950797D01*
X143148445Y-113958168D01*
X143148445Y-113958170D01*
X143161804Y-113991912D01*
X143165649Y-114003142D01*
X143177982Y-114045593D01*
X143182015Y-114052412D01*
X143182017Y-114052417D01*
X143188293Y-114063028D01*
X143196988Y-114080776D01*
X143204448Y-114099617D01*
X143209110Y-114106033D01*
X143209110Y-114106034D01*
X143230436Y-114135387D01*
X143236952Y-114145307D01*
X143243054Y-114155624D01*
X143259458Y-114183362D01*
X143273779Y-114197683D01*
X143286619Y-114212716D01*
X143298528Y-114229107D01*
X143332605Y-114257298D01*
X143341384Y-114265288D01*
X143768343Y-114692247D01*
X143775887Y-114700537D01*
X143780000Y-114707018D01*
X143785777Y-114712443D01*
X143829667Y-114753658D01*
X143832509Y-114756413D01*
X143852230Y-114776134D01*
X143855425Y-114778612D01*
X143864447Y-114786318D01*
X143896679Y-114816586D01*
X143903628Y-114820406D01*
X143914432Y-114826346D01*
X143930956Y-114837199D01*
X143946959Y-114849613D01*
X143987543Y-114867176D01*
X143998173Y-114872383D01*
X144036940Y-114893695D01*
X144044617Y-114895666D01*
X144044622Y-114895668D01*
X144056558Y-114898732D01*
X144075266Y-114905137D01*
X144093855Y-114913181D01*
X144101680Y-114914420D01*
X144101682Y-114914421D01*
X144137519Y-114920097D01*
X144149140Y-114922504D01*
X144184289Y-114931528D01*
X144191970Y-114933500D01*
X144212231Y-114933500D01*
X144231940Y-114935051D01*
X144251943Y-114938219D01*
X144259835Y-114937473D01*
X144265062Y-114936979D01*
X144295954Y-114934059D01*
X144307811Y-114933500D01*
X144579800Y-114933500D01*
X144647921Y-114953502D01*
X144667147Y-114969843D01*
X144667420Y-114969540D01*
X144672332Y-114973963D01*
X144676747Y-114978866D01*
X144682086Y-114982745D01*
X144764947Y-115042947D01*
X144831248Y-115091118D01*
X144837276Y-115093802D01*
X144837278Y-115093803D01*
X144982151Y-115158304D01*
X145005712Y-115168794D01*
X145099112Y-115188647D01*
X145186056Y-115207128D01*
X145186061Y-115207128D01*
X145192513Y-115208500D01*
X145383487Y-115208500D01*
X145389939Y-115207128D01*
X145389944Y-115207128D01*
X145476888Y-115188647D01*
X145570288Y-115168794D01*
X145593849Y-115158304D01*
X145738722Y-115093803D01*
X145738724Y-115093802D01*
X145744752Y-115091118D01*
X145811054Y-115042947D01*
X145893914Y-114982745D01*
X145899253Y-114978866D01*
X145903668Y-114973963D01*
X145908580Y-114969540D01*
X145909705Y-114970789D01*
X145963014Y-114937949D01*
X145996200Y-114933500D01*
X146865800Y-114933500D01*
X146933921Y-114953502D01*
X146953147Y-114969843D01*
X146953420Y-114969540D01*
X146958332Y-114973963D01*
X146962747Y-114978866D01*
X146968086Y-114982745D01*
X147050947Y-115042947D01*
X147117248Y-115091118D01*
X147123276Y-115093802D01*
X147123278Y-115093803D01*
X147268151Y-115158304D01*
X147291712Y-115168794D01*
X147385112Y-115188647D01*
X147472056Y-115207128D01*
X147472061Y-115207128D01*
X147478513Y-115208500D01*
X147669487Y-115208500D01*
X147675939Y-115207128D01*
X147675944Y-115207128D01*
X147762888Y-115188647D01*
X147856288Y-115168794D01*
X147879849Y-115158304D01*
X148024722Y-115093803D01*
X148024724Y-115093802D01*
X148030752Y-115091118D01*
X148097054Y-115042947D01*
X148184481Y-114979427D01*
X148218034Y-114967455D01*
X148234807Y-114924375D01*
X148240951Y-114917007D01*
X148308621Y-114841852D01*
X148308622Y-114841851D01*
X148313040Y-114836944D01*
X148388053Y-114707018D01*
X148405223Y-114677279D01*
X148405224Y-114677278D01*
X148408527Y-114671556D01*
X148467542Y-114489928D01*
X148487504Y-114300000D01*
X148476750Y-114197683D01*
X148468232Y-114116635D01*
X148468232Y-114116633D01*
X148467542Y-114110072D01*
X148408527Y-113928444D01*
X148402209Y-113917500D01*
X148335500Y-113801958D01*
X148313040Y-113763056D01*
X148287064Y-113734206D01*
X148189675Y-113626045D01*
X148189674Y-113626044D01*
X148185253Y-113621134D01*
X148030752Y-113508882D01*
X148024724Y-113506198D01*
X148024722Y-113506197D01*
X147862319Y-113433891D01*
X147862318Y-113433891D01*
X147856288Y-113431206D01*
X147754170Y-113409500D01*
X147675944Y-113392872D01*
X147675939Y-113392872D01*
X147669487Y-113391500D01*
X147478513Y-113391500D01*
X147472061Y-113392872D01*
X147472056Y-113392872D01*
X147393830Y-113409500D01*
X147291712Y-113431206D01*
X147285682Y-113433891D01*
X147285681Y-113433891D01*
X147123278Y-113506197D01*
X147123276Y-113506198D01*
X147117248Y-113508882D01*
X147111907Y-113512762D01*
X147111906Y-113512763D01*
X147044786Y-113561529D01*
X146962747Y-113621134D01*
X146958332Y-113626037D01*
X146953420Y-113630460D01*
X146952295Y-113629211D01*
X146898986Y-113662051D01*
X146865800Y-113666500D01*
X145996200Y-113666500D01*
X145928079Y-113646498D01*
X145908853Y-113630157D01*
X145908580Y-113630460D01*
X145903668Y-113626037D01*
X145899253Y-113621134D01*
X145817214Y-113561529D01*
X145750094Y-113512763D01*
X145750093Y-113512762D01*
X145744752Y-113508882D01*
X145738724Y-113506198D01*
X145738722Y-113506197D01*
X145576319Y-113433891D01*
X145576318Y-113433891D01*
X145570288Y-113431206D01*
X145468170Y-113409500D01*
X145389944Y-113392872D01*
X145389939Y-113392872D01*
X145383487Y-113391500D01*
X145192513Y-113391500D01*
X145186061Y-113392872D01*
X145186056Y-113392872D01*
X145107830Y-113409500D01*
X145005712Y-113431206D01*
X144999682Y-113433891D01*
X144999681Y-113433891D01*
X144837278Y-113506197D01*
X144837276Y-113506198D01*
X144831248Y-113508882D01*
X144825907Y-113512762D01*
X144825906Y-113512763D01*
X144758786Y-113561529D01*
X144676747Y-113621134D01*
X144672332Y-113626037D01*
X144667420Y-113630460D01*
X144665305Y-113628111D01*
X144616766Y-113658322D01*
X144545777Y-113657295D01*
X144493925Y-113626020D01*
X144434405Y-113566500D01*
X144400379Y-113504188D01*
X144397500Y-113477405D01*
X144397500Y-112876268D01*
X144398027Y-112865085D01*
X144399702Y-112857592D01*
X144399373Y-112847106D01*
X144397562Y-112789502D01*
X144397500Y-112785544D01*
X144397500Y-112757644D01*
X144396996Y-112753653D01*
X144396063Y-112741811D01*
X144396035Y-112740893D01*
X144394674Y-112697611D01*
X144392461Y-112689993D01*
X144389021Y-112678152D01*
X144385012Y-112658793D01*
X144383467Y-112646565D01*
X144382474Y-112638703D01*
X144379892Y-112632183D01*
X144380226Y-112568691D01*
X144412477Y-112448328D01*
X144412477Y-112448326D01*
X144413901Y-112443013D01*
X144432712Y-112228000D01*
X144413901Y-112012987D01*
X144405651Y-111982197D01*
X144359462Y-111809817D01*
X144359461Y-111809815D01*
X144358039Y-111804507D01*
X144355716Y-111799525D01*
X144269149Y-111613881D01*
X144269146Y-111613876D01*
X144266823Y-111608894D01*
X144197510Y-111509906D01*
X144146184Y-111436604D01*
X144146182Y-111436601D01*
X144143025Y-111432093D01*
X143990407Y-111279475D01*
X143813606Y-111155677D01*
X143808624Y-111153354D01*
X143808619Y-111153351D01*
X143622975Y-111066784D01*
X143622974Y-111066783D01*
X143617993Y-111064461D01*
X143612685Y-111063039D01*
X143612683Y-111063038D01*
X143414828Y-111010023D01*
X143414826Y-111010023D01*
X143409513Y-111008599D01*
X143194500Y-110989788D01*
X142979487Y-111008599D01*
X142974174Y-111010023D01*
X142974172Y-111010023D01*
X142776317Y-111063038D01*
X142776315Y-111063039D01*
X142771007Y-111064461D01*
X142766026Y-111066783D01*
X142766025Y-111066784D01*
X142580381Y-111153351D01*
X142580376Y-111153354D01*
X142575394Y-111155677D01*
X142398593Y-111279475D01*
X142245975Y-111432093D01*
X142242818Y-111436601D01*
X142242816Y-111436604D01*
X142191490Y-111509906D01*
X142122177Y-111608894D01*
X142119854Y-111613876D01*
X142119851Y-111613881D01*
X142033284Y-111799525D01*
X142030961Y-111804507D01*
X142029539Y-111809815D01*
X142029538Y-111809817D01*
X141983349Y-111982197D01*
X141975099Y-112012987D01*
X141956288Y-112228000D01*
X141975099Y-112443013D01*
X141976523Y-112448326D01*
X141976523Y-112448328D01*
X141992722Y-112508784D01*
X141991032Y-112579761D01*
X141951238Y-112638556D01*
X141885973Y-112666504D01*
X141815960Y-112654730D01*
X141768245Y-112614295D01*
X141767137Y-112612732D01*
X141687446Y-112500389D01*
X141556985Y-112375500D01*
X141538980Y-112358264D01*
X141534650Y-112354119D01*
X141356952Y-112239380D01*
X141280388Y-112208524D01*
X141166332Y-112162558D01*
X141166329Y-112162557D01*
X141160763Y-112160314D01*
X140953163Y-112119772D01*
X140947601Y-112119500D01*
X140091654Y-112119500D01*
X139933934Y-112134548D01*
X139730966Y-112194092D01*
X139725639Y-112196836D01*
X139725638Y-112196836D01*
X139630192Y-112245994D01*
X139560473Y-112259403D01*
X139494573Y-112232990D01*
X139453414Y-112175141D01*
X139446500Y-112133978D01*
X139446500Y-107327033D01*
X139466502Y-107258912D01*
X139520158Y-107212419D01*
X139590432Y-107202315D01*
X139629122Y-107214730D01*
X139632048Y-107216620D01*
X139637606Y-107218860D01*
X139637610Y-107218862D01*
X139822668Y-107293442D01*
X139822671Y-107293443D01*
X139828237Y-107295686D01*
X140035837Y-107336228D01*
X140041399Y-107336500D01*
X140897346Y-107336500D01*
X141055066Y-107321452D01*
X141258034Y-107261908D01*
X141263851Y-107258912D01*
X141440749Y-107167804D01*
X141440752Y-107167802D01*
X141446080Y-107165058D01*
X141612420Y-107034396D01*
X141616352Y-107029865D01*
X141616355Y-107029862D01*
X141747121Y-106879167D01*
X141751052Y-106874637D01*
X141759814Y-106859492D01*
X141811241Y-106810545D01*
X141880967Y-106797172D01*
X141946854Y-106823619D01*
X141987983Y-106881489D01*
X141990582Y-106955203D01*
X141976524Y-107007665D01*
X141976522Y-107007676D01*
X141975099Y-107012987D01*
X141956288Y-107228000D01*
X141975099Y-107443013D01*
X141976523Y-107448326D01*
X141976523Y-107448328D01*
X142013815Y-107587502D01*
X142030961Y-107651493D01*
X142033283Y-107656474D01*
X142033284Y-107656475D01*
X142119851Y-107842119D01*
X142119854Y-107842124D01*
X142122177Y-107847106D01*
X142187874Y-107940931D01*
X142241634Y-108017707D01*
X142245975Y-108023907D01*
X142398593Y-108176525D01*
X142575394Y-108300323D01*
X142580376Y-108302646D01*
X142580381Y-108302649D01*
X142766021Y-108389214D01*
X142771007Y-108391539D01*
X142776315Y-108392961D01*
X142776317Y-108392962D01*
X142974172Y-108445977D01*
X142974174Y-108445977D01*
X142979487Y-108447401D01*
X143194500Y-108466212D01*
X143409513Y-108447401D01*
X143414826Y-108445977D01*
X143414828Y-108445977D01*
X143612683Y-108392962D01*
X143612685Y-108392961D01*
X143617993Y-108391539D01*
X143622975Y-108389216D01*
X143622980Y-108389214D01*
X143650738Y-108376270D01*
X143720930Y-108365608D01*
X143785743Y-108394587D01*
X143824599Y-108454007D01*
X143829989Y-108490464D01*
X143829989Y-109586722D01*
X143829462Y-109597905D01*
X143827787Y-109605398D01*
X143828036Y-109613324D01*
X143828036Y-109613325D01*
X143829927Y-109673475D01*
X143829989Y-109677434D01*
X143829989Y-109705345D01*
X143830486Y-109709279D01*
X143830486Y-109709280D01*
X143830494Y-109709345D01*
X143831427Y-109721182D01*
X143832816Y-109765378D01*
X143838467Y-109784828D01*
X143842476Y-109804189D01*
X143845015Y-109824286D01*
X143847934Y-109831657D01*
X143847934Y-109831659D01*
X143861293Y-109865401D01*
X143865138Y-109876631D01*
X143877471Y-109919082D01*
X143881504Y-109925901D01*
X143881506Y-109925906D01*
X143887782Y-109936517D01*
X143896477Y-109954265D01*
X143903937Y-109973106D01*
X143908599Y-109979522D01*
X143908599Y-109979523D01*
X143929925Y-110008876D01*
X143936441Y-110018796D01*
X143958947Y-110056851D01*
X143973268Y-110071172D01*
X143986108Y-110086205D01*
X143998017Y-110102596D01*
X144004123Y-110107647D01*
X144032094Y-110130787D01*
X144040873Y-110138777D01*
X144275981Y-110373885D01*
X144310007Y-110436197D01*
X144306988Y-110501078D01*
X144301266Y-110519118D01*
X144296765Y-110533306D01*
X144296079Y-110539423D01*
X144296078Y-110539427D01*
X144283157Y-110654625D01*
X144274719Y-110729851D01*
X144275235Y-110735995D01*
X144288848Y-110898110D01*
X144291268Y-110926934D01*
X144313906Y-111005881D01*
X144342269Y-111104794D01*
X144345783Y-111117050D01*
X144364439Y-111153351D01*
X144430014Y-111280944D01*
X144436187Y-111292956D01*
X144559035Y-111447953D01*
X144563728Y-111451947D01*
X144563729Y-111451948D01*
X144697125Y-111565476D01*
X144709650Y-111576136D01*
X144882294Y-111672624D01*
X145070392Y-111733740D01*
X145266777Y-111757158D01*
X145272912Y-111756686D01*
X145272914Y-111756686D01*
X145457830Y-111742457D01*
X145457834Y-111742456D01*
X145463972Y-111741984D01*
X145654463Y-111688798D01*
X145659967Y-111686018D01*
X145659969Y-111686017D01*
X145825495Y-111602404D01*
X145825497Y-111602403D01*
X145830996Y-111599625D01*
X145986847Y-111477861D01*
X146116078Y-111328145D01*
X146184181Y-111208263D01*
X146235220Y-111158912D01*
X146293737Y-111144500D01*
X146399487Y-111144500D01*
X146405939Y-111143128D01*
X146405944Y-111143128D01*
X146534303Y-111115844D01*
X146605094Y-111121246D01*
X146661726Y-111164063D01*
X146686220Y-111230701D01*
X146686500Y-111239091D01*
X146686500Y-111427233D01*
X146685973Y-111438416D01*
X146684298Y-111445909D01*
X146684547Y-111453835D01*
X146684547Y-111453836D01*
X146686438Y-111513986D01*
X146686500Y-111517945D01*
X146686500Y-111545856D01*
X146686997Y-111549790D01*
X146686997Y-111549791D01*
X146687005Y-111549856D01*
X146687938Y-111561693D01*
X146689327Y-111605889D01*
X146694978Y-111625339D01*
X146698987Y-111644700D01*
X146701526Y-111664797D01*
X146704445Y-111672168D01*
X146704445Y-111672170D01*
X146717804Y-111705912D01*
X146721649Y-111717142D01*
X146728866Y-111741984D01*
X146733982Y-111759593D01*
X146738015Y-111766412D01*
X146738017Y-111766417D01*
X146744293Y-111777028D01*
X146752988Y-111794776D01*
X146760448Y-111813617D01*
X146765110Y-111820033D01*
X146765110Y-111820034D01*
X146786436Y-111849387D01*
X146792952Y-111859307D01*
X146803745Y-111877556D01*
X146815458Y-111897362D01*
X146829779Y-111911683D01*
X146842619Y-111926716D01*
X146854528Y-111943107D01*
X146860634Y-111948158D01*
X146888605Y-111971298D01*
X146897384Y-111979288D01*
X147324343Y-112406247D01*
X147331887Y-112414537D01*
X147336000Y-112421018D01*
X147341777Y-112426443D01*
X147385667Y-112467658D01*
X147388509Y-112470413D01*
X147408230Y-112490134D01*
X147411425Y-112492612D01*
X147420447Y-112500318D01*
X147452679Y-112530586D01*
X147459628Y-112534406D01*
X147470432Y-112540346D01*
X147486956Y-112551199D01*
X147502959Y-112563613D01*
X147543543Y-112581176D01*
X147554173Y-112586383D01*
X147592940Y-112607695D01*
X147600617Y-112609666D01*
X147600622Y-112609668D01*
X147612558Y-112612732D01*
X147631266Y-112619137D01*
X147649855Y-112627181D01*
X147657680Y-112628420D01*
X147657682Y-112628421D01*
X147693519Y-112634097D01*
X147705140Y-112636504D01*
X147740289Y-112645528D01*
X147747970Y-112647500D01*
X147768231Y-112647500D01*
X147787940Y-112649051D01*
X147807943Y-112652219D01*
X147815835Y-112651473D01*
X147821062Y-112650979D01*
X147851954Y-112648059D01*
X147863811Y-112647500D01*
X148783406Y-112647500D01*
X148851527Y-112667502D01*
X148872501Y-112684405D01*
X148912878Y-112724782D01*
X148946904Y-112787094D01*
X148949092Y-112800703D01*
X148954238Y-112849665D01*
X148965220Y-112954145D01*
X148966458Y-112965928D01*
X149025473Y-113147556D01*
X149120960Y-113312944D01*
X149125378Y-113317851D01*
X149125379Y-113317852D01*
X149212148Y-113414219D01*
X149248747Y-113454866D01*
X149403248Y-113567118D01*
X149409276Y-113569802D01*
X149409278Y-113569803D01*
X149545517Y-113630460D01*
X149577712Y-113644794D01*
X149671112Y-113664647D01*
X149758056Y-113683128D01*
X149758061Y-113683128D01*
X149764513Y-113684500D01*
X149955487Y-113684500D01*
X149961939Y-113683128D01*
X149961944Y-113683128D01*
X150048887Y-113664647D01*
X150142288Y-113644794D01*
X150174483Y-113630460D01*
X150310722Y-113569803D01*
X150310724Y-113569802D01*
X150316752Y-113567118D01*
X150471253Y-113454866D01*
X150507852Y-113414219D01*
X150594621Y-113317852D01*
X150594622Y-113317851D01*
X150599040Y-113312944D01*
X150694527Y-113147556D01*
X150753542Y-112965928D01*
X150754781Y-112954145D01*
X150772814Y-112782565D01*
X150773504Y-112776000D01*
X150765265Y-112697611D01*
X150754232Y-112592635D01*
X150754232Y-112592633D01*
X150753542Y-112586072D01*
X150694527Y-112404444D01*
X150672725Y-112366681D01*
X150615751Y-112268000D01*
X150599040Y-112239056D01*
X150584156Y-112222525D01*
X150475675Y-112102045D01*
X150475674Y-112102044D01*
X150471253Y-112097134D01*
X150316752Y-111984882D01*
X150310724Y-111982198D01*
X150310722Y-111982197D01*
X150148319Y-111909891D01*
X150148318Y-111909891D01*
X150142288Y-111907206D01*
X150029721Y-111883279D01*
X149961944Y-111868872D01*
X149961939Y-111868872D01*
X149955487Y-111867500D01*
X149899595Y-111867500D01*
X149831474Y-111847498D01*
X149810500Y-111830595D01*
X149601652Y-111621747D01*
X149594112Y-111613461D01*
X149590000Y-111606982D01*
X149540348Y-111560356D01*
X149537507Y-111557602D01*
X149517770Y-111537865D01*
X149514573Y-111535385D01*
X149505551Y-111527680D01*
X149479100Y-111502841D01*
X149473321Y-111497414D01*
X149466375Y-111493595D01*
X149466372Y-111493593D01*
X149455566Y-111487652D01*
X149439047Y-111476801D01*
X149438583Y-111476441D01*
X149423041Y-111464386D01*
X149415772Y-111461241D01*
X149415768Y-111461238D01*
X149382463Y-111446826D01*
X149371813Y-111441609D01*
X149333060Y-111420305D01*
X149323908Y-111417955D01*
X149313438Y-111415267D01*
X149294734Y-111408863D01*
X149283420Y-111403967D01*
X149283419Y-111403967D01*
X149276145Y-111400819D01*
X149268322Y-111399580D01*
X149268312Y-111399577D01*
X149232476Y-111393901D01*
X149220856Y-111391495D01*
X149185711Y-111382472D01*
X149185710Y-111382472D01*
X149178030Y-111380500D01*
X149157776Y-111380500D01*
X149138065Y-111378949D01*
X149125886Y-111377020D01*
X149118057Y-111375780D01*
X149110165Y-111376526D01*
X149074039Y-111379941D01*
X149062181Y-111380500D01*
X148142595Y-111380500D01*
X148074474Y-111360498D01*
X148053500Y-111343595D01*
X147990405Y-111280500D01*
X147956379Y-111218188D01*
X147953500Y-111191405D01*
X147953500Y-108790767D01*
X147954027Y-108779584D01*
X147955702Y-108772091D01*
X147954636Y-108738156D01*
X147953562Y-108704001D01*
X147953500Y-108700043D01*
X147953500Y-108672144D01*
X147952996Y-108668153D01*
X147952063Y-108656311D01*
X147951594Y-108641365D01*
X147950674Y-108612111D01*
X147948462Y-108604497D01*
X147948461Y-108604492D01*
X147945023Y-108592659D01*
X147941012Y-108573295D01*
X147939467Y-108561064D01*
X147938474Y-108553203D01*
X147935557Y-108545836D01*
X147935556Y-108545831D01*
X147922198Y-108512092D01*
X147918354Y-108500865D01*
X147913078Y-108482707D01*
X147906018Y-108458407D01*
X147898667Y-108445977D01*
X147895707Y-108440972D01*
X147887012Y-108423224D01*
X147879552Y-108404383D01*
X147870221Y-108391539D01*
X147853564Y-108368613D01*
X147847048Y-108358693D01*
X147828580Y-108327465D01*
X147828578Y-108327462D01*
X147824542Y-108320638D01*
X147810221Y-108306317D01*
X147797380Y-108291283D01*
X147790131Y-108281306D01*
X147785472Y-108274893D01*
X147751395Y-108246702D01*
X147742616Y-108238712D01*
X147251122Y-107747218D01*
X147217096Y-107684906D01*
X147214907Y-107671293D01*
X147198232Y-107512635D01*
X147198232Y-107512633D01*
X147197542Y-107506072D01*
X147138527Y-107324444D01*
X147122588Y-107296836D01*
X147068945Y-107203925D01*
X147043040Y-107159056D01*
X147017064Y-107130206D01*
X146919675Y-107022045D01*
X146919674Y-107022044D01*
X146915253Y-107017134D01*
X146800829Y-106934000D01*
X146766094Y-106908763D01*
X146766093Y-106908762D01*
X146760752Y-106904882D01*
X146754724Y-106902198D01*
X146754722Y-106902197D01*
X146592319Y-106829891D01*
X146592318Y-106829891D01*
X146586288Y-106827206D01*
X146484170Y-106805500D01*
X146405944Y-106788872D01*
X146405939Y-106788872D01*
X146399487Y-106787500D01*
X146208513Y-106787500D01*
X146202061Y-106788872D01*
X146202056Y-106788872D01*
X146073697Y-106816156D01*
X146002906Y-106810754D01*
X145946274Y-106767937D01*
X145921780Y-106701299D01*
X145921500Y-106692909D01*
X145921500Y-104200594D01*
X145941502Y-104132473D01*
X145958405Y-104111499D01*
X150085499Y-99984405D01*
X150147811Y-99950379D01*
X150174594Y-99947500D01*
X150797233Y-99947500D01*
X150808416Y-99948027D01*
X150815909Y-99949702D01*
X150823835Y-99949453D01*
X150823836Y-99949453D01*
X150883986Y-99947562D01*
X150887945Y-99947500D01*
X150915856Y-99947500D01*
X150919791Y-99947003D01*
X150919856Y-99946995D01*
X150931693Y-99946062D01*
X150963951Y-99945048D01*
X150967970Y-99944922D01*
X150975889Y-99944673D01*
X150995343Y-99939021D01*
X151014700Y-99935013D01*
X151026930Y-99933468D01*
X151026931Y-99933468D01*
X151034797Y-99932474D01*
X151042168Y-99929555D01*
X151042170Y-99929555D01*
X151075912Y-99916196D01*
X151087142Y-99912351D01*
X151121983Y-99902229D01*
X151121984Y-99902229D01*
X151129593Y-99900018D01*
X151136412Y-99895985D01*
X151136417Y-99895983D01*
X151147028Y-99889707D01*
X151164776Y-99881012D01*
X151183617Y-99873552D01*
X151219387Y-99847564D01*
X151229307Y-99841048D01*
X151260535Y-99822580D01*
X151260538Y-99822578D01*
X151267362Y-99818542D01*
X151281683Y-99804221D01*
X151296717Y-99791380D01*
X151306694Y-99784131D01*
X151313107Y-99779472D01*
X151341298Y-99745395D01*
X151349288Y-99736616D01*
X156943499Y-94142405D01*
X157005811Y-94108379D01*
X157032594Y-94105500D01*
X158227261Y-94105500D01*
X158295382Y-94125502D01*
G37*
G04 #@! TD.AperFunction*
G04 #@! TA.AperFunction,Conductor*
G36*
X164713921Y-106825502D02*
G01*
X164733147Y-106841843D01*
X164733420Y-106841540D01*
X164738332Y-106845963D01*
X164742747Y-106850866D01*
X164748086Y-106854745D01*
X164866207Y-106940565D01*
X164897248Y-106963118D01*
X164903276Y-106965802D01*
X164903278Y-106965803D01*
X165065681Y-107038109D01*
X165071712Y-107040794D01*
X165165113Y-107060647D01*
X165252056Y-107079128D01*
X165252061Y-107079128D01*
X165258513Y-107080500D01*
X165449487Y-107080500D01*
X165455939Y-107079128D01*
X165455944Y-107079128D01*
X165542888Y-107060647D01*
X165636288Y-107040794D01*
X165642335Y-107038102D01*
X165797469Y-106969032D01*
X165867836Y-106959598D01*
X165932133Y-106989705D01*
X165969947Y-107049793D01*
X165974028Y-107097309D01*
X165967093Y-107163292D01*
X165940080Y-107228949D01*
X165930878Y-107239217D01*
X164503989Y-108666106D01*
X164441677Y-108700132D01*
X164414894Y-108703011D01*
X163792257Y-108703011D01*
X163781074Y-108702484D01*
X163773581Y-108700809D01*
X163765655Y-108701058D01*
X163765654Y-108701058D01*
X163705491Y-108702949D01*
X163701533Y-108703011D01*
X163673633Y-108703011D01*
X163669643Y-108703515D01*
X163657809Y-108704447D01*
X163613600Y-108705837D01*
X163605984Y-108708050D01*
X163605982Y-108708050D01*
X163594141Y-108711490D01*
X163574782Y-108715499D01*
X163573472Y-108715665D01*
X163554692Y-108718037D01*
X163547326Y-108720953D01*
X163547320Y-108720955D01*
X163513587Y-108734311D01*
X163502357Y-108738156D01*
X163494561Y-108740421D01*
X163459896Y-108750492D01*
X163453073Y-108754527D01*
X163442455Y-108760806D01*
X163424702Y-108769503D01*
X163418166Y-108772091D01*
X163405872Y-108776959D01*
X163386867Y-108790767D01*
X163370101Y-108802948D01*
X163360184Y-108809462D01*
X163322127Y-108831969D01*
X163307806Y-108846290D01*
X163292773Y-108859130D01*
X163276382Y-108871039D01*
X163271331Y-108877145D01*
X163248191Y-108905116D01*
X163240201Y-108913895D01*
X159290074Y-112864021D01*
X159227764Y-112898046D01*
X159156949Y-112892981D01*
X159118218Y-112866642D01*
X159116580Y-112868461D01*
X159111672Y-112864041D01*
X159107253Y-112859134D01*
X159099122Y-112853226D01*
X158958094Y-112750763D01*
X158958093Y-112750762D01*
X158952752Y-112746882D01*
X158946722Y-112744197D01*
X158940999Y-112740893D01*
X158942155Y-112738891D01*
X158896144Y-112699771D01*
X158875500Y-112630661D01*
X158875500Y-112208524D01*
X158895502Y-112140403D01*
X158907858Y-112124221D01*
X158981040Y-112042944D01*
X159060201Y-111905834D01*
X159073223Y-111883279D01*
X159073224Y-111883278D01*
X159076527Y-111877556D01*
X159135542Y-111695928D01*
X159136292Y-111688798D01*
X159154814Y-111512565D01*
X159155504Y-111506000D01*
X159149037Y-111444467D01*
X159136232Y-111322635D01*
X159136232Y-111322633D01*
X159135542Y-111316072D01*
X159076527Y-111134444D01*
X158981040Y-110969056D01*
X158967611Y-110954141D01*
X158857675Y-110832045D01*
X158857674Y-110832044D01*
X158853253Y-110827134D01*
X158729996Y-110737582D01*
X158704094Y-110718763D01*
X158704093Y-110718762D01*
X158698752Y-110714882D01*
X158692724Y-110712198D01*
X158692722Y-110712197D01*
X158530319Y-110639891D01*
X158530318Y-110639891D01*
X158524288Y-110637206D01*
X158430888Y-110617353D01*
X158343944Y-110598872D01*
X158343939Y-110598872D01*
X158337487Y-110597500D01*
X158146513Y-110597500D01*
X158140061Y-110598872D01*
X158140056Y-110598872D01*
X158053112Y-110617353D01*
X157959712Y-110637206D01*
X157953682Y-110639891D01*
X157953681Y-110639891D01*
X157791278Y-110712197D01*
X157791276Y-110712198D01*
X157785248Y-110714882D01*
X157779907Y-110718762D01*
X157779906Y-110718763D01*
X157754004Y-110737582D01*
X157630747Y-110827134D01*
X157626326Y-110832044D01*
X157626325Y-110832045D01*
X157516390Y-110954141D01*
X157502960Y-110969056D01*
X157407473Y-111134444D01*
X157348458Y-111316072D01*
X157347768Y-111322633D01*
X157347768Y-111322635D01*
X157334963Y-111444467D01*
X157328496Y-111506000D01*
X157329186Y-111512565D01*
X157347709Y-111688798D01*
X157348458Y-111695928D01*
X157350498Y-111702206D01*
X157361746Y-111736824D01*
X157363774Y-111807791D01*
X157327111Y-111868589D01*
X157263399Y-111899915D01*
X157215716Y-111899007D01*
X157073944Y-111868872D01*
X157073939Y-111868872D01*
X157067487Y-111867500D01*
X156876513Y-111867500D01*
X156870061Y-111868872D01*
X156870056Y-111868872D01*
X156802279Y-111883279D01*
X156689712Y-111907206D01*
X156683682Y-111909891D01*
X156683681Y-111909891D01*
X156521278Y-111982197D01*
X156521276Y-111982198D01*
X156515248Y-111984882D01*
X156360747Y-112097134D01*
X156356332Y-112102037D01*
X156351420Y-112106460D01*
X156350295Y-112105211D01*
X156296986Y-112138051D01*
X156263800Y-112142500D01*
X156200020Y-112142500D01*
X156131899Y-112122498D01*
X156085406Y-112068842D01*
X156080187Y-112055436D01*
X156064667Y-112007672D01*
X156028527Y-111896444D01*
X156025116Y-111890535D01*
X155948110Y-111757158D01*
X155933040Y-111731056D01*
X155859863Y-111649785D01*
X155829147Y-111585779D01*
X155827500Y-111565476D01*
X155827500Y-111076763D01*
X155828027Y-111065579D01*
X155829701Y-111058091D01*
X155827562Y-110990032D01*
X155827500Y-110986075D01*
X155827500Y-110958144D01*
X155826994Y-110954138D01*
X155826061Y-110942292D01*
X155825996Y-110940206D01*
X155824673Y-110898110D01*
X155819022Y-110878658D01*
X155815014Y-110859306D01*
X155813468Y-110847068D01*
X155813467Y-110847066D01*
X155812474Y-110839203D01*
X155796194Y-110798086D01*
X155792359Y-110786885D01*
X155780018Y-110744406D01*
X155775985Y-110737587D01*
X155775983Y-110737582D01*
X155769707Y-110726971D01*
X155761010Y-110709221D01*
X155753552Y-110690383D01*
X155727571Y-110654623D01*
X155721053Y-110644701D01*
X155702578Y-110613460D01*
X155702574Y-110613455D01*
X155698542Y-110606637D01*
X155684218Y-110592313D01*
X155671376Y-110577278D01*
X155659472Y-110560893D01*
X155625406Y-110532711D01*
X155616627Y-110524722D01*
X153601122Y-108509217D01*
X153567096Y-108446905D01*
X153564907Y-108433292D01*
X153548232Y-108274635D01*
X153548232Y-108274633D01*
X153547542Y-108268072D01*
X153545503Y-108261797D01*
X153545502Y-108261792D01*
X153538563Y-108240438D01*
X153536534Y-108169471D01*
X153573195Y-108108672D01*
X153636907Y-108077346D01*
X153658395Y-108075500D01*
X160957233Y-108075500D01*
X160968416Y-108076027D01*
X160975909Y-108077702D01*
X160983835Y-108077453D01*
X160983836Y-108077453D01*
X161043986Y-108075562D01*
X161047945Y-108075500D01*
X161075856Y-108075500D01*
X161079791Y-108075003D01*
X161079856Y-108074995D01*
X161091693Y-108074062D01*
X161123951Y-108073048D01*
X161127970Y-108072922D01*
X161135889Y-108072673D01*
X161155343Y-108067021D01*
X161174700Y-108063013D01*
X161186930Y-108061468D01*
X161186931Y-108061468D01*
X161194797Y-108060474D01*
X161202168Y-108057555D01*
X161202170Y-108057555D01*
X161235912Y-108044196D01*
X161247142Y-108040351D01*
X161281983Y-108030229D01*
X161281984Y-108030229D01*
X161289593Y-108028018D01*
X161296412Y-108023985D01*
X161296417Y-108023983D01*
X161307028Y-108017707D01*
X161324776Y-108009012D01*
X161343617Y-108001552D01*
X161379387Y-107975564D01*
X161389307Y-107969048D01*
X161420535Y-107950580D01*
X161420538Y-107950578D01*
X161427362Y-107946542D01*
X161441683Y-107932221D01*
X161456717Y-107919380D01*
X161466693Y-107912132D01*
X161473107Y-107907472D01*
X161501288Y-107873407D01*
X161509278Y-107864626D01*
X162274135Y-107099770D01*
X162274148Y-107099756D01*
X162531499Y-106842405D01*
X162593811Y-106808379D01*
X162620594Y-106805500D01*
X164645800Y-106805500D01*
X164713921Y-106825502D01*
G37*
G04 #@! TD.AperFunction*
G04 #@! TA.AperFunction,Conductor*
G36*
X166843782Y-92712454D02*
G01*
X166860490Y-92715431D01*
X166869414Y-92714462D01*
X166869416Y-92714462D01*
X166876084Y-92713738D01*
X166901207Y-92713530D01*
X167079298Y-92729884D01*
X167096619Y-92732702D01*
X167137660Y-92742353D01*
X167197912Y-92775912D01*
X168360326Y-93938326D01*
X168394063Y-93999347D01*
X168398327Y-94018003D01*
X168401495Y-94046006D01*
X168401499Y-94053098D01*
X168401494Y-94053098D01*
X168401500Y-94053175D01*
X168401500Y-104373661D01*
X168381498Y-104441782D01*
X168327842Y-104488275D01*
X168257568Y-104498379D01*
X168192988Y-104468885D01*
X168166381Y-104436661D01*
X168161295Y-104427852D01*
X168125040Y-104365056D01*
X168099064Y-104336206D01*
X168016784Y-104244825D01*
X167993269Y-104206900D01*
X167988199Y-104194095D01*
X167984354Y-104182865D01*
X167974230Y-104148022D01*
X167972018Y-104140407D01*
X167967326Y-104132473D01*
X167961707Y-104122972D01*
X167953012Y-104105224D01*
X167945552Y-104086383D01*
X167919564Y-104050613D01*
X167913048Y-104040693D01*
X167894580Y-104009465D01*
X167894578Y-104009462D01*
X167890542Y-104002638D01*
X167876221Y-103988317D01*
X167863380Y-103973283D01*
X167856131Y-103963306D01*
X167851472Y-103956893D01*
X167817395Y-103928702D01*
X167808616Y-103920712D01*
X166400674Y-102512769D01*
X166366648Y-102450457D01*
X166364763Y-102407883D01*
X166366985Y-102390295D01*
X166367380Y-102362000D01*
X166348080Y-102165167D01*
X166342038Y-102145153D01*
X166306893Y-102028749D01*
X166290916Y-101975831D01*
X166198066Y-101801204D01*
X166124718Y-101711271D01*
X166076960Y-101652713D01*
X166076957Y-101652710D01*
X166073065Y-101647938D01*
X166066724Y-101642692D01*
X165925425Y-101525799D01*
X165925421Y-101525797D01*
X165920675Y-101521870D01*
X165746701Y-101427802D01*
X165557768Y-101369318D01*
X165551643Y-101368674D01*
X165551642Y-101368674D01*
X165367204Y-101349289D01*
X165367202Y-101349289D01*
X165361075Y-101348645D01*
X165278576Y-101356153D01*
X165170251Y-101366011D01*
X165170248Y-101366012D01*
X165164112Y-101366570D01*
X165158206Y-101368308D01*
X165158202Y-101368309D01*
X165107916Y-101383109D01*
X164974381Y-101422410D01*
X164968923Y-101425263D01*
X164968919Y-101425265D01*
X164878147Y-101472720D01*
X164799110Y-101514040D01*
X164644975Y-101637968D01*
X164641011Y-101642692D01*
X164578193Y-101717556D01*
X164517846Y-101789474D01*
X164469605Y-101877226D01*
X164459174Y-101896200D01*
X164408829Y-101946259D01*
X164348759Y-101961500D01*
X164242513Y-101961500D01*
X164236061Y-101962872D01*
X164236056Y-101962872D01*
X164175091Y-101975831D01*
X164055712Y-102001206D01*
X164049682Y-102003891D01*
X164049681Y-102003891D01*
X163887278Y-102076197D01*
X163887276Y-102076198D01*
X163881248Y-102078882D01*
X163875907Y-102082762D01*
X163875906Y-102082763D01*
X163846138Y-102104391D01*
X163726747Y-102191134D01*
X163722326Y-102196044D01*
X163722325Y-102196045D01*
X163631835Y-102296545D01*
X163598960Y-102333056D01*
X163503473Y-102498444D01*
X163444458Y-102680072D01*
X163424496Y-102870000D01*
X163425186Y-102876565D01*
X163443220Y-103048145D01*
X163444458Y-103059928D01*
X163503473Y-103241556D01*
X163506776Y-103247278D01*
X163506777Y-103247279D01*
X163522142Y-103273891D01*
X163598960Y-103406944D01*
X163603378Y-103411851D01*
X163603379Y-103411852D01*
X163690600Y-103508721D01*
X163726747Y-103548866D01*
X163881248Y-103661118D01*
X163887276Y-103663802D01*
X163887278Y-103663803D01*
X163959756Y-103696072D01*
X164055712Y-103738794D01*
X164144831Y-103757737D01*
X164236056Y-103777128D01*
X164236061Y-103777128D01*
X164242513Y-103778500D01*
X164298406Y-103778500D01*
X164366527Y-103798502D01*
X164387501Y-103815405D01*
X164939174Y-104367078D01*
X164973200Y-104429390D01*
X164976017Y-104452212D01*
X164977327Y-104493889D01*
X164980634Y-104505271D01*
X164982978Y-104513339D01*
X164986987Y-104532700D01*
X164987720Y-104538498D01*
X164989526Y-104552797D01*
X164992445Y-104560168D01*
X164992445Y-104560170D01*
X165005804Y-104593912D01*
X165009649Y-104605142D01*
X165021982Y-104647593D01*
X165026015Y-104654412D01*
X165026017Y-104654417D01*
X165032293Y-104665028D01*
X165040988Y-104682776D01*
X165048448Y-104701617D01*
X165053110Y-104708033D01*
X165053110Y-104708034D01*
X165074436Y-104737387D01*
X165080952Y-104747307D01*
X165097683Y-104775597D01*
X165103458Y-104785362D01*
X165117779Y-104799683D01*
X165130619Y-104814716D01*
X165142528Y-104831107D01*
X165148634Y-104836158D01*
X165176605Y-104859298D01*
X165185384Y-104867288D01*
X165366501Y-105048405D01*
X165400527Y-105110717D01*
X165395462Y-105181532D01*
X165352915Y-105238368D01*
X165286395Y-105263179D01*
X165277406Y-105263500D01*
X165258513Y-105263500D01*
X165252061Y-105264872D01*
X165252056Y-105264872D01*
X165165113Y-105283353D01*
X165071712Y-105303206D01*
X165065682Y-105305891D01*
X165065681Y-105305891D01*
X164903278Y-105378197D01*
X164903276Y-105378198D01*
X164897248Y-105380882D01*
X164891907Y-105384762D01*
X164891906Y-105384763D01*
X164777624Y-105467794D01*
X164742747Y-105493134D01*
X164738332Y-105498037D01*
X164733420Y-105502460D01*
X164732295Y-105501211D01*
X164678986Y-105534051D01*
X164645800Y-105538500D01*
X162384763Y-105538500D01*
X162373579Y-105537973D01*
X162366091Y-105536299D01*
X162358168Y-105536548D01*
X162298033Y-105538438D01*
X162294075Y-105538500D01*
X162266144Y-105538500D01*
X162262229Y-105538995D01*
X162262225Y-105538995D01*
X162262167Y-105539003D01*
X162262138Y-105539006D01*
X162250296Y-105539939D01*
X162206110Y-105541327D01*
X162188744Y-105546372D01*
X162186658Y-105546978D01*
X162167306Y-105550986D01*
X162155068Y-105552532D01*
X162155066Y-105552533D01*
X162147203Y-105553526D01*
X162106086Y-105569806D01*
X162094885Y-105573641D01*
X162052406Y-105585982D01*
X162045587Y-105590015D01*
X162045582Y-105590017D01*
X162034971Y-105596293D01*
X162017221Y-105604990D01*
X161998383Y-105612448D01*
X161991967Y-105617109D01*
X161991966Y-105617110D01*
X161962625Y-105638428D01*
X161952701Y-105644947D01*
X161921460Y-105663422D01*
X161921455Y-105663426D01*
X161914637Y-105667458D01*
X161900313Y-105681782D01*
X161885281Y-105694621D01*
X161868893Y-105706528D01*
X161840712Y-105740593D01*
X161832722Y-105749373D01*
X160810499Y-106771596D01*
X160748187Y-106805621D01*
X160721404Y-106808500D01*
X152968595Y-106808500D01*
X152900474Y-106788498D01*
X152879500Y-106771595D01*
X152819767Y-106711862D01*
X152366501Y-106258595D01*
X152332475Y-106196283D01*
X152337540Y-106125468D01*
X152380087Y-106068632D01*
X152446607Y-106043821D01*
X152455596Y-106043500D01*
X153723800Y-106043500D01*
X153791921Y-106063502D01*
X153811147Y-106079843D01*
X153811420Y-106079540D01*
X153816332Y-106083963D01*
X153820747Y-106088866D01*
X153838850Y-106102019D01*
X153935171Y-106172000D01*
X153975248Y-106201118D01*
X153981276Y-106203802D01*
X153981278Y-106203803D01*
X154143681Y-106276109D01*
X154149712Y-106278794D01*
X154219552Y-106293639D01*
X154330056Y-106317128D01*
X154330061Y-106317128D01*
X154336513Y-106318500D01*
X154527487Y-106318500D01*
X154533939Y-106317128D01*
X154533944Y-106317128D01*
X154644448Y-106293639D01*
X154714288Y-106278794D01*
X154720319Y-106276109D01*
X154882722Y-106203803D01*
X154882724Y-106203802D01*
X154888752Y-106201118D01*
X155043253Y-106088866D01*
X155053855Y-106077091D01*
X155166621Y-105951852D01*
X155166622Y-105951851D01*
X155171040Y-105946944D01*
X155266527Y-105781556D01*
X155325542Y-105599928D01*
X155327546Y-105580866D01*
X155344814Y-105416565D01*
X155345504Y-105410000D01*
X155334280Y-105303206D01*
X155326232Y-105226635D01*
X155326232Y-105226633D01*
X155325542Y-105220072D01*
X155266527Y-105038444D01*
X155249409Y-105008794D01*
X155222681Y-104962500D01*
X155205943Y-104893504D01*
X155229164Y-104826413D01*
X155284971Y-104782526D01*
X155331800Y-104773500D01*
X156517800Y-104773500D01*
X156585921Y-104793502D01*
X156605147Y-104809843D01*
X156605420Y-104809540D01*
X156610332Y-104813963D01*
X156614747Y-104818866D01*
X156622769Y-104824694D01*
X156729171Y-104902000D01*
X156769248Y-104931118D01*
X156775276Y-104933802D01*
X156775278Y-104933803D01*
X156937681Y-105006109D01*
X156943712Y-105008794D01*
X157037113Y-105028647D01*
X157124056Y-105047128D01*
X157124061Y-105047128D01*
X157130513Y-105048500D01*
X157321487Y-105048500D01*
X157327939Y-105047128D01*
X157327944Y-105047128D01*
X157414888Y-105028647D01*
X157508288Y-105008794D01*
X157514319Y-105006109D01*
X157676722Y-104933803D01*
X157676724Y-104933802D01*
X157682752Y-104931118D01*
X157786940Y-104855421D01*
X157853806Y-104831563D01*
X157922958Y-104847643D01*
X157935056Y-104855418D01*
X158039248Y-104931118D01*
X158045276Y-104933802D01*
X158045278Y-104933803D01*
X158207681Y-105006109D01*
X158213712Y-105008794D01*
X158307113Y-105028647D01*
X158394056Y-105047128D01*
X158394061Y-105047128D01*
X158400513Y-105048500D01*
X158591487Y-105048500D01*
X158597939Y-105047128D01*
X158597944Y-105047128D01*
X158684888Y-105028647D01*
X158778288Y-105008794D01*
X158784319Y-105006109D01*
X158946722Y-104933803D01*
X158946724Y-104933802D01*
X158952752Y-104931118D01*
X159107253Y-104818866D01*
X159118210Y-104806697D01*
X159230621Y-104681852D01*
X159230622Y-104681851D01*
X159235040Y-104676944D01*
X159302584Y-104559955D01*
X159327223Y-104517279D01*
X159327224Y-104517278D01*
X159330527Y-104511556D01*
X159389542Y-104329928D01*
X159406907Y-104164706D01*
X159433920Y-104099050D01*
X159443122Y-104088782D01*
X160158247Y-103373657D01*
X160166537Y-103366113D01*
X160173018Y-103362000D01*
X160219659Y-103312332D01*
X160222413Y-103309491D01*
X160242134Y-103289770D01*
X160244612Y-103286575D01*
X160252318Y-103277553D01*
X160277158Y-103251101D01*
X160282586Y-103245321D01*
X160292346Y-103227568D01*
X160303199Y-103211045D01*
X160310753Y-103201306D01*
X160315613Y-103195041D01*
X160333176Y-103154457D01*
X160338383Y-103143827D01*
X160359695Y-103105060D01*
X160361666Y-103097383D01*
X160361668Y-103097378D01*
X160364732Y-103085442D01*
X160371138Y-103066730D01*
X160376033Y-103055419D01*
X160379181Y-103048145D01*
X160380421Y-103040317D01*
X160380423Y-103040310D01*
X160386099Y-103004476D01*
X160388505Y-102992856D01*
X160397528Y-102957711D01*
X160397528Y-102957710D01*
X160399500Y-102950030D01*
X160399500Y-102929776D01*
X160401051Y-102910065D01*
X160402980Y-102897886D01*
X160404220Y-102890057D01*
X160400059Y-102846038D01*
X160399500Y-102834181D01*
X160399500Y-99840500D01*
X160419502Y-99772379D01*
X160473158Y-99725886D01*
X160525500Y-99714500D01*
X160623487Y-99714500D01*
X160629939Y-99713128D01*
X160629944Y-99713128D01*
X160716887Y-99694647D01*
X160810288Y-99674794D01*
X160816319Y-99672109D01*
X160978722Y-99599803D01*
X160978724Y-99599802D01*
X160984752Y-99597118D01*
X161139253Y-99484866D01*
X161143671Y-99479959D01*
X161143678Y-99479953D01*
X161158672Y-99463300D01*
X161219117Y-99426060D01*
X161278505Y-99424364D01*
X161442047Y-99459127D01*
X161442060Y-99459128D01*
X161448513Y-99460500D01*
X161639487Y-99460500D01*
X161645939Y-99459128D01*
X161645944Y-99459128D01*
X161732888Y-99440647D01*
X161826288Y-99420794D01*
X161872523Y-99400209D01*
X161994722Y-99345803D01*
X161994724Y-99345802D01*
X162000752Y-99343118D01*
X162155253Y-99230866D01*
X162159675Y-99225955D01*
X162278621Y-99093852D01*
X162278622Y-99093851D01*
X162283040Y-99088944D01*
X162378527Y-98923556D01*
X162437542Y-98741928D01*
X162439138Y-98726749D01*
X162456814Y-98558565D01*
X162457504Y-98552000D01*
X162437542Y-98362072D01*
X162378527Y-98180444D01*
X162365868Y-98158517D01*
X162299751Y-98044000D01*
X162283040Y-98015056D01*
X162259044Y-97988405D01*
X162159675Y-97878045D01*
X162159674Y-97878044D01*
X162155253Y-97873134D01*
X162000752Y-97760882D01*
X161994724Y-97758198D01*
X161994722Y-97758197D01*
X161832316Y-97685890D01*
X161832317Y-97685890D01*
X161826288Y-97683206D01*
X161769302Y-97671093D01*
X161706829Y-97637365D01*
X161672508Y-97575215D01*
X161669500Y-97547847D01*
X161669500Y-95504000D01*
X163194738Y-95504000D01*
X163213767Y-95806462D01*
X163270555Y-96104154D01*
X163271782Y-96107930D01*
X163361572Y-96384273D01*
X163364206Y-96392381D01*
X163365893Y-96395967D01*
X163365895Y-96395971D01*
X163387884Y-96442699D01*
X163493242Y-96666598D01*
X163655630Y-96922480D01*
X163658149Y-96925525D01*
X163658152Y-96925529D01*
X163699714Y-96975768D01*
X163848808Y-97155992D01*
X164069729Y-97363450D01*
X164314910Y-97541584D01*
X164318379Y-97543491D01*
X164318382Y-97543493D01*
X164577014Y-97685678D01*
X164580483Y-97687585D01*
X164584152Y-97689038D01*
X164584157Y-97689040D01*
X164858591Y-97797696D01*
X164862261Y-97799149D01*
X165155800Y-97874516D01*
X165456470Y-97912500D01*
X165759530Y-97912500D01*
X166060200Y-97874516D01*
X166353739Y-97799149D01*
X166357409Y-97797696D01*
X166631843Y-97689040D01*
X166631848Y-97689038D01*
X166635517Y-97687585D01*
X166638986Y-97685678D01*
X166897618Y-97543493D01*
X166897621Y-97543491D01*
X166901090Y-97541584D01*
X167146271Y-97363450D01*
X167367192Y-97155992D01*
X167516286Y-96975768D01*
X167557848Y-96925529D01*
X167557851Y-96925525D01*
X167560370Y-96922480D01*
X167722758Y-96666598D01*
X167828116Y-96442699D01*
X167850105Y-96395971D01*
X167850107Y-96395967D01*
X167851794Y-96392381D01*
X167854429Y-96384273D01*
X167944218Y-96107930D01*
X167945445Y-96104154D01*
X168002233Y-95806462D01*
X168021262Y-95504000D01*
X168002233Y-95201538D01*
X167945445Y-94903846D01*
X167851794Y-94615619D01*
X167722758Y-94341402D01*
X167560370Y-94085520D01*
X167367192Y-93852008D01*
X167146271Y-93644550D01*
X167132344Y-93634431D01*
X167071291Y-93590074D01*
X166901090Y-93466416D01*
X166887834Y-93459128D01*
X166638986Y-93322322D01*
X166638985Y-93322321D01*
X166635517Y-93320415D01*
X166631848Y-93318962D01*
X166631843Y-93318960D01*
X166357409Y-93210304D01*
X166357408Y-93210304D01*
X166353739Y-93208851D01*
X166060200Y-93133484D01*
X165759530Y-93095500D01*
X165456470Y-93095500D01*
X165155800Y-93133484D01*
X164862261Y-93208851D01*
X164858592Y-93210304D01*
X164858591Y-93210304D01*
X164584157Y-93318960D01*
X164584152Y-93318962D01*
X164580483Y-93320415D01*
X164577015Y-93322321D01*
X164577014Y-93322322D01*
X164328167Y-93459128D01*
X164314910Y-93466416D01*
X164144709Y-93590074D01*
X164083657Y-93634431D01*
X164069729Y-93644550D01*
X163848808Y-93852008D01*
X163655630Y-94085520D01*
X163493242Y-94341402D01*
X163364206Y-94615619D01*
X163270555Y-94903846D01*
X163213767Y-95201538D01*
X163194738Y-95504000D01*
X161669500Y-95504000D01*
X161669500Y-93922431D01*
X161670027Y-93911247D01*
X161671701Y-93903759D01*
X161669562Y-93835700D01*
X161669500Y-93831743D01*
X161669500Y-93803812D01*
X161668994Y-93799806D01*
X161668061Y-93787960D01*
X161666922Y-93751705D01*
X161666673Y-93743778D01*
X161661022Y-93724326D01*
X161657014Y-93704974D01*
X161655468Y-93692736D01*
X161655467Y-93692734D01*
X161654474Y-93684871D01*
X161638194Y-93643754D01*
X161634359Y-93632553D01*
X161622018Y-93590074D01*
X161617985Y-93583255D01*
X161617983Y-93583250D01*
X161611707Y-93572639D01*
X161603010Y-93554889D01*
X161595552Y-93536051D01*
X161569571Y-93500291D01*
X161563053Y-93490369D01*
X161544578Y-93459128D01*
X161544574Y-93459123D01*
X161540542Y-93452305D01*
X161526218Y-93437981D01*
X161513376Y-93422946D01*
X161501472Y-93406561D01*
X161467406Y-93378379D01*
X161458627Y-93370390D01*
X161013832Y-92925595D01*
X160979806Y-92863283D01*
X160984871Y-92792468D01*
X161027418Y-92735632D01*
X161093938Y-92710821D01*
X161102927Y-92710500D01*
X166821680Y-92710500D01*
X166843782Y-92712454D01*
G37*
G04 #@! TD.AperFunction*
G04 #@! TA.AperFunction,Conductor*
G36*
X148700839Y-92730502D02*
G01*
X148747332Y-92784158D01*
X148757436Y-92854432D01*
X148755965Y-92862696D01*
X148733093Y-92970303D01*
X148722500Y-93020140D01*
X148722500Y-93205860D01*
X148723872Y-93212313D01*
X148723872Y-93212317D01*
X148724388Y-93214743D01*
X148761113Y-93387521D01*
X148763797Y-93393550D01*
X148763798Y-93393552D01*
X148830525Y-93543421D01*
X148836652Y-93557183D01*
X148840532Y-93562524D01*
X148840533Y-93562525D01*
X148887302Y-93626897D01*
X148911161Y-93693765D01*
X148895080Y-93762917D01*
X148881892Y-93781943D01*
X148769846Y-93915474D01*
X148766879Y-93920872D01*
X148766875Y-93920877D01*
X148698086Y-94046006D01*
X148674567Y-94088787D01*
X148672706Y-94094654D01*
X148672705Y-94094656D01*
X148616627Y-94271436D01*
X148614765Y-94277306D01*
X148592719Y-94473851D01*
X148593235Y-94479995D01*
X148607825Y-94653747D01*
X148609268Y-94670934D01*
X148663783Y-94861050D01*
X148666602Y-94866535D01*
X148748014Y-95024944D01*
X148754187Y-95036956D01*
X148875573Y-95190109D01*
X148875574Y-95190110D01*
X148877035Y-95191953D01*
X148876685Y-95192231D01*
X148907896Y-95251834D01*
X148901599Y-95322551D01*
X148886264Y-95350531D01*
X148852866Y-95396500D01*
X148836652Y-95418816D01*
X148833968Y-95424844D01*
X148833967Y-95424846D01*
X148796963Y-95507958D01*
X148761113Y-95588479D01*
X148722500Y-95770140D01*
X148722500Y-95955860D01*
X148761113Y-96137521D01*
X148763797Y-96143550D01*
X148763798Y-96143552D01*
X148829136Y-96290301D01*
X148836652Y-96307183D01*
X148840532Y-96312524D01*
X148840533Y-96312525D01*
X148939658Y-96448959D01*
X148945815Y-96457434D01*
X148950725Y-96461855D01*
X148950726Y-96461856D01*
X149068796Y-96568166D01*
X149083831Y-96581704D01*
X149129448Y-96608041D01*
X149236669Y-96669945D01*
X149244669Y-96674564D01*
X149421298Y-96731954D01*
X149427861Y-96732644D01*
X149427862Y-96732644D01*
X149440146Y-96733935D01*
X149559694Y-96746500D01*
X149652306Y-96746500D01*
X149771854Y-96733935D01*
X149784138Y-96732644D01*
X149784139Y-96732644D01*
X149790702Y-96731954D01*
X149967331Y-96674564D01*
X149975332Y-96669945D01*
X150082552Y-96608041D01*
X150128169Y-96581704D01*
X150143205Y-96568166D01*
X150261274Y-96461856D01*
X150261275Y-96461855D01*
X150266185Y-96457434D01*
X150272343Y-96448959D01*
X150371467Y-96312526D01*
X150371468Y-96312525D01*
X150375348Y-96307184D01*
X150388746Y-96277093D01*
X150448202Y-96143552D01*
X150448202Y-96143551D01*
X150450887Y-96137521D01*
X150489500Y-95955860D01*
X150489500Y-95770140D01*
X150450887Y-95588479D01*
X150448201Y-95582446D01*
X150448199Y-95582440D01*
X150444329Y-95573747D01*
X150434895Y-95503380D01*
X150465002Y-95439084D01*
X150525092Y-95401271D01*
X150559436Y-95396500D01*
X150717487Y-95396500D01*
X150723939Y-95395128D01*
X150723944Y-95395128D01*
X150810887Y-95376647D01*
X150904288Y-95356794D01*
X150910319Y-95354109D01*
X151072722Y-95281803D01*
X151072724Y-95281802D01*
X151078752Y-95279118D01*
X151233253Y-95166866D01*
X151348481Y-95038892D01*
X151356621Y-95029852D01*
X151356622Y-95029851D01*
X151361040Y-95024944D01*
X151456527Y-94859556D01*
X151515542Y-94677928D01*
X151518084Y-94653747D01*
X151534814Y-94494565D01*
X151535504Y-94488000D01*
X151520096Y-94341402D01*
X151516232Y-94304635D01*
X151516232Y-94304633D01*
X151515542Y-94298072D01*
X151456527Y-94116444D01*
X151450209Y-94105500D01*
X151381501Y-93986495D01*
X151361040Y-93951056D01*
X151315690Y-93900689D01*
X151237675Y-93814045D01*
X151237674Y-93814044D01*
X151233253Y-93809134D01*
X151116525Y-93724326D01*
X151084094Y-93700763D01*
X151084093Y-93700762D01*
X151078752Y-93696882D01*
X151072724Y-93694198D01*
X151072722Y-93694197D01*
X150910319Y-93621891D01*
X150910318Y-93621891D01*
X150904288Y-93619206D01*
X150791806Y-93595297D01*
X150723944Y-93580872D01*
X150723939Y-93580872D01*
X150717487Y-93579500D01*
X150559436Y-93579500D01*
X150491315Y-93559498D01*
X150444822Y-93505842D01*
X150434718Y-93435568D01*
X150444329Y-93402253D01*
X150448199Y-93393560D01*
X150448202Y-93393552D01*
X150450887Y-93387521D01*
X150487612Y-93214743D01*
X150488128Y-93212317D01*
X150488128Y-93212313D01*
X150489500Y-93205860D01*
X150489500Y-93020140D01*
X150478907Y-92970303D01*
X150456035Y-92862696D01*
X150461437Y-92791906D01*
X150504254Y-92735273D01*
X150570892Y-92710780D01*
X150579282Y-92710500D01*
X155643688Y-92710500D01*
X155711809Y-92730502D01*
X155758302Y-92784158D01*
X155768406Y-92854432D01*
X155738912Y-92919012D01*
X155732784Y-92925594D01*
X154046348Y-94612029D01*
X152367991Y-96290386D01*
X152305679Y-96324412D01*
X152234863Y-96319347D01*
X152191082Y-96289565D01*
X152190419Y-96290301D01*
X152185517Y-96285887D01*
X152181095Y-96280976D01*
X152026594Y-96168724D01*
X152020566Y-96166040D01*
X152020564Y-96166039D01*
X151858161Y-96093733D01*
X151858160Y-96093733D01*
X151852130Y-96091048D01*
X151758729Y-96071195D01*
X151671786Y-96052714D01*
X151671781Y-96052714D01*
X151665329Y-96051342D01*
X151474355Y-96051342D01*
X151467903Y-96052714D01*
X151467898Y-96052714D01*
X151380954Y-96071195D01*
X151287554Y-96091048D01*
X151281524Y-96093733D01*
X151281523Y-96093733D01*
X151119120Y-96166039D01*
X151119118Y-96166040D01*
X151113090Y-96168724D01*
X150958589Y-96280976D01*
X150954168Y-96285886D01*
X150954167Y-96285887D01*
X150837063Y-96415945D01*
X150830802Y-96422898D01*
X150735315Y-96588286D01*
X150676300Y-96769914D01*
X150675610Y-96776475D01*
X150675610Y-96776477D01*
X150658935Y-96935134D01*
X150631922Y-97000791D01*
X150622720Y-97011060D01*
X150260183Y-97373596D01*
X150197871Y-97407621D01*
X150171088Y-97410500D01*
X148536200Y-97410500D01*
X148468079Y-97390498D01*
X148448853Y-97374157D01*
X148448580Y-97374460D01*
X148443668Y-97370037D01*
X148439253Y-97365134D01*
X148284752Y-97252882D01*
X148278724Y-97250198D01*
X148278722Y-97250197D01*
X148116319Y-97177891D01*
X148116318Y-97177891D01*
X148110288Y-97175206D01*
X148016888Y-97155353D01*
X147929944Y-97136872D01*
X147929939Y-97136872D01*
X147923487Y-97135500D01*
X147732513Y-97135500D01*
X147726061Y-97136872D01*
X147726056Y-97136872D01*
X147639113Y-97155353D01*
X147545712Y-97175206D01*
X147539682Y-97177891D01*
X147539681Y-97177891D01*
X147377278Y-97250197D01*
X147377276Y-97250198D01*
X147371248Y-97252882D01*
X147216747Y-97365134D01*
X147212326Y-97370044D01*
X147212325Y-97370045D01*
X147155114Y-97433585D01*
X147088960Y-97507056D01*
X147085659Y-97512774D01*
X147001524Y-97658500D01*
X146993473Y-97672444D01*
X146934458Y-97854072D01*
X146933768Y-97860633D01*
X146933768Y-97860635D01*
X146922881Y-97964221D01*
X146914496Y-98044000D01*
X146915186Y-98050565D01*
X146925831Y-98151842D01*
X146934458Y-98233928D01*
X146993473Y-98415556D01*
X147088960Y-98580944D01*
X147093378Y-98585851D01*
X147093379Y-98585852D01*
X147120589Y-98616072D01*
X147216747Y-98722866D01*
X147315843Y-98794864D01*
X147340207Y-98812565D01*
X147371248Y-98835118D01*
X147377276Y-98837802D01*
X147377278Y-98837803D01*
X147485558Y-98886012D01*
X147545712Y-98912794D01*
X147639112Y-98932647D01*
X147726056Y-98951128D01*
X147726061Y-98951128D01*
X147732513Y-98952500D01*
X147923487Y-98952500D01*
X147929939Y-98951128D01*
X147929944Y-98951128D01*
X148016888Y-98932647D01*
X148110288Y-98912794D01*
X148170442Y-98886012D01*
X148278722Y-98837803D01*
X148278724Y-98837802D01*
X148284752Y-98835118D01*
X148315794Y-98812565D01*
X148422050Y-98735365D01*
X148439253Y-98722866D01*
X148443668Y-98717963D01*
X148448580Y-98713540D01*
X148449705Y-98714789D01*
X148503014Y-98681949D01*
X148536200Y-98677500D01*
X148660689Y-98677500D01*
X148728810Y-98697502D01*
X148775303Y-98751158D01*
X148785407Y-98821432D01*
X148755913Y-98886012D01*
X148749785Y-98892594D01*
X146541974Y-101100404D01*
X144363907Y-103278471D01*
X144301595Y-103312497D01*
X144230779Y-103307432D01*
X144181175Y-103273684D01*
X144175861Y-103267782D01*
X144145146Y-103203774D01*
X144143500Y-103183476D01*
X144143500Y-100916767D01*
X144144027Y-100905584D01*
X144145702Y-100898091D01*
X144143562Y-100830014D01*
X144143500Y-100826055D01*
X144143500Y-100812280D01*
X144146253Y-100786086D01*
X144147504Y-100780202D01*
X144149542Y-100773928D01*
X144155721Y-100715144D01*
X144168814Y-100590565D01*
X144169504Y-100584000D01*
X144162037Y-100512959D01*
X144150232Y-100400635D01*
X144150232Y-100400633D01*
X144149542Y-100394072D01*
X144090527Y-100212444D01*
X143995040Y-100047056D01*
X143905400Y-99947500D01*
X143871675Y-99910045D01*
X143871674Y-99910044D01*
X143867253Y-99905134D01*
X143712752Y-99792882D01*
X143706724Y-99790198D01*
X143706722Y-99790197D01*
X143544319Y-99717891D01*
X143544318Y-99717891D01*
X143538288Y-99715206D01*
X143444888Y-99695353D01*
X143357944Y-99676872D01*
X143357939Y-99676872D01*
X143351487Y-99675500D01*
X143160513Y-99675500D01*
X143154061Y-99676872D01*
X143154056Y-99676872D01*
X143067112Y-99695353D01*
X142973712Y-99715206D01*
X142967682Y-99717891D01*
X142967681Y-99717891D01*
X142805278Y-99790197D01*
X142805276Y-99790198D01*
X142799248Y-99792882D01*
X142644747Y-99905134D01*
X142640326Y-99910044D01*
X142640325Y-99910045D01*
X142606601Y-99947500D01*
X142516960Y-100047056D01*
X142421473Y-100212444D01*
X142362458Y-100394072D01*
X142361768Y-100400633D01*
X142361768Y-100400635D01*
X142349963Y-100512959D01*
X142342496Y-100584000D01*
X142343186Y-100590565D01*
X142356280Y-100715144D01*
X142362458Y-100773928D01*
X142421473Y-100955556D01*
X142516960Y-101120944D01*
X142521378Y-101125851D01*
X142521379Y-101125852D01*
X142545458Y-101152594D01*
X142644747Y-101262866D01*
X142743843Y-101334864D01*
X142793773Y-101371140D01*
X142799248Y-101375118D01*
X142805278Y-101377803D01*
X142811001Y-101381107D01*
X142809845Y-101383109D01*
X142855856Y-101422229D01*
X142876500Y-101491339D01*
X142876500Y-103183476D01*
X142856498Y-103251597D01*
X142844142Y-103267779D01*
X142770960Y-103349056D01*
X142752806Y-103380500D01*
X142691025Y-103487508D01*
X142675473Y-103514444D01*
X142616458Y-103696072D01*
X142615768Y-103702633D01*
X142615768Y-103702635D01*
X142605692Y-103798502D01*
X142596496Y-103886000D01*
X142597186Y-103892565D01*
X142609473Y-104009465D01*
X142616458Y-104075928D01*
X142675473Y-104257556D01*
X142770960Y-104422944D01*
X142775378Y-104427851D01*
X142775379Y-104427852D01*
X142887880Y-104552797D01*
X142898747Y-104564866D01*
X142954182Y-104605142D01*
X143036608Y-104665028D01*
X143053248Y-104677118D01*
X143059276Y-104679802D01*
X143059278Y-104679803D01*
X143221681Y-104752109D01*
X143227712Y-104754794D01*
X143315716Y-104773500D01*
X143408056Y-104793128D01*
X143408061Y-104793128D01*
X143414513Y-104794500D01*
X143605487Y-104794500D01*
X143611939Y-104793128D01*
X143611944Y-104793128D01*
X143677792Y-104779131D01*
X143748583Y-104784533D01*
X143805215Y-104827350D01*
X143829709Y-104893987D01*
X143829989Y-104902378D01*
X143829989Y-105965536D01*
X143809987Y-106033657D01*
X143756331Y-106080150D01*
X143686057Y-106090254D01*
X143650738Y-106079730D01*
X143622980Y-106066786D01*
X143622975Y-106066784D01*
X143617993Y-106064461D01*
X143612685Y-106063039D01*
X143612683Y-106063038D01*
X143414828Y-106010023D01*
X143414826Y-106010023D01*
X143409513Y-106008599D01*
X143194500Y-105989788D01*
X142979487Y-106008599D01*
X142974174Y-106010023D01*
X142974172Y-106010023D01*
X142776317Y-106063038D01*
X142776315Y-106063039D01*
X142771007Y-106064461D01*
X142766026Y-106066783D01*
X142766025Y-106066784D01*
X142580381Y-106153351D01*
X142580376Y-106153354D01*
X142575394Y-106155677D01*
X142510498Y-106201118D01*
X142426078Y-106260230D01*
X142398593Y-106279475D01*
X142245975Y-106432093D01*
X142242818Y-106436601D01*
X142242816Y-106436604D01*
X142227972Y-106457804D01*
X142167928Y-106543556D01*
X142157748Y-106558094D01*
X142102291Y-106602422D01*
X142031672Y-106609731D01*
X141968311Y-106577700D01*
X141932326Y-106516499D01*
X141929839Y-106467743D01*
X141955852Y-106288336D01*
X141955852Y-106288333D01*
X141956713Y-106282396D01*
X141946933Y-106071101D01*
X141897375Y-105865466D01*
X141874045Y-105814153D01*
X141840598Y-105740593D01*
X141809826Y-105672913D01*
X141687446Y-105500389D01*
X141548460Y-105367339D01*
X141538980Y-105358264D01*
X141534650Y-105354119D01*
X141356952Y-105239380D01*
X141293465Y-105213794D01*
X141166332Y-105162558D01*
X141166329Y-105162557D01*
X141160763Y-105160314D01*
X140953163Y-105119772D01*
X140947601Y-105119500D01*
X140091654Y-105119500D01*
X139933934Y-105134548D01*
X139730966Y-105194092D01*
X139725639Y-105196836D01*
X139725638Y-105196836D01*
X139630192Y-105245994D01*
X139560473Y-105259403D01*
X139494573Y-105232990D01*
X139453414Y-105175141D01*
X139446500Y-105133978D01*
X139446500Y-96023824D01*
X139466502Y-95955703D01*
X139520158Y-95909210D01*
X139590432Y-95899106D01*
X139655012Y-95928600D01*
X139692333Y-95984888D01*
X139739829Y-96131064D01*
X139742206Y-96138381D01*
X139743893Y-96141967D01*
X139743895Y-96141971D01*
X139782798Y-96224643D01*
X139871242Y-96412598D01*
X140033630Y-96668480D01*
X140036149Y-96671525D01*
X140036152Y-96671529D01*
X140071473Y-96714224D01*
X140226808Y-96901992D01*
X140447729Y-97109450D01*
X140692910Y-97287584D01*
X140696379Y-97289491D01*
X140696382Y-97289493D01*
X140896585Y-97399556D01*
X140958483Y-97433585D01*
X140962152Y-97435038D01*
X140962157Y-97435040D01*
X141231257Y-97541584D01*
X141240261Y-97545149D01*
X141533800Y-97620516D01*
X141834470Y-97658500D01*
X142137530Y-97658500D01*
X142438200Y-97620516D01*
X142731739Y-97545149D01*
X142740743Y-97541584D01*
X143009843Y-97435040D01*
X143009848Y-97435038D01*
X143013517Y-97433585D01*
X143075415Y-97399556D01*
X143275618Y-97289493D01*
X143275621Y-97289491D01*
X143279090Y-97287584D01*
X143524271Y-97109450D01*
X143745192Y-96901992D01*
X143900527Y-96714224D01*
X143935848Y-96671529D01*
X143935851Y-96671525D01*
X143938370Y-96668480D01*
X144100758Y-96412598D01*
X144189202Y-96224643D01*
X144228105Y-96141971D01*
X144228107Y-96141967D01*
X144229794Y-96138381D01*
X144232172Y-96131064D01*
X144322218Y-95853930D01*
X144323445Y-95850154D01*
X144380233Y-95552462D01*
X144399262Y-95250000D01*
X144380233Y-94947538D01*
X144323445Y-94649846D01*
X144229794Y-94361619D01*
X144183831Y-94263941D01*
X144165326Y-94224617D01*
X144100758Y-94087402D01*
X144065492Y-94031831D01*
X143979186Y-93895836D01*
X143938370Y-93831520D01*
X143923914Y-93814045D01*
X143849691Y-93724326D01*
X143745192Y-93598008D01*
X143541321Y-93406561D01*
X143527158Y-93393261D01*
X143527157Y-93393261D01*
X143524271Y-93390550D01*
X143507521Y-93378380D01*
X143427738Y-93320415D01*
X143279090Y-93212416D01*
X143275249Y-93210304D01*
X143016986Y-93068322D01*
X143016985Y-93068321D01*
X143013517Y-93066415D01*
X143009848Y-93064962D01*
X143009843Y-93064960D01*
X142731739Y-92954851D01*
X142732077Y-92953996D01*
X142676890Y-92916258D01*
X142649254Y-92850861D01*
X142661361Y-92780905D01*
X142709368Y-92728599D01*
X142774433Y-92710500D01*
X148632718Y-92710500D01*
X148700839Y-92730502D01*
G37*
G04 #@! TD.AperFunction*
M02*
